G04 #@! TF.FileFunction,Other,Fab,Bot*
%FSLAX46Y46*%
G04 Gerber Fmt 4.6, Leading zero omitted, Abs format (unit mm)*
G04 Created by KiCad (PCBNEW 4.0.6) date Wednesday, September 13, 2017 'PMt' 07:39:43 PM*
%MOMM*%
%LPD*%
G01*
G04 APERTURE LIST*
%ADD10C,0.100000*%
%ADD11C,0.150000*%
%ADD12C,0.105000*%
G04 APERTURE END LIST*
D10*
X97425000Y-96520000D02*
X92075000Y-96520000D01*
X92075000Y-96520000D02*
X92075000Y-106680000D01*
X92075000Y-106680000D02*
X98425000Y-106680000D01*
X98425000Y-106680000D02*
X98425000Y-97520000D01*
X98425000Y-97520000D02*
X97425000Y-96520000D01*
X133750000Y-64770000D02*
X133150000Y-64370000D01*
X133150000Y-64370000D02*
X133150000Y-65170000D01*
X133150000Y-65170000D02*
X133750000Y-64770000D01*
X133800000Y-64370000D02*
X133800000Y-65170000D01*
X134950000Y-65570000D02*
X134950000Y-63970000D01*
X131750000Y-65570000D02*
X134950000Y-65570000D01*
X131750000Y-63970000D02*
X131750000Y-65570000D01*
X134950000Y-63970000D02*
X131750000Y-63970000D01*
X51035000Y-95250000D02*
X51635000Y-95650000D01*
X51635000Y-95650000D02*
X51635000Y-94850000D01*
X51635000Y-94850000D02*
X51035000Y-95250000D01*
X50985000Y-95650000D02*
X50985000Y-94850000D01*
X49835000Y-94450000D02*
X49835000Y-96050000D01*
X53035000Y-94450000D02*
X49835000Y-94450000D01*
X53035000Y-96050000D02*
X53035000Y-94450000D01*
X49835000Y-96050000D02*
X53035000Y-96050000D01*
X139935000Y-127762000D02*
X140535000Y-128162000D01*
X140535000Y-128162000D02*
X140535000Y-127362000D01*
X140535000Y-127362000D02*
X139935000Y-127762000D01*
X139885000Y-128162000D02*
X139885000Y-127362000D01*
X138735000Y-126962000D02*
X138735000Y-128562000D01*
X141935000Y-126962000D02*
X138735000Y-126962000D01*
X141935000Y-128562000D02*
X141935000Y-126962000D01*
X138735000Y-128562000D02*
X141935000Y-128562000D01*
X116332000Y-165989000D02*
X122682000Y-165989000D01*
X122682000Y-165989000D02*
X122682000Y-168529000D01*
X122682000Y-168529000D02*
X116332000Y-168529000D01*
X116332000Y-168529000D02*
X116332000Y-165989000D01*
X56750000Y-64770000D02*
X57350000Y-65170000D01*
X57350000Y-65170000D02*
X57350000Y-64370000D01*
X57350000Y-64370000D02*
X56750000Y-64770000D01*
X56700000Y-65170000D02*
X56700000Y-64370000D01*
X55550000Y-63970000D02*
X55550000Y-65570000D01*
X58750000Y-63970000D02*
X55550000Y-63970000D01*
X58750000Y-65570000D02*
X58750000Y-63970000D01*
X55550000Y-65570000D02*
X58750000Y-65570000D01*
X140570000Y-94615000D02*
X141170000Y-95015000D01*
X141170000Y-95015000D02*
X141170000Y-94215000D01*
X141170000Y-94215000D02*
X140570000Y-94615000D01*
X140520000Y-95015000D02*
X140520000Y-94215000D01*
X139370000Y-93815000D02*
X139370000Y-95415000D01*
X142570000Y-93815000D02*
X139370000Y-93815000D01*
X142570000Y-95415000D02*
X142570000Y-93815000D01*
X139370000Y-95415000D02*
X142570000Y-95415000D01*
X49765000Y-128270000D02*
X50365000Y-128670000D01*
X50365000Y-128670000D02*
X50365000Y-127870000D01*
X50365000Y-127870000D02*
X49765000Y-128270000D01*
X49715000Y-128670000D02*
X49715000Y-127870000D01*
X48565000Y-127470000D02*
X48565000Y-129070000D01*
X51765000Y-127470000D02*
X48565000Y-127470000D01*
X51765000Y-129070000D02*
X51765000Y-127470000D01*
X48565000Y-129070000D02*
X51765000Y-129070000D01*
X122885000Y-56680000D02*
X122885000Y-55080000D01*
X119685000Y-56680000D02*
X122885000Y-56680000D01*
X119685000Y-55080000D02*
X119685000Y-56680000D01*
X122885000Y-55080000D02*
X119685000Y-55080000D01*
X61265000Y-88100000D02*
X61265000Y-89700000D01*
X64465000Y-88100000D02*
X61265000Y-88100000D01*
X64465000Y-89700000D02*
X64465000Y-88100000D01*
X61265000Y-89700000D02*
X64465000Y-89700000D01*
X131267000Y-122466000D02*
X131267000Y-120866000D01*
X128067000Y-122466000D02*
X131267000Y-122466000D01*
X128067000Y-120866000D02*
X128067000Y-122466000D01*
X131267000Y-120866000D02*
X128067000Y-120866000D01*
X66980000Y-55461000D02*
X66980000Y-57061000D01*
X70180000Y-55461000D02*
X66980000Y-55461000D01*
X70180000Y-57061000D02*
X70180000Y-55461000D01*
X66980000Y-57061000D02*
X70180000Y-57061000D01*
X131140000Y-89065000D02*
X131140000Y-87465000D01*
X127940000Y-89065000D02*
X131140000Y-89065000D01*
X127940000Y-87465000D02*
X127940000Y-89065000D01*
X131140000Y-87465000D02*
X127940000Y-87465000D01*
X59995000Y-121120000D02*
X59995000Y-122720000D01*
X63195000Y-121120000D02*
X59995000Y-121120000D01*
X63195000Y-122720000D02*
X63195000Y-121120000D01*
X59995000Y-122720000D02*
X63195000Y-122720000D01*
X93650000Y-30950000D02*
X93650000Y-32550000D01*
X96850000Y-30950000D02*
X93650000Y-30950000D01*
X96850000Y-32550000D02*
X96850000Y-30950000D01*
X93650000Y-32550000D02*
X96850000Y-32550000D01*
X94850000Y-25146000D02*
X95450000Y-25546000D01*
X95450000Y-25546000D02*
X95450000Y-24746000D01*
X95450000Y-24746000D02*
X94850000Y-25146000D01*
X94800000Y-25546000D02*
X94800000Y-24746000D01*
X93650000Y-24346000D02*
X93650000Y-25946000D01*
X96850000Y-24346000D02*
X93650000Y-24346000D01*
X96850000Y-25946000D02*
X96850000Y-24346000D01*
X93650000Y-25946000D02*
X96850000Y-25946000D01*
D11*
X103559524Y-102052381D02*
X103559524Y-101052381D01*
X103321429Y-101052381D01*
X103178571Y-101100000D01*
X103083333Y-101195238D01*
X103035714Y-101290476D01*
X102988095Y-101480952D01*
X102988095Y-101623810D01*
X103035714Y-101814286D01*
X103083333Y-101909524D01*
X103178571Y-102004762D01*
X103321429Y-102052381D01*
X103559524Y-102052381D01*
X102559524Y-102052381D02*
X102559524Y-101052381D01*
X102130953Y-102004762D02*
X101988096Y-102052381D01*
X101750000Y-102052381D01*
X101654762Y-102004762D01*
X101607143Y-101957143D01*
X101559524Y-101861905D01*
X101559524Y-101766667D01*
X101607143Y-101671429D01*
X101654762Y-101623810D01*
X101750000Y-101576190D01*
X101940477Y-101528571D01*
X102035715Y-101480952D01*
X102083334Y-101433333D01*
X102130953Y-101338095D01*
X102130953Y-101242857D01*
X102083334Y-101147619D01*
X102035715Y-101100000D01*
X101940477Y-101052381D01*
X101702381Y-101052381D01*
X101559524Y-101100000D01*
X101130953Y-102052381D02*
X101130953Y-101052381D01*
X100750000Y-101052381D01*
X100654762Y-101100000D01*
X100607143Y-101147619D01*
X100559524Y-101242857D01*
X100559524Y-101385714D01*
X100607143Y-101480952D01*
X100654762Y-101528571D01*
X100750000Y-101576190D01*
X101130953Y-101576190D01*
X99654762Y-102052381D02*
X100130953Y-102052381D01*
X100130953Y-101052381D01*
X99369048Y-101766667D02*
X98892857Y-101766667D01*
X99464286Y-102052381D02*
X99130953Y-101052381D01*
X98797619Y-102052381D01*
X98273810Y-101576190D02*
X98273810Y-102052381D01*
X98607143Y-101052381D02*
X98273810Y-101576190D01*
X97940476Y-101052381D01*
X97845238Y-102147619D02*
X97083333Y-102147619D01*
X96273809Y-101957143D02*
X96321428Y-102004762D01*
X96464285Y-102052381D01*
X96559523Y-102052381D01*
X96702381Y-102004762D01*
X96797619Y-101909524D01*
X96845238Y-101814286D01*
X96892857Y-101623810D01*
X96892857Y-101480952D01*
X96845238Y-101290476D01*
X96797619Y-101195238D01*
X96702381Y-101100000D01*
X96559523Y-101052381D01*
X96464285Y-101052381D01*
X96321428Y-101100000D01*
X96273809Y-101147619D01*
X95654762Y-101052381D02*
X95464285Y-101052381D01*
X95369047Y-101100000D01*
X95273809Y-101195238D01*
X95226190Y-101385714D01*
X95226190Y-101719048D01*
X95273809Y-101909524D01*
X95369047Y-102004762D01*
X95464285Y-102052381D01*
X95654762Y-102052381D01*
X95750000Y-102004762D01*
X95845238Y-101909524D01*
X95892857Y-101719048D01*
X95892857Y-101385714D01*
X95845238Y-101195238D01*
X95750000Y-101100000D01*
X95654762Y-101052381D01*
X94797619Y-102052381D02*
X94797619Y-101052381D01*
X94226190Y-102052381D01*
X94226190Y-101052381D01*
X93892857Y-101052381D02*
X93321428Y-101052381D01*
X93607143Y-102052381D02*
X93607143Y-101052381D01*
X92416666Y-102052381D02*
X92750000Y-101576190D01*
X92988095Y-102052381D02*
X92988095Y-101052381D01*
X92607142Y-101052381D01*
X92511904Y-101100000D01*
X92464285Y-101147619D01*
X92416666Y-101242857D01*
X92416666Y-101385714D01*
X92464285Y-101480952D01*
X92511904Y-101528571D01*
X92607142Y-101576190D01*
X92988095Y-101576190D01*
X91797619Y-101052381D02*
X91607142Y-101052381D01*
X91511904Y-101100000D01*
X91416666Y-101195238D01*
X91369047Y-101385714D01*
X91369047Y-101719048D01*
X91416666Y-101909524D01*
X91511904Y-102004762D01*
X91607142Y-102052381D01*
X91797619Y-102052381D01*
X91892857Y-102004762D01*
X91988095Y-101909524D01*
X92035714Y-101719048D01*
X92035714Y-101385714D01*
X91988095Y-101195238D01*
X91892857Y-101100000D01*
X91797619Y-101052381D01*
X90464285Y-102052381D02*
X90940476Y-102052381D01*
X90940476Y-101052381D01*
X89654761Y-102052381D02*
X90130952Y-102052381D01*
X90130952Y-101052381D01*
X89321428Y-101528571D02*
X88988094Y-101528571D01*
X88845237Y-102052381D02*
X89321428Y-102052381D01*
X89321428Y-101052381D01*
X88845237Y-101052381D01*
X87845237Y-102052381D02*
X88178571Y-101576190D01*
X88416666Y-102052381D02*
X88416666Y-101052381D01*
X88035713Y-101052381D01*
X87940475Y-101100000D01*
X87892856Y-101147619D01*
X87845237Y-101242857D01*
X87845237Y-101385714D01*
X87892856Y-101480952D01*
X87940475Y-101528571D01*
X88035713Y-101576190D01*
X88416666Y-101576190D01*
X86892856Y-102052381D02*
X87464285Y-102052381D01*
X87178571Y-102052381D02*
X87178571Y-101052381D01*
X87273809Y-101195238D01*
X87369047Y-101290476D01*
X87464285Y-101338095D01*
X133992857Y-67122381D02*
X134469048Y-67122381D01*
X134469048Y-66122381D01*
X133659524Y-66598571D02*
X133326190Y-66598571D01*
X133183333Y-67122381D02*
X133659524Y-67122381D01*
X133659524Y-66122381D01*
X133183333Y-66122381D01*
X132754762Y-67122381D02*
X132754762Y-66122381D01*
X132516667Y-66122381D01*
X132373809Y-66170000D01*
X132278571Y-66265238D01*
X132230952Y-66360476D01*
X132183333Y-66550952D01*
X132183333Y-66693810D01*
X132230952Y-66884286D01*
X132278571Y-66979524D01*
X132373809Y-67074762D01*
X132516667Y-67122381D01*
X132754762Y-67122381D01*
X52077857Y-93802381D02*
X52554048Y-93802381D01*
X52554048Y-92802381D01*
X51744524Y-93278571D02*
X51411190Y-93278571D01*
X51268333Y-93802381D02*
X51744524Y-93802381D01*
X51744524Y-92802381D01*
X51268333Y-92802381D01*
X50839762Y-93802381D02*
X50839762Y-92802381D01*
X50601667Y-92802381D01*
X50458809Y-92850000D01*
X50363571Y-92945238D01*
X50315952Y-93040476D01*
X50268333Y-93230952D01*
X50268333Y-93373810D01*
X50315952Y-93564286D01*
X50363571Y-93659524D01*
X50458809Y-93754762D01*
X50601667Y-93802381D01*
X50839762Y-93802381D01*
X140977857Y-126314381D02*
X141454048Y-126314381D01*
X141454048Y-125314381D01*
X140644524Y-125790571D02*
X140311190Y-125790571D01*
X140168333Y-126314381D02*
X140644524Y-126314381D01*
X140644524Y-125314381D01*
X140168333Y-125314381D01*
X139739762Y-126314381D02*
X139739762Y-125314381D01*
X139501667Y-125314381D01*
X139358809Y-125362000D01*
X139263571Y-125457238D01*
X139215952Y-125552476D01*
X139168333Y-125742952D01*
X139168333Y-125885810D01*
X139215952Y-126076286D01*
X139263571Y-126171524D01*
X139358809Y-126266762D01*
X139501667Y-126314381D01*
X139739762Y-126314381D01*
X124099143Y-163235191D02*
X124146762Y-163187572D01*
X124194381Y-163044715D01*
X124194381Y-162949477D01*
X124146762Y-162806619D01*
X124051524Y-162711381D01*
X123956286Y-162663762D01*
X123765810Y-162616143D01*
X123622952Y-162616143D01*
X123432476Y-162663762D01*
X123337238Y-162711381D01*
X123242000Y-162806619D01*
X123194381Y-162949477D01*
X123194381Y-163044715D01*
X123242000Y-163187572D01*
X123289619Y-163235191D01*
X123194381Y-163854238D02*
X123194381Y-164044715D01*
X123242000Y-164139953D01*
X123337238Y-164235191D01*
X123527714Y-164282810D01*
X123861048Y-164282810D01*
X124051524Y-164235191D01*
X124146762Y-164139953D01*
X124194381Y-164044715D01*
X124194381Y-163854238D01*
X124146762Y-163759000D01*
X124051524Y-163663762D01*
X123861048Y-163616143D01*
X123527714Y-163616143D01*
X123337238Y-163663762D01*
X123242000Y-163759000D01*
X123194381Y-163854238D01*
X124194381Y-164711381D02*
X123194381Y-164711381D01*
X124194381Y-165282810D01*
X123194381Y-165282810D01*
X124194381Y-165759000D02*
X123194381Y-165759000D01*
X124194381Y-166330429D01*
X123194381Y-166330429D01*
X124289619Y-166568524D02*
X124289619Y-167330429D01*
X123194381Y-167759000D02*
X123194381Y-167854239D01*
X123242000Y-167949477D01*
X123289619Y-167997096D01*
X123384857Y-168044715D01*
X123575333Y-168092334D01*
X123813429Y-168092334D01*
X124003905Y-168044715D01*
X124099143Y-167997096D01*
X124146762Y-167949477D01*
X124194381Y-167854239D01*
X124194381Y-167759000D01*
X124146762Y-167663762D01*
X124099143Y-167616143D01*
X124003905Y-167568524D01*
X123813429Y-167520905D01*
X123575333Y-167520905D01*
X123384857Y-167568524D01*
X123289619Y-167616143D01*
X123242000Y-167663762D01*
X123194381Y-167759000D01*
X124194381Y-169044715D02*
X124194381Y-168473286D01*
X124194381Y-168759000D02*
X123194381Y-168759000D01*
X123337238Y-168663762D01*
X123432476Y-168568524D01*
X123480095Y-168473286D01*
X123194381Y-169378048D02*
X124194381Y-170044715D01*
X123194381Y-170044715D02*
X124194381Y-169378048D01*
X123194381Y-170616143D02*
X123194381Y-170711382D01*
X123242000Y-170806620D01*
X123289619Y-170854239D01*
X123384857Y-170901858D01*
X123575333Y-170949477D01*
X123813429Y-170949477D01*
X124003905Y-170901858D01*
X124099143Y-170854239D01*
X124146762Y-170806620D01*
X124194381Y-170711382D01*
X124194381Y-170616143D01*
X124146762Y-170520905D01*
X124099143Y-170473286D01*
X124003905Y-170425667D01*
X123813429Y-170378048D01*
X123575333Y-170378048D01*
X123384857Y-170425667D01*
X123289619Y-170473286D01*
X123242000Y-170520905D01*
X123194381Y-170616143D01*
X123194381Y-171854239D02*
X123194381Y-171378048D01*
X123670571Y-171330429D01*
X123622952Y-171378048D01*
X123575333Y-171473286D01*
X123575333Y-171711382D01*
X123622952Y-171806620D01*
X123670571Y-171854239D01*
X123765810Y-171901858D01*
X124003905Y-171901858D01*
X124099143Y-171854239D01*
X124146762Y-171806620D01*
X124194381Y-171711382D01*
X124194381Y-171473286D01*
X124146762Y-171378048D01*
X124099143Y-171330429D01*
X114724381Y-166925667D02*
X115438667Y-166925667D01*
X115581524Y-166878047D01*
X115676762Y-166782809D01*
X115724381Y-166639952D01*
X115724381Y-166544714D01*
X115724381Y-167925667D02*
X115724381Y-167354238D01*
X115724381Y-167639952D02*
X114724381Y-167639952D01*
X114867238Y-167544714D01*
X114962476Y-167449476D01*
X115010095Y-167354238D01*
X57792857Y-63322381D02*
X58269048Y-63322381D01*
X58269048Y-62322381D01*
X57459524Y-62798571D02*
X57126190Y-62798571D01*
X56983333Y-63322381D02*
X57459524Y-63322381D01*
X57459524Y-62322381D01*
X56983333Y-62322381D01*
X56554762Y-63322381D02*
X56554762Y-62322381D01*
X56316667Y-62322381D01*
X56173809Y-62370000D01*
X56078571Y-62465238D01*
X56030952Y-62560476D01*
X55983333Y-62750952D01*
X55983333Y-62893810D01*
X56030952Y-63084286D01*
X56078571Y-63179524D01*
X56173809Y-63274762D01*
X56316667Y-63322381D01*
X56554762Y-63322381D01*
X141612857Y-93167381D02*
X142089048Y-93167381D01*
X142089048Y-92167381D01*
X141279524Y-92643571D02*
X140946190Y-92643571D01*
X140803333Y-93167381D02*
X141279524Y-93167381D01*
X141279524Y-92167381D01*
X140803333Y-92167381D01*
X140374762Y-93167381D02*
X140374762Y-92167381D01*
X140136667Y-92167381D01*
X139993809Y-92215000D01*
X139898571Y-92310238D01*
X139850952Y-92405476D01*
X139803333Y-92595952D01*
X139803333Y-92738810D01*
X139850952Y-92929286D01*
X139898571Y-93024524D01*
X139993809Y-93119762D01*
X140136667Y-93167381D01*
X140374762Y-93167381D01*
X50807857Y-126822381D02*
X51284048Y-126822381D01*
X51284048Y-125822381D01*
X50474524Y-126298571D02*
X50141190Y-126298571D01*
X49998333Y-126822381D02*
X50474524Y-126822381D01*
X50474524Y-125822381D01*
X49998333Y-125822381D01*
X49569762Y-126822381D02*
X49569762Y-125822381D01*
X49331667Y-125822381D01*
X49188809Y-125870000D01*
X49093571Y-125965238D01*
X49045952Y-126060476D01*
X48998333Y-126250952D01*
X48998333Y-126393810D01*
X49045952Y-126584286D01*
X49093571Y-126679524D01*
X49188809Y-126774762D01*
X49331667Y-126822381D01*
X49569762Y-126822381D01*
X122523095Y-58232381D02*
X122332619Y-58232381D01*
X122237380Y-58184762D01*
X122189761Y-58137143D01*
X122094523Y-57994286D01*
X122046904Y-57803810D01*
X122046904Y-57422857D01*
X122094523Y-57327619D01*
X122142142Y-57280000D01*
X122237380Y-57232381D01*
X122427857Y-57232381D01*
X122523095Y-57280000D01*
X122570714Y-57327619D01*
X122618333Y-57422857D01*
X122618333Y-57660952D01*
X122570714Y-57756190D01*
X122523095Y-57803810D01*
X122427857Y-57851429D01*
X122237380Y-57851429D01*
X122142142Y-57803810D01*
X122094523Y-57756190D01*
X122046904Y-57660952D01*
X121142142Y-57232381D02*
X121618333Y-57232381D01*
X121665952Y-57708571D01*
X121618333Y-57660952D01*
X121523095Y-57613333D01*
X121284999Y-57613333D01*
X121189761Y-57660952D01*
X121142142Y-57708571D01*
X121094523Y-57803810D01*
X121094523Y-58041905D01*
X121142142Y-58137143D01*
X121189761Y-58184762D01*
X121284999Y-58232381D01*
X121523095Y-58232381D01*
X121618333Y-58184762D01*
X121665952Y-58137143D01*
X120713571Y-58232381D02*
X120475476Y-58232381D01*
X120475476Y-58041905D01*
X120570714Y-57994286D01*
X120665952Y-57899048D01*
X120713571Y-57756190D01*
X120713571Y-57518095D01*
X120665952Y-57375238D01*
X120570714Y-57280000D01*
X120427857Y-57232381D01*
X120237380Y-57232381D01*
X120094523Y-57280000D01*
X119999285Y-57375238D01*
X119951666Y-57518095D01*
X119951666Y-57756190D01*
X119999285Y-57899048D01*
X120094523Y-57994286D01*
X120189761Y-58041905D01*
X120189761Y-58232381D01*
X119951666Y-58232381D01*
D12*
X123368332Y-56196667D02*
X123601666Y-55863333D01*
X123768332Y-56196667D02*
X123768332Y-55496667D01*
X123501666Y-55496667D01*
X123434999Y-55530000D01*
X123401666Y-55563333D01*
X123368332Y-55630000D01*
X123368332Y-55730000D01*
X123401666Y-55796667D01*
X123434999Y-55830000D01*
X123501666Y-55863333D01*
X123768332Y-55863333D01*
X123234999Y-56263333D02*
X122701666Y-56263333D01*
X122168333Y-55530000D02*
X122234999Y-55496667D01*
X122334999Y-55496667D01*
X122434999Y-55530000D01*
X122501666Y-55596667D01*
X122534999Y-55663333D01*
X122568333Y-55796667D01*
X122568333Y-55896667D01*
X122534999Y-56030000D01*
X122501666Y-56096667D01*
X122434999Y-56163333D01*
X122334999Y-56196667D01*
X122268333Y-56196667D01*
X122168333Y-56163333D01*
X122134999Y-56130000D01*
X122134999Y-55896667D01*
X122268333Y-55896667D01*
X121434999Y-56196667D02*
X121668333Y-55863333D01*
X121834999Y-56196667D02*
X121834999Y-55496667D01*
X121568333Y-55496667D01*
X121501666Y-55530000D01*
X121468333Y-55563333D01*
X121434999Y-55630000D01*
X121434999Y-55730000D01*
X121468333Y-55796667D01*
X121501666Y-55830000D01*
X121568333Y-55863333D01*
X121834999Y-55863333D01*
X121134999Y-55830000D02*
X120901666Y-55830000D01*
X120801666Y-56196667D02*
X121134999Y-56196667D01*
X121134999Y-55496667D01*
X120801666Y-55496667D01*
X120501666Y-55830000D02*
X120268333Y-55830000D01*
X120168333Y-56196667D02*
X120501666Y-56196667D01*
X120501666Y-55496667D01*
X120168333Y-55496667D01*
X119868333Y-56196667D02*
X119868333Y-55496667D01*
X119468333Y-56196667D01*
X119468333Y-55496667D01*
X118835000Y-55730000D02*
X118835000Y-56196667D01*
X119001667Y-55463333D02*
X119168334Y-55963333D01*
X118735000Y-55963333D01*
D11*
X64103095Y-87452381D02*
X63912619Y-87452381D01*
X63817380Y-87404762D01*
X63769761Y-87357143D01*
X63674523Y-87214286D01*
X63626904Y-87023810D01*
X63626904Y-86642857D01*
X63674523Y-86547619D01*
X63722142Y-86500000D01*
X63817380Y-86452381D01*
X64007857Y-86452381D01*
X64103095Y-86500000D01*
X64150714Y-86547619D01*
X64198333Y-86642857D01*
X64198333Y-86880952D01*
X64150714Y-86976190D01*
X64103095Y-87023810D01*
X64007857Y-87071429D01*
X63817380Y-87071429D01*
X63722142Y-87023810D01*
X63674523Y-86976190D01*
X63626904Y-86880952D01*
X62722142Y-86452381D02*
X63198333Y-86452381D01*
X63245952Y-86928571D01*
X63198333Y-86880952D01*
X63103095Y-86833333D01*
X62864999Y-86833333D01*
X62769761Y-86880952D01*
X62722142Y-86928571D01*
X62674523Y-87023810D01*
X62674523Y-87261905D01*
X62722142Y-87357143D01*
X62769761Y-87404762D01*
X62864999Y-87452381D01*
X63103095Y-87452381D01*
X63198333Y-87404762D01*
X63245952Y-87357143D01*
X62293571Y-87452381D02*
X62055476Y-87452381D01*
X62055476Y-87261905D01*
X62150714Y-87214286D01*
X62245952Y-87119048D01*
X62293571Y-86976190D01*
X62293571Y-86738095D01*
X62245952Y-86595238D01*
X62150714Y-86500000D01*
X62007857Y-86452381D01*
X61817380Y-86452381D01*
X61674523Y-86500000D01*
X61579285Y-86595238D01*
X61531666Y-86738095D01*
X61531666Y-86976190D01*
X61579285Y-87119048D01*
X61674523Y-87214286D01*
X61769761Y-87261905D01*
X61769761Y-87452381D01*
X61531666Y-87452381D01*
D12*
X64948332Y-89216667D02*
X65181666Y-88883333D01*
X65348332Y-89216667D02*
X65348332Y-88516667D01*
X65081666Y-88516667D01*
X65014999Y-88550000D01*
X64981666Y-88583333D01*
X64948332Y-88650000D01*
X64948332Y-88750000D01*
X64981666Y-88816667D01*
X65014999Y-88850000D01*
X65081666Y-88883333D01*
X65348332Y-88883333D01*
X64814999Y-89283333D02*
X64281666Y-89283333D01*
X63748333Y-88550000D02*
X63814999Y-88516667D01*
X63914999Y-88516667D01*
X64014999Y-88550000D01*
X64081666Y-88616667D01*
X64114999Y-88683333D01*
X64148333Y-88816667D01*
X64148333Y-88916667D01*
X64114999Y-89050000D01*
X64081666Y-89116667D01*
X64014999Y-89183333D01*
X63914999Y-89216667D01*
X63848333Y-89216667D01*
X63748333Y-89183333D01*
X63714999Y-89150000D01*
X63714999Y-88916667D01*
X63848333Y-88916667D01*
X63014999Y-89216667D02*
X63248333Y-88883333D01*
X63414999Y-89216667D02*
X63414999Y-88516667D01*
X63148333Y-88516667D01*
X63081666Y-88550000D01*
X63048333Y-88583333D01*
X63014999Y-88650000D01*
X63014999Y-88750000D01*
X63048333Y-88816667D01*
X63081666Y-88850000D01*
X63148333Y-88883333D01*
X63414999Y-88883333D01*
X62714999Y-88850000D02*
X62481666Y-88850000D01*
X62381666Y-89216667D02*
X62714999Y-89216667D01*
X62714999Y-88516667D01*
X62381666Y-88516667D01*
X62081666Y-88850000D02*
X61848333Y-88850000D01*
X61748333Y-89216667D02*
X62081666Y-89216667D01*
X62081666Y-88516667D01*
X61748333Y-88516667D01*
X61448333Y-89216667D02*
X61448333Y-88516667D01*
X61048333Y-89216667D01*
X61048333Y-88516667D01*
X60381667Y-88516667D02*
X60715000Y-88516667D01*
X60748334Y-88850000D01*
X60715000Y-88816667D01*
X60648334Y-88783333D01*
X60481667Y-88783333D01*
X60415000Y-88816667D01*
X60381667Y-88850000D01*
X60348334Y-88916667D01*
X60348334Y-89083333D01*
X60381667Y-89150000D01*
X60415000Y-89183333D01*
X60481667Y-89216667D01*
X60648334Y-89216667D01*
X60715000Y-89183333D01*
X60748334Y-89150000D01*
D11*
X130905095Y-124018381D02*
X130714619Y-124018381D01*
X130619380Y-123970762D01*
X130571761Y-123923143D01*
X130476523Y-123780286D01*
X130428904Y-123589810D01*
X130428904Y-123208857D01*
X130476523Y-123113619D01*
X130524142Y-123066000D01*
X130619380Y-123018381D01*
X130809857Y-123018381D01*
X130905095Y-123066000D01*
X130952714Y-123113619D01*
X131000333Y-123208857D01*
X131000333Y-123446952D01*
X130952714Y-123542190D01*
X130905095Y-123589810D01*
X130809857Y-123637429D01*
X130619380Y-123637429D01*
X130524142Y-123589810D01*
X130476523Y-123542190D01*
X130428904Y-123446952D01*
X129524142Y-123018381D02*
X130000333Y-123018381D01*
X130047952Y-123494571D01*
X130000333Y-123446952D01*
X129905095Y-123399333D01*
X129666999Y-123399333D01*
X129571761Y-123446952D01*
X129524142Y-123494571D01*
X129476523Y-123589810D01*
X129476523Y-123827905D01*
X129524142Y-123923143D01*
X129571761Y-123970762D01*
X129666999Y-124018381D01*
X129905095Y-124018381D01*
X130000333Y-123970762D01*
X130047952Y-123923143D01*
X129095571Y-124018381D02*
X128857476Y-124018381D01*
X128857476Y-123827905D01*
X128952714Y-123780286D01*
X129047952Y-123685048D01*
X129095571Y-123542190D01*
X129095571Y-123304095D01*
X129047952Y-123161238D01*
X128952714Y-123066000D01*
X128809857Y-123018381D01*
X128619380Y-123018381D01*
X128476523Y-123066000D01*
X128381285Y-123161238D01*
X128333666Y-123304095D01*
X128333666Y-123542190D01*
X128381285Y-123685048D01*
X128476523Y-123780286D01*
X128571761Y-123827905D01*
X128571761Y-124018381D01*
X128333666Y-124018381D01*
D12*
X131750332Y-121982667D02*
X131983666Y-121649333D01*
X132150332Y-121982667D02*
X132150332Y-121282667D01*
X131883666Y-121282667D01*
X131816999Y-121316000D01*
X131783666Y-121349333D01*
X131750332Y-121416000D01*
X131750332Y-121516000D01*
X131783666Y-121582667D01*
X131816999Y-121616000D01*
X131883666Y-121649333D01*
X132150332Y-121649333D01*
X131616999Y-122049333D02*
X131083666Y-122049333D01*
X130550333Y-121316000D02*
X130616999Y-121282667D01*
X130716999Y-121282667D01*
X130816999Y-121316000D01*
X130883666Y-121382667D01*
X130916999Y-121449333D01*
X130950333Y-121582667D01*
X130950333Y-121682667D01*
X130916999Y-121816000D01*
X130883666Y-121882667D01*
X130816999Y-121949333D01*
X130716999Y-121982667D01*
X130650333Y-121982667D01*
X130550333Y-121949333D01*
X130516999Y-121916000D01*
X130516999Y-121682667D01*
X130650333Y-121682667D01*
X129816999Y-121982667D02*
X130050333Y-121649333D01*
X130216999Y-121982667D02*
X130216999Y-121282667D01*
X129950333Y-121282667D01*
X129883666Y-121316000D01*
X129850333Y-121349333D01*
X129816999Y-121416000D01*
X129816999Y-121516000D01*
X129850333Y-121582667D01*
X129883666Y-121616000D01*
X129950333Y-121649333D01*
X130216999Y-121649333D01*
X129516999Y-121616000D02*
X129283666Y-121616000D01*
X129183666Y-121982667D02*
X129516999Y-121982667D01*
X129516999Y-121282667D01*
X129183666Y-121282667D01*
X128883666Y-121616000D02*
X128650333Y-121616000D01*
X128550333Y-121982667D02*
X128883666Y-121982667D01*
X128883666Y-121282667D01*
X128550333Y-121282667D01*
X128250333Y-121982667D02*
X128250333Y-121282667D01*
X127850333Y-121982667D01*
X127850333Y-121282667D01*
X127217000Y-121282667D02*
X127350334Y-121282667D01*
X127417000Y-121316000D01*
X127450334Y-121349333D01*
X127517000Y-121449333D01*
X127550334Y-121582667D01*
X127550334Y-121849333D01*
X127517000Y-121916000D01*
X127483667Y-121949333D01*
X127417000Y-121982667D01*
X127283667Y-121982667D01*
X127217000Y-121949333D01*
X127183667Y-121916000D01*
X127150334Y-121849333D01*
X127150334Y-121682667D01*
X127183667Y-121616000D01*
X127217000Y-121582667D01*
X127283667Y-121549333D01*
X127417000Y-121549333D01*
X127483667Y-121582667D01*
X127517000Y-121616000D01*
X127550334Y-121682667D01*
D11*
X69818095Y-54813381D02*
X70389524Y-54813381D01*
X70103810Y-54813381D02*
X70103810Y-53813381D01*
X70199048Y-53956238D01*
X70294286Y-54051476D01*
X70389524Y-54099095D01*
X68913333Y-53813381D02*
X69389524Y-53813381D01*
X69437143Y-54289571D01*
X69389524Y-54241952D01*
X69294286Y-54194333D01*
X69056190Y-54194333D01*
X68960952Y-54241952D01*
X68913333Y-54289571D01*
X68865714Y-54384810D01*
X68865714Y-54622905D01*
X68913333Y-54718143D01*
X68960952Y-54765762D01*
X69056190Y-54813381D01*
X69294286Y-54813381D01*
X69389524Y-54765762D01*
X69437143Y-54718143D01*
X68246667Y-53813381D02*
X68151428Y-53813381D01*
X68056190Y-53861000D01*
X68008571Y-53908619D01*
X67960952Y-54003857D01*
X67913333Y-54194333D01*
X67913333Y-54432429D01*
X67960952Y-54622905D01*
X68008571Y-54718143D01*
X68056190Y-54765762D01*
X68151428Y-54813381D01*
X68246667Y-54813381D01*
X68341905Y-54765762D01*
X68389524Y-54718143D01*
X68437143Y-54622905D01*
X68484762Y-54432429D01*
X68484762Y-54194333D01*
X68437143Y-54003857D01*
X68389524Y-53908619D01*
X68341905Y-53861000D01*
X68246667Y-53813381D01*
X67532381Y-54813381D02*
X67294286Y-54813381D01*
X67294286Y-54622905D01*
X67389524Y-54575286D01*
X67484762Y-54480048D01*
X67532381Y-54337190D01*
X67532381Y-54099095D01*
X67484762Y-53956238D01*
X67389524Y-53861000D01*
X67246667Y-53813381D01*
X67056190Y-53813381D01*
X66913333Y-53861000D01*
X66818095Y-53956238D01*
X66770476Y-54099095D01*
X66770476Y-54337190D01*
X66818095Y-54480048D01*
X66913333Y-54575286D01*
X67008571Y-54622905D01*
X67008571Y-54813381D01*
X66770476Y-54813381D01*
D12*
X69979999Y-56577667D02*
X70213333Y-56244333D01*
X70379999Y-56577667D02*
X70379999Y-55877667D01*
X70113333Y-55877667D01*
X70046666Y-55911000D01*
X70013333Y-55944333D01*
X69979999Y-56011000D01*
X69979999Y-56111000D01*
X70013333Y-56177667D01*
X70046666Y-56211000D01*
X70113333Y-56244333D01*
X70379999Y-56244333D01*
X69846666Y-56644333D02*
X69313333Y-56644333D01*
X68746666Y-56577667D02*
X68980000Y-56244333D01*
X69146666Y-56577667D02*
X69146666Y-55877667D01*
X68880000Y-55877667D01*
X68813333Y-55911000D01*
X68780000Y-55944333D01*
X68746666Y-56011000D01*
X68746666Y-56111000D01*
X68780000Y-56177667D01*
X68813333Y-56211000D01*
X68880000Y-56244333D01*
X69146666Y-56244333D01*
X68446666Y-56211000D02*
X68213333Y-56211000D01*
X68113333Y-56577667D02*
X68446666Y-56577667D01*
X68446666Y-55877667D01*
X68113333Y-55877667D01*
X67813333Y-56577667D02*
X67813333Y-55877667D01*
X67646667Y-55877667D01*
X67546667Y-55911000D01*
X67480000Y-55977667D01*
X67446667Y-56044333D01*
X67413333Y-56177667D01*
X67413333Y-56277667D01*
X67446667Y-56411000D01*
X67480000Y-56477667D01*
X67546667Y-56544333D01*
X67646667Y-56577667D01*
X67813333Y-56577667D01*
X66813333Y-56111000D02*
X66813333Y-56577667D01*
X66980000Y-55844333D02*
X67146667Y-56344333D01*
X66713333Y-56344333D01*
D11*
X130778095Y-90617381D02*
X131349524Y-90617381D01*
X131063810Y-90617381D02*
X131063810Y-89617381D01*
X131159048Y-89760238D01*
X131254286Y-89855476D01*
X131349524Y-89903095D01*
X129873333Y-89617381D02*
X130349524Y-89617381D01*
X130397143Y-90093571D01*
X130349524Y-90045952D01*
X130254286Y-89998333D01*
X130016190Y-89998333D01*
X129920952Y-90045952D01*
X129873333Y-90093571D01*
X129825714Y-90188810D01*
X129825714Y-90426905D01*
X129873333Y-90522143D01*
X129920952Y-90569762D01*
X130016190Y-90617381D01*
X130254286Y-90617381D01*
X130349524Y-90569762D01*
X130397143Y-90522143D01*
X129206667Y-89617381D02*
X129111428Y-89617381D01*
X129016190Y-89665000D01*
X128968571Y-89712619D01*
X128920952Y-89807857D01*
X128873333Y-89998333D01*
X128873333Y-90236429D01*
X128920952Y-90426905D01*
X128968571Y-90522143D01*
X129016190Y-90569762D01*
X129111428Y-90617381D01*
X129206667Y-90617381D01*
X129301905Y-90569762D01*
X129349524Y-90522143D01*
X129397143Y-90426905D01*
X129444762Y-90236429D01*
X129444762Y-89998333D01*
X129397143Y-89807857D01*
X129349524Y-89712619D01*
X129301905Y-89665000D01*
X129206667Y-89617381D01*
X128492381Y-90617381D02*
X128254286Y-90617381D01*
X128254286Y-90426905D01*
X128349524Y-90379286D01*
X128444762Y-90284048D01*
X128492381Y-90141190D01*
X128492381Y-89903095D01*
X128444762Y-89760238D01*
X128349524Y-89665000D01*
X128206667Y-89617381D01*
X128016190Y-89617381D01*
X127873333Y-89665000D01*
X127778095Y-89760238D01*
X127730476Y-89903095D01*
X127730476Y-90141190D01*
X127778095Y-90284048D01*
X127873333Y-90379286D01*
X127968571Y-90426905D01*
X127968571Y-90617381D01*
X127730476Y-90617381D01*
D12*
X130939999Y-88581667D02*
X131173333Y-88248333D01*
X131339999Y-88581667D02*
X131339999Y-87881667D01*
X131073333Y-87881667D01*
X131006666Y-87915000D01*
X130973333Y-87948333D01*
X130939999Y-88015000D01*
X130939999Y-88115000D01*
X130973333Y-88181667D01*
X131006666Y-88215000D01*
X131073333Y-88248333D01*
X131339999Y-88248333D01*
X130806666Y-88648333D02*
X130273333Y-88648333D01*
X129706666Y-88581667D02*
X129940000Y-88248333D01*
X130106666Y-88581667D02*
X130106666Y-87881667D01*
X129840000Y-87881667D01*
X129773333Y-87915000D01*
X129740000Y-87948333D01*
X129706666Y-88015000D01*
X129706666Y-88115000D01*
X129740000Y-88181667D01*
X129773333Y-88215000D01*
X129840000Y-88248333D01*
X130106666Y-88248333D01*
X129406666Y-88215000D02*
X129173333Y-88215000D01*
X129073333Y-88581667D02*
X129406666Y-88581667D01*
X129406666Y-87881667D01*
X129073333Y-87881667D01*
X128773333Y-88581667D02*
X128773333Y-87881667D01*
X128606667Y-87881667D01*
X128506667Y-87915000D01*
X128440000Y-87981667D01*
X128406667Y-88048333D01*
X128373333Y-88181667D01*
X128373333Y-88281667D01*
X128406667Y-88415000D01*
X128440000Y-88481667D01*
X128506667Y-88548333D01*
X128606667Y-88581667D01*
X128773333Y-88581667D01*
X127740000Y-87881667D02*
X128073333Y-87881667D01*
X128106667Y-88215000D01*
X128073333Y-88181667D01*
X128006667Y-88148333D01*
X127840000Y-88148333D01*
X127773333Y-88181667D01*
X127740000Y-88215000D01*
X127706667Y-88281667D01*
X127706667Y-88448333D01*
X127740000Y-88515000D01*
X127773333Y-88548333D01*
X127840000Y-88581667D01*
X128006667Y-88581667D01*
X128073333Y-88548333D01*
X128106667Y-88515000D01*
D11*
X62833095Y-120472381D02*
X63404524Y-120472381D01*
X63118810Y-120472381D02*
X63118810Y-119472381D01*
X63214048Y-119615238D01*
X63309286Y-119710476D01*
X63404524Y-119758095D01*
X61928333Y-119472381D02*
X62404524Y-119472381D01*
X62452143Y-119948571D01*
X62404524Y-119900952D01*
X62309286Y-119853333D01*
X62071190Y-119853333D01*
X61975952Y-119900952D01*
X61928333Y-119948571D01*
X61880714Y-120043810D01*
X61880714Y-120281905D01*
X61928333Y-120377143D01*
X61975952Y-120424762D01*
X62071190Y-120472381D01*
X62309286Y-120472381D01*
X62404524Y-120424762D01*
X62452143Y-120377143D01*
X61261667Y-119472381D02*
X61166428Y-119472381D01*
X61071190Y-119520000D01*
X61023571Y-119567619D01*
X60975952Y-119662857D01*
X60928333Y-119853333D01*
X60928333Y-120091429D01*
X60975952Y-120281905D01*
X61023571Y-120377143D01*
X61071190Y-120424762D01*
X61166428Y-120472381D01*
X61261667Y-120472381D01*
X61356905Y-120424762D01*
X61404524Y-120377143D01*
X61452143Y-120281905D01*
X61499762Y-120091429D01*
X61499762Y-119853333D01*
X61452143Y-119662857D01*
X61404524Y-119567619D01*
X61356905Y-119520000D01*
X61261667Y-119472381D01*
X60547381Y-120472381D02*
X60309286Y-120472381D01*
X60309286Y-120281905D01*
X60404524Y-120234286D01*
X60499762Y-120139048D01*
X60547381Y-119996190D01*
X60547381Y-119758095D01*
X60499762Y-119615238D01*
X60404524Y-119520000D01*
X60261667Y-119472381D01*
X60071190Y-119472381D01*
X59928333Y-119520000D01*
X59833095Y-119615238D01*
X59785476Y-119758095D01*
X59785476Y-119996190D01*
X59833095Y-120139048D01*
X59928333Y-120234286D01*
X60023571Y-120281905D01*
X60023571Y-120472381D01*
X59785476Y-120472381D01*
D12*
X62994999Y-122236667D02*
X63228333Y-121903333D01*
X63394999Y-122236667D02*
X63394999Y-121536667D01*
X63128333Y-121536667D01*
X63061666Y-121570000D01*
X63028333Y-121603333D01*
X62994999Y-121670000D01*
X62994999Y-121770000D01*
X63028333Y-121836667D01*
X63061666Y-121870000D01*
X63128333Y-121903333D01*
X63394999Y-121903333D01*
X62861666Y-122303333D02*
X62328333Y-122303333D01*
X61761666Y-122236667D02*
X61995000Y-121903333D01*
X62161666Y-122236667D02*
X62161666Y-121536667D01*
X61895000Y-121536667D01*
X61828333Y-121570000D01*
X61795000Y-121603333D01*
X61761666Y-121670000D01*
X61761666Y-121770000D01*
X61795000Y-121836667D01*
X61828333Y-121870000D01*
X61895000Y-121903333D01*
X62161666Y-121903333D01*
X61461666Y-121870000D02*
X61228333Y-121870000D01*
X61128333Y-122236667D02*
X61461666Y-122236667D01*
X61461666Y-121536667D01*
X61128333Y-121536667D01*
X60828333Y-122236667D02*
X60828333Y-121536667D01*
X60661667Y-121536667D01*
X60561667Y-121570000D01*
X60495000Y-121636667D01*
X60461667Y-121703333D01*
X60428333Y-121836667D01*
X60428333Y-121936667D01*
X60461667Y-122070000D01*
X60495000Y-122136667D01*
X60561667Y-122203333D01*
X60661667Y-122236667D01*
X60828333Y-122236667D01*
X59828333Y-121536667D02*
X59961667Y-121536667D01*
X60028333Y-121570000D01*
X60061667Y-121603333D01*
X60128333Y-121703333D01*
X60161667Y-121836667D01*
X60161667Y-122103333D01*
X60128333Y-122170000D01*
X60095000Y-122203333D01*
X60028333Y-122236667D01*
X59895000Y-122236667D01*
X59828333Y-122203333D01*
X59795000Y-122170000D01*
X59761667Y-122103333D01*
X59761667Y-121936667D01*
X59795000Y-121870000D01*
X59828333Y-121836667D01*
X59895000Y-121803333D01*
X60028333Y-121803333D01*
X60095000Y-121836667D01*
X60128333Y-121870000D01*
X60161667Y-121936667D01*
D11*
X96488095Y-30302381D02*
X97059524Y-30302381D01*
X96773810Y-30302381D02*
X96773810Y-29302381D01*
X96869048Y-29445238D01*
X96964286Y-29540476D01*
X97059524Y-29588095D01*
X95583333Y-29302381D02*
X96059524Y-29302381D01*
X96107143Y-29778571D01*
X96059524Y-29730952D01*
X95964286Y-29683333D01*
X95726190Y-29683333D01*
X95630952Y-29730952D01*
X95583333Y-29778571D01*
X95535714Y-29873810D01*
X95535714Y-30111905D01*
X95583333Y-30207143D01*
X95630952Y-30254762D01*
X95726190Y-30302381D01*
X95964286Y-30302381D01*
X96059524Y-30254762D01*
X96107143Y-30207143D01*
X94916667Y-29302381D02*
X94821428Y-29302381D01*
X94726190Y-29350000D01*
X94678571Y-29397619D01*
X94630952Y-29492857D01*
X94583333Y-29683333D01*
X94583333Y-29921429D01*
X94630952Y-30111905D01*
X94678571Y-30207143D01*
X94726190Y-30254762D01*
X94821428Y-30302381D01*
X94916667Y-30302381D01*
X95011905Y-30254762D01*
X95059524Y-30207143D01*
X95107143Y-30111905D01*
X95154762Y-29921429D01*
X95154762Y-29683333D01*
X95107143Y-29492857D01*
X95059524Y-29397619D01*
X95011905Y-29350000D01*
X94916667Y-29302381D01*
X94202381Y-30302381D02*
X93964286Y-30302381D01*
X93964286Y-30111905D01*
X94059524Y-30064286D01*
X94154762Y-29969048D01*
X94202381Y-29826190D01*
X94202381Y-29588095D01*
X94154762Y-29445238D01*
X94059524Y-29350000D01*
X93916667Y-29302381D01*
X93726190Y-29302381D01*
X93583333Y-29350000D01*
X93488095Y-29445238D01*
X93440476Y-29588095D01*
X93440476Y-29826190D01*
X93488095Y-29969048D01*
X93583333Y-30064286D01*
X93678571Y-30111905D01*
X93678571Y-30302381D01*
X93440476Y-30302381D01*
D12*
X96883333Y-32066667D02*
X97116667Y-31733333D01*
X97283333Y-32066667D02*
X97283333Y-31366667D01*
X97016667Y-31366667D01*
X96950000Y-31400000D01*
X96916667Y-31433333D01*
X96883333Y-31500000D01*
X96883333Y-31600000D01*
X96916667Y-31666667D01*
X96950000Y-31700000D01*
X97016667Y-31733333D01*
X97283333Y-31733333D01*
X96750000Y-32133333D02*
X96216667Y-32133333D01*
X96083334Y-32033333D02*
X95983334Y-32066667D01*
X95816667Y-32066667D01*
X95750000Y-32033333D01*
X95716667Y-32000000D01*
X95683334Y-31933333D01*
X95683334Y-31866667D01*
X95716667Y-31800000D01*
X95750000Y-31766667D01*
X95816667Y-31733333D01*
X95950000Y-31700000D01*
X96016667Y-31666667D01*
X96050000Y-31633333D01*
X96083334Y-31566667D01*
X96083334Y-31500000D01*
X96050000Y-31433333D01*
X96016667Y-31400000D01*
X95950000Y-31366667D01*
X95783334Y-31366667D01*
X95683334Y-31400000D01*
X95483333Y-31366667D02*
X95083333Y-31366667D01*
X95283333Y-32066667D02*
X95283333Y-31366667D01*
X94883334Y-31866667D02*
X94550000Y-31866667D01*
X94950000Y-32066667D02*
X94716667Y-31366667D01*
X94483334Y-32066667D01*
X93850000Y-32066667D02*
X94083334Y-31733333D01*
X94250000Y-32066667D02*
X94250000Y-31366667D01*
X93983334Y-31366667D01*
X93916667Y-31400000D01*
X93883334Y-31433333D01*
X93850000Y-31500000D01*
X93850000Y-31600000D01*
X93883334Y-31666667D01*
X93916667Y-31700000D01*
X93983334Y-31733333D01*
X94250000Y-31733333D01*
X93583334Y-31433333D02*
X93550000Y-31400000D01*
X93483334Y-31366667D01*
X93316667Y-31366667D01*
X93250000Y-31400000D01*
X93216667Y-31433333D01*
X93183334Y-31500000D01*
X93183334Y-31566667D01*
X93216667Y-31666667D01*
X93616667Y-32066667D01*
X93183334Y-32066667D01*
D11*
X95892857Y-23698381D02*
X96369048Y-23698381D01*
X96369048Y-22698381D01*
X95559524Y-23174571D02*
X95226190Y-23174571D01*
X95083333Y-23698381D02*
X95559524Y-23698381D01*
X95559524Y-22698381D01*
X95083333Y-22698381D01*
X94654762Y-23698381D02*
X94654762Y-22698381D01*
X94416667Y-22698381D01*
X94273809Y-22746000D01*
X94178571Y-22841238D01*
X94130952Y-22936476D01*
X94083333Y-23126952D01*
X94083333Y-23269810D01*
X94130952Y-23460286D01*
X94178571Y-23555524D01*
X94273809Y-23650762D01*
X94416667Y-23698381D01*
X94654762Y-23698381D01*
M02*
