G04 #@! TF.FileFunction,Legend,Top*
%FSLAX46Y46*%
G04 Gerber Fmt 4.6, Leading zero omitted, Abs format (unit mm)*
G04 Created by KiCad (PCBNEW 4.0.6) date Saturday, November 11, 2017 'PMt' 03:03:55 PM*
%MOMM*%
%LPD*%
G01*
G04 APERTURE LIST*
%ADD10C,0.100000*%
%ADD11C,0.212500*%
%ADD12C,0.300000*%
%ADD13C,0.120000*%
%ADD14C,0.150000*%
G04 APERTURE END LIST*
D10*
D11*
X58956238Y-181876571D02*
X58915762Y-181917048D01*
X58794333Y-181957524D01*
X58713381Y-181957524D01*
X58591953Y-181917048D01*
X58511000Y-181836095D01*
X58470524Y-181755143D01*
X58430048Y-181593238D01*
X58430048Y-181471810D01*
X58470524Y-181309905D01*
X58511000Y-181228952D01*
X58591953Y-181148000D01*
X58713381Y-181107524D01*
X58794333Y-181107524D01*
X58915762Y-181148000D01*
X58956238Y-181188476D01*
X59441953Y-181957524D02*
X59361000Y-181917048D01*
X59320524Y-181876571D01*
X59280048Y-181795619D01*
X59280048Y-181552762D01*
X59320524Y-181471810D01*
X59361000Y-181431333D01*
X59441953Y-181390857D01*
X59563381Y-181390857D01*
X59644333Y-181431333D01*
X59684810Y-181471810D01*
X59725286Y-181552762D01*
X59725286Y-181795619D01*
X59684810Y-181876571D01*
X59644333Y-181917048D01*
X59563381Y-181957524D01*
X59441953Y-181957524D01*
X60089572Y-181390857D02*
X60089572Y-182240857D01*
X60089572Y-181431333D02*
X60170524Y-181390857D01*
X60332429Y-181390857D01*
X60413381Y-181431333D01*
X60453858Y-181471810D01*
X60494334Y-181552762D01*
X60494334Y-181795619D01*
X60453858Y-181876571D01*
X60413381Y-181917048D01*
X60332429Y-181957524D01*
X60170524Y-181957524D01*
X60089572Y-181917048D01*
X60777668Y-181390857D02*
X60980049Y-181957524D01*
X61182429Y-181390857D02*
X60980049Y-181957524D01*
X60899096Y-182159905D01*
X60858620Y-182200381D01*
X60777668Y-182240857D01*
X61506239Y-181957524D02*
X61506239Y-181390857D01*
X61506239Y-181552762D02*
X61546715Y-181471810D01*
X61587191Y-181431333D01*
X61668144Y-181390857D01*
X61749096Y-181390857D01*
X62032429Y-181957524D02*
X62032429Y-181390857D01*
X62032429Y-181107524D02*
X61991953Y-181148000D01*
X62032429Y-181188476D01*
X62072905Y-181148000D01*
X62032429Y-181107524D01*
X62032429Y-181188476D01*
X62801477Y-181390857D02*
X62801477Y-182078952D01*
X62761000Y-182159905D01*
X62720524Y-182200381D01*
X62639572Y-182240857D01*
X62518143Y-182240857D01*
X62437191Y-182200381D01*
X62801477Y-181917048D02*
X62720524Y-181957524D01*
X62558620Y-181957524D01*
X62477667Y-181917048D01*
X62437191Y-181876571D01*
X62396715Y-181795619D01*
X62396715Y-181552762D01*
X62437191Y-181471810D01*
X62477667Y-181431333D01*
X62558620Y-181390857D01*
X62720524Y-181390857D01*
X62801477Y-181431333D01*
X63206239Y-181957524D02*
X63206239Y-181107524D01*
X63570525Y-181957524D02*
X63570525Y-181512286D01*
X63530048Y-181431333D01*
X63449096Y-181390857D01*
X63327668Y-181390857D01*
X63246715Y-181431333D01*
X63206239Y-181471810D01*
X63853858Y-181390857D02*
X64177668Y-181390857D01*
X63975287Y-181107524D02*
X63975287Y-181836095D01*
X64015763Y-181917048D01*
X64096716Y-181957524D01*
X64177668Y-181957524D01*
X65796715Y-181309905D02*
X65715763Y-181269429D01*
X65553858Y-181269429D01*
X65472906Y-181309905D01*
X65391953Y-181390857D01*
X65351477Y-181471810D01*
X65351477Y-181633714D01*
X65391953Y-181714667D01*
X65472906Y-181795619D01*
X65553858Y-181836095D01*
X65715763Y-181836095D01*
X65796715Y-181795619D01*
X65634810Y-180986095D02*
X65432429Y-181026571D01*
X65230049Y-181148000D01*
X65108620Y-181350381D01*
X65068144Y-181552762D01*
X65108620Y-181755143D01*
X65230049Y-181957524D01*
X65432429Y-182078952D01*
X65634810Y-182119429D01*
X65837191Y-182078952D01*
X66039572Y-181957524D01*
X66161001Y-181755143D01*
X66201477Y-181552762D01*
X66161001Y-181350381D01*
X66039572Y-181148000D01*
X65837191Y-181026571D01*
X65634810Y-180986095D01*
X67172906Y-181188476D02*
X67213382Y-181148000D01*
X67294334Y-181107524D01*
X67496715Y-181107524D01*
X67577668Y-181148000D01*
X67618144Y-181188476D01*
X67658620Y-181269429D01*
X67658620Y-181350381D01*
X67618144Y-181471810D01*
X67132430Y-181957524D01*
X67658620Y-181957524D01*
X68184811Y-181107524D02*
X68265763Y-181107524D01*
X68346715Y-181148000D01*
X68387192Y-181188476D01*
X68427668Y-181269429D01*
X68468144Y-181431333D01*
X68468144Y-181633714D01*
X68427668Y-181795619D01*
X68387192Y-181876571D01*
X68346715Y-181917048D01*
X68265763Y-181957524D01*
X68184811Y-181957524D01*
X68103858Y-181917048D01*
X68063382Y-181876571D01*
X68022906Y-181795619D01*
X67982430Y-181633714D01*
X67982430Y-181431333D01*
X68022906Y-181269429D01*
X68063382Y-181188476D01*
X68103858Y-181148000D01*
X68184811Y-181107524D01*
X69277668Y-181957524D02*
X68791954Y-181957524D01*
X69034811Y-181957524D02*
X69034811Y-181107524D01*
X68953859Y-181228952D01*
X68872906Y-181309905D01*
X68791954Y-181350381D01*
X69561002Y-181107524D02*
X70127668Y-181107524D01*
X69763383Y-181957524D01*
X70451478Y-181876571D02*
X70491954Y-181917048D01*
X70451478Y-181957524D01*
X70411002Y-181917048D01*
X70451478Y-181876571D01*
X70451478Y-181957524D01*
X71463383Y-181714667D02*
X71868145Y-181714667D01*
X71382430Y-181957524D02*
X71665764Y-181107524D01*
X71949097Y-181957524D01*
X72353859Y-181957524D02*
X72272906Y-181917048D01*
X72232430Y-181836095D01*
X72232430Y-181107524D01*
X72799097Y-181957524D02*
X72718144Y-181917048D01*
X72677668Y-181836095D01*
X72677668Y-181107524D01*
X74256239Y-181957524D02*
X73972906Y-181552762D01*
X73770525Y-181957524D02*
X73770525Y-181107524D01*
X74094334Y-181107524D01*
X74175287Y-181148000D01*
X74215763Y-181188476D01*
X74256239Y-181269429D01*
X74256239Y-181390857D01*
X74215763Y-181471810D01*
X74175287Y-181512286D01*
X74094334Y-181552762D01*
X73770525Y-181552762D01*
X74620525Y-181957524D02*
X74620525Y-181390857D01*
X74620525Y-181107524D02*
X74580049Y-181148000D01*
X74620525Y-181188476D01*
X74661001Y-181148000D01*
X74620525Y-181107524D01*
X74620525Y-181188476D01*
X75389573Y-181390857D02*
X75389573Y-182078952D01*
X75349096Y-182159905D01*
X75308620Y-182200381D01*
X75227668Y-182240857D01*
X75106239Y-182240857D01*
X75025287Y-182200381D01*
X75389573Y-181917048D02*
X75308620Y-181957524D01*
X75146716Y-181957524D01*
X75065763Y-181917048D01*
X75025287Y-181876571D01*
X74984811Y-181795619D01*
X74984811Y-181552762D01*
X75025287Y-181471810D01*
X75065763Y-181431333D01*
X75146716Y-181390857D01*
X75308620Y-181390857D01*
X75389573Y-181431333D01*
X75794335Y-181957524D02*
X75794335Y-181107524D01*
X76158621Y-181957524D02*
X76158621Y-181512286D01*
X76118144Y-181431333D01*
X76037192Y-181390857D01*
X75915764Y-181390857D01*
X75834811Y-181431333D01*
X75794335Y-181471810D01*
X76441954Y-181390857D02*
X76765764Y-181390857D01*
X76563383Y-181107524D02*
X76563383Y-181836095D01*
X76603859Y-181917048D01*
X76684812Y-181957524D01*
X76765764Y-181957524D01*
X77008621Y-181917048D02*
X77089573Y-181957524D01*
X77251478Y-181957524D01*
X77332430Y-181917048D01*
X77372906Y-181836095D01*
X77372906Y-181795619D01*
X77332430Y-181714667D01*
X77251478Y-181674190D01*
X77130049Y-181674190D01*
X77049097Y-181633714D01*
X77008621Y-181552762D01*
X77008621Y-181512286D01*
X77049097Y-181431333D01*
X77130049Y-181390857D01*
X77251478Y-181390857D01*
X77332430Y-181431333D01*
X78870525Y-181957524D02*
X78587192Y-181552762D01*
X78384811Y-181957524D02*
X78384811Y-181107524D01*
X78708620Y-181107524D01*
X78789573Y-181148000D01*
X78830049Y-181188476D01*
X78870525Y-181269429D01*
X78870525Y-181390857D01*
X78830049Y-181471810D01*
X78789573Y-181512286D01*
X78708620Y-181552762D01*
X78384811Y-181552762D01*
X79558620Y-181917048D02*
X79477668Y-181957524D01*
X79315763Y-181957524D01*
X79234811Y-181917048D01*
X79194335Y-181836095D01*
X79194335Y-181512286D01*
X79234811Y-181431333D01*
X79315763Y-181390857D01*
X79477668Y-181390857D01*
X79558620Y-181431333D01*
X79599097Y-181512286D01*
X79599097Y-181593238D01*
X79194335Y-181674190D01*
X79922906Y-181917048D02*
X80003858Y-181957524D01*
X80165763Y-181957524D01*
X80246715Y-181917048D01*
X80287191Y-181836095D01*
X80287191Y-181795619D01*
X80246715Y-181714667D01*
X80165763Y-181674190D01*
X80044334Y-181674190D01*
X79963382Y-181633714D01*
X79922906Y-181552762D01*
X79922906Y-181512286D01*
X79963382Y-181431333D01*
X80044334Y-181390857D01*
X80165763Y-181390857D01*
X80246715Y-181431333D01*
X80975286Y-181917048D02*
X80894334Y-181957524D01*
X80732429Y-181957524D01*
X80651477Y-181917048D01*
X80611001Y-181836095D01*
X80611001Y-181512286D01*
X80651477Y-181431333D01*
X80732429Y-181390857D01*
X80894334Y-181390857D01*
X80975286Y-181431333D01*
X81015763Y-181512286D01*
X81015763Y-181593238D01*
X80611001Y-181674190D01*
X81380048Y-181957524D02*
X81380048Y-181390857D01*
X81380048Y-181552762D02*
X81420524Y-181471810D01*
X81461000Y-181431333D01*
X81541953Y-181390857D01*
X81622905Y-181390857D01*
X81825286Y-181390857D02*
X82027667Y-181957524D01*
X82230047Y-181390857D01*
X82877666Y-181917048D02*
X82796714Y-181957524D01*
X82634809Y-181957524D01*
X82553857Y-181917048D01*
X82513381Y-181836095D01*
X82513381Y-181512286D01*
X82553857Y-181431333D01*
X82634809Y-181390857D01*
X82796714Y-181390857D01*
X82877666Y-181431333D01*
X82918143Y-181512286D01*
X82918143Y-181593238D01*
X82513381Y-181674190D01*
X83646714Y-181957524D02*
X83646714Y-181107524D01*
X83646714Y-181917048D02*
X83565761Y-181957524D01*
X83403857Y-181957524D01*
X83322904Y-181917048D01*
X83282428Y-181876571D01*
X83241952Y-181795619D01*
X83241952Y-181552762D01*
X83282428Y-181471810D01*
X83322904Y-181431333D01*
X83403857Y-181390857D01*
X83565761Y-181390857D01*
X83646714Y-181431333D01*
X84051476Y-181876571D02*
X84091952Y-181917048D01*
X84051476Y-181957524D01*
X84011000Y-181917048D01*
X84051476Y-181876571D01*
X84051476Y-181957524D01*
D12*
X96329572Y-180955143D02*
X97472429Y-180955143D01*
X93268857Y-180933714D02*
X94183143Y-180933714D01*
X93726000Y-181390857D02*
X93726000Y-180476571D01*
X117451715Y-176441571D02*
X117451715Y-174941571D01*
X118023143Y-174941571D01*
X118166001Y-175013000D01*
X118237429Y-175084429D01*
X118308858Y-175227286D01*
X118308858Y-175441571D01*
X118237429Y-175584429D01*
X118166001Y-175655857D01*
X118023143Y-175727286D01*
X117451715Y-175727286D01*
X119808858Y-176298714D02*
X119737429Y-176370143D01*
X119523143Y-176441571D01*
X119380286Y-176441571D01*
X119166001Y-176370143D01*
X119023143Y-176227286D01*
X118951715Y-176084429D01*
X118880286Y-175798714D01*
X118880286Y-175584429D01*
X118951715Y-175298714D01*
X119023143Y-175155857D01*
X119166001Y-175013000D01*
X119380286Y-174941571D01*
X119523143Y-174941571D01*
X119737429Y-175013000D01*
X119808858Y-175084429D01*
X120951715Y-175655857D02*
X121166001Y-175727286D01*
X121237429Y-175798714D01*
X121308858Y-175941571D01*
X121308858Y-176155857D01*
X121237429Y-176298714D01*
X121166001Y-176370143D01*
X121023143Y-176441571D01*
X120451715Y-176441571D01*
X120451715Y-174941571D01*
X120951715Y-174941571D01*
X121094572Y-175013000D01*
X121166001Y-175084429D01*
X121237429Y-175227286D01*
X121237429Y-175370143D01*
X121166001Y-175513000D01*
X121094572Y-175584429D01*
X120951715Y-175655857D01*
X120451715Y-175655857D01*
X121737429Y-174941571D02*
X122594572Y-174941571D01*
X122166001Y-176441571D02*
X122166001Y-174941571D01*
X123094572Y-176441571D02*
X123094572Y-175441571D01*
X123094572Y-175727286D02*
X123166000Y-175584429D01*
X123237429Y-175513000D01*
X123380286Y-175441571D01*
X123523143Y-175441571D01*
X124594571Y-176370143D02*
X124451714Y-176441571D01*
X124166000Y-176441571D01*
X124023143Y-176370143D01*
X123951714Y-176227286D01*
X123951714Y-175655857D01*
X124023143Y-175513000D01*
X124166000Y-175441571D01*
X124451714Y-175441571D01*
X124594571Y-175513000D01*
X124666000Y-175655857D01*
X124666000Y-175798714D01*
X123951714Y-175941571D01*
X125880285Y-176370143D02*
X125737428Y-176441571D01*
X125451714Y-176441571D01*
X125308857Y-176370143D01*
X125237428Y-176227286D01*
X125237428Y-175655857D01*
X125308857Y-175513000D01*
X125451714Y-175441571D01*
X125737428Y-175441571D01*
X125880285Y-175513000D01*
X125951714Y-175655857D01*
X125951714Y-175798714D01*
X125237428Y-175941571D01*
X112344571Y-178991571D02*
X112344571Y-177491571D01*
X112344571Y-178063000D02*
X112487428Y-177991571D01*
X112773142Y-177991571D01*
X112915999Y-178063000D01*
X112987428Y-178134429D01*
X113058857Y-178277286D01*
X113058857Y-178705857D01*
X112987428Y-178848714D01*
X112915999Y-178920143D01*
X112773142Y-178991571D01*
X112487428Y-178991571D01*
X112344571Y-178920143D01*
X113558857Y-177991571D02*
X113916000Y-178991571D01*
X114273142Y-177991571D02*
X113916000Y-178991571D01*
X113773142Y-179348714D01*
X113701714Y-179420143D01*
X113558857Y-179491571D01*
X115987428Y-178991571D02*
X115987428Y-177491571D01*
X117344571Y-178991571D02*
X117344571Y-178205857D01*
X117273142Y-178063000D01*
X117130285Y-177991571D01*
X116844571Y-177991571D01*
X116701714Y-178063000D01*
X117344571Y-178920143D02*
X117201714Y-178991571D01*
X116844571Y-178991571D01*
X116701714Y-178920143D01*
X116630285Y-178777286D01*
X116630285Y-178634429D01*
X116701714Y-178491571D01*
X116844571Y-178420143D01*
X117201714Y-178420143D01*
X117344571Y-178348714D01*
X118058857Y-177991571D02*
X118058857Y-178991571D01*
X118058857Y-178134429D02*
X118130285Y-178063000D01*
X118273143Y-177991571D01*
X118487428Y-177991571D01*
X118630285Y-178063000D01*
X118701714Y-178205857D01*
X118701714Y-178991571D01*
X120344571Y-177491571D02*
X121201714Y-177491571D01*
X120773143Y-178991571D02*
X120773143Y-177491571D01*
X121701714Y-178991571D02*
X121701714Y-177491571D01*
X122344571Y-178991571D02*
X122344571Y-178205857D01*
X122273142Y-178063000D01*
X122130285Y-177991571D01*
X121916000Y-177991571D01*
X121773142Y-178063000D01*
X121701714Y-178134429D01*
X123273143Y-178991571D02*
X123130285Y-178920143D01*
X123058857Y-178848714D01*
X122987428Y-178705857D01*
X122987428Y-178277286D01*
X123058857Y-178134429D01*
X123130285Y-178063000D01*
X123273143Y-177991571D01*
X123487428Y-177991571D01*
X123630285Y-178063000D01*
X123701714Y-178134429D01*
X123773143Y-178277286D01*
X123773143Y-178705857D01*
X123701714Y-178848714D01*
X123630285Y-178920143D01*
X123487428Y-178991571D01*
X123273143Y-178991571D01*
X124416000Y-178991571D02*
X124416000Y-177991571D01*
X124416000Y-178134429D02*
X124487428Y-178063000D01*
X124630286Y-177991571D01*
X124844571Y-177991571D01*
X124987428Y-178063000D01*
X125058857Y-178205857D01*
X125058857Y-178991571D01*
X125058857Y-178205857D02*
X125130286Y-178063000D01*
X125273143Y-177991571D01*
X125487428Y-177991571D01*
X125630286Y-178063000D01*
X125701714Y-178205857D01*
X125701714Y-178991571D01*
X126416000Y-177991571D02*
X126416000Y-179491571D01*
X126416000Y-178063000D02*
X126558857Y-177991571D01*
X126844571Y-177991571D01*
X126987428Y-178063000D01*
X127058857Y-178134429D01*
X127130286Y-178277286D01*
X127130286Y-178705857D01*
X127058857Y-178848714D01*
X126987428Y-178920143D01*
X126844571Y-178991571D01*
X126558857Y-178991571D01*
X126416000Y-178920143D01*
X127701714Y-178920143D02*
X127844571Y-178991571D01*
X128130286Y-178991571D01*
X128273143Y-178920143D01*
X128344571Y-178777286D01*
X128344571Y-178705857D01*
X128273143Y-178563000D01*
X128130286Y-178491571D01*
X127916000Y-178491571D01*
X127773143Y-178420143D01*
X127701714Y-178277286D01*
X127701714Y-178205857D01*
X127773143Y-178063000D01*
X127916000Y-177991571D01*
X128130286Y-177991571D01*
X128273143Y-178063000D01*
X129201715Y-178991571D02*
X129058857Y-178920143D01*
X128987429Y-178848714D01*
X128916000Y-178705857D01*
X128916000Y-178277286D01*
X128987429Y-178134429D01*
X129058857Y-178063000D01*
X129201715Y-177991571D01*
X129416000Y-177991571D01*
X129558857Y-178063000D01*
X129630286Y-178134429D01*
X129701715Y-178277286D01*
X129701715Y-178705857D01*
X129630286Y-178848714D01*
X129558857Y-178920143D01*
X129416000Y-178991571D01*
X129201715Y-178991571D01*
X130344572Y-177991571D02*
X130344572Y-178991571D01*
X130344572Y-178134429D02*
X130416000Y-178063000D01*
X130558858Y-177991571D01*
X130773143Y-177991571D01*
X130916000Y-178063000D01*
X130987429Y-178205857D01*
X130987429Y-178991571D01*
X115571143Y-130345571D02*
X115571143Y-128845571D01*
X116071143Y-129917000D01*
X116571143Y-128845571D01*
X116571143Y-130345571D01*
X117856857Y-130274143D02*
X117714000Y-130345571D01*
X117428286Y-130345571D01*
X117285429Y-130274143D01*
X117214000Y-130131286D01*
X117214000Y-129559857D01*
X117285429Y-129417000D01*
X117428286Y-129345571D01*
X117714000Y-129345571D01*
X117856857Y-129417000D01*
X117928286Y-129559857D01*
X117928286Y-129702714D01*
X117214000Y-129845571D01*
X118571143Y-130345571D02*
X118571143Y-129345571D01*
X118571143Y-129631286D02*
X118642571Y-129488429D01*
X118714000Y-129417000D01*
X118856857Y-129345571D01*
X118999714Y-129345571D01*
X119499714Y-130345571D02*
X119499714Y-129345571D01*
X119499714Y-129631286D02*
X119571142Y-129488429D01*
X119642571Y-129417000D01*
X119785428Y-129345571D01*
X119928285Y-129345571D01*
X120285428Y-129345571D02*
X120642571Y-130345571D01*
X120999713Y-129345571D02*
X120642571Y-130345571D01*
X120499713Y-130702714D01*
X120428285Y-130774143D01*
X120285428Y-130845571D01*
X123571142Y-130202714D02*
X123499713Y-130274143D01*
X123285427Y-130345571D01*
X123142570Y-130345571D01*
X122928285Y-130274143D01*
X122785427Y-130131286D01*
X122713999Y-129988429D01*
X122642570Y-129702714D01*
X122642570Y-129488429D01*
X122713999Y-129202714D01*
X122785427Y-129059857D01*
X122928285Y-128917000D01*
X123142570Y-128845571D01*
X123285427Y-128845571D01*
X123499713Y-128917000D01*
X123571142Y-128988429D01*
X124213999Y-130345571D02*
X124213999Y-128845571D01*
X124856856Y-130345571D02*
X124856856Y-129559857D01*
X124785427Y-129417000D01*
X124642570Y-129345571D01*
X124428285Y-129345571D01*
X124285427Y-129417000D01*
X124213999Y-129488429D01*
X125571142Y-130345571D02*
X125571142Y-129345571D01*
X125571142Y-129631286D02*
X125642570Y-129488429D01*
X125713999Y-129417000D01*
X125856856Y-129345571D01*
X125999713Y-129345571D01*
X126499713Y-130345571D02*
X126499713Y-129345571D01*
X126499713Y-128845571D02*
X126428284Y-128917000D01*
X126499713Y-128988429D01*
X126571141Y-128917000D01*
X126499713Y-128845571D01*
X126499713Y-128988429D01*
X127142570Y-130274143D02*
X127285427Y-130345571D01*
X127571142Y-130345571D01*
X127713999Y-130274143D01*
X127785427Y-130131286D01*
X127785427Y-130059857D01*
X127713999Y-129917000D01*
X127571142Y-129845571D01*
X127356856Y-129845571D01*
X127213999Y-129774143D01*
X127142570Y-129631286D01*
X127142570Y-129559857D01*
X127213999Y-129417000D01*
X127356856Y-129345571D01*
X127571142Y-129345571D01*
X127713999Y-129417000D01*
X128213999Y-129345571D02*
X128785428Y-129345571D01*
X128428285Y-128845571D02*
X128428285Y-130131286D01*
X128499713Y-130274143D01*
X128642571Y-130345571D01*
X128785428Y-130345571D01*
X129285428Y-130345571D02*
X129285428Y-129345571D01*
X129285428Y-129488429D02*
X129356856Y-129417000D01*
X129499714Y-129345571D01*
X129713999Y-129345571D01*
X129856856Y-129417000D01*
X129928285Y-129559857D01*
X129928285Y-130345571D01*
X129928285Y-129559857D02*
X129999714Y-129417000D01*
X130142571Y-129345571D01*
X130356856Y-129345571D01*
X130499714Y-129417000D01*
X130571142Y-129559857D01*
X130571142Y-130345571D01*
X131928285Y-130345571D02*
X131928285Y-129559857D01*
X131856856Y-129417000D01*
X131713999Y-129345571D01*
X131428285Y-129345571D01*
X131285428Y-129417000D01*
X131928285Y-130274143D02*
X131785428Y-130345571D01*
X131428285Y-130345571D01*
X131285428Y-130274143D01*
X131213999Y-130131286D01*
X131213999Y-129988429D01*
X131285428Y-129845571D01*
X131428285Y-129774143D01*
X131785428Y-129774143D01*
X131928285Y-129702714D01*
X132571142Y-130274143D02*
X132713999Y-130345571D01*
X132999714Y-130345571D01*
X133142571Y-130274143D01*
X133213999Y-130131286D01*
X133213999Y-130059857D01*
X133142571Y-129917000D01*
X132999714Y-129845571D01*
X132785428Y-129845571D01*
X132642571Y-129774143D01*
X132571142Y-129631286D01*
X132571142Y-129559857D01*
X132642571Y-129417000D01*
X132785428Y-129345571D01*
X132999714Y-129345571D01*
X133142571Y-129417000D01*
X133856857Y-130202714D02*
X133928285Y-130274143D01*
X133856857Y-130345571D01*
X133785428Y-130274143D01*
X133856857Y-130202714D01*
X133856857Y-130345571D01*
X133856857Y-129774143D02*
X133785428Y-128917000D01*
X133856857Y-128845571D01*
X133928285Y-128917000D01*
X133856857Y-129774143D01*
X133856857Y-128845571D01*
D13*
X47065000Y-127320000D02*
X47065000Y-129220000D01*
X47065000Y-129220000D02*
X51765000Y-129220000D01*
X47065000Y-127320000D02*
X51765000Y-127320000D01*
X137870000Y-93665000D02*
X137870000Y-95565000D01*
X137870000Y-95565000D02*
X142570000Y-95565000D01*
X137870000Y-93665000D02*
X142570000Y-93665000D01*
X54050000Y-63820000D02*
X54050000Y-65720000D01*
X54050000Y-65720000D02*
X58750000Y-65720000D01*
X54050000Y-63820000D02*
X58750000Y-63820000D01*
X94250000Y-96400000D02*
X92680000Y-96400000D01*
X92680000Y-96400000D02*
X92680000Y-106800000D01*
X92680000Y-106800000D02*
X97820000Y-106800000D01*
X97820000Y-106800000D02*
X97820000Y-96400000D01*
X97820000Y-96400000D02*
X96250000Y-96400000D01*
X96250000Y-96400000D02*
G75*
G02X94250000Y-96400000I-1000000J0D01*
G01*
X137362000Y-126812000D02*
X137362000Y-128712000D01*
X137362000Y-128712000D02*
X142062000Y-128712000D01*
X137362000Y-126812000D02*
X142062000Y-126812000D01*
X48462000Y-94300000D02*
X48462000Y-96200000D01*
X48462000Y-96200000D02*
X53162000Y-96200000D01*
X48462000Y-94300000D02*
X53162000Y-94300000D01*
X136450000Y-65720000D02*
X136450000Y-63820000D01*
X136450000Y-63820000D02*
X131750000Y-63820000D01*
X136450000Y-65720000D02*
X131750000Y-65720000D01*
X62595000Y-122990000D02*
X60595000Y-122990000D01*
X60595000Y-120850000D02*
X62595000Y-120850000D01*
X128540000Y-87195000D02*
X130540000Y-87195000D01*
X130540000Y-89335000D02*
X128540000Y-89335000D01*
X69580000Y-57331000D02*
X67580000Y-57331000D01*
X67580000Y-55191000D02*
X69580000Y-55191000D01*
X128667000Y-120596000D02*
X130667000Y-120596000D01*
X130667000Y-122736000D02*
X128667000Y-122736000D01*
X63865000Y-89970000D02*
X61865000Y-89970000D01*
X61865000Y-87830000D02*
X63865000Y-87830000D01*
X120285000Y-54810000D02*
X122285000Y-54810000D01*
X122285000Y-56950000D02*
X120285000Y-56950000D01*
X96250000Y-32820000D02*
X94250000Y-32820000D01*
X94250000Y-30680000D02*
X96250000Y-30680000D01*
X64516000Y-167264000D02*
X64516000Y-173604000D01*
X72136000Y-167264000D02*
X72136000Y-173604000D01*
X72136000Y-169164000D02*
X64516000Y-169164000D01*
X64516000Y-167264000D02*
X72136000Y-167264000D01*
X72136000Y-173604000D02*
X64516000Y-173604000D01*
X92150000Y-24450000D02*
X92150000Y-26350000D01*
X92150000Y-26350000D02*
X96850000Y-26350000D01*
X92150000Y-24450000D02*
X96850000Y-24450000D01*
X93679000Y-177701000D02*
X84879000Y-177701000D01*
X84879000Y-177701000D02*
X84879000Y-168501000D01*
X99579000Y-175001000D02*
X99579000Y-177701000D01*
X99579000Y-177701000D02*
X97679000Y-177701000D01*
X84879000Y-168501000D02*
X99579000Y-168501000D01*
X99579000Y-168501000D02*
X99579000Y-171101000D01*
X105045000Y-111960000D02*
X107045000Y-111960000D01*
X107045000Y-114100000D02*
X105045000Y-114100000D01*
X91750000Y-117350000D02*
X90820000Y-117350000D01*
X88590000Y-117350000D02*
X89520000Y-117350000D01*
X88590000Y-117350000D02*
X88590000Y-119510000D01*
X91750000Y-117350000D02*
X91750000Y-118810000D01*
X102545000Y-117350000D02*
X101615000Y-117350000D01*
X99385000Y-117350000D02*
X100315000Y-117350000D01*
X99385000Y-117350000D02*
X99385000Y-119510000D01*
X102545000Y-117350000D02*
X102545000Y-118810000D01*
X85455000Y-114100000D02*
X83455000Y-114100000D01*
X83455000Y-111960000D02*
X85455000Y-111960000D01*
D14*
X46284048Y-125920000D02*
X46188810Y-125872381D01*
X46045953Y-125872381D01*
X45903095Y-125920000D01*
X45807857Y-126015238D01*
X45760238Y-126110476D01*
X45712619Y-126300952D01*
X45712619Y-126443810D01*
X45760238Y-126634286D01*
X45807857Y-126729524D01*
X45903095Y-126824762D01*
X46045953Y-126872381D01*
X46141191Y-126872381D01*
X46284048Y-126824762D01*
X46331667Y-126777143D01*
X46331667Y-126443810D01*
X46141191Y-126443810D01*
X47331667Y-126872381D02*
X46998333Y-126396190D01*
X46760238Y-126872381D02*
X46760238Y-125872381D01*
X47141191Y-125872381D01*
X47236429Y-125920000D01*
X47284048Y-125967619D01*
X47331667Y-126062857D01*
X47331667Y-126205714D01*
X47284048Y-126300952D01*
X47236429Y-126348571D01*
X47141191Y-126396190D01*
X46760238Y-126396190D01*
X47760238Y-126348571D02*
X48093572Y-126348571D01*
X48236429Y-126872381D02*
X47760238Y-126872381D01*
X47760238Y-125872381D01*
X48236429Y-125872381D01*
X48665000Y-126348571D02*
X48998334Y-126348571D01*
X49141191Y-126872381D02*
X48665000Y-126872381D01*
X48665000Y-125872381D01*
X49141191Y-125872381D01*
X49569762Y-126872381D02*
X49569762Y-125872381D01*
X50141191Y-126872381D01*
X50141191Y-125872381D01*
X50379286Y-126967619D02*
X51141191Y-126967619D01*
X51855477Y-126872381D02*
X51379286Y-126872381D01*
X51379286Y-125872381D01*
X52188810Y-126348571D02*
X52522144Y-126348571D01*
X52665001Y-126872381D02*
X52188810Y-126872381D01*
X52188810Y-125872381D01*
X52665001Y-125872381D01*
X53093572Y-126872381D02*
X53093572Y-125872381D01*
X53331667Y-125872381D01*
X53474525Y-125920000D01*
X53569763Y-126015238D01*
X53617382Y-126110476D01*
X53665001Y-126300952D01*
X53665001Y-126443810D01*
X53617382Y-126634286D01*
X53569763Y-126729524D01*
X53474525Y-126824762D01*
X53331667Y-126872381D01*
X53093572Y-126872381D01*
X54617382Y-126872381D02*
X54045953Y-126872381D01*
X54331667Y-126872381D02*
X54331667Y-125872381D01*
X54236429Y-126015238D01*
X54141191Y-126110476D01*
X54045953Y-126158095D01*
X135184048Y-92210000D02*
X135088810Y-92162381D01*
X134945953Y-92162381D01*
X134803095Y-92210000D01*
X134707857Y-92305238D01*
X134660238Y-92400476D01*
X134612619Y-92590952D01*
X134612619Y-92733810D01*
X134660238Y-92924286D01*
X134707857Y-93019524D01*
X134803095Y-93114762D01*
X134945953Y-93162381D01*
X135041191Y-93162381D01*
X135184048Y-93114762D01*
X135231667Y-93067143D01*
X135231667Y-92733810D01*
X135041191Y-92733810D01*
X136231667Y-93162381D02*
X135898333Y-92686190D01*
X135660238Y-93162381D02*
X135660238Y-92162381D01*
X136041191Y-92162381D01*
X136136429Y-92210000D01*
X136184048Y-92257619D01*
X136231667Y-92352857D01*
X136231667Y-92495714D01*
X136184048Y-92590952D01*
X136136429Y-92638571D01*
X136041191Y-92686190D01*
X135660238Y-92686190D01*
X136660238Y-92638571D02*
X136993572Y-92638571D01*
X137136429Y-93162381D02*
X136660238Y-93162381D01*
X136660238Y-92162381D01*
X137136429Y-92162381D01*
X137565000Y-92638571D02*
X137898334Y-92638571D01*
X138041191Y-93162381D02*
X137565000Y-93162381D01*
X137565000Y-92162381D01*
X138041191Y-92162381D01*
X138469762Y-93162381D02*
X138469762Y-92162381D01*
X139041191Y-93162381D01*
X139041191Y-92162381D01*
X139279286Y-93257619D02*
X140041191Y-93257619D01*
X140755477Y-93162381D02*
X140279286Y-93162381D01*
X140279286Y-92162381D01*
X141088810Y-92638571D02*
X141422144Y-92638571D01*
X141565001Y-93162381D02*
X141088810Y-93162381D01*
X141088810Y-92162381D01*
X141565001Y-92162381D01*
X141993572Y-93162381D02*
X141993572Y-92162381D01*
X142231667Y-92162381D01*
X142374525Y-92210000D01*
X142469763Y-92305238D01*
X142517382Y-92400476D01*
X142565001Y-92590952D01*
X142565001Y-92733810D01*
X142517382Y-92924286D01*
X142469763Y-93019524D01*
X142374525Y-93114762D01*
X142231667Y-93162381D01*
X141993572Y-93162381D01*
X142945953Y-92257619D02*
X142993572Y-92210000D01*
X143088810Y-92162381D01*
X143326906Y-92162381D01*
X143422144Y-92210000D01*
X143469763Y-92257619D01*
X143517382Y-92352857D01*
X143517382Y-92448095D01*
X143469763Y-92590952D01*
X142898334Y-93162381D01*
X143517382Y-93162381D01*
X54729548Y-62428500D02*
X54634310Y-62380881D01*
X54491453Y-62380881D01*
X54348595Y-62428500D01*
X54253357Y-62523738D01*
X54205738Y-62618976D01*
X54158119Y-62809452D01*
X54158119Y-62952310D01*
X54205738Y-63142786D01*
X54253357Y-63238024D01*
X54348595Y-63333262D01*
X54491453Y-63380881D01*
X54586691Y-63380881D01*
X54729548Y-63333262D01*
X54777167Y-63285643D01*
X54777167Y-62952310D01*
X54586691Y-62952310D01*
X55777167Y-63380881D02*
X55443833Y-62904690D01*
X55205738Y-63380881D02*
X55205738Y-62380881D01*
X55586691Y-62380881D01*
X55681929Y-62428500D01*
X55729548Y-62476119D01*
X55777167Y-62571357D01*
X55777167Y-62714214D01*
X55729548Y-62809452D01*
X55681929Y-62857071D01*
X55586691Y-62904690D01*
X55205738Y-62904690D01*
X56205738Y-62857071D02*
X56539072Y-62857071D01*
X56681929Y-63380881D02*
X56205738Y-63380881D01*
X56205738Y-62380881D01*
X56681929Y-62380881D01*
X57110500Y-62857071D02*
X57443834Y-62857071D01*
X57586691Y-63380881D02*
X57110500Y-63380881D01*
X57110500Y-62380881D01*
X57586691Y-62380881D01*
X58015262Y-63380881D02*
X58015262Y-62380881D01*
X58586691Y-63380881D01*
X58586691Y-62380881D01*
X58824786Y-63476119D02*
X59586691Y-63476119D01*
X60300977Y-63380881D02*
X59824786Y-63380881D01*
X59824786Y-62380881D01*
X60634310Y-62857071D02*
X60967644Y-62857071D01*
X61110501Y-63380881D02*
X60634310Y-63380881D01*
X60634310Y-62380881D01*
X61110501Y-62380881D01*
X61539072Y-63380881D02*
X61539072Y-62380881D01*
X61777167Y-62380881D01*
X61920025Y-62428500D01*
X62015263Y-62523738D01*
X62062882Y-62618976D01*
X62110501Y-62809452D01*
X62110501Y-62952310D01*
X62062882Y-63142786D01*
X62015263Y-63238024D01*
X61920025Y-63333262D01*
X61777167Y-63380881D01*
X61539072Y-63380881D01*
X62443834Y-62380881D02*
X63062882Y-62380881D01*
X62729548Y-62761833D01*
X62872406Y-62761833D01*
X62967644Y-62809452D01*
X63015263Y-62857071D01*
X63062882Y-62952310D01*
X63062882Y-63190405D01*
X63015263Y-63285643D01*
X62967644Y-63333262D01*
X62872406Y-63380881D01*
X62586691Y-63380881D01*
X62491453Y-63333262D01*
X62443834Y-63285643D01*
X89511905Y-95852381D02*
X89035714Y-95852381D01*
X89035714Y-94852381D01*
X89845238Y-95328571D02*
X90178572Y-95328571D01*
X90321429Y-95852381D02*
X89845238Y-95852381D01*
X89845238Y-94852381D01*
X90321429Y-94852381D01*
X90750000Y-95852381D02*
X90750000Y-94852381D01*
X90988095Y-94852381D01*
X91130953Y-94900000D01*
X91226191Y-94995238D01*
X91273810Y-95090476D01*
X91321429Y-95280952D01*
X91321429Y-95423810D01*
X91273810Y-95614286D01*
X91226191Y-95709524D01*
X91130953Y-95804762D01*
X90988095Y-95852381D01*
X90750000Y-95852381D01*
X91511905Y-95947619D02*
X92273810Y-95947619D01*
X93083334Y-95757143D02*
X93035715Y-95804762D01*
X92892858Y-95852381D01*
X92797620Y-95852381D01*
X92654762Y-95804762D01*
X92559524Y-95709524D01*
X92511905Y-95614286D01*
X92464286Y-95423810D01*
X92464286Y-95280952D01*
X92511905Y-95090476D01*
X92559524Y-94995238D01*
X92654762Y-94900000D01*
X92797620Y-94852381D01*
X92892858Y-94852381D01*
X93035715Y-94900000D01*
X93083334Y-94947619D01*
X93702381Y-94852381D02*
X93892858Y-94852381D01*
X93988096Y-94900000D01*
X94083334Y-94995238D01*
X94130953Y-95185714D01*
X94130953Y-95519048D01*
X94083334Y-95709524D01*
X93988096Y-95804762D01*
X93892858Y-95852381D01*
X93702381Y-95852381D01*
X93607143Y-95804762D01*
X93511905Y-95709524D01*
X93464286Y-95519048D01*
X93464286Y-95185714D01*
X93511905Y-94995238D01*
X93607143Y-94900000D01*
X93702381Y-94852381D01*
X94559524Y-95852381D02*
X94559524Y-94852381D01*
X95130953Y-95852381D01*
X95130953Y-94852381D01*
X95464286Y-94852381D02*
X96035715Y-94852381D01*
X95750000Y-95852381D02*
X95750000Y-94852381D01*
X96940477Y-95852381D02*
X96607143Y-95376190D01*
X96369048Y-95852381D02*
X96369048Y-94852381D01*
X96750001Y-94852381D01*
X96845239Y-94900000D01*
X96892858Y-94947619D01*
X96940477Y-95042857D01*
X96940477Y-95185714D01*
X96892858Y-95280952D01*
X96845239Y-95328571D01*
X96750001Y-95376190D01*
X96369048Y-95376190D01*
X97559524Y-94852381D02*
X97750001Y-94852381D01*
X97845239Y-94900000D01*
X97940477Y-94995238D01*
X97988096Y-95185714D01*
X97988096Y-95519048D01*
X97940477Y-95709524D01*
X97845239Y-95804762D01*
X97750001Y-95852381D01*
X97559524Y-95852381D01*
X97464286Y-95804762D01*
X97369048Y-95709524D01*
X97321429Y-95519048D01*
X97321429Y-95185714D01*
X97369048Y-94995238D01*
X97464286Y-94900000D01*
X97559524Y-94852381D01*
X98892858Y-95852381D02*
X98416667Y-95852381D01*
X98416667Y-94852381D01*
X99702382Y-95852381D02*
X99226191Y-95852381D01*
X99226191Y-94852381D01*
X100035715Y-95328571D02*
X100369049Y-95328571D01*
X100511906Y-95852381D02*
X100035715Y-95852381D01*
X100035715Y-94852381D01*
X100511906Y-94852381D01*
X101511906Y-95852381D02*
X101178572Y-95376190D01*
X100940477Y-95852381D02*
X100940477Y-94852381D01*
X101321430Y-94852381D01*
X101416668Y-94900000D01*
X101464287Y-94947619D01*
X101511906Y-95042857D01*
X101511906Y-95185714D01*
X101464287Y-95280952D01*
X101416668Y-95328571D01*
X101321430Y-95376190D01*
X100940477Y-95376190D01*
X89511905Y-107966667D02*
X89988096Y-107966667D01*
X89416667Y-108252381D02*
X89750000Y-107252381D01*
X90083334Y-108252381D01*
X90273810Y-107252381D02*
X90845239Y-107252381D01*
X90559524Y-108252381D02*
X90559524Y-107252381D01*
X91035715Y-107252381D02*
X91607144Y-107252381D01*
X91321429Y-108252381D02*
X91321429Y-107252381D01*
X91940477Y-108252381D02*
X91940477Y-107252381D01*
X92416667Y-108252381D02*
X92416667Y-107252381D01*
X92988096Y-108252381D01*
X92988096Y-107252381D01*
X93654762Y-107776190D02*
X93654762Y-108252381D01*
X93321429Y-107252381D02*
X93654762Y-107776190D01*
X93988096Y-107252381D01*
X94464286Y-107680952D02*
X94369048Y-107633333D01*
X94321429Y-107585714D01*
X94273810Y-107490476D01*
X94273810Y-107442857D01*
X94321429Y-107347619D01*
X94369048Y-107300000D01*
X94464286Y-107252381D01*
X94654763Y-107252381D01*
X94750001Y-107300000D01*
X94797620Y-107347619D01*
X94845239Y-107442857D01*
X94845239Y-107490476D01*
X94797620Y-107585714D01*
X94750001Y-107633333D01*
X94654763Y-107680952D01*
X94464286Y-107680952D01*
X94369048Y-107728571D01*
X94321429Y-107776190D01*
X94273810Y-107871429D01*
X94273810Y-108061905D01*
X94321429Y-108157143D01*
X94369048Y-108204762D01*
X94464286Y-108252381D01*
X94654763Y-108252381D01*
X94750001Y-108204762D01*
X94797620Y-108157143D01*
X94845239Y-108061905D01*
X94845239Y-107871429D01*
X94797620Y-107776190D01*
X94750001Y-107728571D01*
X94654763Y-107680952D01*
X95750001Y-107252381D02*
X95273810Y-107252381D01*
X95226191Y-107728571D01*
X95273810Y-107680952D01*
X95369048Y-107633333D01*
X95607144Y-107633333D01*
X95702382Y-107680952D01*
X95750001Y-107728571D01*
X95797620Y-107823810D01*
X95797620Y-108061905D01*
X95750001Y-108157143D01*
X95702382Y-108204762D01*
X95607144Y-108252381D01*
X95369048Y-108252381D01*
X95273810Y-108204762D01*
X95226191Y-108157143D01*
X96226191Y-107871429D02*
X96988096Y-107871429D01*
X97416667Y-107347619D02*
X97464286Y-107300000D01*
X97559524Y-107252381D01*
X97797620Y-107252381D01*
X97892858Y-107300000D01*
X97940477Y-107347619D01*
X97988096Y-107442857D01*
X97988096Y-107538095D01*
X97940477Y-107680952D01*
X97369048Y-108252381D01*
X97988096Y-108252381D01*
X98607143Y-107252381D02*
X98702382Y-107252381D01*
X98797620Y-107300000D01*
X98845239Y-107347619D01*
X98892858Y-107442857D01*
X98940477Y-107633333D01*
X98940477Y-107871429D01*
X98892858Y-108061905D01*
X98845239Y-108157143D01*
X98797620Y-108204762D01*
X98702382Y-108252381D01*
X98607143Y-108252381D01*
X98511905Y-108204762D01*
X98464286Y-108157143D01*
X98416667Y-108061905D01*
X98369048Y-107871429D01*
X98369048Y-107633333D01*
X98416667Y-107442857D01*
X98464286Y-107347619D01*
X98511905Y-107300000D01*
X98607143Y-107252381D01*
X99369048Y-108252381D02*
X99369048Y-107252381D01*
X99750001Y-107252381D01*
X99845239Y-107300000D01*
X99892858Y-107347619D01*
X99940477Y-107442857D01*
X99940477Y-107585714D01*
X99892858Y-107680952D01*
X99845239Y-107728571D01*
X99750001Y-107776190D01*
X99369048Y-107776190D01*
X100369048Y-107252381D02*
X100369048Y-108061905D01*
X100416667Y-108157143D01*
X100464286Y-108204762D01*
X100559524Y-108252381D01*
X100750001Y-108252381D01*
X100845239Y-108204762D01*
X100892858Y-108157143D01*
X100940477Y-108061905D01*
X100940477Y-107252381D01*
X137604857Y-126364381D02*
X137271523Y-125888190D01*
X137033428Y-126364381D02*
X137033428Y-125364381D01*
X137414381Y-125364381D01*
X137509619Y-125412000D01*
X137557238Y-125459619D01*
X137604857Y-125554857D01*
X137604857Y-125697714D01*
X137557238Y-125792952D01*
X137509619Y-125840571D01*
X137414381Y-125888190D01*
X137033428Y-125888190D01*
X138033428Y-125840571D02*
X138366762Y-125840571D01*
X138509619Y-126364381D02*
X138033428Y-126364381D01*
X138033428Y-125364381D01*
X138509619Y-125364381D01*
X138938190Y-126364381D02*
X138938190Y-125364381D01*
X139176285Y-125364381D01*
X139319143Y-125412000D01*
X139414381Y-125507238D01*
X139462000Y-125602476D01*
X139509619Y-125792952D01*
X139509619Y-125935810D01*
X139462000Y-126126286D01*
X139414381Y-126221524D01*
X139319143Y-126316762D01*
X139176285Y-126364381D01*
X138938190Y-126364381D01*
X139700095Y-126459619D02*
X140462000Y-126459619D01*
X141176286Y-126364381D02*
X140700095Y-126364381D01*
X140700095Y-125364381D01*
X141509619Y-125840571D02*
X141842953Y-125840571D01*
X141985810Y-126364381D02*
X141509619Y-126364381D01*
X141509619Y-125364381D01*
X141985810Y-125364381D01*
X142414381Y-126364381D02*
X142414381Y-125364381D01*
X142652476Y-125364381D01*
X142795334Y-125412000D01*
X142890572Y-125507238D01*
X142938191Y-125602476D01*
X142985810Y-125792952D01*
X142985810Y-125935810D01*
X142938191Y-126126286D01*
X142890572Y-126221524D01*
X142795334Y-126316762D01*
X142652476Y-126364381D01*
X142414381Y-126364381D01*
X143938191Y-126364381D02*
X143366762Y-126364381D01*
X143652476Y-126364381D02*
X143652476Y-125364381D01*
X143557238Y-125507238D01*
X143462000Y-125602476D01*
X143366762Y-125650095D01*
X48704857Y-93852381D02*
X48371523Y-93376190D01*
X48133428Y-93852381D02*
X48133428Y-92852381D01*
X48514381Y-92852381D01*
X48609619Y-92900000D01*
X48657238Y-92947619D01*
X48704857Y-93042857D01*
X48704857Y-93185714D01*
X48657238Y-93280952D01*
X48609619Y-93328571D01*
X48514381Y-93376190D01*
X48133428Y-93376190D01*
X49133428Y-93328571D02*
X49466762Y-93328571D01*
X49609619Y-93852381D02*
X49133428Y-93852381D01*
X49133428Y-92852381D01*
X49609619Y-92852381D01*
X50038190Y-93852381D02*
X50038190Y-92852381D01*
X50276285Y-92852381D01*
X50419143Y-92900000D01*
X50514381Y-92995238D01*
X50562000Y-93090476D01*
X50609619Y-93280952D01*
X50609619Y-93423810D01*
X50562000Y-93614286D01*
X50514381Y-93709524D01*
X50419143Y-93804762D01*
X50276285Y-93852381D01*
X50038190Y-93852381D01*
X50800095Y-93947619D02*
X51562000Y-93947619D01*
X52276286Y-93852381D02*
X51800095Y-93852381D01*
X51800095Y-92852381D01*
X52609619Y-93328571D02*
X52942953Y-93328571D01*
X53085810Y-93852381D02*
X52609619Y-93852381D01*
X52609619Y-92852381D01*
X53085810Y-92852381D01*
X53514381Y-93852381D02*
X53514381Y-92852381D01*
X53752476Y-92852381D01*
X53895334Y-92900000D01*
X53990572Y-92995238D01*
X54038191Y-93090476D01*
X54085810Y-93280952D01*
X54085810Y-93423810D01*
X54038191Y-93614286D01*
X53990572Y-93709524D01*
X53895334Y-93804762D01*
X53752476Y-93852381D01*
X53514381Y-93852381D01*
X54466762Y-92947619D02*
X54514381Y-92900000D01*
X54609619Y-92852381D01*
X54847715Y-92852381D01*
X54942953Y-92900000D01*
X54990572Y-92947619D01*
X55038191Y-93042857D01*
X55038191Y-93138095D01*
X54990572Y-93280952D01*
X54419143Y-93852381D01*
X55038191Y-93852381D01*
X130492857Y-67072381D02*
X130159523Y-66596190D01*
X129921428Y-67072381D02*
X129921428Y-66072381D01*
X130302381Y-66072381D01*
X130397619Y-66120000D01*
X130445238Y-66167619D01*
X130492857Y-66262857D01*
X130492857Y-66405714D01*
X130445238Y-66500952D01*
X130397619Y-66548571D01*
X130302381Y-66596190D01*
X129921428Y-66596190D01*
X130921428Y-66548571D02*
X131254762Y-66548571D01*
X131397619Y-67072381D02*
X130921428Y-67072381D01*
X130921428Y-66072381D01*
X131397619Y-66072381D01*
X131826190Y-67072381D02*
X131826190Y-66072381D01*
X132064285Y-66072381D01*
X132207143Y-66120000D01*
X132302381Y-66215238D01*
X132350000Y-66310476D01*
X132397619Y-66500952D01*
X132397619Y-66643810D01*
X132350000Y-66834286D01*
X132302381Y-66929524D01*
X132207143Y-67024762D01*
X132064285Y-67072381D01*
X131826190Y-67072381D01*
X132588095Y-67167619D02*
X133350000Y-67167619D01*
X134064286Y-67072381D02*
X133588095Y-67072381D01*
X133588095Y-66072381D01*
X134397619Y-66548571D02*
X134730953Y-66548571D01*
X134873810Y-67072381D02*
X134397619Y-67072381D01*
X134397619Y-66072381D01*
X134873810Y-66072381D01*
X135302381Y-67072381D02*
X135302381Y-66072381D01*
X135540476Y-66072381D01*
X135683334Y-66120000D01*
X135778572Y-66215238D01*
X135826191Y-66310476D01*
X135873810Y-66500952D01*
X135873810Y-66643810D01*
X135826191Y-66834286D01*
X135778572Y-66929524D01*
X135683334Y-67024762D01*
X135540476Y-67072381D01*
X135302381Y-67072381D01*
X136207143Y-66072381D02*
X136826191Y-66072381D01*
X136492857Y-66453333D01*
X136635715Y-66453333D01*
X136730953Y-66500952D01*
X136778572Y-66548571D01*
X136826191Y-66643810D01*
X136826191Y-66881905D01*
X136778572Y-66977143D01*
X136730953Y-67024762D01*
X136635715Y-67072381D01*
X136350000Y-67072381D01*
X136254762Y-67024762D01*
X136207143Y-66977143D01*
X58618810Y-120522381D02*
X58285476Y-120046190D01*
X58047381Y-120522381D02*
X58047381Y-119522381D01*
X58428334Y-119522381D01*
X58523572Y-119570000D01*
X58571191Y-119617619D01*
X58618810Y-119712857D01*
X58618810Y-119855714D01*
X58571191Y-119950952D01*
X58523572Y-119998571D01*
X58428334Y-120046190D01*
X58047381Y-120046190D01*
X58809286Y-120617619D02*
X59571191Y-120617619D01*
X60333096Y-119570000D02*
X60237858Y-119522381D01*
X60095001Y-119522381D01*
X59952143Y-119570000D01*
X59856905Y-119665238D01*
X59809286Y-119760476D01*
X59761667Y-119950952D01*
X59761667Y-120093810D01*
X59809286Y-120284286D01*
X59856905Y-120379524D01*
X59952143Y-120474762D01*
X60095001Y-120522381D01*
X60190239Y-120522381D01*
X60333096Y-120474762D01*
X60380715Y-120427143D01*
X60380715Y-120093810D01*
X60190239Y-120093810D01*
X61380715Y-120522381D02*
X61047381Y-120046190D01*
X60809286Y-120522381D02*
X60809286Y-119522381D01*
X61190239Y-119522381D01*
X61285477Y-119570000D01*
X61333096Y-119617619D01*
X61380715Y-119712857D01*
X61380715Y-119855714D01*
X61333096Y-119950952D01*
X61285477Y-119998571D01*
X61190239Y-120046190D01*
X60809286Y-120046190D01*
X61809286Y-119998571D02*
X62142620Y-119998571D01*
X62285477Y-120522381D02*
X61809286Y-120522381D01*
X61809286Y-119522381D01*
X62285477Y-119522381D01*
X62714048Y-119998571D02*
X63047382Y-119998571D01*
X63190239Y-120522381D02*
X62714048Y-120522381D01*
X62714048Y-119522381D01*
X63190239Y-119522381D01*
X63618810Y-120522381D02*
X63618810Y-119522381D01*
X64190239Y-120522381D01*
X64190239Y-119522381D01*
X65190239Y-120522381D02*
X64618810Y-120522381D01*
X64904524Y-120522381D02*
X64904524Y-119522381D01*
X64809286Y-119665238D01*
X64714048Y-119760476D01*
X64618810Y-119808095D01*
X126563810Y-90567381D02*
X126230476Y-90091190D01*
X125992381Y-90567381D02*
X125992381Y-89567381D01*
X126373334Y-89567381D01*
X126468572Y-89615000D01*
X126516191Y-89662619D01*
X126563810Y-89757857D01*
X126563810Y-89900714D01*
X126516191Y-89995952D01*
X126468572Y-90043571D01*
X126373334Y-90091190D01*
X125992381Y-90091190D01*
X126754286Y-90662619D02*
X127516191Y-90662619D01*
X128278096Y-89615000D02*
X128182858Y-89567381D01*
X128040001Y-89567381D01*
X127897143Y-89615000D01*
X127801905Y-89710238D01*
X127754286Y-89805476D01*
X127706667Y-89995952D01*
X127706667Y-90138810D01*
X127754286Y-90329286D01*
X127801905Y-90424524D01*
X127897143Y-90519762D01*
X128040001Y-90567381D01*
X128135239Y-90567381D01*
X128278096Y-90519762D01*
X128325715Y-90472143D01*
X128325715Y-90138810D01*
X128135239Y-90138810D01*
X129325715Y-90567381D02*
X128992381Y-90091190D01*
X128754286Y-90567381D02*
X128754286Y-89567381D01*
X129135239Y-89567381D01*
X129230477Y-89615000D01*
X129278096Y-89662619D01*
X129325715Y-89757857D01*
X129325715Y-89900714D01*
X129278096Y-89995952D01*
X129230477Y-90043571D01*
X129135239Y-90091190D01*
X128754286Y-90091190D01*
X129754286Y-90043571D02*
X130087620Y-90043571D01*
X130230477Y-90567381D02*
X129754286Y-90567381D01*
X129754286Y-89567381D01*
X130230477Y-89567381D01*
X130659048Y-90043571D02*
X130992382Y-90043571D01*
X131135239Y-90567381D02*
X130659048Y-90567381D01*
X130659048Y-89567381D01*
X131135239Y-89567381D01*
X131563810Y-90567381D02*
X131563810Y-89567381D01*
X132135239Y-90567381D01*
X132135239Y-89567381D01*
X132563810Y-89662619D02*
X132611429Y-89615000D01*
X132706667Y-89567381D01*
X132944763Y-89567381D01*
X133040001Y-89615000D01*
X133087620Y-89662619D01*
X133135239Y-89757857D01*
X133135239Y-89853095D01*
X133087620Y-89995952D01*
X132516191Y-90567381D01*
X133135239Y-90567381D01*
X65603810Y-54863381D02*
X65270476Y-54387190D01*
X65032381Y-54863381D02*
X65032381Y-53863381D01*
X65413334Y-53863381D01*
X65508572Y-53911000D01*
X65556191Y-53958619D01*
X65603810Y-54053857D01*
X65603810Y-54196714D01*
X65556191Y-54291952D01*
X65508572Y-54339571D01*
X65413334Y-54387190D01*
X65032381Y-54387190D01*
X65794286Y-54958619D02*
X66556191Y-54958619D01*
X67318096Y-53911000D02*
X67222858Y-53863381D01*
X67080001Y-53863381D01*
X66937143Y-53911000D01*
X66841905Y-54006238D01*
X66794286Y-54101476D01*
X66746667Y-54291952D01*
X66746667Y-54434810D01*
X66794286Y-54625286D01*
X66841905Y-54720524D01*
X66937143Y-54815762D01*
X67080001Y-54863381D01*
X67175239Y-54863381D01*
X67318096Y-54815762D01*
X67365715Y-54768143D01*
X67365715Y-54434810D01*
X67175239Y-54434810D01*
X68365715Y-54863381D02*
X68032381Y-54387190D01*
X67794286Y-54863381D02*
X67794286Y-53863381D01*
X68175239Y-53863381D01*
X68270477Y-53911000D01*
X68318096Y-53958619D01*
X68365715Y-54053857D01*
X68365715Y-54196714D01*
X68318096Y-54291952D01*
X68270477Y-54339571D01*
X68175239Y-54387190D01*
X67794286Y-54387190D01*
X68794286Y-54339571D02*
X69127620Y-54339571D01*
X69270477Y-54863381D02*
X68794286Y-54863381D01*
X68794286Y-53863381D01*
X69270477Y-53863381D01*
X69699048Y-54339571D02*
X70032382Y-54339571D01*
X70175239Y-54863381D02*
X69699048Y-54863381D01*
X69699048Y-53863381D01*
X70175239Y-53863381D01*
X70603810Y-54863381D02*
X70603810Y-53863381D01*
X71175239Y-54863381D01*
X71175239Y-53863381D01*
X71556191Y-53863381D02*
X72175239Y-53863381D01*
X71841905Y-54244333D01*
X71984763Y-54244333D01*
X72080001Y-54291952D01*
X72127620Y-54339571D01*
X72175239Y-54434810D01*
X72175239Y-54672905D01*
X72127620Y-54768143D01*
X72080001Y-54815762D01*
X71984763Y-54863381D01*
X71699048Y-54863381D01*
X71603810Y-54815762D01*
X71556191Y-54768143D01*
X127667000Y-123968381D02*
X127333666Y-123492190D01*
X127095571Y-123968381D02*
X127095571Y-122968381D01*
X127476524Y-122968381D01*
X127571762Y-123016000D01*
X127619381Y-123063619D01*
X127667000Y-123158857D01*
X127667000Y-123301714D01*
X127619381Y-123396952D01*
X127571762Y-123444571D01*
X127476524Y-123492190D01*
X127095571Y-123492190D01*
X127857476Y-124063619D02*
X128619381Y-124063619D01*
X129428905Y-123968381D02*
X129095571Y-123492190D01*
X128857476Y-123968381D02*
X128857476Y-122968381D01*
X129238429Y-122968381D01*
X129333667Y-123016000D01*
X129381286Y-123063619D01*
X129428905Y-123158857D01*
X129428905Y-123301714D01*
X129381286Y-123396952D01*
X129333667Y-123444571D01*
X129238429Y-123492190D01*
X128857476Y-123492190D01*
X129857476Y-123444571D02*
X130190810Y-123444571D01*
X130333667Y-123968381D02*
X129857476Y-123968381D01*
X129857476Y-122968381D01*
X130333667Y-122968381D01*
X130762238Y-123968381D02*
X130762238Y-122968381D01*
X131000333Y-122968381D01*
X131143191Y-123016000D01*
X131238429Y-123111238D01*
X131286048Y-123206476D01*
X131333667Y-123396952D01*
X131333667Y-123539810D01*
X131286048Y-123730286D01*
X131238429Y-123825524D01*
X131143191Y-123920762D01*
X131000333Y-123968381D01*
X130762238Y-123968381D01*
X132286048Y-123968381D02*
X131714619Y-123968381D01*
X132000333Y-123968381D02*
X132000333Y-122968381D01*
X131905095Y-123111238D01*
X131809857Y-123206476D01*
X131714619Y-123254095D01*
X60611000Y-87447381D02*
X60277666Y-86971190D01*
X60039571Y-87447381D02*
X60039571Y-86447381D01*
X60420524Y-86447381D01*
X60515762Y-86495000D01*
X60563381Y-86542619D01*
X60611000Y-86637857D01*
X60611000Y-86780714D01*
X60563381Y-86875952D01*
X60515762Y-86923571D01*
X60420524Y-86971190D01*
X60039571Y-86971190D01*
X60801476Y-87542619D02*
X61563381Y-87542619D01*
X62372905Y-87447381D02*
X62039571Y-86971190D01*
X61801476Y-87447381D02*
X61801476Y-86447381D01*
X62182429Y-86447381D01*
X62277667Y-86495000D01*
X62325286Y-86542619D01*
X62372905Y-86637857D01*
X62372905Y-86780714D01*
X62325286Y-86875952D01*
X62277667Y-86923571D01*
X62182429Y-86971190D01*
X61801476Y-86971190D01*
X62801476Y-86923571D02*
X63134810Y-86923571D01*
X63277667Y-87447381D02*
X62801476Y-87447381D01*
X62801476Y-86447381D01*
X63277667Y-86447381D01*
X63706238Y-87447381D02*
X63706238Y-86447381D01*
X63944333Y-86447381D01*
X64087191Y-86495000D01*
X64182429Y-86590238D01*
X64230048Y-86685476D01*
X64277667Y-86875952D01*
X64277667Y-87018810D01*
X64230048Y-87209286D01*
X64182429Y-87304524D01*
X64087191Y-87399762D01*
X63944333Y-87447381D01*
X63706238Y-87447381D01*
X64658619Y-86542619D02*
X64706238Y-86495000D01*
X64801476Y-86447381D01*
X65039572Y-86447381D01*
X65134810Y-86495000D01*
X65182429Y-86542619D01*
X65230048Y-86637857D01*
X65230048Y-86733095D01*
X65182429Y-86875952D01*
X64611000Y-87447381D01*
X65230048Y-87447381D01*
X119285000Y-58182381D02*
X118951666Y-57706190D01*
X118713571Y-58182381D02*
X118713571Y-57182381D01*
X119094524Y-57182381D01*
X119189762Y-57230000D01*
X119237381Y-57277619D01*
X119285000Y-57372857D01*
X119285000Y-57515714D01*
X119237381Y-57610952D01*
X119189762Y-57658571D01*
X119094524Y-57706190D01*
X118713571Y-57706190D01*
X119475476Y-58277619D02*
X120237381Y-58277619D01*
X121046905Y-58182381D02*
X120713571Y-57706190D01*
X120475476Y-58182381D02*
X120475476Y-57182381D01*
X120856429Y-57182381D01*
X120951667Y-57230000D01*
X120999286Y-57277619D01*
X121046905Y-57372857D01*
X121046905Y-57515714D01*
X120999286Y-57610952D01*
X120951667Y-57658571D01*
X120856429Y-57706190D01*
X120475476Y-57706190D01*
X121475476Y-57658571D02*
X121808810Y-57658571D01*
X121951667Y-58182381D02*
X121475476Y-58182381D01*
X121475476Y-57182381D01*
X121951667Y-57182381D01*
X122380238Y-58182381D02*
X122380238Y-57182381D01*
X122618333Y-57182381D01*
X122761191Y-57230000D01*
X122856429Y-57325238D01*
X122904048Y-57420476D01*
X122951667Y-57610952D01*
X122951667Y-57753810D01*
X122904048Y-57944286D01*
X122856429Y-58039524D01*
X122761191Y-58134762D01*
X122618333Y-58182381D01*
X122380238Y-58182381D01*
X123285000Y-57182381D02*
X123904048Y-57182381D01*
X123570714Y-57563333D01*
X123713572Y-57563333D01*
X123808810Y-57610952D01*
X123856429Y-57658571D01*
X123904048Y-57753810D01*
X123904048Y-57991905D01*
X123856429Y-58087143D01*
X123808810Y-58134762D01*
X123713572Y-58182381D01*
X123427857Y-58182381D01*
X123332619Y-58134762D01*
X123285000Y-58087143D01*
X92916667Y-30352381D02*
X92583333Y-29876190D01*
X92345238Y-30352381D02*
X92345238Y-29352381D01*
X92726191Y-29352381D01*
X92821429Y-29400000D01*
X92869048Y-29447619D01*
X92916667Y-29542857D01*
X92916667Y-29685714D01*
X92869048Y-29780952D01*
X92821429Y-29828571D01*
X92726191Y-29876190D01*
X92345238Y-29876190D01*
X93107143Y-30447619D02*
X93869048Y-30447619D01*
X94059524Y-30304762D02*
X94202381Y-30352381D01*
X94440477Y-30352381D01*
X94535715Y-30304762D01*
X94583334Y-30257143D01*
X94630953Y-30161905D01*
X94630953Y-30066667D01*
X94583334Y-29971429D01*
X94535715Y-29923810D01*
X94440477Y-29876190D01*
X94250000Y-29828571D01*
X94154762Y-29780952D01*
X94107143Y-29733333D01*
X94059524Y-29638095D01*
X94059524Y-29542857D01*
X94107143Y-29447619D01*
X94154762Y-29400000D01*
X94250000Y-29352381D01*
X94488096Y-29352381D01*
X94630953Y-29400000D01*
X94916667Y-29352381D02*
X95488096Y-29352381D01*
X95202381Y-30352381D02*
X95202381Y-29352381D01*
X95773810Y-30066667D02*
X96250001Y-30066667D01*
X95678572Y-30352381D02*
X96011905Y-29352381D01*
X96345239Y-30352381D01*
X97250001Y-30352381D02*
X96916667Y-29876190D01*
X96678572Y-30352381D02*
X96678572Y-29352381D01*
X97059525Y-29352381D01*
X97154763Y-29400000D01*
X97202382Y-29447619D01*
X97250001Y-29542857D01*
X97250001Y-29685714D01*
X97202382Y-29780952D01*
X97154763Y-29828571D01*
X97059525Y-29876190D01*
X96678572Y-29876190D01*
X98202382Y-30352381D02*
X97630953Y-30352381D01*
X97916667Y-30352381D02*
X97916667Y-29352381D01*
X97821429Y-29495238D01*
X97726191Y-29590476D01*
X97630953Y-29638095D01*
X63923619Y-167038762D02*
X64066476Y-167086381D01*
X64304572Y-167086381D01*
X64399810Y-167038762D01*
X64447429Y-166991143D01*
X64495048Y-166895905D01*
X64495048Y-166800667D01*
X64447429Y-166705429D01*
X64399810Y-166657810D01*
X64304572Y-166610190D01*
X64114095Y-166562571D01*
X64018857Y-166514952D01*
X63971238Y-166467333D01*
X63923619Y-166372095D01*
X63923619Y-166276857D01*
X63971238Y-166181619D01*
X64018857Y-166134000D01*
X64114095Y-166086381D01*
X64352191Y-166086381D01*
X64495048Y-166134000D01*
X64923619Y-167086381D02*
X64923619Y-166086381D01*
X65304572Y-166086381D01*
X65399810Y-166134000D01*
X65447429Y-166181619D01*
X65495048Y-166276857D01*
X65495048Y-166419714D01*
X65447429Y-166514952D01*
X65399810Y-166562571D01*
X65304572Y-166610190D01*
X64923619Y-166610190D01*
X65923619Y-166562571D02*
X66256953Y-166562571D01*
X66399810Y-167086381D02*
X65923619Y-167086381D01*
X65923619Y-166086381D01*
X66399810Y-166086381D01*
X66828381Y-166562571D02*
X67161715Y-166562571D01*
X67304572Y-167086381D02*
X66828381Y-167086381D01*
X66828381Y-166086381D01*
X67304572Y-166086381D01*
X67733143Y-167086381D02*
X67733143Y-166086381D01*
X67971238Y-166086381D01*
X68114096Y-166134000D01*
X68209334Y-166229238D01*
X68256953Y-166324476D01*
X68304572Y-166514952D01*
X68304572Y-166657810D01*
X68256953Y-166848286D01*
X68209334Y-166943524D01*
X68114096Y-167038762D01*
X67971238Y-167086381D01*
X67733143Y-167086381D01*
X68495048Y-167181619D02*
X69256953Y-167181619D01*
X69495048Y-167086381D02*
X69495048Y-166086381D01*
X69876001Y-166086381D01*
X69971239Y-166134000D01*
X70018858Y-166181619D01*
X70066477Y-166276857D01*
X70066477Y-166419714D01*
X70018858Y-166514952D01*
X69971239Y-166562571D01*
X69876001Y-166610190D01*
X69495048Y-166610190D01*
X70685524Y-166086381D02*
X70876001Y-166086381D01*
X70971239Y-166134000D01*
X71066477Y-166229238D01*
X71114096Y-166419714D01*
X71114096Y-166753048D01*
X71066477Y-166943524D01*
X70971239Y-167038762D01*
X70876001Y-167086381D01*
X70685524Y-167086381D01*
X70590286Y-167038762D01*
X70495048Y-166943524D01*
X70447429Y-166753048D01*
X70447429Y-166419714D01*
X70495048Y-166229238D01*
X70590286Y-166134000D01*
X70685524Y-166086381D01*
X71399810Y-166086381D02*
X71971239Y-166086381D01*
X71685524Y-167086381D02*
X71685524Y-166086381D01*
X72828382Y-167086381D02*
X72256953Y-167086381D01*
X72542667Y-167086381D02*
X72542667Y-166086381D01*
X72447429Y-166229238D01*
X72352191Y-166324476D01*
X72256953Y-166372095D01*
X93178571Y-23954762D02*
X93321428Y-24002381D01*
X93559524Y-24002381D01*
X93654762Y-23954762D01*
X93702381Y-23907143D01*
X93750000Y-23811905D01*
X93750000Y-23716667D01*
X93702381Y-23621429D01*
X93654762Y-23573810D01*
X93559524Y-23526190D01*
X93369047Y-23478571D01*
X93273809Y-23430952D01*
X93226190Y-23383333D01*
X93178571Y-23288095D01*
X93178571Y-23192857D01*
X93226190Y-23097619D01*
X93273809Y-23050000D01*
X93369047Y-23002381D01*
X93607143Y-23002381D01*
X93750000Y-23050000D01*
X94035714Y-23002381D02*
X94607143Y-23002381D01*
X94321428Y-24002381D02*
X94321428Y-23002381D01*
X94892857Y-23716667D02*
X95369048Y-23716667D01*
X94797619Y-24002381D02*
X95130952Y-23002381D01*
X95464286Y-24002381D01*
X96369048Y-24002381D02*
X96035714Y-23526190D01*
X95797619Y-24002381D02*
X95797619Y-23002381D01*
X96178572Y-23002381D01*
X96273810Y-23050000D01*
X96321429Y-23097619D01*
X96369048Y-23192857D01*
X96369048Y-23335714D01*
X96321429Y-23430952D01*
X96273810Y-23478571D01*
X96178572Y-23526190D01*
X95797619Y-23526190D01*
X97321429Y-24002381D02*
X96750000Y-24002381D01*
X97035714Y-24002381D02*
X97035714Y-23002381D01*
X96940476Y-23145238D01*
X96845238Y-23240476D01*
X96750000Y-23288095D01*
X89895667Y-178303381D02*
X89895667Y-179017667D01*
X89848047Y-179160524D01*
X89752809Y-179255762D01*
X89609952Y-179303381D01*
X89514714Y-179303381D01*
X90324238Y-178398619D02*
X90371857Y-178351000D01*
X90467095Y-178303381D01*
X90705191Y-178303381D01*
X90800429Y-178351000D01*
X90848048Y-178398619D01*
X90895667Y-178493857D01*
X90895667Y-178589095D01*
X90848048Y-178731952D01*
X90276619Y-179303381D01*
X90895667Y-179303381D01*
X105878334Y-111577381D02*
X105545000Y-111101190D01*
X105306905Y-111577381D02*
X105306905Y-110577381D01*
X105687858Y-110577381D01*
X105783096Y-110625000D01*
X105830715Y-110672619D01*
X105878334Y-110767857D01*
X105878334Y-110910714D01*
X105830715Y-111005952D01*
X105783096Y-111053571D01*
X105687858Y-111101190D01*
X105306905Y-111101190D01*
X106830715Y-111577381D02*
X106259286Y-111577381D01*
X106545000Y-111577381D02*
X106545000Y-110577381D01*
X106449762Y-110720238D01*
X106354524Y-110815476D01*
X106259286Y-110863095D01*
X84288334Y-111632381D02*
X83955000Y-111156190D01*
X83716905Y-111632381D02*
X83716905Y-110632381D01*
X84097858Y-110632381D01*
X84193096Y-110680000D01*
X84240715Y-110727619D01*
X84288334Y-110822857D01*
X84288334Y-110965714D01*
X84240715Y-111060952D01*
X84193096Y-111108571D01*
X84097858Y-111156190D01*
X83716905Y-111156190D01*
X84669286Y-110727619D02*
X84716905Y-110680000D01*
X84812143Y-110632381D01*
X85050239Y-110632381D01*
X85145477Y-110680000D01*
X85193096Y-110727619D01*
X85240715Y-110822857D01*
X85240715Y-110918095D01*
X85193096Y-111060952D01*
X84621667Y-111632381D01*
X85240715Y-111632381D01*
M02*
