G04 #@! TF.FileFunction,Copper,L1,Top,Signal*
%FSLAX46Y46*%
G04 Gerber Fmt 4.6, Leading zero omitted, Abs format (unit mm)*
G04 Created by KiCad (PCBNEW 4.0.6) date Sunday, September 24, 2017 'PMt' 03:47:12 PM*
%MOMM*%
%LPD*%
G01*
G04 APERTURE LIST*
%ADD10C,0.100000*%
%ADD11R,2.000000X1.700000*%
%ADD12R,1.000000X1.000000*%
%ADD13O,1.000000X1.000000*%
%ADD14R,2.000000X1.780000*%
%ADD15O,1.510000X3.010000*%
%ADD16R,3.500000X3.500000*%
%ADD17C,0.600000*%
%ADD18C,0.250000*%
%ADD19C,0.254000*%
G04 APERTURE END LIST*
D10*
D11*
X48165000Y-128270000D03*
X52165000Y-128270000D03*
X138970000Y-94615000D03*
X142970000Y-94615000D03*
X55150000Y-64770000D03*
X59150000Y-64770000D03*
D12*
X116967000Y-167259000D03*
D13*
X118237000Y-167259000D03*
X119507000Y-167259000D03*
X120777000Y-167259000D03*
X122047000Y-167259000D03*
D14*
X91440000Y-97790000D03*
X99060000Y-105410000D03*
X91440000Y-100330000D03*
X99060000Y-102870000D03*
X91440000Y-102870000D03*
X99060000Y-100330000D03*
X91440000Y-105410000D03*
X99060000Y-97790000D03*
D11*
X138462000Y-127762000D03*
X142462000Y-127762000D03*
X49562000Y-95250000D03*
X53562000Y-95250000D03*
X135350000Y-64770000D03*
X131350000Y-64770000D03*
X59595000Y-121920000D03*
X63595000Y-121920000D03*
X131540000Y-88265000D03*
X127540000Y-88265000D03*
X66580000Y-56261000D03*
X70580000Y-56261000D03*
X131667000Y-121666000D03*
X127667000Y-121666000D03*
X60865000Y-88900000D03*
X64865000Y-88900000D03*
X123285000Y-55880000D03*
X119285000Y-55880000D03*
X93250000Y-31750000D03*
X97250000Y-31750000D03*
D15*
X65786000Y-170434000D03*
X68326000Y-170434000D03*
X70866000Y-170434000D03*
D11*
X93250000Y-25400000D03*
X97250000Y-25400000D03*
D16*
X98679000Y-173101000D03*
X92679000Y-173101000D03*
X95679000Y-177801000D03*
D17*
X98425000Y-164973000D03*
X94361000Y-162433000D03*
X105537000Y-163957000D03*
X99441000Y-161163000D03*
X92583000Y-164211000D03*
X95885000Y-167005000D03*
X103251000Y-166243000D03*
X111379000Y-164465000D03*
X101727000Y-163195000D03*
X98171000Y-161417000D03*
X112141000Y-100203000D03*
X115316000Y-95758000D03*
X88011000Y-97663000D03*
X88646000Y-95123000D03*
X107061000Y-104013000D03*
X98171000Y-117348000D03*
X93726000Y-119888000D03*
X87376000Y-99568000D03*
X84836000Y-99568000D03*
X86741000Y-127508000D03*
X86741000Y-129413000D03*
X112141000Y-95758000D03*
X107696000Y-101473000D03*
X85471000Y-93853000D03*
X77851000Y-98933000D03*
X95631000Y-102743000D03*
X96901000Y-102743000D03*
X94361000Y-98298000D03*
D18*
X96901000Y-164973000D02*
X98425000Y-164973000D01*
X94361000Y-162433000D02*
X96901000Y-164973000D01*
X103505000Y-161925000D02*
X105537000Y-163957000D01*
X100711000Y-161925000D02*
X103505000Y-161925000D01*
X99441000Y-161163000D02*
X100711000Y-161925000D01*
X92583000Y-164211000D02*
X95377000Y-167005000D01*
X95377000Y-167005000D02*
X95885000Y-167005000D01*
X103251000Y-166243000D02*
X104521000Y-164973000D01*
X104521000Y-164973000D02*
X110871000Y-164973000D01*
X110871000Y-164973000D02*
X111379000Y-164465000D01*
X99949000Y-163195000D02*
X101727000Y-163195000D01*
X98171000Y-161417000D02*
X99949000Y-163195000D01*
X59595000Y-121920000D02*
X51689000Y-121920000D01*
X48165000Y-125444000D02*
X48165000Y-128270000D01*
X51689000Y-121920000D02*
X48165000Y-125444000D01*
X115316000Y-97028000D02*
X140557000Y-97028000D01*
X115316000Y-97028000D02*
X112141000Y-100203000D01*
X115316000Y-95758000D02*
X115316000Y-97028000D01*
X59150000Y-64770000D02*
X69723000Y-64770000D01*
X89916000Y-121793000D02*
X93726000Y-121793000D01*
X84836000Y-116713000D02*
X89916000Y-121793000D01*
X84836000Y-100838000D02*
X84836000Y-116713000D01*
X88011000Y-97663000D02*
X84836000Y-100838000D01*
X93091000Y-95123000D02*
X88646000Y-95123000D01*
X94361000Y-93853000D02*
X93091000Y-95123000D01*
X94361000Y-69088000D02*
X94361000Y-93853000D01*
X93091000Y-67818000D02*
X94361000Y-69088000D01*
X72771000Y-67818000D02*
X93091000Y-67818000D01*
X69723000Y-64770000D02*
X72771000Y-67818000D01*
X100711000Y-110998000D02*
X100711000Y-110363000D01*
X140557000Y-97028000D02*
X142970000Y-94615000D01*
X100711000Y-110363000D02*
X107061000Y-104013000D01*
X52165000Y-128270000D02*
X89789000Y-128270000D01*
X100711000Y-107061000D02*
X99060000Y-105410000D01*
X100711000Y-114808000D02*
X100711000Y-110998000D01*
X100711000Y-110998000D02*
X100711000Y-107061000D01*
X98171000Y-117348000D02*
X100711000Y-114808000D01*
X93726000Y-124968000D02*
X93726000Y-121793000D01*
X93726000Y-121793000D02*
X93726000Y-119888000D01*
X89789000Y-128270000D02*
X93726000Y-124968000D01*
X138970000Y-94615000D02*
X137033000Y-94615000D01*
X131540000Y-89122000D02*
X131540000Y-88265000D01*
X137033000Y-94615000D02*
X131540000Y-89122000D01*
X66580000Y-56261000D02*
X61468000Y-56261000D01*
X55150000Y-62579000D02*
X55150000Y-64770000D01*
X61468000Y-56261000D02*
X55150000Y-62579000D01*
X89281000Y-122428000D02*
X93091000Y-122428000D01*
X91440000Y-100330000D02*
X88138000Y-100330000D01*
X88138000Y-100330000D02*
X87376000Y-99568000D01*
X84836000Y-99568000D02*
X84201000Y-100203000D01*
X84201000Y-100203000D02*
X84201000Y-117348000D01*
X84201000Y-117348000D02*
X89281000Y-122428000D01*
X86741000Y-129413000D02*
X88646000Y-131318000D01*
X88646000Y-131318000D02*
X89281000Y-131318000D01*
X89281000Y-131318000D02*
X90551000Y-132588000D01*
X90551000Y-132588000D02*
X90551000Y-164338000D01*
X90551000Y-164338000D02*
X88646000Y-166243000D01*
X88646000Y-166243000D02*
X70866000Y-166243000D01*
X70866000Y-166243000D02*
X68326000Y-168783000D01*
X68326000Y-168783000D02*
X68326000Y-170434000D01*
X89281000Y-127508000D02*
X86741000Y-127508000D01*
X93091000Y-124333000D02*
X89281000Y-127508000D01*
X93091000Y-122428000D02*
X93091000Y-124333000D01*
X110871000Y-94488000D02*
X112141000Y-95758000D01*
X120904000Y-64770000D02*
X117221000Y-67818000D01*
X117221000Y-67818000D02*
X99441000Y-67818000D01*
X99441000Y-67818000D02*
X98171000Y-69088000D01*
X98171000Y-69088000D02*
X98171000Y-89408000D01*
X98171000Y-89408000D02*
X103251000Y-94488000D01*
X103251000Y-94488000D02*
X110871000Y-94488000D01*
X131350000Y-64770000D02*
X120904000Y-64770000D01*
X107696000Y-102870000D02*
X107696000Y-101473000D01*
X99060000Y-102870000D02*
X107696000Y-102870000D01*
X107696000Y-102870000D02*
X111506000Y-102870000D01*
X82931000Y-96393000D02*
X81661000Y-96393000D01*
X85471000Y-93853000D02*
X82931000Y-96393000D01*
X81661000Y-96393000D02*
X78486000Y-96393000D01*
X142462000Y-124174000D02*
X121158000Y-102870000D01*
X121158000Y-102870000D02*
X111506000Y-102870000D01*
X142462000Y-127762000D02*
X142462000Y-124174000D01*
X78486000Y-98298000D02*
X78486000Y-96393000D01*
X77851000Y-98933000D02*
X78486000Y-98298000D01*
X99060000Y-102870000D02*
X97028000Y-102870000D01*
X55753000Y-95250000D02*
X53562000Y-95250000D01*
X56896000Y-96393000D02*
X55753000Y-95250000D01*
X92456000Y-96393000D02*
X81661000Y-96393000D01*
X78486000Y-96393000D02*
X56896000Y-96393000D01*
X93726000Y-97663000D02*
X92456000Y-96393000D01*
X93726000Y-100838000D02*
X93726000Y-97663000D01*
X95631000Y-102743000D02*
X93726000Y-100838000D01*
X97028000Y-102870000D02*
X96901000Y-102743000D01*
X138462000Y-127762000D02*
X137160000Y-127762000D01*
X137160000Y-127762000D02*
X131667000Y-122269000D01*
X131667000Y-122269000D02*
X131667000Y-121666000D01*
X60865000Y-88900000D02*
X54229000Y-88900000D01*
X49562000Y-93567000D02*
X49562000Y-95250000D01*
X54229000Y-88900000D02*
X49562000Y-93567000D01*
X123285000Y-55880000D02*
X127254000Y-55880000D01*
X127254000Y-55880000D02*
X135350000Y-63976000D01*
X135350000Y-63976000D02*
X135350000Y-64770000D01*
X93250000Y-31750000D02*
X93250000Y-25400000D01*
X92679000Y-173101000D02*
X73533000Y-173101000D01*
X73533000Y-173101000D02*
X70866000Y-170434000D01*
X92679000Y-173101000D02*
X92679000Y-165196000D01*
X93853000Y-105410000D02*
X91440000Y-105410000D01*
X94361000Y-105918000D02*
X93853000Y-105410000D01*
X94361000Y-159893000D02*
X94361000Y-105918000D01*
X93091000Y-161163000D02*
X94361000Y-159893000D01*
X91821000Y-162433000D02*
X93091000Y-161163000D01*
X91821000Y-164338000D02*
X91821000Y-162433000D01*
X92679000Y-165196000D02*
X91821000Y-164338000D01*
X97250000Y-25400000D02*
X97250000Y-29369000D01*
X96266000Y-36068000D02*
X96266000Y-98933000D01*
X96901000Y-35433000D02*
X96266000Y-36068000D01*
X99441000Y-35433000D02*
X96901000Y-35433000D01*
X100076000Y-34798000D02*
X99441000Y-35433000D01*
X100076000Y-30988000D02*
X100076000Y-34798000D01*
X98806000Y-29718000D02*
X100076000Y-30988000D01*
X97599000Y-29718000D02*
X98806000Y-29718000D01*
X97250000Y-29369000D02*
X97599000Y-29718000D01*
X98679000Y-173101000D02*
X100584000Y-173101000D01*
X65786000Y-173863000D02*
X65786000Y-170434000D01*
X66421000Y-174498000D02*
X65786000Y-173863000D01*
X86741000Y-174498000D02*
X66421000Y-174498000D01*
X88646000Y-176403000D02*
X86741000Y-174498000D01*
X88646000Y-178308000D02*
X88646000Y-176403000D01*
X91186000Y-180848000D02*
X88646000Y-178308000D01*
X99441000Y-180848000D02*
X91186000Y-180848000D01*
X101981000Y-178308000D02*
X99441000Y-180848000D01*
X101981000Y-174498000D02*
X101981000Y-178308000D01*
X100584000Y-173101000D02*
X101981000Y-174498000D01*
X96266000Y-98933000D02*
X94996000Y-98933000D01*
X94361000Y-98298000D02*
X94361000Y-98298000D01*
X94996000Y-98933000D02*
X94361000Y-98298000D01*
X98679000Y-173101000D02*
X98679000Y-166370000D01*
X97409000Y-97790000D02*
X99060000Y-97790000D01*
X96266000Y-98933000D02*
X97409000Y-97790000D01*
X96266000Y-161798000D02*
X96266000Y-98933000D01*
X96901000Y-162433000D02*
X96266000Y-161798000D01*
X97536000Y-162433000D02*
X96901000Y-162433000D01*
X99441000Y-164338000D02*
X97536000Y-162433000D01*
X99441000Y-165608000D02*
X99441000Y-164338000D01*
X98679000Y-166370000D02*
X99441000Y-165608000D01*
D19*
G36*
X98541631Y-23980723D02*
X98501890Y-23953569D01*
X98250000Y-23902560D01*
X96250000Y-23902560D01*
X96014683Y-23946838D01*
X95798559Y-24085910D01*
X95653569Y-24298110D01*
X95602560Y-24550000D01*
X95602560Y-26250000D01*
X95646838Y-26485317D01*
X95785910Y-26701441D01*
X95998110Y-26846431D01*
X96250000Y-26897440D01*
X96490000Y-26897440D01*
X96490000Y-29369000D01*
X96547852Y-29659839D01*
X96712599Y-29906401D01*
X97061599Y-30255401D01*
X97122998Y-30296426D01*
X97122998Y-30423748D01*
X96964250Y-30265000D01*
X96123691Y-30265000D01*
X95890302Y-30361673D01*
X95711673Y-30540301D01*
X95615000Y-30773690D01*
X95615000Y-31464250D01*
X95773750Y-31623000D01*
X97123000Y-31623000D01*
X97123000Y-31603000D01*
X97377000Y-31603000D01*
X97377000Y-31623000D01*
X98726250Y-31623000D01*
X98885000Y-31464250D01*
X98885000Y-30871802D01*
X99316000Y-31302802D01*
X99316000Y-34483198D01*
X99126198Y-34673000D01*
X96901000Y-34673000D01*
X96610161Y-34730852D01*
X96363599Y-34895599D01*
X95728599Y-35530599D01*
X95563852Y-35777161D01*
X95506000Y-36068000D01*
X95506000Y-98173000D01*
X95310802Y-98173000D01*
X95296122Y-98158320D01*
X95296162Y-98112833D01*
X95154117Y-97769057D01*
X94891327Y-97505808D01*
X94547799Y-97363162D01*
X94422063Y-97363052D01*
X94263401Y-97125599D01*
X93020802Y-95883000D01*
X93091000Y-95883000D01*
X93381839Y-95825148D01*
X93628401Y-95660401D01*
X94898401Y-94390401D01*
X95063148Y-94143840D01*
X95121000Y-93853000D01*
X95121000Y-69088000D01*
X95063148Y-68797161D01*
X95063148Y-68797160D01*
X94898401Y-68550599D01*
X93628401Y-67280599D01*
X93381839Y-67115852D01*
X93091000Y-67058000D01*
X73085802Y-67058000D01*
X70260401Y-64232599D01*
X70013839Y-64067852D01*
X69723000Y-64010000D01*
X60797440Y-64010000D01*
X60797440Y-63920000D01*
X60753162Y-63684683D01*
X60614090Y-63468559D01*
X60401890Y-63323569D01*
X60150000Y-63272560D01*
X58150000Y-63272560D01*
X57914683Y-63316838D01*
X57698559Y-63455910D01*
X57553569Y-63668110D01*
X57502560Y-63920000D01*
X57502560Y-65620000D01*
X57546838Y-65855317D01*
X57685910Y-66071441D01*
X57898110Y-66216431D01*
X58150000Y-66267440D01*
X60150000Y-66267440D01*
X60385317Y-66223162D01*
X60601441Y-66084090D01*
X60746431Y-65871890D01*
X60797440Y-65620000D01*
X60797440Y-65530000D01*
X69408198Y-65530000D01*
X72233599Y-68355401D01*
X72480161Y-68520148D01*
X72771000Y-68578000D01*
X92776198Y-68578000D01*
X93601000Y-69402802D01*
X93601000Y-93538198D01*
X92776198Y-94363000D01*
X89208463Y-94363000D01*
X89176327Y-94330808D01*
X88832799Y-94188162D01*
X88460833Y-94187838D01*
X88117057Y-94329883D01*
X87853808Y-94592673D01*
X87711162Y-94936201D01*
X87710838Y-95308167D01*
X87845056Y-95633000D01*
X84765802Y-95633000D01*
X85610680Y-94788122D01*
X85656167Y-94788162D01*
X85999943Y-94646117D01*
X86263192Y-94383327D01*
X86405838Y-94039799D01*
X86406162Y-93667833D01*
X86264117Y-93324057D01*
X86001327Y-93060808D01*
X85657799Y-92918162D01*
X85285833Y-92917838D01*
X84942057Y-93059883D01*
X84678808Y-93322673D01*
X84536162Y-93666201D01*
X84536121Y-93713077D01*
X82616198Y-95633000D01*
X57210802Y-95633000D01*
X56290401Y-94712599D01*
X56043839Y-94547852D01*
X55753000Y-94490000D01*
X55209440Y-94490000D01*
X55209440Y-94400000D01*
X55165162Y-94164683D01*
X55026090Y-93948559D01*
X54813890Y-93803569D01*
X54562000Y-93752560D01*
X52562000Y-93752560D01*
X52326683Y-93796838D01*
X52110559Y-93935910D01*
X51965569Y-94148110D01*
X51914560Y-94400000D01*
X51914560Y-96100000D01*
X51958838Y-96335317D01*
X52097910Y-96551441D01*
X52310110Y-96696431D01*
X52562000Y-96747440D01*
X54562000Y-96747440D01*
X54797317Y-96703162D01*
X55013441Y-96564090D01*
X55158431Y-96351890D01*
X55209440Y-96100000D01*
X55209440Y-96010000D01*
X55438198Y-96010000D01*
X56358599Y-96930401D01*
X56605161Y-97095148D01*
X56896000Y-97153000D01*
X77726000Y-97153000D01*
X77726000Y-97983198D01*
X77711320Y-97997878D01*
X77665833Y-97997838D01*
X77322057Y-98139883D01*
X77058808Y-98402673D01*
X76916162Y-98746201D01*
X76915838Y-99118167D01*
X77057883Y-99461943D01*
X77320673Y-99725192D01*
X77664201Y-99867838D01*
X78036167Y-99868162D01*
X78379943Y-99726117D01*
X78643192Y-99463327D01*
X78785838Y-99119799D01*
X78785879Y-99072923D01*
X79023401Y-98835401D01*
X79188148Y-98588839D01*
X79246000Y-98298000D01*
X79246000Y-97153000D01*
X87210367Y-97153000D01*
X87076162Y-97476201D01*
X87076121Y-97523077D01*
X85594659Y-99004539D01*
X85366327Y-98775808D01*
X85022799Y-98633162D01*
X84650833Y-98632838D01*
X84307057Y-98774883D01*
X84043808Y-99037673D01*
X83901162Y-99381201D01*
X83901121Y-99428077D01*
X83663599Y-99665599D01*
X83498852Y-99912161D01*
X83441000Y-100203000D01*
X83441000Y-117348000D01*
X83498852Y-117638839D01*
X83663599Y-117885401D01*
X88743599Y-122965401D01*
X88990161Y-123130148D01*
X89281000Y-123188000D01*
X92331000Y-123188000D01*
X92331000Y-123977035D01*
X89005842Y-126748000D01*
X87303463Y-126748000D01*
X87271327Y-126715808D01*
X86927799Y-126573162D01*
X86555833Y-126572838D01*
X86212057Y-126714883D01*
X85948808Y-126977673D01*
X85806162Y-127321201D01*
X85805998Y-127510000D01*
X53812440Y-127510000D01*
X53812440Y-127420000D01*
X53768162Y-127184683D01*
X53629090Y-126968559D01*
X53416890Y-126823569D01*
X53165000Y-126772560D01*
X51165000Y-126772560D01*
X50929683Y-126816838D01*
X50713559Y-126955910D01*
X50568569Y-127168110D01*
X50517560Y-127420000D01*
X50517560Y-129120000D01*
X50561838Y-129355317D01*
X50700910Y-129571441D01*
X50913110Y-129716431D01*
X51165000Y-129767440D01*
X53165000Y-129767440D01*
X53400317Y-129723162D01*
X53616441Y-129584090D01*
X53761431Y-129371890D01*
X53812440Y-129120000D01*
X53812440Y-129030000D01*
X85887632Y-129030000D01*
X85806162Y-129226201D01*
X85805838Y-129598167D01*
X85947883Y-129941943D01*
X86210673Y-130205192D01*
X86554201Y-130347838D01*
X86601077Y-130347879D01*
X88108599Y-131855401D01*
X88355161Y-132020148D01*
X88646000Y-132078000D01*
X88966198Y-132078000D01*
X89791000Y-132902802D01*
X89791000Y-164023198D01*
X88331198Y-165483000D01*
X70866000Y-165483000D01*
X70623414Y-165531254D01*
X70575160Y-165540852D01*
X70328599Y-165705599D01*
X67788599Y-168245599D01*
X67648649Y-168455050D01*
X67343122Y-168659197D01*
X67056000Y-169088904D01*
X66768878Y-168659197D01*
X66317930Y-168357882D01*
X65786000Y-168252075D01*
X65254070Y-168357882D01*
X64803122Y-168659197D01*
X64501807Y-169110145D01*
X64396000Y-169642075D01*
X64396000Y-171225925D01*
X64501807Y-171757855D01*
X64803122Y-172208803D01*
X65026000Y-172357726D01*
X65026000Y-173863000D01*
X65083852Y-174153839D01*
X65248599Y-174400401D01*
X65883599Y-175035401D01*
X66130161Y-175200148D01*
X66421000Y-175258000D01*
X86426198Y-175258000D01*
X87886000Y-176717802D01*
X87886000Y-178308000D01*
X87943852Y-178598839D01*
X88108599Y-178845401D01*
X90648599Y-181385401D01*
X90895160Y-181550148D01*
X90943414Y-181559746D01*
X91186000Y-181608000D01*
X99441000Y-181608000D01*
X99731839Y-181550148D01*
X99978401Y-181385401D01*
X102518401Y-178845401D01*
X102683148Y-178598840D01*
X102692746Y-178550586D01*
X102741000Y-178308000D01*
X102741000Y-174498000D01*
X102683148Y-174207161D01*
X102683148Y-174207160D01*
X102518401Y-173960599D01*
X101121401Y-172563599D01*
X101076440Y-172533557D01*
X101076440Y-171351000D01*
X101032162Y-171115683D01*
X100893090Y-170899559D01*
X100680890Y-170754569D01*
X100429000Y-170703560D01*
X99439000Y-170703560D01*
X99439000Y-166684802D01*
X99978401Y-166145401D01*
X100143148Y-165898839D01*
X100201000Y-165608000D01*
X100201000Y-164338000D01*
X100143148Y-164047161D01*
X100081568Y-163955000D01*
X101164537Y-163955000D01*
X101196673Y-163987192D01*
X101540201Y-164129838D01*
X101912167Y-164130162D01*
X102255943Y-163988117D01*
X102519192Y-163725327D01*
X102661838Y-163381799D01*
X102662162Y-163009833D01*
X102527944Y-162685000D01*
X103190198Y-162685000D01*
X104601878Y-164096680D01*
X104601838Y-164142167D01*
X104631106Y-164213000D01*
X104521000Y-164213000D01*
X104230160Y-164270852D01*
X103983599Y-164435599D01*
X103111320Y-165307878D01*
X103065833Y-165307838D01*
X102722057Y-165449883D01*
X102458808Y-165712673D01*
X102316162Y-166056201D01*
X102315838Y-166428167D01*
X102457883Y-166771943D01*
X102720673Y-167035192D01*
X103064201Y-167177838D01*
X103436167Y-167178162D01*
X103779943Y-167036117D01*
X104043192Y-166773327D01*
X104049141Y-166759000D01*
X115819560Y-166759000D01*
X115819560Y-167759000D01*
X115863838Y-167994317D01*
X116002910Y-168210441D01*
X116215110Y-168355431D01*
X116467000Y-168406440D01*
X117467000Y-168406440D01*
X117702317Y-168362162D01*
X117778073Y-168313414D01*
X117802654Y-168329839D01*
X118237000Y-168416236D01*
X118671346Y-168329839D01*
X118872000Y-168195766D01*
X119072654Y-168329839D01*
X119507000Y-168416236D01*
X119941346Y-168329839D01*
X120142000Y-168195766D01*
X120342654Y-168329839D01*
X120777000Y-168416236D01*
X121211346Y-168329839D01*
X121412000Y-168195766D01*
X121612654Y-168329839D01*
X122047000Y-168416236D01*
X122481346Y-168329839D01*
X122849566Y-168083802D01*
X123095603Y-167715582D01*
X123182000Y-167281236D01*
X123182000Y-167236764D01*
X123095603Y-166802418D01*
X122849566Y-166434198D01*
X122481346Y-166188161D01*
X122047000Y-166101764D01*
X121612654Y-166188161D01*
X121412000Y-166322234D01*
X121211346Y-166188161D01*
X120777000Y-166101764D01*
X120342654Y-166188161D01*
X120142000Y-166322234D01*
X119941346Y-166188161D01*
X119507000Y-166101764D01*
X119072654Y-166188161D01*
X118872000Y-166322234D01*
X118671346Y-166188161D01*
X118237000Y-166101764D01*
X117802654Y-166188161D01*
X117779241Y-166203805D01*
X117718890Y-166162569D01*
X117467000Y-166111560D01*
X116467000Y-166111560D01*
X116231683Y-166155838D01*
X116015559Y-166294910D01*
X115870569Y-166507110D01*
X115819560Y-166759000D01*
X104049141Y-166759000D01*
X104185838Y-166429799D01*
X104185879Y-166382923D01*
X104835802Y-165733000D01*
X110871000Y-165733000D01*
X111161839Y-165675148D01*
X111408401Y-165510401D01*
X111518680Y-165400122D01*
X111564167Y-165400162D01*
X111907943Y-165258117D01*
X112171192Y-164995327D01*
X112313838Y-164651799D01*
X112314162Y-164279833D01*
X112172117Y-163936057D01*
X111909327Y-163672808D01*
X111565799Y-163530162D01*
X111193833Y-163529838D01*
X110850057Y-163671883D01*
X110586808Y-163934673D01*
X110471236Y-164213000D01*
X106443103Y-164213000D01*
X106471838Y-164143799D01*
X106472162Y-163771833D01*
X106330117Y-163428057D01*
X106067327Y-163164808D01*
X105723799Y-163022162D01*
X105676923Y-163022121D01*
X104042401Y-161387599D01*
X103795839Y-161222852D01*
X103505000Y-161165000D01*
X100921509Y-161165000D01*
X100299224Y-160791629D01*
X100234117Y-160634057D01*
X99971327Y-160370808D01*
X99627799Y-160228162D01*
X99255833Y-160227838D01*
X98912057Y-160369883D01*
X98669801Y-160611717D01*
X98357799Y-160482162D01*
X97985833Y-160481838D01*
X97642057Y-160623883D01*
X97378808Y-160886673D01*
X97236162Y-161230201D01*
X97235838Y-161602167D01*
X97265106Y-161673000D01*
X97215802Y-161673000D01*
X97026000Y-161483198D01*
X97026000Y-121951750D01*
X126032000Y-121951750D01*
X126032000Y-122642310D01*
X126128673Y-122875699D01*
X126307302Y-123054327D01*
X126540691Y-123151000D01*
X127381250Y-123151000D01*
X127540000Y-122992250D01*
X127540000Y-121793000D01*
X127794000Y-121793000D01*
X127794000Y-122992250D01*
X127952750Y-123151000D01*
X128793309Y-123151000D01*
X129026698Y-123054327D01*
X129205327Y-122875699D01*
X129302000Y-122642310D01*
X129302000Y-121951750D01*
X129143250Y-121793000D01*
X127794000Y-121793000D01*
X127540000Y-121793000D01*
X126190750Y-121793000D01*
X126032000Y-121951750D01*
X97026000Y-121951750D01*
X97026000Y-120689690D01*
X126032000Y-120689690D01*
X126032000Y-121380250D01*
X126190750Y-121539000D01*
X127540000Y-121539000D01*
X127540000Y-120339750D01*
X127794000Y-120339750D01*
X127794000Y-121539000D01*
X129143250Y-121539000D01*
X129302000Y-121380250D01*
X129302000Y-120816000D01*
X130019560Y-120816000D01*
X130019560Y-122516000D01*
X130063838Y-122751317D01*
X130202910Y-122967441D01*
X130415110Y-123112431D01*
X130667000Y-123163440D01*
X131486638Y-123163440D01*
X136622599Y-128299401D01*
X136814560Y-128427665D01*
X136814560Y-128612000D01*
X136858838Y-128847317D01*
X136997910Y-129063441D01*
X137210110Y-129208431D01*
X137462000Y-129259440D01*
X139462000Y-129259440D01*
X139697317Y-129215162D01*
X139913441Y-129076090D01*
X140058431Y-128863890D01*
X140109440Y-128612000D01*
X140109440Y-126912000D01*
X140065162Y-126676683D01*
X139926090Y-126460559D01*
X139713890Y-126315569D01*
X139462000Y-126264560D01*
X137462000Y-126264560D01*
X137226683Y-126308838D01*
X137010559Y-126447910D01*
X136974088Y-126501286D01*
X133254201Y-122781399D01*
X133263431Y-122767890D01*
X133314440Y-122516000D01*
X133314440Y-120816000D01*
X133270162Y-120580683D01*
X133131090Y-120364559D01*
X132918890Y-120219569D01*
X132667000Y-120168560D01*
X130667000Y-120168560D01*
X130431683Y-120212838D01*
X130215559Y-120351910D01*
X130070569Y-120564110D01*
X130019560Y-120816000D01*
X129302000Y-120816000D01*
X129302000Y-120689690D01*
X129205327Y-120456301D01*
X129026698Y-120277673D01*
X128793309Y-120181000D01*
X127952750Y-120181000D01*
X127794000Y-120339750D01*
X127540000Y-120339750D01*
X127381250Y-120181000D01*
X126540691Y-120181000D01*
X126307302Y-120277673D01*
X126128673Y-120456301D01*
X126032000Y-120689690D01*
X97026000Y-120689690D01*
X97026000Y-103678110D01*
X97086167Y-103678162D01*
X97202728Y-103630000D01*
X97412560Y-103630000D01*
X97412560Y-103760000D01*
X97456838Y-103995317D01*
X97550503Y-104140877D01*
X97463569Y-104268110D01*
X97412560Y-104520000D01*
X97412560Y-106300000D01*
X97456838Y-106535317D01*
X97595910Y-106751441D01*
X97808110Y-106896431D01*
X98060000Y-106947440D01*
X99522638Y-106947440D01*
X99951000Y-107375802D01*
X99951000Y-114493198D01*
X98031320Y-116412878D01*
X97985833Y-116412838D01*
X97642057Y-116554883D01*
X97378808Y-116817673D01*
X97236162Y-117161201D01*
X97235838Y-117533167D01*
X97377883Y-117876943D01*
X97640673Y-118140192D01*
X97984201Y-118282838D01*
X98356167Y-118283162D01*
X98699943Y-118141117D01*
X98963192Y-117878327D01*
X99105838Y-117534799D01*
X99105879Y-117487923D01*
X101248401Y-115345401D01*
X101413148Y-115098840D01*
X101422746Y-115050586D01*
X101471000Y-114808000D01*
X101471000Y-110677802D01*
X107200680Y-104948122D01*
X107246167Y-104948162D01*
X107589943Y-104806117D01*
X107853192Y-104543327D01*
X107995838Y-104199799D01*
X107996162Y-103827833D01*
X107914419Y-103630000D01*
X120843198Y-103630000D01*
X141702000Y-124488802D01*
X141702000Y-126264560D01*
X141462000Y-126264560D01*
X141226683Y-126308838D01*
X141010559Y-126447910D01*
X140865569Y-126660110D01*
X140814560Y-126912000D01*
X140814560Y-128612000D01*
X140858838Y-128847317D01*
X140997910Y-129063441D01*
X141210110Y-129208431D01*
X141462000Y-129259440D01*
X143462000Y-129259440D01*
X143697317Y-129215162D01*
X143913441Y-129076090D01*
X144058431Y-128863890D01*
X144109440Y-128612000D01*
X144109440Y-126912000D01*
X144065162Y-126676683D01*
X143926090Y-126460559D01*
X143713890Y-126315569D01*
X143462000Y-126264560D01*
X143222000Y-126264560D01*
X143222000Y-124174000D01*
X143164148Y-123883161D01*
X142999401Y-123636599D01*
X121695401Y-102332599D01*
X121448839Y-102167852D01*
X121158000Y-102110000D01*
X108456000Y-102110000D01*
X108456000Y-102035463D01*
X108488192Y-102003327D01*
X108630838Y-101659799D01*
X108631162Y-101287833D01*
X108489117Y-100944057D01*
X108226327Y-100680808D01*
X107882799Y-100538162D01*
X107510833Y-100537838D01*
X107167057Y-100679883D01*
X106903808Y-100942673D01*
X106761162Y-101286201D01*
X106760838Y-101658167D01*
X106902883Y-102001943D01*
X106936000Y-102035118D01*
X106936000Y-102110000D01*
X100707440Y-102110000D01*
X100707440Y-101980000D01*
X100663162Y-101744683D01*
X100569497Y-101599123D01*
X100656431Y-101471890D01*
X100707440Y-101220000D01*
X100707440Y-99440000D01*
X100663162Y-99204683D01*
X100569497Y-99059123D01*
X100656431Y-98931890D01*
X100707440Y-98680000D01*
X100707440Y-96900000D01*
X100663162Y-96664683D01*
X100524090Y-96448559D01*
X100311890Y-96303569D01*
X100060000Y-96252560D01*
X98060000Y-96252560D01*
X97824683Y-96296838D01*
X97608559Y-96435910D01*
X97463569Y-96648110D01*
X97412560Y-96900000D01*
X97412560Y-97030000D01*
X97409000Y-97030000D01*
X97118161Y-97087852D01*
X97026000Y-97149432D01*
X97026000Y-69088000D01*
X97411000Y-69088000D01*
X97411000Y-89408000D01*
X97468852Y-89698839D01*
X97633599Y-89945401D01*
X102713599Y-95025401D01*
X102960161Y-95190148D01*
X103251000Y-95248000D01*
X110556198Y-95248000D01*
X111205878Y-95897680D01*
X111205838Y-95943167D01*
X111347883Y-96286943D01*
X111610673Y-96550192D01*
X111954201Y-96692838D01*
X112326167Y-96693162D01*
X112669943Y-96551117D01*
X112933192Y-96288327D01*
X113075838Y-95944799D01*
X113076162Y-95572833D01*
X112934117Y-95229057D01*
X112671327Y-94965808D01*
X112327799Y-94823162D01*
X112280923Y-94823121D01*
X111408401Y-93950599D01*
X111161839Y-93785852D01*
X110871000Y-93728000D01*
X103565802Y-93728000D01*
X98931000Y-89093198D01*
X98931000Y-88550750D01*
X125905000Y-88550750D01*
X125905000Y-89241310D01*
X126001673Y-89474699D01*
X126180302Y-89653327D01*
X126413691Y-89750000D01*
X127254250Y-89750000D01*
X127413000Y-89591250D01*
X127413000Y-88392000D01*
X127667000Y-88392000D01*
X127667000Y-89591250D01*
X127825750Y-89750000D01*
X128666309Y-89750000D01*
X128899698Y-89653327D01*
X129078327Y-89474699D01*
X129175000Y-89241310D01*
X129175000Y-88550750D01*
X129016250Y-88392000D01*
X127667000Y-88392000D01*
X127413000Y-88392000D01*
X126063750Y-88392000D01*
X125905000Y-88550750D01*
X98931000Y-88550750D01*
X98931000Y-87288690D01*
X125905000Y-87288690D01*
X125905000Y-87979250D01*
X126063750Y-88138000D01*
X127413000Y-88138000D01*
X127413000Y-86938750D01*
X127667000Y-86938750D01*
X127667000Y-88138000D01*
X129016250Y-88138000D01*
X129175000Y-87979250D01*
X129175000Y-87415000D01*
X129892560Y-87415000D01*
X129892560Y-89115000D01*
X129936838Y-89350317D01*
X130075910Y-89566441D01*
X130288110Y-89711431D01*
X130540000Y-89762440D01*
X131105638Y-89762440D01*
X136495599Y-95152401D01*
X136742161Y-95317148D01*
X137033000Y-95375000D01*
X137322560Y-95375000D01*
X137322560Y-95465000D01*
X137366838Y-95700317D01*
X137505910Y-95916441D01*
X137718110Y-96061431D01*
X137970000Y-96112440D01*
X139970000Y-96112440D01*
X140205317Y-96068162D01*
X140421441Y-95929090D01*
X140566431Y-95716890D01*
X140617440Y-95465000D01*
X140617440Y-93765000D01*
X140573162Y-93529683D01*
X140434090Y-93313559D01*
X140221890Y-93168569D01*
X139970000Y-93117560D01*
X137970000Y-93117560D01*
X137734683Y-93161838D01*
X137518559Y-93300910D01*
X137373569Y-93513110D01*
X137322560Y-93765000D01*
X137322560Y-93829758D01*
X133024098Y-89531296D01*
X133136431Y-89366890D01*
X133187440Y-89115000D01*
X133187440Y-87415000D01*
X133143162Y-87179683D01*
X133004090Y-86963559D01*
X132791890Y-86818569D01*
X132540000Y-86767560D01*
X130540000Y-86767560D01*
X130304683Y-86811838D01*
X130088559Y-86950910D01*
X129943569Y-87163110D01*
X129892560Y-87415000D01*
X129175000Y-87415000D01*
X129175000Y-87288690D01*
X129078327Y-87055301D01*
X128899698Y-86876673D01*
X128666309Y-86780000D01*
X127825750Y-86780000D01*
X127667000Y-86938750D01*
X127413000Y-86938750D01*
X127254250Y-86780000D01*
X126413691Y-86780000D01*
X126180302Y-86876673D01*
X126001673Y-87055301D01*
X125905000Y-87288690D01*
X98931000Y-87288690D01*
X98931000Y-69402802D01*
X99755802Y-68578000D01*
X117221000Y-68578000D01*
X117332017Y-68555917D01*
X117444606Y-68544360D01*
X117476400Y-68527197D01*
X117511839Y-68520148D01*
X117605949Y-68457266D01*
X117705551Y-68403500D01*
X121177697Y-65530000D01*
X129702560Y-65530000D01*
X129702560Y-65620000D01*
X129746838Y-65855317D01*
X129885910Y-66071441D01*
X130098110Y-66216431D01*
X130350000Y-66267440D01*
X132350000Y-66267440D01*
X132585317Y-66223162D01*
X132801441Y-66084090D01*
X132946431Y-65871890D01*
X132997440Y-65620000D01*
X132997440Y-63920000D01*
X132953162Y-63684683D01*
X132814090Y-63468559D01*
X132601890Y-63323569D01*
X132350000Y-63272560D01*
X130350000Y-63272560D01*
X130114683Y-63316838D01*
X129898559Y-63455910D01*
X129753569Y-63668110D01*
X129702560Y-63920000D01*
X129702560Y-64010000D01*
X120904000Y-64010000D01*
X120792989Y-64032082D01*
X120680394Y-64043639D01*
X120648597Y-64060803D01*
X120613161Y-64067852D01*
X120519054Y-64130732D01*
X120419449Y-64184500D01*
X116947303Y-67058000D01*
X99441000Y-67058000D01*
X99150160Y-67115852D01*
X98903599Y-67280599D01*
X97633599Y-68550599D01*
X97468852Y-68797161D01*
X97411000Y-69088000D01*
X97026000Y-69088000D01*
X97026000Y-56165750D01*
X117650000Y-56165750D01*
X117650000Y-56856310D01*
X117746673Y-57089699D01*
X117925302Y-57268327D01*
X118158691Y-57365000D01*
X118999250Y-57365000D01*
X119158000Y-57206250D01*
X119158000Y-56007000D01*
X119412000Y-56007000D01*
X119412000Y-57206250D01*
X119570750Y-57365000D01*
X120411309Y-57365000D01*
X120644698Y-57268327D01*
X120823327Y-57089699D01*
X120920000Y-56856310D01*
X120920000Y-56165750D01*
X120761250Y-56007000D01*
X119412000Y-56007000D01*
X119158000Y-56007000D01*
X117808750Y-56007000D01*
X117650000Y-56165750D01*
X97026000Y-56165750D01*
X97026000Y-54903690D01*
X117650000Y-54903690D01*
X117650000Y-55594250D01*
X117808750Y-55753000D01*
X119158000Y-55753000D01*
X119158000Y-54553750D01*
X119412000Y-54553750D01*
X119412000Y-55753000D01*
X120761250Y-55753000D01*
X120920000Y-55594250D01*
X120920000Y-55030000D01*
X121637560Y-55030000D01*
X121637560Y-56730000D01*
X121681838Y-56965317D01*
X121820910Y-57181441D01*
X122033110Y-57326431D01*
X122285000Y-57377440D01*
X124285000Y-57377440D01*
X124520317Y-57333162D01*
X124736441Y-57194090D01*
X124881431Y-56981890D01*
X124932440Y-56730000D01*
X124932440Y-56640000D01*
X126939198Y-56640000D01*
X133840330Y-63541132D01*
X133753569Y-63668110D01*
X133702560Y-63920000D01*
X133702560Y-65620000D01*
X133746838Y-65855317D01*
X133885910Y-66071441D01*
X134098110Y-66216431D01*
X134350000Y-66267440D01*
X136350000Y-66267440D01*
X136585317Y-66223162D01*
X136801441Y-66084090D01*
X136946431Y-65871890D01*
X136997440Y-65620000D01*
X136997440Y-63920000D01*
X136953162Y-63684683D01*
X136814090Y-63468559D01*
X136601890Y-63323569D01*
X136350000Y-63272560D01*
X135721362Y-63272560D01*
X127791401Y-55342599D01*
X127544839Y-55177852D01*
X127254000Y-55120000D01*
X124932440Y-55120000D01*
X124932440Y-55030000D01*
X124888162Y-54794683D01*
X124749090Y-54578559D01*
X124536890Y-54433569D01*
X124285000Y-54382560D01*
X122285000Y-54382560D01*
X122049683Y-54426838D01*
X121833559Y-54565910D01*
X121688569Y-54778110D01*
X121637560Y-55030000D01*
X120920000Y-55030000D01*
X120920000Y-54903690D01*
X120823327Y-54670301D01*
X120644698Y-54491673D01*
X120411309Y-54395000D01*
X119570750Y-54395000D01*
X119412000Y-54553750D01*
X119158000Y-54553750D01*
X118999250Y-54395000D01*
X118158691Y-54395000D01*
X117925302Y-54491673D01*
X117746673Y-54670301D01*
X117650000Y-54903690D01*
X97026000Y-54903690D01*
X97026000Y-36382802D01*
X97215802Y-36193000D01*
X99441000Y-36193000D01*
X99731839Y-36135148D01*
X99978401Y-35970401D01*
X100613401Y-35335401D01*
X100778148Y-35088839D01*
X100836000Y-34798000D01*
X100836000Y-30988000D01*
X100778148Y-30697161D01*
X100778148Y-30697160D01*
X100613401Y-30450599D01*
X99343401Y-29180599D01*
X99096839Y-29015852D01*
X98806000Y-28958000D01*
X98010000Y-28958000D01*
X98010000Y-26897440D01*
X98250000Y-26897440D01*
X98485317Y-26853162D01*
X98701441Y-26714090D01*
X98846431Y-26501890D01*
X98897440Y-26250000D01*
X98897440Y-24550000D01*
X98853162Y-24314683D01*
X98812680Y-24251772D01*
X142251908Y-67691000D01*
X119126000Y-67691000D01*
X119076590Y-67701006D01*
X119034965Y-67729447D01*
X119007685Y-67771841D01*
X118999048Y-67821509D01*
X119010416Y-67870623D01*
X119036197Y-67907803D01*
X120022130Y-68893736D01*
X120147954Y-69082046D01*
X144261631Y-93195723D01*
X144221890Y-93168569D01*
X143970000Y-93117560D01*
X141970000Y-93117560D01*
X141734683Y-93161838D01*
X141518559Y-93300910D01*
X141373569Y-93513110D01*
X141322560Y-93765000D01*
X141322560Y-95187638D01*
X140242198Y-96268000D01*
X116116633Y-96268000D01*
X116250838Y-95944799D01*
X116251162Y-95572833D01*
X116109117Y-95229057D01*
X115846327Y-94965808D01*
X115502799Y-94823162D01*
X115130833Y-94822838D01*
X114787057Y-94964883D01*
X114523808Y-95227673D01*
X114381162Y-95571201D01*
X114380838Y-95943167D01*
X114522883Y-96286943D01*
X114556000Y-96320118D01*
X114556000Y-96713198D01*
X112001320Y-99267878D01*
X111955833Y-99267838D01*
X111612057Y-99409883D01*
X111348808Y-99672673D01*
X111206162Y-100016201D01*
X111205838Y-100388167D01*
X111347883Y-100731943D01*
X111610673Y-100995192D01*
X111954201Y-101137838D01*
X112326167Y-101138162D01*
X112669943Y-100996117D01*
X112933192Y-100733327D01*
X113075838Y-100389799D01*
X113075879Y-100342923D01*
X115630802Y-97788000D01*
X117801394Y-97788000D01*
X118752130Y-98738736D01*
X118877954Y-98927046D01*
X150506908Y-130556000D01*
X110236000Y-130556000D01*
X110186590Y-130566006D01*
X110144965Y-130594447D01*
X110117685Y-130636841D01*
X110109000Y-130683000D01*
X110109000Y-160528000D01*
X110119006Y-160577410D01*
X110147447Y-160619035D01*
X110189841Y-160646315D01*
X110236000Y-160655000D01*
X132334000Y-160655000D01*
X132334000Y-181991000D01*
X58293000Y-181991000D01*
X58293000Y-160655000D01*
X80391000Y-160655000D01*
X80440410Y-160644994D01*
X80482035Y-160616553D01*
X80509315Y-160574159D01*
X80518000Y-160528000D01*
X80518000Y-130683000D01*
X80507994Y-130633590D01*
X80479553Y-130591965D01*
X80437159Y-130564685D01*
X80391000Y-130556000D01*
X40057606Y-130556000D01*
X43193606Y-127420000D01*
X46517560Y-127420000D01*
X46517560Y-129120000D01*
X46561838Y-129355317D01*
X46700910Y-129571441D01*
X46913110Y-129716431D01*
X47165000Y-129767440D01*
X49165000Y-129767440D01*
X49400317Y-129723162D01*
X49616441Y-129584090D01*
X49761431Y-129371890D01*
X49812440Y-129120000D01*
X49812440Y-127420000D01*
X49768162Y-127184683D01*
X49629090Y-126968559D01*
X49416890Y-126823569D01*
X49165000Y-126772560D01*
X48925000Y-126772560D01*
X48925000Y-125758802D01*
X52003802Y-122680000D01*
X57947560Y-122680000D01*
X57947560Y-122770000D01*
X57991838Y-123005317D01*
X58130910Y-123221441D01*
X58343110Y-123366431D01*
X58595000Y-123417440D01*
X60595000Y-123417440D01*
X60830317Y-123373162D01*
X61046441Y-123234090D01*
X61191431Y-123021890D01*
X61242440Y-122770000D01*
X61242440Y-122205750D01*
X61960000Y-122205750D01*
X61960000Y-122896310D01*
X62056673Y-123129699D01*
X62235302Y-123308327D01*
X62468691Y-123405000D01*
X63309250Y-123405000D01*
X63468000Y-123246250D01*
X63468000Y-122047000D01*
X63722000Y-122047000D01*
X63722000Y-123246250D01*
X63880750Y-123405000D01*
X64721309Y-123405000D01*
X64954698Y-123308327D01*
X65133327Y-123129699D01*
X65230000Y-122896310D01*
X65230000Y-122205750D01*
X65071250Y-122047000D01*
X63722000Y-122047000D01*
X63468000Y-122047000D01*
X62118750Y-122047000D01*
X61960000Y-122205750D01*
X61242440Y-122205750D01*
X61242440Y-121070000D01*
X61218674Y-120943690D01*
X61960000Y-120943690D01*
X61960000Y-121634250D01*
X62118750Y-121793000D01*
X63468000Y-121793000D01*
X63468000Y-120593750D01*
X63722000Y-120593750D01*
X63722000Y-121793000D01*
X65071250Y-121793000D01*
X65230000Y-121634250D01*
X65230000Y-120943690D01*
X65133327Y-120710301D01*
X64954698Y-120531673D01*
X64721309Y-120435000D01*
X63880750Y-120435000D01*
X63722000Y-120593750D01*
X63468000Y-120593750D01*
X63309250Y-120435000D01*
X62468691Y-120435000D01*
X62235302Y-120531673D01*
X62056673Y-120710301D01*
X61960000Y-120943690D01*
X61218674Y-120943690D01*
X61198162Y-120834683D01*
X61059090Y-120618559D01*
X60846890Y-120473569D01*
X60595000Y-120422560D01*
X58595000Y-120422560D01*
X58359683Y-120466838D01*
X58143559Y-120605910D01*
X57998569Y-120818110D01*
X57947560Y-121070000D01*
X57947560Y-121160000D01*
X51689000Y-121160000D01*
X51398161Y-121217852D01*
X51151599Y-121382599D01*
X47627599Y-124906599D01*
X47462852Y-125153161D01*
X47405000Y-125444000D01*
X47405000Y-126772560D01*
X47165000Y-126772560D01*
X46929683Y-126816838D01*
X46713559Y-126955910D01*
X46568569Y-127168110D01*
X46517560Y-127420000D01*
X43193606Y-127420000D01*
X72860803Y-97752803D01*
X72888666Y-97710789D01*
X72897988Y-97661246D01*
X72887300Y-97611978D01*
X72858287Y-97570751D01*
X72815520Y-97544059D01*
X72771000Y-97536000D01*
X41962606Y-97536000D01*
X45098606Y-94400000D01*
X47914560Y-94400000D01*
X47914560Y-96100000D01*
X47958838Y-96335317D01*
X48097910Y-96551441D01*
X48310110Y-96696431D01*
X48562000Y-96747440D01*
X50562000Y-96747440D01*
X50797317Y-96703162D01*
X51013441Y-96564090D01*
X51158431Y-96351890D01*
X51209440Y-96100000D01*
X51209440Y-94400000D01*
X51165162Y-94164683D01*
X51026090Y-93948559D01*
X50813890Y-93803569D01*
X50562000Y-93752560D01*
X50451242Y-93752560D01*
X54543802Y-89660000D01*
X59217560Y-89660000D01*
X59217560Y-89750000D01*
X59261838Y-89985317D01*
X59400910Y-90201441D01*
X59613110Y-90346431D01*
X59865000Y-90397440D01*
X61865000Y-90397440D01*
X62100317Y-90353162D01*
X62316441Y-90214090D01*
X62461431Y-90001890D01*
X62512440Y-89750000D01*
X62512440Y-89185750D01*
X63230000Y-89185750D01*
X63230000Y-89876310D01*
X63326673Y-90109699D01*
X63505302Y-90288327D01*
X63738691Y-90385000D01*
X64579250Y-90385000D01*
X64738000Y-90226250D01*
X64738000Y-89027000D01*
X64992000Y-89027000D01*
X64992000Y-90226250D01*
X65150750Y-90385000D01*
X65991309Y-90385000D01*
X66224698Y-90288327D01*
X66403327Y-90109699D01*
X66500000Y-89876310D01*
X66500000Y-89185750D01*
X66341250Y-89027000D01*
X64992000Y-89027000D01*
X64738000Y-89027000D01*
X63388750Y-89027000D01*
X63230000Y-89185750D01*
X62512440Y-89185750D01*
X62512440Y-88050000D01*
X62488674Y-87923690D01*
X63230000Y-87923690D01*
X63230000Y-88614250D01*
X63388750Y-88773000D01*
X64738000Y-88773000D01*
X64738000Y-87573750D01*
X64992000Y-87573750D01*
X64992000Y-88773000D01*
X66341250Y-88773000D01*
X66500000Y-88614250D01*
X66500000Y-87923690D01*
X66403327Y-87690301D01*
X66224698Y-87511673D01*
X65991309Y-87415000D01*
X65150750Y-87415000D01*
X64992000Y-87573750D01*
X64738000Y-87573750D01*
X64579250Y-87415000D01*
X63738691Y-87415000D01*
X63505302Y-87511673D01*
X63326673Y-87690301D01*
X63230000Y-87923690D01*
X62488674Y-87923690D01*
X62468162Y-87814683D01*
X62329090Y-87598559D01*
X62116890Y-87453569D01*
X61865000Y-87402560D01*
X59865000Y-87402560D01*
X59629683Y-87446838D01*
X59413559Y-87585910D01*
X59268569Y-87798110D01*
X59217560Y-88050000D01*
X59217560Y-88140000D01*
X54229000Y-88140000D01*
X53938161Y-88197852D01*
X53691599Y-88362599D01*
X49024599Y-93029599D01*
X48859852Y-93276161D01*
X48802000Y-93567000D01*
X48802000Y-93752560D01*
X48562000Y-93752560D01*
X48326683Y-93796838D01*
X48110559Y-93935910D01*
X47965569Y-94148110D01*
X47914560Y-94400000D01*
X45098606Y-94400000D01*
X71590803Y-67907803D01*
X71618666Y-67865789D01*
X71627988Y-67816246D01*
X71617300Y-67766978D01*
X71588287Y-67725751D01*
X71545520Y-67699059D01*
X71501000Y-67691000D01*
X48312606Y-67691000D01*
X52083606Y-63920000D01*
X53502560Y-63920000D01*
X53502560Y-65620000D01*
X53546838Y-65855317D01*
X53685910Y-66071441D01*
X53898110Y-66216431D01*
X54150000Y-66267440D01*
X56150000Y-66267440D01*
X56385317Y-66223162D01*
X56601441Y-66084090D01*
X56746431Y-65871890D01*
X56797440Y-65620000D01*
X56797440Y-63920000D01*
X56753162Y-63684683D01*
X56614090Y-63468559D01*
X56401890Y-63323569D01*
X56150000Y-63272560D01*
X55910000Y-63272560D01*
X55910000Y-62893802D01*
X61782802Y-57021000D01*
X64932560Y-57021000D01*
X64932560Y-57111000D01*
X64976838Y-57346317D01*
X65115910Y-57562441D01*
X65328110Y-57707431D01*
X65580000Y-57758440D01*
X67580000Y-57758440D01*
X67815317Y-57714162D01*
X68031441Y-57575090D01*
X68176431Y-57362890D01*
X68227440Y-57111000D01*
X68227440Y-56546750D01*
X68945000Y-56546750D01*
X68945000Y-57237310D01*
X69041673Y-57470699D01*
X69220302Y-57649327D01*
X69453691Y-57746000D01*
X70294250Y-57746000D01*
X70453000Y-57587250D01*
X70453000Y-56388000D01*
X70707000Y-56388000D01*
X70707000Y-57587250D01*
X70865750Y-57746000D01*
X71706309Y-57746000D01*
X71939698Y-57649327D01*
X72118327Y-57470699D01*
X72215000Y-57237310D01*
X72215000Y-56546750D01*
X72056250Y-56388000D01*
X70707000Y-56388000D01*
X70453000Y-56388000D01*
X69103750Y-56388000D01*
X68945000Y-56546750D01*
X68227440Y-56546750D01*
X68227440Y-55411000D01*
X68203674Y-55284690D01*
X68945000Y-55284690D01*
X68945000Y-55975250D01*
X69103750Y-56134000D01*
X70453000Y-56134000D01*
X70453000Y-54934750D01*
X70707000Y-54934750D01*
X70707000Y-56134000D01*
X72056250Y-56134000D01*
X72215000Y-55975250D01*
X72215000Y-55284690D01*
X72118327Y-55051301D01*
X71939698Y-54872673D01*
X71706309Y-54776000D01*
X70865750Y-54776000D01*
X70707000Y-54934750D01*
X70453000Y-54934750D01*
X70294250Y-54776000D01*
X69453691Y-54776000D01*
X69220302Y-54872673D01*
X69041673Y-55051301D01*
X68945000Y-55284690D01*
X68203674Y-55284690D01*
X68183162Y-55175683D01*
X68044090Y-54959559D01*
X67831890Y-54814569D01*
X67580000Y-54763560D01*
X65580000Y-54763560D01*
X65344683Y-54807838D01*
X65128559Y-54946910D01*
X64983569Y-55159110D01*
X64932560Y-55411000D01*
X64932560Y-55501000D01*
X61468000Y-55501000D01*
X61177160Y-55558852D01*
X60930599Y-55723599D01*
X54612599Y-62041599D01*
X54447852Y-62288161D01*
X54390000Y-62579000D01*
X54390000Y-63272560D01*
X54150000Y-63272560D01*
X53914683Y-63316838D01*
X53698559Y-63455910D01*
X53553569Y-63668110D01*
X53502560Y-63920000D01*
X52083606Y-63920000D01*
X91640383Y-24363223D01*
X91602560Y-24550000D01*
X91602560Y-26250000D01*
X91646838Y-26485317D01*
X91785910Y-26701441D01*
X91998110Y-26846431D01*
X92250000Y-26897440D01*
X92490000Y-26897440D01*
X92490000Y-30252560D01*
X92250000Y-30252560D01*
X92014683Y-30296838D01*
X91798559Y-30435910D01*
X91653569Y-30648110D01*
X91602560Y-30900000D01*
X91602560Y-32600000D01*
X91646838Y-32835317D01*
X91785910Y-33051441D01*
X91998110Y-33196431D01*
X92250000Y-33247440D01*
X94250000Y-33247440D01*
X94485317Y-33203162D01*
X94701441Y-33064090D01*
X94846431Y-32851890D01*
X94897440Y-32600000D01*
X94897440Y-32035750D01*
X95615000Y-32035750D01*
X95615000Y-32726310D01*
X95711673Y-32959699D01*
X95890302Y-33138327D01*
X96123691Y-33235000D01*
X96964250Y-33235000D01*
X97123000Y-33076250D01*
X97123000Y-31877000D01*
X97377000Y-31877000D01*
X97377000Y-33076250D01*
X97535750Y-33235000D01*
X98376309Y-33235000D01*
X98609698Y-33138327D01*
X98788327Y-32959699D01*
X98885000Y-32726310D01*
X98885000Y-32035750D01*
X98726250Y-31877000D01*
X97377000Y-31877000D01*
X97123000Y-31877000D01*
X95773750Y-31877000D01*
X95615000Y-32035750D01*
X94897440Y-32035750D01*
X94897440Y-30900000D01*
X94853162Y-30664683D01*
X94714090Y-30448559D01*
X94501890Y-30303569D01*
X94250000Y-30252560D01*
X94010000Y-30252560D01*
X94010000Y-26897440D01*
X94250000Y-26897440D01*
X94485317Y-26853162D01*
X94701441Y-26714090D01*
X94846431Y-26501890D01*
X94897440Y-26250000D01*
X94897440Y-24550000D01*
X94853162Y-24314683D01*
X94714090Y-24098559D01*
X94501890Y-23953569D01*
X94250000Y-23902560D01*
X92250000Y-23902560D01*
X92066522Y-23937084D01*
X95048606Y-20955000D01*
X95515908Y-20955000D01*
X98541631Y-23980723D01*
X98541631Y-23980723D01*
G37*
X98541631Y-23980723D02*
X98501890Y-23953569D01*
X98250000Y-23902560D01*
X96250000Y-23902560D01*
X96014683Y-23946838D01*
X95798559Y-24085910D01*
X95653569Y-24298110D01*
X95602560Y-24550000D01*
X95602560Y-26250000D01*
X95646838Y-26485317D01*
X95785910Y-26701441D01*
X95998110Y-26846431D01*
X96250000Y-26897440D01*
X96490000Y-26897440D01*
X96490000Y-29369000D01*
X96547852Y-29659839D01*
X96712599Y-29906401D01*
X97061599Y-30255401D01*
X97122998Y-30296426D01*
X97122998Y-30423748D01*
X96964250Y-30265000D01*
X96123691Y-30265000D01*
X95890302Y-30361673D01*
X95711673Y-30540301D01*
X95615000Y-30773690D01*
X95615000Y-31464250D01*
X95773750Y-31623000D01*
X97123000Y-31623000D01*
X97123000Y-31603000D01*
X97377000Y-31603000D01*
X97377000Y-31623000D01*
X98726250Y-31623000D01*
X98885000Y-31464250D01*
X98885000Y-30871802D01*
X99316000Y-31302802D01*
X99316000Y-34483198D01*
X99126198Y-34673000D01*
X96901000Y-34673000D01*
X96610161Y-34730852D01*
X96363599Y-34895599D01*
X95728599Y-35530599D01*
X95563852Y-35777161D01*
X95506000Y-36068000D01*
X95506000Y-98173000D01*
X95310802Y-98173000D01*
X95296122Y-98158320D01*
X95296162Y-98112833D01*
X95154117Y-97769057D01*
X94891327Y-97505808D01*
X94547799Y-97363162D01*
X94422063Y-97363052D01*
X94263401Y-97125599D01*
X93020802Y-95883000D01*
X93091000Y-95883000D01*
X93381839Y-95825148D01*
X93628401Y-95660401D01*
X94898401Y-94390401D01*
X95063148Y-94143840D01*
X95121000Y-93853000D01*
X95121000Y-69088000D01*
X95063148Y-68797161D01*
X95063148Y-68797160D01*
X94898401Y-68550599D01*
X93628401Y-67280599D01*
X93381839Y-67115852D01*
X93091000Y-67058000D01*
X73085802Y-67058000D01*
X70260401Y-64232599D01*
X70013839Y-64067852D01*
X69723000Y-64010000D01*
X60797440Y-64010000D01*
X60797440Y-63920000D01*
X60753162Y-63684683D01*
X60614090Y-63468559D01*
X60401890Y-63323569D01*
X60150000Y-63272560D01*
X58150000Y-63272560D01*
X57914683Y-63316838D01*
X57698559Y-63455910D01*
X57553569Y-63668110D01*
X57502560Y-63920000D01*
X57502560Y-65620000D01*
X57546838Y-65855317D01*
X57685910Y-66071441D01*
X57898110Y-66216431D01*
X58150000Y-66267440D01*
X60150000Y-66267440D01*
X60385317Y-66223162D01*
X60601441Y-66084090D01*
X60746431Y-65871890D01*
X60797440Y-65620000D01*
X60797440Y-65530000D01*
X69408198Y-65530000D01*
X72233599Y-68355401D01*
X72480161Y-68520148D01*
X72771000Y-68578000D01*
X92776198Y-68578000D01*
X93601000Y-69402802D01*
X93601000Y-93538198D01*
X92776198Y-94363000D01*
X89208463Y-94363000D01*
X89176327Y-94330808D01*
X88832799Y-94188162D01*
X88460833Y-94187838D01*
X88117057Y-94329883D01*
X87853808Y-94592673D01*
X87711162Y-94936201D01*
X87710838Y-95308167D01*
X87845056Y-95633000D01*
X84765802Y-95633000D01*
X85610680Y-94788122D01*
X85656167Y-94788162D01*
X85999943Y-94646117D01*
X86263192Y-94383327D01*
X86405838Y-94039799D01*
X86406162Y-93667833D01*
X86264117Y-93324057D01*
X86001327Y-93060808D01*
X85657799Y-92918162D01*
X85285833Y-92917838D01*
X84942057Y-93059883D01*
X84678808Y-93322673D01*
X84536162Y-93666201D01*
X84536121Y-93713077D01*
X82616198Y-95633000D01*
X57210802Y-95633000D01*
X56290401Y-94712599D01*
X56043839Y-94547852D01*
X55753000Y-94490000D01*
X55209440Y-94490000D01*
X55209440Y-94400000D01*
X55165162Y-94164683D01*
X55026090Y-93948559D01*
X54813890Y-93803569D01*
X54562000Y-93752560D01*
X52562000Y-93752560D01*
X52326683Y-93796838D01*
X52110559Y-93935910D01*
X51965569Y-94148110D01*
X51914560Y-94400000D01*
X51914560Y-96100000D01*
X51958838Y-96335317D01*
X52097910Y-96551441D01*
X52310110Y-96696431D01*
X52562000Y-96747440D01*
X54562000Y-96747440D01*
X54797317Y-96703162D01*
X55013441Y-96564090D01*
X55158431Y-96351890D01*
X55209440Y-96100000D01*
X55209440Y-96010000D01*
X55438198Y-96010000D01*
X56358599Y-96930401D01*
X56605161Y-97095148D01*
X56896000Y-97153000D01*
X77726000Y-97153000D01*
X77726000Y-97983198D01*
X77711320Y-97997878D01*
X77665833Y-97997838D01*
X77322057Y-98139883D01*
X77058808Y-98402673D01*
X76916162Y-98746201D01*
X76915838Y-99118167D01*
X77057883Y-99461943D01*
X77320673Y-99725192D01*
X77664201Y-99867838D01*
X78036167Y-99868162D01*
X78379943Y-99726117D01*
X78643192Y-99463327D01*
X78785838Y-99119799D01*
X78785879Y-99072923D01*
X79023401Y-98835401D01*
X79188148Y-98588839D01*
X79246000Y-98298000D01*
X79246000Y-97153000D01*
X87210367Y-97153000D01*
X87076162Y-97476201D01*
X87076121Y-97523077D01*
X85594659Y-99004539D01*
X85366327Y-98775808D01*
X85022799Y-98633162D01*
X84650833Y-98632838D01*
X84307057Y-98774883D01*
X84043808Y-99037673D01*
X83901162Y-99381201D01*
X83901121Y-99428077D01*
X83663599Y-99665599D01*
X83498852Y-99912161D01*
X83441000Y-100203000D01*
X83441000Y-117348000D01*
X83498852Y-117638839D01*
X83663599Y-117885401D01*
X88743599Y-122965401D01*
X88990161Y-123130148D01*
X89281000Y-123188000D01*
X92331000Y-123188000D01*
X92331000Y-123977035D01*
X89005842Y-126748000D01*
X87303463Y-126748000D01*
X87271327Y-126715808D01*
X86927799Y-126573162D01*
X86555833Y-126572838D01*
X86212057Y-126714883D01*
X85948808Y-126977673D01*
X85806162Y-127321201D01*
X85805998Y-127510000D01*
X53812440Y-127510000D01*
X53812440Y-127420000D01*
X53768162Y-127184683D01*
X53629090Y-126968559D01*
X53416890Y-126823569D01*
X53165000Y-126772560D01*
X51165000Y-126772560D01*
X50929683Y-126816838D01*
X50713559Y-126955910D01*
X50568569Y-127168110D01*
X50517560Y-127420000D01*
X50517560Y-129120000D01*
X50561838Y-129355317D01*
X50700910Y-129571441D01*
X50913110Y-129716431D01*
X51165000Y-129767440D01*
X53165000Y-129767440D01*
X53400317Y-129723162D01*
X53616441Y-129584090D01*
X53761431Y-129371890D01*
X53812440Y-129120000D01*
X53812440Y-129030000D01*
X85887632Y-129030000D01*
X85806162Y-129226201D01*
X85805838Y-129598167D01*
X85947883Y-129941943D01*
X86210673Y-130205192D01*
X86554201Y-130347838D01*
X86601077Y-130347879D01*
X88108599Y-131855401D01*
X88355161Y-132020148D01*
X88646000Y-132078000D01*
X88966198Y-132078000D01*
X89791000Y-132902802D01*
X89791000Y-164023198D01*
X88331198Y-165483000D01*
X70866000Y-165483000D01*
X70623414Y-165531254D01*
X70575160Y-165540852D01*
X70328599Y-165705599D01*
X67788599Y-168245599D01*
X67648649Y-168455050D01*
X67343122Y-168659197D01*
X67056000Y-169088904D01*
X66768878Y-168659197D01*
X66317930Y-168357882D01*
X65786000Y-168252075D01*
X65254070Y-168357882D01*
X64803122Y-168659197D01*
X64501807Y-169110145D01*
X64396000Y-169642075D01*
X64396000Y-171225925D01*
X64501807Y-171757855D01*
X64803122Y-172208803D01*
X65026000Y-172357726D01*
X65026000Y-173863000D01*
X65083852Y-174153839D01*
X65248599Y-174400401D01*
X65883599Y-175035401D01*
X66130161Y-175200148D01*
X66421000Y-175258000D01*
X86426198Y-175258000D01*
X87886000Y-176717802D01*
X87886000Y-178308000D01*
X87943852Y-178598839D01*
X88108599Y-178845401D01*
X90648599Y-181385401D01*
X90895160Y-181550148D01*
X90943414Y-181559746D01*
X91186000Y-181608000D01*
X99441000Y-181608000D01*
X99731839Y-181550148D01*
X99978401Y-181385401D01*
X102518401Y-178845401D01*
X102683148Y-178598840D01*
X102692746Y-178550586D01*
X102741000Y-178308000D01*
X102741000Y-174498000D01*
X102683148Y-174207161D01*
X102683148Y-174207160D01*
X102518401Y-173960599D01*
X101121401Y-172563599D01*
X101076440Y-172533557D01*
X101076440Y-171351000D01*
X101032162Y-171115683D01*
X100893090Y-170899559D01*
X100680890Y-170754569D01*
X100429000Y-170703560D01*
X99439000Y-170703560D01*
X99439000Y-166684802D01*
X99978401Y-166145401D01*
X100143148Y-165898839D01*
X100201000Y-165608000D01*
X100201000Y-164338000D01*
X100143148Y-164047161D01*
X100081568Y-163955000D01*
X101164537Y-163955000D01*
X101196673Y-163987192D01*
X101540201Y-164129838D01*
X101912167Y-164130162D01*
X102255943Y-163988117D01*
X102519192Y-163725327D01*
X102661838Y-163381799D01*
X102662162Y-163009833D01*
X102527944Y-162685000D01*
X103190198Y-162685000D01*
X104601878Y-164096680D01*
X104601838Y-164142167D01*
X104631106Y-164213000D01*
X104521000Y-164213000D01*
X104230160Y-164270852D01*
X103983599Y-164435599D01*
X103111320Y-165307878D01*
X103065833Y-165307838D01*
X102722057Y-165449883D01*
X102458808Y-165712673D01*
X102316162Y-166056201D01*
X102315838Y-166428167D01*
X102457883Y-166771943D01*
X102720673Y-167035192D01*
X103064201Y-167177838D01*
X103436167Y-167178162D01*
X103779943Y-167036117D01*
X104043192Y-166773327D01*
X104049141Y-166759000D01*
X115819560Y-166759000D01*
X115819560Y-167759000D01*
X115863838Y-167994317D01*
X116002910Y-168210441D01*
X116215110Y-168355431D01*
X116467000Y-168406440D01*
X117467000Y-168406440D01*
X117702317Y-168362162D01*
X117778073Y-168313414D01*
X117802654Y-168329839D01*
X118237000Y-168416236D01*
X118671346Y-168329839D01*
X118872000Y-168195766D01*
X119072654Y-168329839D01*
X119507000Y-168416236D01*
X119941346Y-168329839D01*
X120142000Y-168195766D01*
X120342654Y-168329839D01*
X120777000Y-168416236D01*
X121211346Y-168329839D01*
X121412000Y-168195766D01*
X121612654Y-168329839D01*
X122047000Y-168416236D01*
X122481346Y-168329839D01*
X122849566Y-168083802D01*
X123095603Y-167715582D01*
X123182000Y-167281236D01*
X123182000Y-167236764D01*
X123095603Y-166802418D01*
X122849566Y-166434198D01*
X122481346Y-166188161D01*
X122047000Y-166101764D01*
X121612654Y-166188161D01*
X121412000Y-166322234D01*
X121211346Y-166188161D01*
X120777000Y-166101764D01*
X120342654Y-166188161D01*
X120142000Y-166322234D01*
X119941346Y-166188161D01*
X119507000Y-166101764D01*
X119072654Y-166188161D01*
X118872000Y-166322234D01*
X118671346Y-166188161D01*
X118237000Y-166101764D01*
X117802654Y-166188161D01*
X117779241Y-166203805D01*
X117718890Y-166162569D01*
X117467000Y-166111560D01*
X116467000Y-166111560D01*
X116231683Y-166155838D01*
X116015559Y-166294910D01*
X115870569Y-166507110D01*
X115819560Y-166759000D01*
X104049141Y-166759000D01*
X104185838Y-166429799D01*
X104185879Y-166382923D01*
X104835802Y-165733000D01*
X110871000Y-165733000D01*
X111161839Y-165675148D01*
X111408401Y-165510401D01*
X111518680Y-165400122D01*
X111564167Y-165400162D01*
X111907943Y-165258117D01*
X112171192Y-164995327D01*
X112313838Y-164651799D01*
X112314162Y-164279833D01*
X112172117Y-163936057D01*
X111909327Y-163672808D01*
X111565799Y-163530162D01*
X111193833Y-163529838D01*
X110850057Y-163671883D01*
X110586808Y-163934673D01*
X110471236Y-164213000D01*
X106443103Y-164213000D01*
X106471838Y-164143799D01*
X106472162Y-163771833D01*
X106330117Y-163428057D01*
X106067327Y-163164808D01*
X105723799Y-163022162D01*
X105676923Y-163022121D01*
X104042401Y-161387599D01*
X103795839Y-161222852D01*
X103505000Y-161165000D01*
X100921509Y-161165000D01*
X100299224Y-160791629D01*
X100234117Y-160634057D01*
X99971327Y-160370808D01*
X99627799Y-160228162D01*
X99255833Y-160227838D01*
X98912057Y-160369883D01*
X98669801Y-160611717D01*
X98357799Y-160482162D01*
X97985833Y-160481838D01*
X97642057Y-160623883D01*
X97378808Y-160886673D01*
X97236162Y-161230201D01*
X97235838Y-161602167D01*
X97265106Y-161673000D01*
X97215802Y-161673000D01*
X97026000Y-161483198D01*
X97026000Y-121951750D01*
X126032000Y-121951750D01*
X126032000Y-122642310D01*
X126128673Y-122875699D01*
X126307302Y-123054327D01*
X126540691Y-123151000D01*
X127381250Y-123151000D01*
X127540000Y-122992250D01*
X127540000Y-121793000D01*
X127794000Y-121793000D01*
X127794000Y-122992250D01*
X127952750Y-123151000D01*
X128793309Y-123151000D01*
X129026698Y-123054327D01*
X129205327Y-122875699D01*
X129302000Y-122642310D01*
X129302000Y-121951750D01*
X129143250Y-121793000D01*
X127794000Y-121793000D01*
X127540000Y-121793000D01*
X126190750Y-121793000D01*
X126032000Y-121951750D01*
X97026000Y-121951750D01*
X97026000Y-120689690D01*
X126032000Y-120689690D01*
X126032000Y-121380250D01*
X126190750Y-121539000D01*
X127540000Y-121539000D01*
X127540000Y-120339750D01*
X127794000Y-120339750D01*
X127794000Y-121539000D01*
X129143250Y-121539000D01*
X129302000Y-121380250D01*
X129302000Y-120816000D01*
X130019560Y-120816000D01*
X130019560Y-122516000D01*
X130063838Y-122751317D01*
X130202910Y-122967441D01*
X130415110Y-123112431D01*
X130667000Y-123163440D01*
X131486638Y-123163440D01*
X136622599Y-128299401D01*
X136814560Y-128427665D01*
X136814560Y-128612000D01*
X136858838Y-128847317D01*
X136997910Y-129063441D01*
X137210110Y-129208431D01*
X137462000Y-129259440D01*
X139462000Y-129259440D01*
X139697317Y-129215162D01*
X139913441Y-129076090D01*
X140058431Y-128863890D01*
X140109440Y-128612000D01*
X140109440Y-126912000D01*
X140065162Y-126676683D01*
X139926090Y-126460559D01*
X139713890Y-126315569D01*
X139462000Y-126264560D01*
X137462000Y-126264560D01*
X137226683Y-126308838D01*
X137010559Y-126447910D01*
X136974088Y-126501286D01*
X133254201Y-122781399D01*
X133263431Y-122767890D01*
X133314440Y-122516000D01*
X133314440Y-120816000D01*
X133270162Y-120580683D01*
X133131090Y-120364559D01*
X132918890Y-120219569D01*
X132667000Y-120168560D01*
X130667000Y-120168560D01*
X130431683Y-120212838D01*
X130215559Y-120351910D01*
X130070569Y-120564110D01*
X130019560Y-120816000D01*
X129302000Y-120816000D01*
X129302000Y-120689690D01*
X129205327Y-120456301D01*
X129026698Y-120277673D01*
X128793309Y-120181000D01*
X127952750Y-120181000D01*
X127794000Y-120339750D01*
X127540000Y-120339750D01*
X127381250Y-120181000D01*
X126540691Y-120181000D01*
X126307302Y-120277673D01*
X126128673Y-120456301D01*
X126032000Y-120689690D01*
X97026000Y-120689690D01*
X97026000Y-103678110D01*
X97086167Y-103678162D01*
X97202728Y-103630000D01*
X97412560Y-103630000D01*
X97412560Y-103760000D01*
X97456838Y-103995317D01*
X97550503Y-104140877D01*
X97463569Y-104268110D01*
X97412560Y-104520000D01*
X97412560Y-106300000D01*
X97456838Y-106535317D01*
X97595910Y-106751441D01*
X97808110Y-106896431D01*
X98060000Y-106947440D01*
X99522638Y-106947440D01*
X99951000Y-107375802D01*
X99951000Y-114493198D01*
X98031320Y-116412878D01*
X97985833Y-116412838D01*
X97642057Y-116554883D01*
X97378808Y-116817673D01*
X97236162Y-117161201D01*
X97235838Y-117533167D01*
X97377883Y-117876943D01*
X97640673Y-118140192D01*
X97984201Y-118282838D01*
X98356167Y-118283162D01*
X98699943Y-118141117D01*
X98963192Y-117878327D01*
X99105838Y-117534799D01*
X99105879Y-117487923D01*
X101248401Y-115345401D01*
X101413148Y-115098840D01*
X101422746Y-115050586D01*
X101471000Y-114808000D01*
X101471000Y-110677802D01*
X107200680Y-104948122D01*
X107246167Y-104948162D01*
X107589943Y-104806117D01*
X107853192Y-104543327D01*
X107995838Y-104199799D01*
X107996162Y-103827833D01*
X107914419Y-103630000D01*
X120843198Y-103630000D01*
X141702000Y-124488802D01*
X141702000Y-126264560D01*
X141462000Y-126264560D01*
X141226683Y-126308838D01*
X141010559Y-126447910D01*
X140865569Y-126660110D01*
X140814560Y-126912000D01*
X140814560Y-128612000D01*
X140858838Y-128847317D01*
X140997910Y-129063441D01*
X141210110Y-129208431D01*
X141462000Y-129259440D01*
X143462000Y-129259440D01*
X143697317Y-129215162D01*
X143913441Y-129076090D01*
X144058431Y-128863890D01*
X144109440Y-128612000D01*
X144109440Y-126912000D01*
X144065162Y-126676683D01*
X143926090Y-126460559D01*
X143713890Y-126315569D01*
X143462000Y-126264560D01*
X143222000Y-126264560D01*
X143222000Y-124174000D01*
X143164148Y-123883161D01*
X142999401Y-123636599D01*
X121695401Y-102332599D01*
X121448839Y-102167852D01*
X121158000Y-102110000D01*
X108456000Y-102110000D01*
X108456000Y-102035463D01*
X108488192Y-102003327D01*
X108630838Y-101659799D01*
X108631162Y-101287833D01*
X108489117Y-100944057D01*
X108226327Y-100680808D01*
X107882799Y-100538162D01*
X107510833Y-100537838D01*
X107167057Y-100679883D01*
X106903808Y-100942673D01*
X106761162Y-101286201D01*
X106760838Y-101658167D01*
X106902883Y-102001943D01*
X106936000Y-102035118D01*
X106936000Y-102110000D01*
X100707440Y-102110000D01*
X100707440Y-101980000D01*
X100663162Y-101744683D01*
X100569497Y-101599123D01*
X100656431Y-101471890D01*
X100707440Y-101220000D01*
X100707440Y-99440000D01*
X100663162Y-99204683D01*
X100569497Y-99059123D01*
X100656431Y-98931890D01*
X100707440Y-98680000D01*
X100707440Y-96900000D01*
X100663162Y-96664683D01*
X100524090Y-96448559D01*
X100311890Y-96303569D01*
X100060000Y-96252560D01*
X98060000Y-96252560D01*
X97824683Y-96296838D01*
X97608559Y-96435910D01*
X97463569Y-96648110D01*
X97412560Y-96900000D01*
X97412560Y-97030000D01*
X97409000Y-97030000D01*
X97118161Y-97087852D01*
X97026000Y-97149432D01*
X97026000Y-69088000D01*
X97411000Y-69088000D01*
X97411000Y-89408000D01*
X97468852Y-89698839D01*
X97633599Y-89945401D01*
X102713599Y-95025401D01*
X102960161Y-95190148D01*
X103251000Y-95248000D01*
X110556198Y-95248000D01*
X111205878Y-95897680D01*
X111205838Y-95943167D01*
X111347883Y-96286943D01*
X111610673Y-96550192D01*
X111954201Y-96692838D01*
X112326167Y-96693162D01*
X112669943Y-96551117D01*
X112933192Y-96288327D01*
X113075838Y-95944799D01*
X113076162Y-95572833D01*
X112934117Y-95229057D01*
X112671327Y-94965808D01*
X112327799Y-94823162D01*
X112280923Y-94823121D01*
X111408401Y-93950599D01*
X111161839Y-93785852D01*
X110871000Y-93728000D01*
X103565802Y-93728000D01*
X98931000Y-89093198D01*
X98931000Y-88550750D01*
X125905000Y-88550750D01*
X125905000Y-89241310D01*
X126001673Y-89474699D01*
X126180302Y-89653327D01*
X126413691Y-89750000D01*
X127254250Y-89750000D01*
X127413000Y-89591250D01*
X127413000Y-88392000D01*
X127667000Y-88392000D01*
X127667000Y-89591250D01*
X127825750Y-89750000D01*
X128666309Y-89750000D01*
X128899698Y-89653327D01*
X129078327Y-89474699D01*
X129175000Y-89241310D01*
X129175000Y-88550750D01*
X129016250Y-88392000D01*
X127667000Y-88392000D01*
X127413000Y-88392000D01*
X126063750Y-88392000D01*
X125905000Y-88550750D01*
X98931000Y-88550750D01*
X98931000Y-87288690D01*
X125905000Y-87288690D01*
X125905000Y-87979250D01*
X126063750Y-88138000D01*
X127413000Y-88138000D01*
X127413000Y-86938750D01*
X127667000Y-86938750D01*
X127667000Y-88138000D01*
X129016250Y-88138000D01*
X129175000Y-87979250D01*
X129175000Y-87415000D01*
X129892560Y-87415000D01*
X129892560Y-89115000D01*
X129936838Y-89350317D01*
X130075910Y-89566441D01*
X130288110Y-89711431D01*
X130540000Y-89762440D01*
X131105638Y-89762440D01*
X136495599Y-95152401D01*
X136742161Y-95317148D01*
X137033000Y-95375000D01*
X137322560Y-95375000D01*
X137322560Y-95465000D01*
X137366838Y-95700317D01*
X137505910Y-95916441D01*
X137718110Y-96061431D01*
X137970000Y-96112440D01*
X139970000Y-96112440D01*
X140205317Y-96068162D01*
X140421441Y-95929090D01*
X140566431Y-95716890D01*
X140617440Y-95465000D01*
X140617440Y-93765000D01*
X140573162Y-93529683D01*
X140434090Y-93313559D01*
X140221890Y-93168569D01*
X139970000Y-93117560D01*
X137970000Y-93117560D01*
X137734683Y-93161838D01*
X137518559Y-93300910D01*
X137373569Y-93513110D01*
X137322560Y-93765000D01*
X137322560Y-93829758D01*
X133024098Y-89531296D01*
X133136431Y-89366890D01*
X133187440Y-89115000D01*
X133187440Y-87415000D01*
X133143162Y-87179683D01*
X133004090Y-86963559D01*
X132791890Y-86818569D01*
X132540000Y-86767560D01*
X130540000Y-86767560D01*
X130304683Y-86811838D01*
X130088559Y-86950910D01*
X129943569Y-87163110D01*
X129892560Y-87415000D01*
X129175000Y-87415000D01*
X129175000Y-87288690D01*
X129078327Y-87055301D01*
X128899698Y-86876673D01*
X128666309Y-86780000D01*
X127825750Y-86780000D01*
X127667000Y-86938750D01*
X127413000Y-86938750D01*
X127254250Y-86780000D01*
X126413691Y-86780000D01*
X126180302Y-86876673D01*
X126001673Y-87055301D01*
X125905000Y-87288690D01*
X98931000Y-87288690D01*
X98931000Y-69402802D01*
X99755802Y-68578000D01*
X117221000Y-68578000D01*
X117332017Y-68555917D01*
X117444606Y-68544360D01*
X117476400Y-68527197D01*
X117511839Y-68520148D01*
X117605949Y-68457266D01*
X117705551Y-68403500D01*
X121177697Y-65530000D01*
X129702560Y-65530000D01*
X129702560Y-65620000D01*
X129746838Y-65855317D01*
X129885910Y-66071441D01*
X130098110Y-66216431D01*
X130350000Y-66267440D01*
X132350000Y-66267440D01*
X132585317Y-66223162D01*
X132801441Y-66084090D01*
X132946431Y-65871890D01*
X132997440Y-65620000D01*
X132997440Y-63920000D01*
X132953162Y-63684683D01*
X132814090Y-63468559D01*
X132601890Y-63323569D01*
X132350000Y-63272560D01*
X130350000Y-63272560D01*
X130114683Y-63316838D01*
X129898559Y-63455910D01*
X129753569Y-63668110D01*
X129702560Y-63920000D01*
X129702560Y-64010000D01*
X120904000Y-64010000D01*
X120792989Y-64032082D01*
X120680394Y-64043639D01*
X120648597Y-64060803D01*
X120613161Y-64067852D01*
X120519054Y-64130732D01*
X120419449Y-64184500D01*
X116947303Y-67058000D01*
X99441000Y-67058000D01*
X99150160Y-67115852D01*
X98903599Y-67280599D01*
X97633599Y-68550599D01*
X97468852Y-68797161D01*
X97411000Y-69088000D01*
X97026000Y-69088000D01*
X97026000Y-56165750D01*
X117650000Y-56165750D01*
X117650000Y-56856310D01*
X117746673Y-57089699D01*
X117925302Y-57268327D01*
X118158691Y-57365000D01*
X118999250Y-57365000D01*
X119158000Y-57206250D01*
X119158000Y-56007000D01*
X119412000Y-56007000D01*
X119412000Y-57206250D01*
X119570750Y-57365000D01*
X120411309Y-57365000D01*
X120644698Y-57268327D01*
X120823327Y-57089699D01*
X120920000Y-56856310D01*
X120920000Y-56165750D01*
X120761250Y-56007000D01*
X119412000Y-56007000D01*
X119158000Y-56007000D01*
X117808750Y-56007000D01*
X117650000Y-56165750D01*
X97026000Y-56165750D01*
X97026000Y-54903690D01*
X117650000Y-54903690D01*
X117650000Y-55594250D01*
X117808750Y-55753000D01*
X119158000Y-55753000D01*
X119158000Y-54553750D01*
X119412000Y-54553750D01*
X119412000Y-55753000D01*
X120761250Y-55753000D01*
X120920000Y-55594250D01*
X120920000Y-55030000D01*
X121637560Y-55030000D01*
X121637560Y-56730000D01*
X121681838Y-56965317D01*
X121820910Y-57181441D01*
X122033110Y-57326431D01*
X122285000Y-57377440D01*
X124285000Y-57377440D01*
X124520317Y-57333162D01*
X124736441Y-57194090D01*
X124881431Y-56981890D01*
X124932440Y-56730000D01*
X124932440Y-56640000D01*
X126939198Y-56640000D01*
X133840330Y-63541132D01*
X133753569Y-63668110D01*
X133702560Y-63920000D01*
X133702560Y-65620000D01*
X133746838Y-65855317D01*
X133885910Y-66071441D01*
X134098110Y-66216431D01*
X134350000Y-66267440D01*
X136350000Y-66267440D01*
X136585317Y-66223162D01*
X136801441Y-66084090D01*
X136946431Y-65871890D01*
X136997440Y-65620000D01*
X136997440Y-63920000D01*
X136953162Y-63684683D01*
X136814090Y-63468559D01*
X136601890Y-63323569D01*
X136350000Y-63272560D01*
X135721362Y-63272560D01*
X127791401Y-55342599D01*
X127544839Y-55177852D01*
X127254000Y-55120000D01*
X124932440Y-55120000D01*
X124932440Y-55030000D01*
X124888162Y-54794683D01*
X124749090Y-54578559D01*
X124536890Y-54433569D01*
X124285000Y-54382560D01*
X122285000Y-54382560D01*
X122049683Y-54426838D01*
X121833559Y-54565910D01*
X121688569Y-54778110D01*
X121637560Y-55030000D01*
X120920000Y-55030000D01*
X120920000Y-54903690D01*
X120823327Y-54670301D01*
X120644698Y-54491673D01*
X120411309Y-54395000D01*
X119570750Y-54395000D01*
X119412000Y-54553750D01*
X119158000Y-54553750D01*
X118999250Y-54395000D01*
X118158691Y-54395000D01*
X117925302Y-54491673D01*
X117746673Y-54670301D01*
X117650000Y-54903690D01*
X97026000Y-54903690D01*
X97026000Y-36382802D01*
X97215802Y-36193000D01*
X99441000Y-36193000D01*
X99731839Y-36135148D01*
X99978401Y-35970401D01*
X100613401Y-35335401D01*
X100778148Y-35088839D01*
X100836000Y-34798000D01*
X100836000Y-30988000D01*
X100778148Y-30697161D01*
X100778148Y-30697160D01*
X100613401Y-30450599D01*
X99343401Y-29180599D01*
X99096839Y-29015852D01*
X98806000Y-28958000D01*
X98010000Y-28958000D01*
X98010000Y-26897440D01*
X98250000Y-26897440D01*
X98485317Y-26853162D01*
X98701441Y-26714090D01*
X98846431Y-26501890D01*
X98897440Y-26250000D01*
X98897440Y-24550000D01*
X98853162Y-24314683D01*
X98812680Y-24251772D01*
X142251908Y-67691000D01*
X119126000Y-67691000D01*
X119076590Y-67701006D01*
X119034965Y-67729447D01*
X119007685Y-67771841D01*
X118999048Y-67821509D01*
X119010416Y-67870623D01*
X119036197Y-67907803D01*
X120022130Y-68893736D01*
X120147954Y-69082046D01*
X144261631Y-93195723D01*
X144221890Y-93168569D01*
X143970000Y-93117560D01*
X141970000Y-93117560D01*
X141734683Y-93161838D01*
X141518559Y-93300910D01*
X141373569Y-93513110D01*
X141322560Y-93765000D01*
X141322560Y-95187638D01*
X140242198Y-96268000D01*
X116116633Y-96268000D01*
X116250838Y-95944799D01*
X116251162Y-95572833D01*
X116109117Y-95229057D01*
X115846327Y-94965808D01*
X115502799Y-94823162D01*
X115130833Y-94822838D01*
X114787057Y-94964883D01*
X114523808Y-95227673D01*
X114381162Y-95571201D01*
X114380838Y-95943167D01*
X114522883Y-96286943D01*
X114556000Y-96320118D01*
X114556000Y-96713198D01*
X112001320Y-99267878D01*
X111955833Y-99267838D01*
X111612057Y-99409883D01*
X111348808Y-99672673D01*
X111206162Y-100016201D01*
X111205838Y-100388167D01*
X111347883Y-100731943D01*
X111610673Y-100995192D01*
X111954201Y-101137838D01*
X112326167Y-101138162D01*
X112669943Y-100996117D01*
X112933192Y-100733327D01*
X113075838Y-100389799D01*
X113075879Y-100342923D01*
X115630802Y-97788000D01*
X117801394Y-97788000D01*
X118752130Y-98738736D01*
X118877954Y-98927046D01*
X150506908Y-130556000D01*
X110236000Y-130556000D01*
X110186590Y-130566006D01*
X110144965Y-130594447D01*
X110117685Y-130636841D01*
X110109000Y-130683000D01*
X110109000Y-160528000D01*
X110119006Y-160577410D01*
X110147447Y-160619035D01*
X110189841Y-160646315D01*
X110236000Y-160655000D01*
X132334000Y-160655000D01*
X132334000Y-181991000D01*
X58293000Y-181991000D01*
X58293000Y-160655000D01*
X80391000Y-160655000D01*
X80440410Y-160644994D01*
X80482035Y-160616553D01*
X80509315Y-160574159D01*
X80518000Y-160528000D01*
X80518000Y-130683000D01*
X80507994Y-130633590D01*
X80479553Y-130591965D01*
X80437159Y-130564685D01*
X80391000Y-130556000D01*
X40057606Y-130556000D01*
X43193606Y-127420000D01*
X46517560Y-127420000D01*
X46517560Y-129120000D01*
X46561838Y-129355317D01*
X46700910Y-129571441D01*
X46913110Y-129716431D01*
X47165000Y-129767440D01*
X49165000Y-129767440D01*
X49400317Y-129723162D01*
X49616441Y-129584090D01*
X49761431Y-129371890D01*
X49812440Y-129120000D01*
X49812440Y-127420000D01*
X49768162Y-127184683D01*
X49629090Y-126968559D01*
X49416890Y-126823569D01*
X49165000Y-126772560D01*
X48925000Y-126772560D01*
X48925000Y-125758802D01*
X52003802Y-122680000D01*
X57947560Y-122680000D01*
X57947560Y-122770000D01*
X57991838Y-123005317D01*
X58130910Y-123221441D01*
X58343110Y-123366431D01*
X58595000Y-123417440D01*
X60595000Y-123417440D01*
X60830317Y-123373162D01*
X61046441Y-123234090D01*
X61191431Y-123021890D01*
X61242440Y-122770000D01*
X61242440Y-122205750D01*
X61960000Y-122205750D01*
X61960000Y-122896310D01*
X62056673Y-123129699D01*
X62235302Y-123308327D01*
X62468691Y-123405000D01*
X63309250Y-123405000D01*
X63468000Y-123246250D01*
X63468000Y-122047000D01*
X63722000Y-122047000D01*
X63722000Y-123246250D01*
X63880750Y-123405000D01*
X64721309Y-123405000D01*
X64954698Y-123308327D01*
X65133327Y-123129699D01*
X65230000Y-122896310D01*
X65230000Y-122205750D01*
X65071250Y-122047000D01*
X63722000Y-122047000D01*
X63468000Y-122047000D01*
X62118750Y-122047000D01*
X61960000Y-122205750D01*
X61242440Y-122205750D01*
X61242440Y-121070000D01*
X61218674Y-120943690D01*
X61960000Y-120943690D01*
X61960000Y-121634250D01*
X62118750Y-121793000D01*
X63468000Y-121793000D01*
X63468000Y-120593750D01*
X63722000Y-120593750D01*
X63722000Y-121793000D01*
X65071250Y-121793000D01*
X65230000Y-121634250D01*
X65230000Y-120943690D01*
X65133327Y-120710301D01*
X64954698Y-120531673D01*
X64721309Y-120435000D01*
X63880750Y-120435000D01*
X63722000Y-120593750D01*
X63468000Y-120593750D01*
X63309250Y-120435000D01*
X62468691Y-120435000D01*
X62235302Y-120531673D01*
X62056673Y-120710301D01*
X61960000Y-120943690D01*
X61218674Y-120943690D01*
X61198162Y-120834683D01*
X61059090Y-120618559D01*
X60846890Y-120473569D01*
X60595000Y-120422560D01*
X58595000Y-120422560D01*
X58359683Y-120466838D01*
X58143559Y-120605910D01*
X57998569Y-120818110D01*
X57947560Y-121070000D01*
X57947560Y-121160000D01*
X51689000Y-121160000D01*
X51398161Y-121217852D01*
X51151599Y-121382599D01*
X47627599Y-124906599D01*
X47462852Y-125153161D01*
X47405000Y-125444000D01*
X47405000Y-126772560D01*
X47165000Y-126772560D01*
X46929683Y-126816838D01*
X46713559Y-126955910D01*
X46568569Y-127168110D01*
X46517560Y-127420000D01*
X43193606Y-127420000D01*
X72860803Y-97752803D01*
X72888666Y-97710789D01*
X72897988Y-97661246D01*
X72887300Y-97611978D01*
X72858287Y-97570751D01*
X72815520Y-97544059D01*
X72771000Y-97536000D01*
X41962606Y-97536000D01*
X45098606Y-94400000D01*
X47914560Y-94400000D01*
X47914560Y-96100000D01*
X47958838Y-96335317D01*
X48097910Y-96551441D01*
X48310110Y-96696431D01*
X48562000Y-96747440D01*
X50562000Y-96747440D01*
X50797317Y-96703162D01*
X51013441Y-96564090D01*
X51158431Y-96351890D01*
X51209440Y-96100000D01*
X51209440Y-94400000D01*
X51165162Y-94164683D01*
X51026090Y-93948559D01*
X50813890Y-93803569D01*
X50562000Y-93752560D01*
X50451242Y-93752560D01*
X54543802Y-89660000D01*
X59217560Y-89660000D01*
X59217560Y-89750000D01*
X59261838Y-89985317D01*
X59400910Y-90201441D01*
X59613110Y-90346431D01*
X59865000Y-90397440D01*
X61865000Y-90397440D01*
X62100317Y-90353162D01*
X62316441Y-90214090D01*
X62461431Y-90001890D01*
X62512440Y-89750000D01*
X62512440Y-89185750D01*
X63230000Y-89185750D01*
X63230000Y-89876310D01*
X63326673Y-90109699D01*
X63505302Y-90288327D01*
X63738691Y-90385000D01*
X64579250Y-90385000D01*
X64738000Y-90226250D01*
X64738000Y-89027000D01*
X64992000Y-89027000D01*
X64992000Y-90226250D01*
X65150750Y-90385000D01*
X65991309Y-90385000D01*
X66224698Y-90288327D01*
X66403327Y-90109699D01*
X66500000Y-89876310D01*
X66500000Y-89185750D01*
X66341250Y-89027000D01*
X64992000Y-89027000D01*
X64738000Y-89027000D01*
X63388750Y-89027000D01*
X63230000Y-89185750D01*
X62512440Y-89185750D01*
X62512440Y-88050000D01*
X62488674Y-87923690D01*
X63230000Y-87923690D01*
X63230000Y-88614250D01*
X63388750Y-88773000D01*
X64738000Y-88773000D01*
X64738000Y-87573750D01*
X64992000Y-87573750D01*
X64992000Y-88773000D01*
X66341250Y-88773000D01*
X66500000Y-88614250D01*
X66500000Y-87923690D01*
X66403327Y-87690301D01*
X66224698Y-87511673D01*
X65991309Y-87415000D01*
X65150750Y-87415000D01*
X64992000Y-87573750D01*
X64738000Y-87573750D01*
X64579250Y-87415000D01*
X63738691Y-87415000D01*
X63505302Y-87511673D01*
X63326673Y-87690301D01*
X63230000Y-87923690D01*
X62488674Y-87923690D01*
X62468162Y-87814683D01*
X62329090Y-87598559D01*
X62116890Y-87453569D01*
X61865000Y-87402560D01*
X59865000Y-87402560D01*
X59629683Y-87446838D01*
X59413559Y-87585910D01*
X59268569Y-87798110D01*
X59217560Y-88050000D01*
X59217560Y-88140000D01*
X54229000Y-88140000D01*
X53938161Y-88197852D01*
X53691599Y-88362599D01*
X49024599Y-93029599D01*
X48859852Y-93276161D01*
X48802000Y-93567000D01*
X48802000Y-93752560D01*
X48562000Y-93752560D01*
X48326683Y-93796838D01*
X48110559Y-93935910D01*
X47965569Y-94148110D01*
X47914560Y-94400000D01*
X45098606Y-94400000D01*
X71590803Y-67907803D01*
X71618666Y-67865789D01*
X71627988Y-67816246D01*
X71617300Y-67766978D01*
X71588287Y-67725751D01*
X71545520Y-67699059D01*
X71501000Y-67691000D01*
X48312606Y-67691000D01*
X52083606Y-63920000D01*
X53502560Y-63920000D01*
X53502560Y-65620000D01*
X53546838Y-65855317D01*
X53685910Y-66071441D01*
X53898110Y-66216431D01*
X54150000Y-66267440D01*
X56150000Y-66267440D01*
X56385317Y-66223162D01*
X56601441Y-66084090D01*
X56746431Y-65871890D01*
X56797440Y-65620000D01*
X56797440Y-63920000D01*
X56753162Y-63684683D01*
X56614090Y-63468559D01*
X56401890Y-63323569D01*
X56150000Y-63272560D01*
X55910000Y-63272560D01*
X55910000Y-62893802D01*
X61782802Y-57021000D01*
X64932560Y-57021000D01*
X64932560Y-57111000D01*
X64976838Y-57346317D01*
X65115910Y-57562441D01*
X65328110Y-57707431D01*
X65580000Y-57758440D01*
X67580000Y-57758440D01*
X67815317Y-57714162D01*
X68031441Y-57575090D01*
X68176431Y-57362890D01*
X68227440Y-57111000D01*
X68227440Y-56546750D01*
X68945000Y-56546750D01*
X68945000Y-57237310D01*
X69041673Y-57470699D01*
X69220302Y-57649327D01*
X69453691Y-57746000D01*
X70294250Y-57746000D01*
X70453000Y-57587250D01*
X70453000Y-56388000D01*
X70707000Y-56388000D01*
X70707000Y-57587250D01*
X70865750Y-57746000D01*
X71706309Y-57746000D01*
X71939698Y-57649327D01*
X72118327Y-57470699D01*
X72215000Y-57237310D01*
X72215000Y-56546750D01*
X72056250Y-56388000D01*
X70707000Y-56388000D01*
X70453000Y-56388000D01*
X69103750Y-56388000D01*
X68945000Y-56546750D01*
X68227440Y-56546750D01*
X68227440Y-55411000D01*
X68203674Y-55284690D01*
X68945000Y-55284690D01*
X68945000Y-55975250D01*
X69103750Y-56134000D01*
X70453000Y-56134000D01*
X70453000Y-54934750D01*
X70707000Y-54934750D01*
X70707000Y-56134000D01*
X72056250Y-56134000D01*
X72215000Y-55975250D01*
X72215000Y-55284690D01*
X72118327Y-55051301D01*
X71939698Y-54872673D01*
X71706309Y-54776000D01*
X70865750Y-54776000D01*
X70707000Y-54934750D01*
X70453000Y-54934750D01*
X70294250Y-54776000D01*
X69453691Y-54776000D01*
X69220302Y-54872673D01*
X69041673Y-55051301D01*
X68945000Y-55284690D01*
X68203674Y-55284690D01*
X68183162Y-55175683D01*
X68044090Y-54959559D01*
X67831890Y-54814569D01*
X67580000Y-54763560D01*
X65580000Y-54763560D01*
X65344683Y-54807838D01*
X65128559Y-54946910D01*
X64983569Y-55159110D01*
X64932560Y-55411000D01*
X64932560Y-55501000D01*
X61468000Y-55501000D01*
X61177160Y-55558852D01*
X60930599Y-55723599D01*
X54612599Y-62041599D01*
X54447852Y-62288161D01*
X54390000Y-62579000D01*
X54390000Y-63272560D01*
X54150000Y-63272560D01*
X53914683Y-63316838D01*
X53698559Y-63455910D01*
X53553569Y-63668110D01*
X53502560Y-63920000D01*
X52083606Y-63920000D01*
X91640383Y-24363223D01*
X91602560Y-24550000D01*
X91602560Y-26250000D01*
X91646838Y-26485317D01*
X91785910Y-26701441D01*
X91998110Y-26846431D01*
X92250000Y-26897440D01*
X92490000Y-26897440D01*
X92490000Y-30252560D01*
X92250000Y-30252560D01*
X92014683Y-30296838D01*
X91798559Y-30435910D01*
X91653569Y-30648110D01*
X91602560Y-30900000D01*
X91602560Y-32600000D01*
X91646838Y-32835317D01*
X91785910Y-33051441D01*
X91998110Y-33196431D01*
X92250000Y-33247440D01*
X94250000Y-33247440D01*
X94485317Y-33203162D01*
X94701441Y-33064090D01*
X94846431Y-32851890D01*
X94897440Y-32600000D01*
X94897440Y-32035750D01*
X95615000Y-32035750D01*
X95615000Y-32726310D01*
X95711673Y-32959699D01*
X95890302Y-33138327D01*
X96123691Y-33235000D01*
X96964250Y-33235000D01*
X97123000Y-33076250D01*
X97123000Y-31877000D01*
X97377000Y-31877000D01*
X97377000Y-33076250D01*
X97535750Y-33235000D01*
X98376309Y-33235000D01*
X98609698Y-33138327D01*
X98788327Y-32959699D01*
X98885000Y-32726310D01*
X98885000Y-32035750D01*
X98726250Y-31877000D01*
X97377000Y-31877000D01*
X97123000Y-31877000D01*
X95773750Y-31877000D01*
X95615000Y-32035750D01*
X94897440Y-32035750D01*
X94897440Y-30900000D01*
X94853162Y-30664683D01*
X94714090Y-30448559D01*
X94501890Y-30303569D01*
X94250000Y-30252560D01*
X94010000Y-30252560D01*
X94010000Y-26897440D01*
X94250000Y-26897440D01*
X94485317Y-26853162D01*
X94701441Y-26714090D01*
X94846431Y-26501890D01*
X94897440Y-26250000D01*
X94897440Y-24550000D01*
X94853162Y-24314683D01*
X94714090Y-24098559D01*
X94501890Y-23953569D01*
X94250000Y-23902560D01*
X92250000Y-23902560D01*
X92066522Y-23937084D01*
X95048606Y-20955000D01*
X95515908Y-20955000D01*
X98541631Y-23980723D01*
G36*
X86845673Y-100360192D02*
X87189201Y-100502838D01*
X87236077Y-100502879D01*
X87600599Y-100867401D01*
X87847161Y-101032148D01*
X88138000Y-101090000D01*
X89792560Y-101090000D01*
X89792560Y-101220000D01*
X89836838Y-101455317D01*
X89930503Y-101600877D01*
X89843569Y-101728110D01*
X89792560Y-101980000D01*
X89792560Y-103760000D01*
X89836838Y-103995317D01*
X89926820Y-104135154D01*
X89901673Y-104160301D01*
X89805000Y-104393690D01*
X89805000Y-105124250D01*
X89963750Y-105283000D01*
X91313000Y-105283000D01*
X91313000Y-105263000D01*
X91567000Y-105263000D01*
X91567000Y-105283000D01*
X92916250Y-105283000D01*
X93075000Y-105124250D01*
X93075000Y-104393690D01*
X92978327Y-104160301D01*
X92952603Y-104134577D01*
X93036431Y-104011890D01*
X93087440Y-103760000D01*
X93087440Y-101980000D01*
X93043162Y-101744683D01*
X92949497Y-101599123D01*
X93036431Y-101471890D01*
X93086818Y-101223074D01*
X93188599Y-101375401D01*
X94695878Y-102882680D01*
X94695838Y-102928167D01*
X94837883Y-103271943D01*
X95100673Y-103535192D01*
X95444201Y-103677838D01*
X95506000Y-103677892D01*
X95506000Y-161798000D01*
X95563852Y-162088839D01*
X95728599Y-162335401D01*
X96363599Y-162970401D01*
X96610161Y-163135148D01*
X96901000Y-163193000D01*
X97221198Y-163193000D01*
X98116851Y-164088653D01*
X97896057Y-164179883D01*
X97862882Y-164213000D01*
X97215802Y-164213000D01*
X95296122Y-162293320D01*
X95296162Y-162247833D01*
X95154117Y-161904057D01*
X94891327Y-161640808D01*
X94547799Y-161498162D01*
X94175833Y-161497838D01*
X93832057Y-161639883D01*
X93568808Y-161902673D01*
X93426162Y-162246201D01*
X93425838Y-162618167D01*
X93567883Y-162961943D01*
X93830673Y-163225192D01*
X94174201Y-163367838D01*
X94221077Y-163367879D01*
X96363599Y-165510401D01*
X96610160Y-165675148D01*
X96658414Y-165684746D01*
X96901000Y-165733000D01*
X97862537Y-165733000D01*
X97894673Y-165765192D01*
X98123226Y-165860096D01*
X97976852Y-166079161D01*
X97919000Y-166370000D01*
X97919000Y-170703560D01*
X96929000Y-170703560D01*
X96693683Y-170747838D01*
X96477559Y-170886910D01*
X96332569Y-171099110D01*
X96281560Y-171351000D01*
X96281560Y-174851000D01*
X96325838Y-175086317D01*
X96464910Y-175302441D01*
X96612903Y-175403560D01*
X94754337Y-175403560D01*
X94788698Y-175389327D01*
X94967327Y-175210699D01*
X95064000Y-174977310D01*
X95064000Y-173386750D01*
X94905250Y-173228000D01*
X92806000Y-173228000D01*
X92806000Y-175327250D01*
X92964750Y-175486000D01*
X93634378Y-175486000D01*
X93477559Y-175586910D01*
X93332569Y-175799110D01*
X93281560Y-176051000D01*
X93281560Y-179551000D01*
X93325838Y-179786317D01*
X93464910Y-180002441D01*
X93590130Y-180088000D01*
X91500802Y-180088000D01*
X89406000Y-177993198D01*
X89406000Y-176403000D01*
X89348148Y-176112161D01*
X89183401Y-175865599D01*
X87278401Y-173960599D01*
X87031839Y-173795852D01*
X86741000Y-173738000D01*
X66735802Y-173738000D01*
X66546000Y-173548198D01*
X66546000Y-173386750D01*
X90294000Y-173386750D01*
X90294000Y-174977310D01*
X90390673Y-175210699D01*
X90569302Y-175389327D01*
X90802691Y-175486000D01*
X92393250Y-175486000D01*
X92552000Y-175327250D01*
X92552000Y-173228000D01*
X90452750Y-173228000D01*
X90294000Y-173386750D01*
X66546000Y-173386750D01*
X66546000Y-172357726D01*
X66768878Y-172208803D01*
X67056000Y-171779096D01*
X67343122Y-172208803D01*
X67794070Y-172510118D01*
X68326000Y-172615925D01*
X68857930Y-172510118D01*
X69308878Y-172208803D01*
X69608751Y-171760013D01*
X69630408Y-171833263D01*
X69972924Y-172256681D01*
X70451403Y-172516793D01*
X70524029Y-172531277D01*
X70739000Y-172408683D01*
X70739000Y-170561000D01*
X70993000Y-170561000D01*
X70993000Y-172408683D01*
X71207971Y-172531277D01*
X71280597Y-172516793D01*
X71759076Y-172256681D01*
X72101592Y-171833263D01*
X72256000Y-171311000D01*
X72256000Y-171224690D01*
X90294000Y-171224690D01*
X90294000Y-172815250D01*
X90452750Y-172974000D01*
X92552000Y-172974000D01*
X92552000Y-170874750D01*
X92806000Y-170874750D01*
X92806000Y-172974000D01*
X94905250Y-172974000D01*
X95064000Y-172815250D01*
X95064000Y-171224690D01*
X94967327Y-170991301D01*
X94788698Y-170812673D01*
X94555309Y-170716000D01*
X92964750Y-170716000D01*
X92806000Y-170874750D01*
X92552000Y-170874750D01*
X92393250Y-170716000D01*
X90802691Y-170716000D01*
X90569302Y-170812673D01*
X90390673Y-170991301D01*
X90294000Y-171224690D01*
X72256000Y-171224690D01*
X72256000Y-170561000D01*
X70993000Y-170561000D01*
X70739000Y-170561000D01*
X70719000Y-170561000D01*
X70719000Y-170307000D01*
X70739000Y-170307000D01*
X70739000Y-168459317D01*
X70993000Y-168459317D01*
X70993000Y-170307000D01*
X72256000Y-170307000D01*
X72256000Y-169557000D01*
X72101592Y-169034737D01*
X71759076Y-168611319D01*
X71280597Y-168351207D01*
X71207971Y-168336723D01*
X70993000Y-168459317D01*
X70739000Y-168459317D01*
X70524029Y-168336723D01*
X70451403Y-168351207D01*
X69972924Y-168611319D01*
X69630408Y-169034737D01*
X69608751Y-169107987D01*
X69395286Y-168788516D01*
X71180802Y-167003000D01*
X88646000Y-167003000D01*
X88936839Y-166945148D01*
X89183401Y-166780401D01*
X91088401Y-164875401D01*
X91253148Y-164628839D01*
X91299429Y-164396167D01*
X91647838Y-164396167D01*
X91789883Y-164739943D01*
X92052673Y-165003192D01*
X92396201Y-165145838D01*
X92443077Y-165145879D01*
X94839599Y-167542401D01*
X95086161Y-167707148D01*
X95309043Y-167751482D01*
X95354673Y-167797192D01*
X95698201Y-167939838D01*
X96070167Y-167940162D01*
X96413943Y-167798117D01*
X96677192Y-167535327D01*
X96819838Y-167191799D01*
X96820162Y-166819833D01*
X96678117Y-166476057D01*
X96415327Y-166212808D01*
X96071799Y-166070162D01*
X95699833Y-166069838D01*
X95570202Y-166123400D01*
X93518122Y-164071320D01*
X93518162Y-164025833D01*
X93376117Y-163682057D01*
X93113327Y-163418808D01*
X92769799Y-163276162D01*
X92397833Y-163275838D01*
X92054057Y-163417883D01*
X91790808Y-163680673D01*
X91648162Y-164024201D01*
X91647838Y-164396167D01*
X91299429Y-164396167D01*
X91311000Y-164338000D01*
X91311000Y-132588000D01*
X91253148Y-132297161D01*
X91253148Y-132297160D01*
X91088401Y-132050599D01*
X89818401Y-130780599D01*
X89571839Y-130615852D01*
X89281000Y-130558000D01*
X88960802Y-130558000D01*
X87676122Y-129273320D01*
X87676162Y-129227833D01*
X87594419Y-129030000D01*
X89789000Y-129030000D01*
X89902414Y-129007440D01*
X90017371Y-128994877D01*
X90046859Y-128978708D01*
X90079839Y-128972148D01*
X90175983Y-128907907D01*
X90277385Y-128852306D01*
X94214385Y-125550305D01*
X94235439Y-125524085D01*
X94263401Y-125505401D01*
X94327649Y-125409247D01*
X94400047Y-125319083D01*
X94409464Y-125286801D01*
X94428148Y-125258839D01*
X94450708Y-125145422D01*
X94483093Y-125034411D01*
X94479440Y-125000981D01*
X94486000Y-124968000D01*
X94486000Y-120450463D01*
X94518192Y-120418327D01*
X94660838Y-120074799D01*
X94661162Y-119702833D01*
X94519117Y-119359057D01*
X94256327Y-119095808D01*
X93912799Y-118953162D01*
X93540833Y-118952838D01*
X93197057Y-119094883D01*
X92933808Y-119357673D01*
X92791162Y-119701201D01*
X92790838Y-120073167D01*
X92932883Y-120416943D01*
X92966000Y-120450118D01*
X92966000Y-121033000D01*
X90230802Y-121033000D01*
X85596000Y-116398198D01*
X85596000Y-105695750D01*
X89805000Y-105695750D01*
X89805000Y-106426310D01*
X89901673Y-106659699D01*
X90080302Y-106838327D01*
X90313691Y-106935000D01*
X91154250Y-106935000D01*
X91313000Y-106776250D01*
X91313000Y-105537000D01*
X91567000Y-105537000D01*
X91567000Y-106776250D01*
X91725750Y-106935000D01*
X92566309Y-106935000D01*
X92799698Y-106838327D01*
X92978327Y-106659699D01*
X93075000Y-106426310D01*
X93075000Y-105695750D01*
X92916250Y-105537000D01*
X91567000Y-105537000D01*
X91313000Y-105537000D01*
X89963750Y-105537000D01*
X89805000Y-105695750D01*
X85596000Y-105695750D01*
X85596000Y-101152802D01*
X86617341Y-100131461D01*
X86845673Y-100360192D01*
X86845673Y-100360192D01*
G37*
X86845673Y-100360192D02*
X87189201Y-100502838D01*
X87236077Y-100502879D01*
X87600599Y-100867401D01*
X87847161Y-101032148D01*
X88138000Y-101090000D01*
X89792560Y-101090000D01*
X89792560Y-101220000D01*
X89836838Y-101455317D01*
X89930503Y-101600877D01*
X89843569Y-101728110D01*
X89792560Y-101980000D01*
X89792560Y-103760000D01*
X89836838Y-103995317D01*
X89926820Y-104135154D01*
X89901673Y-104160301D01*
X89805000Y-104393690D01*
X89805000Y-105124250D01*
X89963750Y-105283000D01*
X91313000Y-105283000D01*
X91313000Y-105263000D01*
X91567000Y-105263000D01*
X91567000Y-105283000D01*
X92916250Y-105283000D01*
X93075000Y-105124250D01*
X93075000Y-104393690D01*
X92978327Y-104160301D01*
X92952603Y-104134577D01*
X93036431Y-104011890D01*
X93087440Y-103760000D01*
X93087440Y-101980000D01*
X93043162Y-101744683D01*
X92949497Y-101599123D01*
X93036431Y-101471890D01*
X93086818Y-101223074D01*
X93188599Y-101375401D01*
X94695878Y-102882680D01*
X94695838Y-102928167D01*
X94837883Y-103271943D01*
X95100673Y-103535192D01*
X95444201Y-103677838D01*
X95506000Y-103677892D01*
X95506000Y-161798000D01*
X95563852Y-162088839D01*
X95728599Y-162335401D01*
X96363599Y-162970401D01*
X96610161Y-163135148D01*
X96901000Y-163193000D01*
X97221198Y-163193000D01*
X98116851Y-164088653D01*
X97896057Y-164179883D01*
X97862882Y-164213000D01*
X97215802Y-164213000D01*
X95296122Y-162293320D01*
X95296162Y-162247833D01*
X95154117Y-161904057D01*
X94891327Y-161640808D01*
X94547799Y-161498162D01*
X94175833Y-161497838D01*
X93832057Y-161639883D01*
X93568808Y-161902673D01*
X93426162Y-162246201D01*
X93425838Y-162618167D01*
X93567883Y-162961943D01*
X93830673Y-163225192D01*
X94174201Y-163367838D01*
X94221077Y-163367879D01*
X96363599Y-165510401D01*
X96610160Y-165675148D01*
X96658414Y-165684746D01*
X96901000Y-165733000D01*
X97862537Y-165733000D01*
X97894673Y-165765192D01*
X98123226Y-165860096D01*
X97976852Y-166079161D01*
X97919000Y-166370000D01*
X97919000Y-170703560D01*
X96929000Y-170703560D01*
X96693683Y-170747838D01*
X96477559Y-170886910D01*
X96332569Y-171099110D01*
X96281560Y-171351000D01*
X96281560Y-174851000D01*
X96325838Y-175086317D01*
X96464910Y-175302441D01*
X96612903Y-175403560D01*
X94754337Y-175403560D01*
X94788698Y-175389327D01*
X94967327Y-175210699D01*
X95064000Y-174977310D01*
X95064000Y-173386750D01*
X94905250Y-173228000D01*
X92806000Y-173228000D01*
X92806000Y-175327250D01*
X92964750Y-175486000D01*
X93634378Y-175486000D01*
X93477559Y-175586910D01*
X93332569Y-175799110D01*
X93281560Y-176051000D01*
X93281560Y-179551000D01*
X93325838Y-179786317D01*
X93464910Y-180002441D01*
X93590130Y-180088000D01*
X91500802Y-180088000D01*
X89406000Y-177993198D01*
X89406000Y-176403000D01*
X89348148Y-176112161D01*
X89183401Y-175865599D01*
X87278401Y-173960599D01*
X87031839Y-173795852D01*
X86741000Y-173738000D01*
X66735802Y-173738000D01*
X66546000Y-173548198D01*
X66546000Y-173386750D01*
X90294000Y-173386750D01*
X90294000Y-174977310D01*
X90390673Y-175210699D01*
X90569302Y-175389327D01*
X90802691Y-175486000D01*
X92393250Y-175486000D01*
X92552000Y-175327250D01*
X92552000Y-173228000D01*
X90452750Y-173228000D01*
X90294000Y-173386750D01*
X66546000Y-173386750D01*
X66546000Y-172357726D01*
X66768878Y-172208803D01*
X67056000Y-171779096D01*
X67343122Y-172208803D01*
X67794070Y-172510118D01*
X68326000Y-172615925D01*
X68857930Y-172510118D01*
X69308878Y-172208803D01*
X69608751Y-171760013D01*
X69630408Y-171833263D01*
X69972924Y-172256681D01*
X70451403Y-172516793D01*
X70524029Y-172531277D01*
X70739000Y-172408683D01*
X70739000Y-170561000D01*
X70993000Y-170561000D01*
X70993000Y-172408683D01*
X71207971Y-172531277D01*
X71280597Y-172516793D01*
X71759076Y-172256681D01*
X72101592Y-171833263D01*
X72256000Y-171311000D01*
X72256000Y-171224690D01*
X90294000Y-171224690D01*
X90294000Y-172815250D01*
X90452750Y-172974000D01*
X92552000Y-172974000D01*
X92552000Y-170874750D01*
X92806000Y-170874750D01*
X92806000Y-172974000D01*
X94905250Y-172974000D01*
X95064000Y-172815250D01*
X95064000Y-171224690D01*
X94967327Y-170991301D01*
X94788698Y-170812673D01*
X94555309Y-170716000D01*
X92964750Y-170716000D01*
X92806000Y-170874750D01*
X92552000Y-170874750D01*
X92393250Y-170716000D01*
X90802691Y-170716000D01*
X90569302Y-170812673D01*
X90390673Y-170991301D01*
X90294000Y-171224690D01*
X72256000Y-171224690D01*
X72256000Y-170561000D01*
X70993000Y-170561000D01*
X70739000Y-170561000D01*
X70719000Y-170561000D01*
X70719000Y-170307000D01*
X70739000Y-170307000D01*
X70739000Y-168459317D01*
X70993000Y-168459317D01*
X70993000Y-170307000D01*
X72256000Y-170307000D01*
X72256000Y-169557000D01*
X72101592Y-169034737D01*
X71759076Y-168611319D01*
X71280597Y-168351207D01*
X71207971Y-168336723D01*
X70993000Y-168459317D01*
X70739000Y-168459317D01*
X70524029Y-168336723D01*
X70451403Y-168351207D01*
X69972924Y-168611319D01*
X69630408Y-169034737D01*
X69608751Y-169107987D01*
X69395286Y-168788516D01*
X71180802Y-167003000D01*
X88646000Y-167003000D01*
X88936839Y-166945148D01*
X89183401Y-166780401D01*
X91088401Y-164875401D01*
X91253148Y-164628839D01*
X91299429Y-164396167D01*
X91647838Y-164396167D01*
X91789883Y-164739943D01*
X92052673Y-165003192D01*
X92396201Y-165145838D01*
X92443077Y-165145879D01*
X94839599Y-167542401D01*
X95086161Y-167707148D01*
X95309043Y-167751482D01*
X95354673Y-167797192D01*
X95698201Y-167939838D01*
X96070167Y-167940162D01*
X96413943Y-167798117D01*
X96677192Y-167535327D01*
X96819838Y-167191799D01*
X96820162Y-166819833D01*
X96678117Y-166476057D01*
X96415327Y-166212808D01*
X96071799Y-166070162D01*
X95699833Y-166069838D01*
X95570202Y-166123400D01*
X93518122Y-164071320D01*
X93518162Y-164025833D01*
X93376117Y-163682057D01*
X93113327Y-163418808D01*
X92769799Y-163276162D01*
X92397833Y-163275838D01*
X92054057Y-163417883D01*
X91790808Y-163680673D01*
X91648162Y-164024201D01*
X91647838Y-164396167D01*
X91299429Y-164396167D01*
X91311000Y-164338000D01*
X91311000Y-132588000D01*
X91253148Y-132297161D01*
X91253148Y-132297160D01*
X91088401Y-132050599D01*
X89818401Y-130780599D01*
X89571839Y-130615852D01*
X89281000Y-130558000D01*
X88960802Y-130558000D01*
X87676122Y-129273320D01*
X87676162Y-129227833D01*
X87594419Y-129030000D01*
X89789000Y-129030000D01*
X89902414Y-129007440D01*
X90017371Y-128994877D01*
X90046859Y-128978708D01*
X90079839Y-128972148D01*
X90175983Y-128907907D01*
X90277385Y-128852306D01*
X94214385Y-125550305D01*
X94235439Y-125524085D01*
X94263401Y-125505401D01*
X94327649Y-125409247D01*
X94400047Y-125319083D01*
X94409464Y-125286801D01*
X94428148Y-125258839D01*
X94450708Y-125145422D01*
X94483093Y-125034411D01*
X94479440Y-125000981D01*
X94486000Y-124968000D01*
X94486000Y-120450463D01*
X94518192Y-120418327D01*
X94660838Y-120074799D01*
X94661162Y-119702833D01*
X94519117Y-119359057D01*
X94256327Y-119095808D01*
X93912799Y-118953162D01*
X93540833Y-118952838D01*
X93197057Y-119094883D01*
X92933808Y-119357673D01*
X92791162Y-119701201D01*
X92790838Y-120073167D01*
X92932883Y-120416943D01*
X92966000Y-120450118D01*
X92966000Y-121033000D01*
X90230802Y-121033000D01*
X85596000Y-116398198D01*
X85596000Y-105695750D01*
X89805000Y-105695750D01*
X89805000Y-106426310D01*
X89901673Y-106659699D01*
X90080302Y-106838327D01*
X90313691Y-106935000D01*
X91154250Y-106935000D01*
X91313000Y-106776250D01*
X91313000Y-105537000D01*
X91567000Y-105537000D01*
X91567000Y-106776250D01*
X91725750Y-106935000D01*
X92566309Y-106935000D01*
X92799698Y-106838327D01*
X92978327Y-106659699D01*
X93075000Y-106426310D01*
X93075000Y-105695750D01*
X92916250Y-105537000D01*
X91567000Y-105537000D01*
X91313000Y-105537000D01*
X89963750Y-105537000D01*
X89805000Y-105695750D01*
X85596000Y-105695750D01*
X85596000Y-101152802D01*
X86617341Y-100131461D01*
X86845673Y-100360192D01*
M02*
