G04 #@! TF.FileFunction,Soldermask,Top*
%FSLAX46Y46*%
G04 Gerber Fmt 4.6, Leading zero omitted, Abs format (unit mm)*
G04 Created by KiCad (PCBNEW 4.0.6) date Sunday, September 24, 2017 'PMt' 03:47:12 PM*
%MOMM*%
%LPD*%
G01*
G04 APERTURE LIST*
%ADD10C,0.100000*%
%ADD11R,2.400000X2.100000*%
%ADD12R,1.400000X1.400000*%
%ADD13O,1.400000X1.400000*%
%ADD14R,2.400000X2.180000*%
%ADD15O,1.910000X3.410000*%
%ADD16R,3.900000X3.900000*%
G04 APERTURE END LIST*
D10*
D11*
X48165000Y-128270000D03*
X52165000Y-128270000D03*
X138970000Y-94615000D03*
X142970000Y-94615000D03*
X55150000Y-64770000D03*
X59150000Y-64770000D03*
D12*
X116967000Y-167259000D03*
D13*
X118237000Y-167259000D03*
X119507000Y-167259000D03*
X120777000Y-167259000D03*
X122047000Y-167259000D03*
D14*
X91440000Y-97790000D03*
X99060000Y-105410000D03*
X91440000Y-100330000D03*
X99060000Y-102870000D03*
X91440000Y-102870000D03*
X99060000Y-100330000D03*
X91440000Y-105410000D03*
X99060000Y-97790000D03*
D11*
X138462000Y-127762000D03*
X142462000Y-127762000D03*
X49562000Y-95250000D03*
X53562000Y-95250000D03*
X135350000Y-64770000D03*
X131350000Y-64770000D03*
X59595000Y-121920000D03*
X63595000Y-121920000D03*
X131540000Y-88265000D03*
X127540000Y-88265000D03*
X66580000Y-56261000D03*
X70580000Y-56261000D03*
X131667000Y-121666000D03*
X127667000Y-121666000D03*
X60865000Y-88900000D03*
X64865000Y-88900000D03*
X123285000Y-55880000D03*
X119285000Y-55880000D03*
X93250000Y-31750000D03*
X97250000Y-31750000D03*
D15*
X65786000Y-170434000D03*
X68326000Y-170434000D03*
X70866000Y-170434000D03*
D11*
X93250000Y-25400000D03*
X97250000Y-25400000D03*
D16*
X98679000Y-173101000D03*
X92679000Y-173101000D03*
X95679000Y-177801000D03*
M02*
