M48
;DRILL file {KiCad 4.0.6} date Saturday, November 11, 2017 'PMt' 03:03:29 PM
;FORMAT={-:-/ absolute / inch / decimal}
FMAT,2
INCH,TZ
T1C0.016
T2C0.039
%
G90
G05
M72
T1
X3.5Y-3.625
X3.525Y-4.9
X3.6Y-5.
X3.65Y-3.475
X3.65Y-4.3
X3.65Y-4.6
X3.75Y-2.65
X3.75Y-2.75
X3.75Y-3.525
X3.75Y-3.575
X3.75Y-4.25
X3.75Y-4.35
X3.8Y-3.475
X3.85Y-4.575
X3.85Y-4.95
X3.875Y-5.
X3.9Y-4.45
X3.975Y-4.975
X4.1Y-2.55
X4.125Y-4.7
T2
X2.59Y-6.71
X2.69Y-6.71
X2.79Y-6.71
T2
X3.6488Y-6.7756G85X3.6488Y-6.8544
G05
X3.7275Y-7.G85X3.8063Y-7.
G05
X3.885Y-6.7756G85X3.885Y-6.8544
G05
T0
M30
