G04 #@! TF.FileFunction,Copper,L2,Bot,Signal*
%FSLAX46Y46*%
G04 Gerber Fmt 4.6, Leading zero omitted, Abs format (unit mm)*
G04 Created by KiCad (PCBNEW 4.0.6) date Monday, November 13, 2017 'PMt' 07:08:10 PM*
%MOMM*%
%LPD*%
G01*
G04 APERTURE LIST*
%ADD10C,0.100000*%
%ADD11O,1.510000X3.010000*%
%ADD12R,3.500000X3.500000*%
%ADD13R,2.000000X1.700000*%
%ADD14C,0.600000*%
%ADD15C,0.250000*%
%ADD16C,0.254000*%
G04 APERTURE END LIST*
D10*
D11*
X65786000Y-170434000D03*
X68326000Y-170434000D03*
X70866000Y-170434000D03*
D12*
X98679000Y-173101000D03*
X92679000Y-173101000D03*
X95679000Y-177801000D03*
D13*
X135350000Y-64770000D03*
X131350000Y-64770000D03*
X49435000Y-95250000D03*
X53435000Y-95250000D03*
X138335000Y-127762000D03*
X142335000Y-127762000D03*
X55150000Y-64770000D03*
X59150000Y-64770000D03*
X138970000Y-94615000D03*
X142970000Y-94615000D03*
X48165000Y-128270000D03*
X52165000Y-128270000D03*
X123285000Y-55880000D03*
X119285000Y-55880000D03*
X60865000Y-88900000D03*
X64865000Y-88900000D03*
X131667000Y-121666000D03*
X127667000Y-121666000D03*
X66580000Y-56261000D03*
X70580000Y-56261000D03*
X131540000Y-88265000D03*
X127540000Y-88265000D03*
X59595000Y-121920000D03*
X63595000Y-121920000D03*
X93250000Y-31750000D03*
X97250000Y-31750000D03*
X93250000Y-25146000D03*
X97250000Y-25146000D03*
D14*
X91440000Y-127000000D03*
X104140000Y-64770000D03*
X88900000Y-92075000D03*
X92710000Y-109220000D03*
X92710000Y-116840000D03*
X91440000Y-114935000D03*
X88900000Y-114935000D03*
X95250000Y-110490000D03*
X95250000Y-107950000D03*
X95250000Y-90805000D03*
X95250000Y-89535000D03*
X95250000Y-69850000D03*
X95250000Y-67310000D03*
X100965000Y-126365000D03*
X97790000Y-125730000D03*
X89535000Y-125730000D03*
X92710000Y-88265000D03*
X96520000Y-86360000D03*
D15*
X142335000Y-127762000D02*
X142335000Y-129445000D01*
X142335000Y-129445000D02*
X141605000Y-130175000D01*
X141605000Y-130175000D02*
X104140000Y-130175000D01*
X104140000Y-130175000D02*
X101600000Y-127635000D01*
X101600000Y-127635000D02*
X99060000Y-127635000D01*
X99060000Y-127635000D02*
X98425000Y-127000000D01*
X98425000Y-127000000D02*
X91440000Y-127000000D01*
X104140000Y-64770000D02*
X131350000Y-64770000D01*
X85725000Y-95250000D02*
X53435000Y-95250000D01*
X88900000Y-92075000D02*
X85725000Y-95250000D01*
X123285000Y-55880000D02*
X128905000Y-55880000D01*
X135255000Y-62230000D02*
X135255000Y-64675000D01*
X128905000Y-55880000D02*
X135255000Y-62230000D01*
X135255000Y-64675000D02*
X135350000Y-64770000D01*
X60865000Y-88900000D02*
X53975000Y-88900000D01*
X49530000Y-93345000D02*
X49530000Y-95155000D01*
X53975000Y-88900000D02*
X49530000Y-93345000D01*
X49530000Y-95155000D02*
X49435000Y-95250000D01*
X134366000Y-121666000D02*
X138335000Y-125635000D01*
X131667000Y-121666000D02*
X134366000Y-121666000D01*
X138335000Y-125635000D02*
X138335000Y-127762000D01*
X92710000Y-116840000D02*
X92710000Y-109220000D01*
X55150000Y-64770000D02*
X55150000Y-62960000D01*
X61849000Y-56261000D02*
X66580000Y-56261000D01*
X55150000Y-62960000D02*
X61849000Y-56261000D01*
X131540000Y-88265000D02*
X134620000Y-88265000D01*
X138970000Y-92615000D02*
X138970000Y-94615000D01*
X134620000Y-88265000D02*
X138970000Y-92615000D01*
X48165000Y-128270000D02*
X48165000Y-127095000D01*
X53340000Y-121920000D02*
X59595000Y-121920000D01*
X48165000Y-127095000D02*
X53340000Y-121920000D01*
X93250000Y-25146000D02*
X92329000Y-25146000D01*
X92329000Y-25146000D02*
X90805000Y-26670000D01*
X90805000Y-26670000D02*
X90805000Y-31115000D01*
X90805000Y-31115000D02*
X91440000Y-31750000D01*
X91440000Y-31750000D02*
X93250000Y-31750000D01*
X91440000Y-114935000D02*
X88900000Y-114935000D01*
X97250000Y-25146000D02*
X98171000Y-25146000D01*
X98171000Y-25146000D02*
X100330000Y-27305000D01*
X100330000Y-27305000D02*
X100330000Y-33655000D01*
X100330000Y-33655000D02*
X99060000Y-34925000D01*
X99060000Y-34925000D02*
X95885000Y-34925000D01*
X95885000Y-34925000D02*
X95250000Y-35560000D01*
X95250000Y-35560000D02*
X95250000Y-67310000D01*
X95250000Y-107950000D02*
X95250000Y-110490000D01*
X95250000Y-89535000D02*
X95250000Y-90805000D01*
X95250000Y-67310000D02*
X95250000Y-69850000D01*
X97155000Y-86995000D02*
X96520000Y-86360000D01*
X97155000Y-90170000D02*
X97155000Y-86995000D01*
X103505000Y-96520000D02*
X97155000Y-90170000D01*
X142240000Y-96520000D02*
X103505000Y-96520000D01*
X142970000Y-95790000D02*
X142240000Y-96520000D01*
X142970000Y-94615000D02*
X142970000Y-95790000D01*
X86360000Y-128270000D02*
X89535000Y-125730000D01*
X86360000Y-128270000D02*
X85725000Y-128270000D01*
X85725000Y-128270000D02*
X84455000Y-128270000D01*
X100330000Y-125730000D02*
X97790000Y-125730000D01*
X100965000Y-126365000D02*
X100330000Y-125730000D01*
X90805000Y-125730000D02*
X97790000Y-125730000D01*
X89535000Y-125730000D02*
X90805000Y-125730000D01*
X59150000Y-64770000D02*
X90170000Y-64770000D01*
X93980000Y-68580000D02*
X93980000Y-88265000D01*
X90170000Y-64770000D02*
X93980000Y-68580000D01*
X84455000Y-128270000D02*
X52165000Y-128270000D01*
X94615000Y-88265000D02*
X93980000Y-88265000D01*
X93980000Y-88265000D02*
X92710000Y-88265000D01*
X96520000Y-86360000D02*
X94615000Y-88265000D01*
D16*
G36*
X98209468Y-23648560D02*
X96250000Y-23648560D01*
X96014683Y-23692838D01*
X95798559Y-23831910D01*
X95653569Y-24044110D01*
X95602560Y-24296000D01*
X95602560Y-25996000D01*
X95646838Y-26231317D01*
X95785910Y-26447441D01*
X95998110Y-26592431D01*
X96250000Y-26643440D01*
X98250000Y-26643440D01*
X98485317Y-26599162D01*
X98524285Y-26574087D01*
X99570000Y-27619802D01*
X99570000Y-33340198D01*
X98745198Y-34165000D01*
X95885000Y-34165000D01*
X95594161Y-34222852D01*
X95347599Y-34387599D01*
X94712599Y-35022599D01*
X94547852Y-35269161D01*
X94490000Y-35560000D01*
X94490000Y-66747537D01*
X94457808Y-66779673D01*
X94315162Y-67123201D01*
X94314838Y-67495167D01*
X94456883Y-67838943D01*
X94490000Y-67872118D01*
X94490000Y-68015198D01*
X90707401Y-64232599D01*
X90460839Y-64067852D01*
X90170000Y-64010000D01*
X60797440Y-64010000D01*
X60797440Y-63920000D01*
X60753162Y-63684683D01*
X60614090Y-63468559D01*
X60401890Y-63323569D01*
X60150000Y-63272560D01*
X58150000Y-63272560D01*
X57914683Y-63316838D01*
X57698559Y-63455910D01*
X57553569Y-63668110D01*
X57502560Y-63920000D01*
X57502560Y-65620000D01*
X57546838Y-65855317D01*
X57685910Y-66071441D01*
X57898110Y-66216431D01*
X58150000Y-66267440D01*
X60150000Y-66267440D01*
X60385317Y-66223162D01*
X60601441Y-66084090D01*
X60746431Y-65871890D01*
X60797440Y-65620000D01*
X60797440Y-65530000D01*
X89855198Y-65530000D01*
X93220000Y-68894802D01*
X93220000Y-87464367D01*
X92896799Y-87330162D01*
X92524833Y-87329838D01*
X92181057Y-87471883D01*
X91917808Y-87734673D01*
X91775162Y-88078201D01*
X91774838Y-88450167D01*
X91916883Y-88793943D01*
X92179673Y-89057192D01*
X92523201Y-89199838D01*
X92895167Y-89200162D01*
X93238943Y-89058117D01*
X93272118Y-89025000D01*
X94449367Y-89025000D01*
X94315162Y-89348201D01*
X94314838Y-89720167D01*
X94456883Y-90063943D01*
X94490000Y-90097118D01*
X94490000Y-90242537D01*
X94457808Y-90274673D01*
X94315162Y-90618201D01*
X94314838Y-90990167D01*
X94456883Y-91333943D01*
X94719673Y-91597192D01*
X95063201Y-91739838D01*
X95435167Y-91740162D01*
X95778943Y-91598117D01*
X96042192Y-91335327D01*
X96184838Y-90991799D01*
X96185162Y-90619833D01*
X96043117Y-90276057D01*
X96010000Y-90242882D01*
X96010000Y-90097463D01*
X96042192Y-90065327D01*
X96184838Y-89721799D01*
X96185162Y-89349833D01*
X96043117Y-89006057D01*
X95780327Y-88742808D01*
X95436799Y-88600162D01*
X95354712Y-88600090D01*
X96395000Y-87559802D01*
X96395000Y-90170000D01*
X96452852Y-90460839D01*
X96617599Y-90707401D01*
X102967599Y-97057401D01*
X103214161Y-97222148D01*
X103505000Y-97280000D01*
X142240000Y-97280000D01*
X142530839Y-97222148D01*
X142777401Y-97057401D01*
X143507401Y-96327401D01*
X143651033Y-96112440D01*
X143970000Y-96112440D01*
X144205317Y-96068162D01*
X144421441Y-95929090D01*
X144566431Y-95716890D01*
X144617440Y-95465000D01*
X144617440Y-93765000D01*
X144573162Y-93529683D01*
X144532680Y-93466772D01*
X148601908Y-97536000D01*
X117856000Y-97536000D01*
X117806590Y-97546006D01*
X117764965Y-97574447D01*
X117737685Y-97616841D01*
X117729048Y-97666509D01*
X117740416Y-97715623D01*
X117766197Y-97752803D01*
X118752130Y-98738736D01*
X118877954Y-98927046D01*
X150506908Y-130556000D01*
X142298802Y-130556000D01*
X142872401Y-129982401D01*
X143037148Y-129735839D01*
X143095000Y-129445000D01*
X143095000Y-129259440D01*
X143335000Y-129259440D01*
X143570317Y-129215162D01*
X143786441Y-129076090D01*
X143931431Y-128863890D01*
X143982440Y-128612000D01*
X143982440Y-126912000D01*
X143938162Y-126676683D01*
X143799090Y-126460559D01*
X143586890Y-126315569D01*
X143335000Y-126264560D01*
X141335000Y-126264560D01*
X141099683Y-126308838D01*
X140883559Y-126447910D01*
X140738569Y-126660110D01*
X140687560Y-126912000D01*
X140687560Y-128612000D01*
X140731838Y-128847317D01*
X140870910Y-129063441D01*
X141083110Y-129208431D01*
X141335000Y-129259440D01*
X141445758Y-129259440D01*
X141290198Y-129415000D01*
X104454802Y-129415000D01*
X102137401Y-127097599D01*
X101890839Y-126932852D01*
X101748053Y-126904450D01*
X101757192Y-126895327D01*
X101899838Y-126551799D01*
X101900162Y-126179833D01*
X101758117Y-125836057D01*
X101495327Y-125572808D01*
X101151799Y-125430162D01*
X101104923Y-125430121D01*
X100867401Y-125192599D01*
X100620839Y-125027852D01*
X100330000Y-124970000D01*
X98352463Y-124970000D01*
X98320327Y-124937808D01*
X97976799Y-124795162D01*
X97604833Y-124794838D01*
X97261057Y-124936883D01*
X97227882Y-124970000D01*
X90097463Y-124970000D01*
X90065327Y-124937808D01*
X89721799Y-124795162D01*
X89349833Y-124794838D01*
X89006057Y-124936883D01*
X88742808Y-125199673D01*
X88624166Y-125485393D01*
X86093407Y-127510000D01*
X53812440Y-127510000D01*
X53812440Y-127420000D01*
X53768162Y-127184683D01*
X53629090Y-126968559D01*
X53416890Y-126823569D01*
X53165000Y-126772560D01*
X51165000Y-126772560D01*
X50929683Y-126816838D01*
X50713559Y-126955910D01*
X50568569Y-127168110D01*
X50517560Y-127420000D01*
X50517560Y-129120000D01*
X50561838Y-129355317D01*
X50700910Y-129571441D01*
X50913110Y-129716431D01*
X51165000Y-129767440D01*
X53165000Y-129767440D01*
X53400317Y-129723162D01*
X53616441Y-129584090D01*
X53761431Y-129371890D01*
X53812440Y-129120000D01*
X53812440Y-129030000D01*
X86360000Y-129030000D01*
X86464934Y-129009127D01*
X86571521Y-128999971D01*
X86609204Y-128980430D01*
X86650839Y-128972148D01*
X86739794Y-128912710D01*
X86834768Y-128863460D01*
X89582790Y-126665042D01*
X89720167Y-126665162D01*
X90063943Y-126523117D01*
X90097118Y-126490000D01*
X90639367Y-126490000D01*
X90505162Y-126813201D01*
X90504838Y-127185167D01*
X90646883Y-127528943D01*
X90909673Y-127792192D01*
X91253201Y-127934838D01*
X91625167Y-127935162D01*
X91968943Y-127793117D01*
X92002118Y-127760000D01*
X98110198Y-127760000D01*
X98522599Y-128172401D01*
X98769161Y-128337148D01*
X99060000Y-128395000D01*
X101285198Y-128395000D01*
X103602599Y-130712401D01*
X103849160Y-130877148D01*
X103897414Y-130886746D01*
X104140000Y-130935000D01*
X110109000Y-130935000D01*
X110109000Y-160528000D01*
X110119006Y-160577410D01*
X110147447Y-160619035D01*
X110189841Y-160646315D01*
X110236000Y-160655000D01*
X132334000Y-160655000D01*
X132334000Y-181991000D01*
X58293000Y-181991000D01*
X58293000Y-173386750D01*
X90294000Y-173386750D01*
X90294000Y-174977310D01*
X90390673Y-175210699D01*
X90569302Y-175389327D01*
X90802691Y-175486000D01*
X92393250Y-175486000D01*
X92552000Y-175327250D01*
X92552000Y-173228000D01*
X92806000Y-173228000D01*
X92806000Y-175327250D01*
X92964750Y-175486000D01*
X93634378Y-175486000D01*
X93477559Y-175586910D01*
X93332569Y-175799110D01*
X93281560Y-176051000D01*
X93281560Y-179551000D01*
X93325838Y-179786317D01*
X93464910Y-180002441D01*
X93677110Y-180147431D01*
X93929000Y-180198440D01*
X97429000Y-180198440D01*
X97664317Y-180154162D01*
X97880441Y-180015090D01*
X98025431Y-179802890D01*
X98076440Y-179551000D01*
X98076440Y-176051000D01*
X98032162Y-175815683D01*
X97893090Y-175599559D01*
X97745097Y-175498440D01*
X100429000Y-175498440D01*
X100664317Y-175454162D01*
X100880441Y-175315090D01*
X101025431Y-175102890D01*
X101076440Y-174851000D01*
X101076440Y-171351000D01*
X101032162Y-171115683D01*
X100893090Y-170899559D01*
X100680890Y-170754569D01*
X100429000Y-170703560D01*
X96929000Y-170703560D01*
X96693683Y-170747838D01*
X96477559Y-170886910D01*
X96332569Y-171099110D01*
X96281560Y-171351000D01*
X96281560Y-174851000D01*
X96325838Y-175086317D01*
X96464910Y-175302441D01*
X96612903Y-175403560D01*
X94754337Y-175403560D01*
X94788698Y-175389327D01*
X94967327Y-175210699D01*
X95064000Y-174977310D01*
X95064000Y-173386750D01*
X94905250Y-173228000D01*
X92806000Y-173228000D01*
X92552000Y-173228000D01*
X90452750Y-173228000D01*
X90294000Y-173386750D01*
X58293000Y-173386750D01*
X58293000Y-169642075D01*
X64396000Y-169642075D01*
X64396000Y-171225925D01*
X64501807Y-171757855D01*
X64803122Y-172208803D01*
X65254070Y-172510118D01*
X65786000Y-172615925D01*
X66317930Y-172510118D01*
X66768878Y-172208803D01*
X67056000Y-171779096D01*
X67343122Y-172208803D01*
X67794070Y-172510118D01*
X68326000Y-172615925D01*
X68857930Y-172510118D01*
X69308878Y-172208803D01*
X69608751Y-171760013D01*
X69630408Y-171833263D01*
X69972924Y-172256681D01*
X70451403Y-172516793D01*
X70524029Y-172531277D01*
X70739000Y-172408683D01*
X70739000Y-170561000D01*
X70993000Y-170561000D01*
X70993000Y-172408683D01*
X71207971Y-172531277D01*
X71280597Y-172516793D01*
X71759076Y-172256681D01*
X72101592Y-171833263D01*
X72256000Y-171311000D01*
X72256000Y-171224690D01*
X90294000Y-171224690D01*
X90294000Y-172815250D01*
X90452750Y-172974000D01*
X92552000Y-172974000D01*
X92552000Y-170874750D01*
X92806000Y-170874750D01*
X92806000Y-172974000D01*
X94905250Y-172974000D01*
X95064000Y-172815250D01*
X95064000Y-171224690D01*
X94967327Y-170991301D01*
X94788698Y-170812673D01*
X94555309Y-170716000D01*
X92964750Y-170716000D01*
X92806000Y-170874750D01*
X92552000Y-170874750D01*
X92393250Y-170716000D01*
X90802691Y-170716000D01*
X90569302Y-170812673D01*
X90390673Y-170991301D01*
X90294000Y-171224690D01*
X72256000Y-171224690D01*
X72256000Y-170561000D01*
X70993000Y-170561000D01*
X70739000Y-170561000D01*
X70719000Y-170561000D01*
X70719000Y-170307000D01*
X70739000Y-170307000D01*
X70739000Y-168459317D01*
X70993000Y-168459317D01*
X70993000Y-170307000D01*
X72256000Y-170307000D01*
X72256000Y-169557000D01*
X72101592Y-169034737D01*
X71759076Y-168611319D01*
X71280597Y-168351207D01*
X71207971Y-168336723D01*
X70993000Y-168459317D01*
X70739000Y-168459317D01*
X70524029Y-168336723D01*
X70451403Y-168351207D01*
X69972924Y-168611319D01*
X69630408Y-169034737D01*
X69608751Y-169107987D01*
X69308878Y-168659197D01*
X68857930Y-168357882D01*
X68326000Y-168252075D01*
X67794070Y-168357882D01*
X67343122Y-168659197D01*
X67056000Y-169088904D01*
X66768878Y-168659197D01*
X66317930Y-168357882D01*
X65786000Y-168252075D01*
X65254070Y-168357882D01*
X64803122Y-168659197D01*
X64501807Y-169110145D01*
X64396000Y-169642075D01*
X58293000Y-169642075D01*
X58293000Y-160655000D01*
X80391000Y-160655000D01*
X80440410Y-160644994D01*
X80482035Y-160616553D01*
X80509315Y-160574159D01*
X80518000Y-160528000D01*
X80518000Y-130683000D01*
X80507994Y-130633590D01*
X80479553Y-130591965D01*
X80437159Y-130564685D01*
X80391000Y-130556000D01*
X40057606Y-130556000D01*
X43193606Y-127420000D01*
X46517560Y-127420000D01*
X46517560Y-129120000D01*
X46561838Y-129355317D01*
X46700910Y-129571441D01*
X46913110Y-129716431D01*
X47165000Y-129767440D01*
X49165000Y-129767440D01*
X49400317Y-129723162D01*
X49616441Y-129584090D01*
X49761431Y-129371890D01*
X49812440Y-129120000D01*
X49812440Y-127420000D01*
X49768162Y-127184683D01*
X49629090Y-126968559D01*
X49472937Y-126861865D01*
X53654802Y-122680000D01*
X57947560Y-122680000D01*
X57947560Y-122770000D01*
X57991838Y-123005317D01*
X58130910Y-123221441D01*
X58343110Y-123366431D01*
X58595000Y-123417440D01*
X60595000Y-123417440D01*
X60830317Y-123373162D01*
X61046441Y-123234090D01*
X61191431Y-123021890D01*
X61242440Y-122770000D01*
X61242440Y-122205750D01*
X61960000Y-122205750D01*
X61960000Y-122896310D01*
X62056673Y-123129699D01*
X62235302Y-123308327D01*
X62468691Y-123405000D01*
X63309250Y-123405000D01*
X63468000Y-123246250D01*
X63468000Y-122047000D01*
X63722000Y-122047000D01*
X63722000Y-123246250D01*
X63880750Y-123405000D01*
X64721309Y-123405000D01*
X64954698Y-123308327D01*
X65133327Y-123129699D01*
X65230000Y-122896310D01*
X65230000Y-122205750D01*
X65071250Y-122047000D01*
X63722000Y-122047000D01*
X63468000Y-122047000D01*
X62118750Y-122047000D01*
X61960000Y-122205750D01*
X61242440Y-122205750D01*
X61242440Y-121951750D01*
X126032000Y-121951750D01*
X126032000Y-122642310D01*
X126128673Y-122875699D01*
X126307302Y-123054327D01*
X126540691Y-123151000D01*
X127381250Y-123151000D01*
X127540000Y-122992250D01*
X127540000Y-121793000D01*
X127794000Y-121793000D01*
X127794000Y-122992250D01*
X127952750Y-123151000D01*
X128793309Y-123151000D01*
X129026698Y-123054327D01*
X129205327Y-122875699D01*
X129302000Y-122642310D01*
X129302000Y-121951750D01*
X129143250Y-121793000D01*
X127794000Y-121793000D01*
X127540000Y-121793000D01*
X126190750Y-121793000D01*
X126032000Y-121951750D01*
X61242440Y-121951750D01*
X61242440Y-121070000D01*
X61218674Y-120943690D01*
X61960000Y-120943690D01*
X61960000Y-121634250D01*
X62118750Y-121793000D01*
X63468000Y-121793000D01*
X63468000Y-120593750D01*
X63722000Y-120593750D01*
X63722000Y-121793000D01*
X65071250Y-121793000D01*
X65230000Y-121634250D01*
X65230000Y-120943690D01*
X65133327Y-120710301D01*
X65112716Y-120689690D01*
X126032000Y-120689690D01*
X126032000Y-121380250D01*
X126190750Y-121539000D01*
X127540000Y-121539000D01*
X127540000Y-120339750D01*
X127794000Y-120339750D01*
X127794000Y-121539000D01*
X129143250Y-121539000D01*
X129302000Y-121380250D01*
X129302000Y-120816000D01*
X130019560Y-120816000D01*
X130019560Y-122516000D01*
X130063838Y-122751317D01*
X130202910Y-122967441D01*
X130415110Y-123112431D01*
X130667000Y-123163440D01*
X132667000Y-123163440D01*
X132902317Y-123119162D01*
X133118441Y-122980090D01*
X133263431Y-122767890D01*
X133314440Y-122516000D01*
X133314440Y-122426000D01*
X134051198Y-122426000D01*
X137575000Y-125949802D01*
X137575000Y-126264560D01*
X137335000Y-126264560D01*
X137099683Y-126308838D01*
X136883559Y-126447910D01*
X136738569Y-126660110D01*
X136687560Y-126912000D01*
X136687560Y-128612000D01*
X136731838Y-128847317D01*
X136870910Y-129063441D01*
X137083110Y-129208431D01*
X137335000Y-129259440D01*
X139335000Y-129259440D01*
X139570317Y-129215162D01*
X139786441Y-129076090D01*
X139931431Y-128863890D01*
X139982440Y-128612000D01*
X139982440Y-126912000D01*
X139938162Y-126676683D01*
X139799090Y-126460559D01*
X139586890Y-126315569D01*
X139335000Y-126264560D01*
X139095000Y-126264560D01*
X139095000Y-125635000D01*
X139037148Y-125344161D01*
X138872401Y-125097599D01*
X134903401Y-121128599D01*
X134656839Y-120963852D01*
X134366000Y-120906000D01*
X133314440Y-120906000D01*
X133314440Y-120816000D01*
X133270162Y-120580683D01*
X133131090Y-120364559D01*
X132918890Y-120219569D01*
X132667000Y-120168560D01*
X130667000Y-120168560D01*
X130431683Y-120212838D01*
X130215559Y-120351910D01*
X130070569Y-120564110D01*
X130019560Y-120816000D01*
X129302000Y-120816000D01*
X129302000Y-120689690D01*
X129205327Y-120456301D01*
X129026698Y-120277673D01*
X128793309Y-120181000D01*
X127952750Y-120181000D01*
X127794000Y-120339750D01*
X127540000Y-120339750D01*
X127381250Y-120181000D01*
X126540691Y-120181000D01*
X126307302Y-120277673D01*
X126128673Y-120456301D01*
X126032000Y-120689690D01*
X65112716Y-120689690D01*
X64954698Y-120531673D01*
X64721309Y-120435000D01*
X63880750Y-120435000D01*
X63722000Y-120593750D01*
X63468000Y-120593750D01*
X63309250Y-120435000D01*
X62468691Y-120435000D01*
X62235302Y-120531673D01*
X62056673Y-120710301D01*
X61960000Y-120943690D01*
X61218674Y-120943690D01*
X61198162Y-120834683D01*
X61059090Y-120618559D01*
X60846890Y-120473569D01*
X60595000Y-120422560D01*
X58595000Y-120422560D01*
X58359683Y-120466838D01*
X58143559Y-120605910D01*
X57998569Y-120818110D01*
X57947560Y-121070000D01*
X57947560Y-121160000D01*
X53340000Y-121160000D01*
X53049160Y-121217852D01*
X52802599Y-121382599D01*
X47627599Y-126557599D01*
X47483967Y-126772560D01*
X47165000Y-126772560D01*
X46929683Y-126816838D01*
X46713559Y-126955910D01*
X46568569Y-127168110D01*
X46517560Y-127420000D01*
X43193606Y-127420000D01*
X55493439Y-115120167D01*
X87964838Y-115120167D01*
X88106883Y-115463943D01*
X88369673Y-115727192D01*
X88713201Y-115869838D01*
X89085167Y-115870162D01*
X89428943Y-115728117D01*
X89462118Y-115695000D01*
X90877537Y-115695000D01*
X90909673Y-115727192D01*
X91253201Y-115869838D01*
X91625167Y-115870162D01*
X91950000Y-115735944D01*
X91950000Y-116277537D01*
X91917808Y-116309673D01*
X91775162Y-116653201D01*
X91774838Y-117025167D01*
X91916883Y-117368943D01*
X92179673Y-117632192D01*
X92523201Y-117774838D01*
X92895167Y-117775162D01*
X93238943Y-117633117D01*
X93502192Y-117370327D01*
X93644838Y-117026799D01*
X93645162Y-116654833D01*
X93503117Y-116311057D01*
X93470000Y-116277882D01*
X93470000Y-109782463D01*
X93502192Y-109750327D01*
X93644838Y-109406799D01*
X93645162Y-109034833D01*
X93503117Y-108691057D01*
X93240327Y-108427808D01*
X92896799Y-108285162D01*
X92524833Y-108284838D01*
X92181057Y-108426883D01*
X91917808Y-108689673D01*
X91775162Y-109033201D01*
X91774838Y-109405167D01*
X91916883Y-109748943D01*
X91950000Y-109782118D01*
X91950000Y-114134367D01*
X91626799Y-114000162D01*
X91254833Y-113999838D01*
X90911057Y-114141883D01*
X90877882Y-114175000D01*
X89462463Y-114175000D01*
X89430327Y-114142808D01*
X89086799Y-114000162D01*
X88714833Y-113999838D01*
X88371057Y-114141883D01*
X88107808Y-114404673D01*
X87965162Y-114748201D01*
X87964838Y-115120167D01*
X55493439Y-115120167D01*
X62478439Y-108135167D01*
X94314838Y-108135167D01*
X94456883Y-108478943D01*
X94490000Y-108512118D01*
X94490000Y-109927537D01*
X94457808Y-109959673D01*
X94315162Y-110303201D01*
X94314838Y-110675167D01*
X94456883Y-111018943D01*
X94719673Y-111282192D01*
X95063201Y-111424838D01*
X95435167Y-111425162D01*
X95778943Y-111283117D01*
X96042192Y-111020327D01*
X96184838Y-110676799D01*
X96185162Y-110304833D01*
X96043117Y-109961057D01*
X96010000Y-109927882D01*
X96010000Y-108512463D01*
X96042192Y-108480327D01*
X96184838Y-108136799D01*
X96185162Y-107764833D01*
X96043117Y-107421057D01*
X95780327Y-107157808D01*
X95436799Y-107015162D01*
X95064833Y-107014838D01*
X94721057Y-107156883D01*
X94457808Y-107419673D01*
X94315162Y-107763201D01*
X94314838Y-108135167D01*
X62478439Y-108135167D01*
X72860803Y-97752803D01*
X72888666Y-97710789D01*
X72897988Y-97661246D01*
X72887300Y-97611978D01*
X72858287Y-97570751D01*
X72815520Y-97544059D01*
X72771000Y-97536000D01*
X41962606Y-97536000D01*
X45098606Y-94400000D01*
X47787560Y-94400000D01*
X47787560Y-96100000D01*
X47831838Y-96335317D01*
X47970910Y-96551441D01*
X48183110Y-96696431D01*
X48435000Y-96747440D01*
X50435000Y-96747440D01*
X50670317Y-96703162D01*
X50886441Y-96564090D01*
X51031431Y-96351890D01*
X51082440Y-96100000D01*
X51082440Y-94400000D01*
X51787560Y-94400000D01*
X51787560Y-96100000D01*
X51831838Y-96335317D01*
X51970910Y-96551441D01*
X52183110Y-96696431D01*
X52435000Y-96747440D01*
X54435000Y-96747440D01*
X54670317Y-96703162D01*
X54886441Y-96564090D01*
X55031431Y-96351890D01*
X55082440Y-96100000D01*
X55082440Y-96010000D01*
X85725000Y-96010000D01*
X86015839Y-95952148D01*
X86262401Y-95787401D01*
X89039680Y-93010122D01*
X89085167Y-93010162D01*
X89428943Y-92868117D01*
X89692192Y-92605327D01*
X89834838Y-92261799D01*
X89835162Y-91889833D01*
X89693117Y-91546057D01*
X89430327Y-91282808D01*
X89086799Y-91140162D01*
X88714833Y-91139838D01*
X88371057Y-91281883D01*
X88107808Y-91544673D01*
X87965162Y-91888201D01*
X87965121Y-91935077D01*
X85410198Y-94490000D01*
X55082440Y-94490000D01*
X55082440Y-94400000D01*
X55038162Y-94164683D01*
X54899090Y-93948559D01*
X54686890Y-93803569D01*
X54435000Y-93752560D01*
X52435000Y-93752560D01*
X52199683Y-93796838D01*
X51983559Y-93935910D01*
X51838569Y-94148110D01*
X51787560Y-94400000D01*
X51082440Y-94400000D01*
X51038162Y-94164683D01*
X50899090Y-93948559D01*
X50686890Y-93803569D01*
X50435000Y-93752560D01*
X50290000Y-93752560D01*
X50290000Y-93659802D01*
X54289802Y-89660000D01*
X59217560Y-89660000D01*
X59217560Y-89750000D01*
X59261838Y-89985317D01*
X59400910Y-90201441D01*
X59613110Y-90346431D01*
X59865000Y-90397440D01*
X61865000Y-90397440D01*
X62100317Y-90353162D01*
X62316441Y-90214090D01*
X62461431Y-90001890D01*
X62512440Y-89750000D01*
X62512440Y-89185750D01*
X63230000Y-89185750D01*
X63230000Y-89876310D01*
X63326673Y-90109699D01*
X63505302Y-90288327D01*
X63738691Y-90385000D01*
X64579250Y-90385000D01*
X64738000Y-90226250D01*
X64738000Y-89027000D01*
X64992000Y-89027000D01*
X64992000Y-90226250D01*
X65150750Y-90385000D01*
X65991309Y-90385000D01*
X66224698Y-90288327D01*
X66403327Y-90109699D01*
X66500000Y-89876310D01*
X66500000Y-89185750D01*
X66341250Y-89027000D01*
X64992000Y-89027000D01*
X64738000Y-89027000D01*
X63388750Y-89027000D01*
X63230000Y-89185750D01*
X62512440Y-89185750D01*
X62512440Y-88050000D01*
X62488674Y-87923690D01*
X63230000Y-87923690D01*
X63230000Y-88614250D01*
X63388750Y-88773000D01*
X64738000Y-88773000D01*
X64738000Y-87573750D01*
X64992000Y-87573750D01*
X64992000Y-88773000D01*
X66341250Y-88773000D01*
X66500000Y-88614250D01*
X66500000Y-87923690D01*
X66403327Y-87690301D01*
X66224698Y-87511673D01*
X65991309Y-87415000D01*
X65150750Y-87415000D01*
X64992000Y-87573750D01*
X64738000Y-87573750D01*
X64579250Y-87415000D01*
X63738691Y-87415000D01*
X63505302Y-87511673D01*
X63326673Y-87690301D01*
X63230000Y-87923690D01*
X62488674Y-87923690D01*
X62468162Y-87814683D01*
X62329090Y-87598559D01*
X62116890Y-87453569D01*
X61865000Y-87402560D01*
X59865000Y-87402560D01*
X59629683Y-87446838D01*
X59413559Y-87585910D01*
X59268569Y-87798110D01*
X59217560Y-88050000D01*
X59217560Y-88140000D01*
X53975000Y-88140000D01*
X53684160Y-88197852D01*
X53437599Y-88362599D01*
X48992599Y-92807599D01*
X48827852Y-93054161D01*
X48770000Y-93345000D01*
X48770000Y-93752560D01*
X48435000Y-93752560D01*
X48199683Y-93796838D01*
X47983559Y-93935910D01*
X47838569Y-94148110D01*
X47787560Y-94400000D01*
X45098606Y-94400000D01*
X71590803Y-67907803D01*
X71618666Y-67865789D01*
X71627988Y-67816246D01*
X71617300Y-67766978D01*
X71588287Y-67725751D01*
X71545520Y-67699059D01*
X71501000Y-67691000D01*
X48312606Y-67691000D01*
X52083606Y-63920000D01*
X53502560Y-63920000D01*
X53502560Y-65620000D01*
X53546838Y-65855317D01*
X53685910Y-66071441D01*
X53898110Y-66216431D01*
X54150000Y-66267440D01*
X56150000Y-66267440D01*
X56385317Y-66223162D01*
X56601441Y-66084090D01*
X56746431Y-65871890D01*
X56797440Y-65620000D01*
X56797440Y-63920000D01*
X56753162Y-63684683D01*
X56614090Y-63468559D01*
X56401890Y-63323569D01*
X56150000Y-63272560D01*
X55912242Y-63272560D01*
X62163802Y-57021000D01*
X64932560Y-57021000D01*
X64932560Y-57111000D01*
X64976838Y-57346317D01*
X65115910Y-57562441D01*
X65328110Y-57707431D01*
X65580000Y-57758440D01*
X67580000Y-57758440D01*
X67815317Y-57714162D01*
X68031441Y-57575090D01*
X68176431Y-57362890D01*
X68227440Y-57111000D01*
X68227440Y-56546750D01*
X68945000Y-56546750D01*
X68945000Y-57237310D01*
X69041673Y-57470699D01*
X69220302Y-57649327D01*
X69453691Y-57746000D01*
X70294250Y-57746000D01*
X70453000Y-57587250D01*
X70453000Y-56388000D01*
X70707000Y-56388000D01*
X70707000Y-57587250D01*
X70865750Y-57746000D01*
X71706309Y-57746000D01*
X71939698Y-57649327D01*
X72118327Y-57470699D01*
X72215000Y-57237310D01*
X72215000Y-56546750D01*
X72056250Y-56388000D01*
X70707000Y-56388000D01*
X70453000Y-56388000D01*
X69103750Y-56388000D01*
X68945000Y-56546750D01*
X68227440Y-56546750D01*
X68227440Y-55411000D01*
X68203674Y-55284690D01*
X68945000Y-55284690D01*
X68945000Y-55975250D01*
X69103750Y-56134000D01*
X70453000Y-56134000D01*
X70453000Y-54934750D01*
X70707000Y-54934750D01*
X70707000Y-56134000D01*
X72056250Y-56134000D01*
X72215000Y-55975250D01*
X72215000Y-55284690D01*
X72118327Y-55051301D01*
X71939698Y-54872673D01*
X71706309Y-54776000D01*
X70865750Y-54776000D01*
X70707000Y-54934750D01*
X70453000Y-54934750D01*
X70294250Y-54776000D01*
X69453691Y-54776000D01*
X69220302Y-54872673D01*
X69041673Y-55051301D01*
X68945000Y-55284690D01*
X68203674Y-55284690D01*
X68183162Y-55175683D01*
X68044090Y-54959559D01*
X67831890Y-54814569D01*
X67580000Y-54763560D01*
X65580000Y-54763560D01*
X65344683Y-54807838D01*
X65128559Y-54946910D01*
X64983569Y-55159110D01*
X64932560Y-55411000D01*
X64932560Y-55501000D01*
X61849000Y-55501000D01*
X61558161Y-55558852D01*
X61311599Y-55723599D01*
X54612599Y-62422599D01*
X54447852Y-62669161D01*
X54390000Y-62960000D01*
X54390000Y-63272560D01*
X54150000Y-63272560D01*
X53914683Y-63316838D01*
X53698559Y-63455910D01*
X53553569Y-63668110D01*
X53502560Y-63920000D01*
X52083606Y-63920000D01*
X91602560Y-24401046D01*
X91602560Y-24797638D01*
X90267599Y-26132599D01*
X90102852Y-26379161D01*
X90045000Y-26670000D01*
X90045000Y-31115000D01*
X90102852Y-31405839D01*
X90267599Y-31652401D01*
X90902599Y-32287401D01*
X91149161Y-32452148D01*
X91440000Y-32510000D01*
X91602560Y-32510000D01*
X91602560Y-32600000D01*
X91646838Y-32835317D01*
X91785910Y-33051441D01*
X91998110Y-33196431D01*
X92250000Y-33247440D01*
X94250000Y-33247440D01*
X94485317Y-33203162D01*
X94701441Y-33064090D01*
X94846431Y-32851890D01*
X94897440Y-32600000D01*
X94897440Y-32035750D01*
X95615000Y-32035750D01*
X95615000Y-32726310D01*
X95711673Y-32959699D01*
X95890302Y-33138327D01*
X96123691Y-33235000D01*
X96964250Y-33235000D01*
X97123000Y-33076250D01*
X97123000Y-31877000D01*
X97377000Y-31877000D01*
X97377000Y-33076250D01*
X97535750Y-33235000D01*
X98376309Y-33235000D01*
X98609698Y-33138327D01*
X98788327Y-32959699D01*
X98885000Y-32726310D01*
X98885000Y-32035750D01*
X98726250Y-31877000D01*
X97377000Y-31877000D01*
X97123000Y-31877000D01*
X95773750Y-31877000D01*
X95615000Y-32035750D01*
X94897440Y-32035750D01*
X94897440Y-30900000D01*
X94873674Y-30773690D01*
X95615000Y-30773690D01*
X95615000Y-31464250D01*
X95773750Y-31623000D01*
X97123000Y-31623000D01*
X97123000Y-30423750D01*
X97377000Y-30423750D01*
X97377000Y-31623000D01*
X98726250Y-31623000D01*
X98885000Y-31464250D01*
X98885000Y-30773690D01*
X98788327Y-30540301D01*
X98609698Y-30361673D01*
X98376309Y-30265000D01*
X97535750Y-30265000D01*
X97377000Y-30423750D01*
X97123000Y-30423750D01*
X96964250Y-30265000D01*
X96123691Y-30265000D01*
X95890302Y-30361673D01*
X95711673Y-30540301D01*
X95615000Y-30773690D01*
X94873674Y-30773690D01*
X94853162Y-30664683D01*
X94714090Y-30448559D01*
X94501890Y-30303569D01*
X94250000Y-30252560D01*
X92250000Y-30252560D01*
X92014683Y-30296838D01*
X91798559Y-30435910D01*
X91653569Y-30648110D01*
X91613042Y-30848240D01*
X91565000Y-30800198D01*
X91565000Y-26984802D01*
X91973908Y-26575894D01*
X91998110Y-26592431D01*
X92250000Y-26643440D01*
X94250000Y-26643440D01*
X94485317Y-26599162D01*
X94701441Y-26460090D01*
X94846431Y-26247890D01*
X94897440Y-25996000D01*
X94897440Y-24296000D01*
X94853162Y-24060683D01*
X94714090Y-23844559D01*
X94501890Y-23699569D01*
X94250000Y-23648560D01*
X92355046Y-23648560D01*
X95048606Y-20955000D01*
X95515908Y-20955000D01*
X98209468Y-23648560D01*
X98209468Y-23648560D01*
G37*
X98209468Y-23648560D02*
X96250000Y-23648560D01*
X96014683Y-23692838D01*
X95798559Y-23831910D01*
X95653569Y-24044110D01*
X95602560Y-24296000D01*
X95602560Y-25996000D01*
X95646838Y-26231317D01*
X95785910Y-26447441D01*
X95998110Y-26592431D01*
X96250000Y-26643440D01*
X98250000Y-26643440D01*
X98485317Y-26599162D01*
X98524285Y-26574087D01*
X99570000Y-27619802D01*
X99570000Y-33340198D01*
X98745198Y-34165000D01*
X95885000Y-34165000D01*
X95594161Y-34222852D01*
X95347599Y-34387599D01*
X94712599Y-35022599D01*
X94547852Y-35269161D01*
X94490000Y-35560000D01*
X94490000Y-66747537D01*
X94457808Y-66779673D01*
X94315162Y-67123201D01*
X94314838Y-67495167D01*
X94456883Y-67838943D01*
X94490000Y-67872118D01*
X94490000Y-68015198D01*
X90707401Y-64232599D01*
X90460839Y-64067852D01*
X90170000Y-64010000D01*
X60797440Y-64010000D01*
X60797440Y-63920000D01*
X60753162Y-63684683D01*
X60614090Y-63468559D01*
X60401890Y-63323569D01*
X60150000Y-63272560D01*
X58150000Y-63272560D01*
X57914683Y-63316838D01*
X57698559Y-63455910D01*
X57553569Y-63668110D01*
X57502560Y-63920000D01*
X57502560Y-65620000D01*
X57546838Y-65855317D01*
X57685910Y-66071441D01*
X57898110Y-66216431D01*
X58150000Y-66267440D01*
X60150000Y-66267440D01*
X60385317Y-66223162D01*
X60601441Y-66084090D01*
X60746431Y-65871890D01*
X60797440Y-65620000D01*
X60797440Y-65530000D01*
X89855198Y-65530000D01*
X93220000Y-68894802D01*
X93220000Y-87464367D01*
X92896799Y-87330162D01*
X92524833Y-87329838D01*
X92181057Y-87471883D01*
X91917808Y-87734673D01*
X91775162Y-88078201D01*
X91774838Y-88450167D01*
X91916883Y-88793943D01*
X92179673Y-89057192D01*
X92523201Y-89199838D01*
X92895167Y-89200162D01*
X93238943Y-89058117D01*
X93272118Y-89025000D01*
X94449367Y-89025000D01*
X94315162Y-89348201D01*
X94314838Y-89720167D01*
X94456883Y-90063943D01*
X94490000Y-90097118D01*
X94490000Y-90242537D01*
X94457808Y-90274673D01*
X94315162Y-90618201D01*
X94314838Y-90990167D01*
X94456883Y-91333943D01*
X94719673Y-91597192D01*
X95063201Y-91739838D01*
X95435167Y-91740162D01*
X95778943Y-91598117D01*
X96042192Y-91335327D01*
X96184838Y-90991799D01*
X96185162Y-90619833D01*
X96043117Y-90276057D01*
X96010000Y-90242882D01*
X96010000Y-90097463D01*
X96042192Y-90065327D01*
X96184838Y-89721799D01*
X96185162Y-89349833D01*
X96043117Y-89006057D01*
X95780327Y-88742808D01*
X95436799Y-88600162D01*
X95354712Y-88600090D01*
X96395000Y-87559802D01*
X96395000Y-90170000D01*
X96452852Y-90460839D01*
X96617599Y-90707401D01*
X102967599Y-97057401D01*
X103214161Y-97222148D01*
X103505000Y-97280000D01*
X142240000Y-97280000D01*
X142530839Y-97222148D01*
X142777401Y-97057401D01*
X143507401Y-96327401D01*
X143651033Y-96112440D01*
X143970000Y-96112440D01*
X144205317Y-96068162D01*
X144421441Y-95929090D01*
X144566431Y-95716890D01*
X144617440Y-95465000D01*
X144617440Y-93765000D01*
X144573162Y-93529683D01*
X144532680Y-93466772D01*
X148601908Y-97536000D01*
X117856000Y-97536000D01*
X117806590Y-97546006D01*
X117764965Y-97574447D01*
X117737685Y-97616841D01*
X117729048Y-97666509D01*
X117740416Y-97715623D01*
X117766197Y-97752803D01*
X118752130Y-98738736D01*
X118877954Y-98927046D01*
X150506908Y-130556000D01*
X142298802Y-130556000D01*
X142872401Y-129982401D01*
X143037148Y-129735839D01*
X143095000Y-129445000D01*
X143095000Y-129259440D01*
X143335000Y-129259440D01*
X143570317Y-129215162D01*
X143786441Y-129076090D01*
X143931431Y-128863890D01*
X143982440Y-128612000D01*
X143982440Y-126912000D01*
X143938162Y-126676683D01*
X143799090Y-126460559D01*
X143586890Y-126315569D01*
X143335000Y-126264560D01*
X141335000Y-126264560D01*
X141099683Y-126308838D01*
X140883559Y-126447910D01*
X140738569Y-126660110D01*
X140687560Y-126912000D01*
X140687560Y-128612000D01*
X140731838Y-128847317D01*
X140870910Y-129063441D01*
X141083110Y-129208431D01*
X141335000Y-129259440D01*
X141445758Y-129259440D01*
X141290198Y-129415000D01*
X104454802Y-129415000D01*
X102137401Y-127097599D01*
X101890839Y-126932852D01*
X101748053Y-126904450D01*
X101757192Y-126895327D01*
X101899838Y-126551799D01*
X101900162Y-126179833D01*
X101758117Y-125836057D01*
X101495327Y-125572808D01*
X101151799Y-125430162D01*
X101104923Y-125430121D01*
X100867401Y-125192599D01*
X100620839Y-125027852D01*
X100330000Y-124970000D01*
X98352463Y-124970000D01*
X98320327Y-124937808D01*
X97976799Y-124795162D01*
X97604833Y-124794838D01*
X97261057Y-124936883D01*
X97227882Y-124970000D01*
X90097463Y-124970000D01*
X90065327Y-124937808D01*
X89721799Y-124795162D01*
X89349833Y-124794838D01*
X89006057Y-124936883D01*
X88742808Y-125199673D01*
X88624166Y-125485393D01*
X86093407Y-127510000D01*
X53812440Y-127510000D01*
X53812440Y-127420000D01*
X53768162Y-127184683D01*
X53629090Y-126968559D01*
X53416890Y-126823569D01*
X53165000Y-126772560D01*
X51165000Y-126772560D01*
X50929683Y-126816838D01*
X50713559Y-126955910D01*
X50568569Y-127168110D01*
X50517560Y-127420000D01*
X50517560Y-129120000D01*
X50561838Y-129355317D01*
X50700910Y-129571441D01*
X50913110Y-129716431D01*
X51165000Y-129767440D01*
X53165000Y-129767440D01*
X53400317Y-129723162D01*
X53616441Y-129584090D01*
X53761431Y-129371890D01*
X53812440Y-129120000D01*
X53812440Y-129030000D01*
X86360000Y-129030000D01*
X86464934Y-129009127D01*
X86571521Y-128999971D01*
X86609204Y-128980430D01*
X86650839Y-128972148D01*
X86739794Y-128912710D01*
X86834768Y-128863460D01*
X89582790Y-126665042D01*
X89720167Y-126665162D01*
X90063943Y-126523117D01*
X90097118Y-126490000D01*
X90639367Y-126490000D01*
X90505162Y-126813201D01*
X90504838Y-127185167D01*
X90646883Y-127528943D01*
X90909673Y-127792192D01*
X91253201Y-127934838D01*
X91625167Y-127935162D01*
X91968943Y-127793117D01*
X92002118Y-127760000D01*
X98110198Y-127760000D01*
X98522599Y-128172401D01*
X98769161Y-128337148D01*
X99060000Y-128395000D01*
X101285198Y-128395000D01*
X103602599Y-130712401D01*
X103849160Y-130877148D01*
X103897414Y-130886746D01*
X104140000Y-130935000D01*
X110109000Y-130935000D01*
X110109000Y-160528000D01*
X110119006Y-160577410D01*
X110147447Y-160619035D01*
X110189841Y-160646315D01*
X110236000Y-160655000D01*
X132334000Y-160655000D01*
X132334000Y-181991000D01*
X58293000Y-181991000D01*
X58293000Y-173386750D01*
X90294000Y-173386750D01*
X90294000Y-174977310D01*
X90390673Y-175210699D01*
X90569302Y-175389327D01*
X90802691Y-175486000D01*
X92393250Y-175486000D01*
X92552000Y-175327250D01*
X92552000Y-173228000D01*
X92806000Y-173228000D01*
X92806000Y-175327250D01*
X92964750Y-175486000D01*
X93634378Y-175486000D01*
X93477559Y-175586910D01*
X93332569Y-175799110D01*
X93281560Y-176051000D01*
X93281560Y-179551000D01*
X93325838Y-179786317D01*
X93464910Y-180002441D01*
X93677110Y-180147431D01*
X93929000Y-180198440D01*
X97429000Y-180198440D01*
X97664317Y-180154162D01*
X97880441Y-180015090D01*
X98025431Y-179802890D01*
X98076440Y-179551000D01*
X98076440Y-176051000D01*
X98032162Y-175815683D01*
X97893090Y-175599559D01*
X97745097Y-175498440D01*
X100429000Y-175498440D01*
X100664317Y-175454162D01*
X100880441Y-175315090D01*
X101025431Y-175102890D01*
X101076440Y-174851000D01*
X101076440Y-171351000D01*
X101032162Y-171115683D01*
X100893090Y-170899559D01*
X100680890Y-170754569D01*
X100429000Y-170703560D01*
X96929000Y-170703560D01*
X96693683Y-170747838D01*
X96477559Y-170886910D01*
X96332569Y-171099110D01*
X96281560Y-171351000D01*
X96281560Y-174851000D01*
X96325838Y-175086317D01*
X96464910Y-175302441D01*
X96612903Y-175403560D01*
X94754337Y-175403560D01*
X94788698Y-175389327D01*
X94967327Y-175210699D01*
X95064000Y-174977310D01*
X95064000Y-173386750D01*
X94905250Y-173228000D01*
X92806000Y-173228000D01*
X92552000Y-173228000D01*
X90452750Y-173228000D01*
X90294000Y-173386750D01*
X58293000Y-173386750D01*
X58293000Y-169642075D01*
X64396000Y-169642075D01*
X64396000Y-171225925D01*
X64501807Y-171757855D01*
X64803122Y-172208803D01*
X65254070Y-172510118D01*
X65786000Y-172615925D01*
X66317930Y-172510118D01*
X66768878Y-172208803D01*
X67056000Y-171779096D01*
X67343122Y-172208803D01*
X67794070Y-172510118D01*
X68326000Y-172615925D01*
X68857930Y-172510118D01*
X69308878Y-172208803D01*
X69608751Y-171760013D01*
X69630408Y-171833263D01*
X69972924Y-172256681D01*
X70451403Y-172516793D01*
X70524029Y-172531277D01*
X70739000Y-172408683D01*
X70739000Y-170561000D01*
X70993000Y-170561000D01*
X70993000Y-172408683D01*
X71207971Y-172531277D01*
X71280597Y-172516793D01*
X71759076Y-172256681D01*
X72101592Y-171833263D01*
X72256000Y-171311000D01*
X72256000Y-171224690D01*
X90294000Y-171224690D01*
X90294000Y-172815250D01*
X90452750Y-172974000D01*
X92552000Y-172974000D01*
X92552000Y-170874750D01*
X92806000Y-170874750D01*
X92806000Y-172974000D01*
X94905250Y-172974000D01*
X95064000Y-172815250D01*
X95064000Y-171224690D01*
X94967327Y-170991301D01*
X94788698Y-170812673D01*
X94555309Y-170716000D01*
X92964750Y-170716000D01*
X92806000Y-170874750D01*
X92552000Y-170874750D01*
X92393250Y-170716000D01*
X90802691Y-170716000D01*
X90569302Y-170812673D01*
X90390673Y-170991301D01*
X90294000Y-171224690D01*
X72256000Y-171224690D01*
X72256000Y-170561000D01*
X70993000Y-170561000D01*
X70739000Y-170561000D01*
X70719000Y-170561000D01*
X70719000Y-170307000D01*
X70739000Y-170307000D01*
X70739000Y-168459317D01*
X70993000Y-168459317D01*
X70993000Y-170307000D01*
X72256000Y-170307000D01*
X72256000Y-169557000D01*
X72101592Y-169034737D01*
X71759076Y-168611319D01*
X71280597Y-168351207D01*
X71207971Y-168336723D01*
X70993000Y-168459317D01*
X70739000Y-168459317D01*
X70524029Y-168336723D01*
X70451403Y-168351207D01*
X69972924Y-168611319D01*
X69630408Y-169034737D01*
X69608751Y-169107987D01*
X69308878Y-168659197D01*
X68857930Y-168357882D01*
X68326000Y-168252075D01*
X67794070Y-168357882D01*
X67343122Y-168659197D01*
X67056000Y-169088904D01*
X66768878Y-168659197D01*
X66317930Y-168357882D01*
X65786000Y-168252075D01*
X65254070Y-168357882D01*
X64803122Y-168659197D01*
X64501807Y-169110145D01*
X64396000Y-169642075D01*
X58293000Y-169642075D01*
X58293000Y-160655000D01*
X80391000Y-160655000D01*
X80440410Y-160644994D01*
X80482035Y-160616553D01*
X80509315Y-160574159D01*
X80518000Y-160528000D01*
X80518000Y-130683000D01*
X80507994Y-130633590D01*
X80479553Y-130591965D01*
X80437159Y-130564685D01*
X80391000Y-130556000D01*
X40057606Y-130556000D01*
X43193606Y-127420000D01*
X46517560Y-127420000D01*
X46517560Y-129120000D01*
X46561838Y-129355317D01*
X46700910Y-129571441D01*
X46913110Y-129716431D01*
X47165000Y-129767440D01*
X49165000Y-129767440D01*
X49400317Y-129723162D01*
X49616441Y-129584090D01*
X49761431Y-129371890D01*
X49812440Y-129120000D01*
X49812440Y-127420000D01*
X49768162Y-127184683D01*
X49629090Y-126968559D01*
X49472937Y-126861865D01*
X53654802Y-122680000D01*
X57947560Y-122680000D01*
X57947560Y-122770000D01*
X57991838Y-123005317D01*
X58130910Y-123221441D01*
X58343110Y-123366431D01*
X58595000Y-123417440D01*
X60595000Y-123417440D01*
X60830317Y-123373162D01*
X61046441Y-123234090D01*
X61191431Y-123021890D01*
X61242440Y-122770000D01*
X61242440Y-122205750D01*
X61960000Y-122205750D01*
X61960000Y-122896310D01*
X62056673Y-123129699D01*
X62235302Y-123308327D01*
X62468691Y-123405000D01*
X63309250Y-123405000D01*
X63468000Y-123246250D01*
X63468000Y-122047000D01*
X63722000Y-122047000D01*
X63722000Y-123246250D01*
X63880750Y-123405000D01*
X64721309Y-123405000D01*
X64954698Y-123308327D01*
X65133327Y-123129699D01*
X65230000Y-122896310D01*
X65230000Y-122205750D01*
X65071250Y-122047000D01*
X63722000Y-122047000D01*
X63468000Y-122047000D01*
X62118750Y-122047000D01*
X61960000Y-122205750D01*
X61242440Y-122205750D01*
X61242440Y-121951750D01*
X126032000Y-121951750D01*
X126032000Y-122642310D01*
X126128673Y-122875699D01*
X126307302Y-123054327D01*
X126540691Y-123151000D01*
X127381250Y-123151000D01*
X127540000Y-122992250D01*
X127540000Y-121793000D01*
X127794000Y-121793000D01*
X127794000Y-122992250D01*
X127952750Y-123151000D01*
X128793309Y-123151000D01*
X129026698Y-123054327D01*
X129205327Y-122875699D01*
X129302000Y-122642310D01*
X129302000Y-121951750D01*
X129143250Y-121793000D01*
X127794000Y-121793000D01*
X127540000Y-121793000D01*
X126190750Y-121793000D01*
X126032000Y-121951750D01*
X61242440Y-121951750D01*
X61242440Y-121070000D01*
X61218674Y-120943690D01*
X61960000Y-120943690D01*
X61960000Y-121634250D01*
X62118750Y-121793000D01*
X63468000Y-121793000D01*
X63468000Y-120593750D01*
X63722000Y-120593750D01*
X63722000Y-121793000D01*
X65071250Y-121793000D01*
X65230000Y-121634250D01*
X65230000Y-120943690D01*
X65133327Y-120710301D01*
X65112716Y-120689690D01*
X126032000Y-120689690D01*
X126032000Y-121380250D01*
X126190750Y-121539000D01*
X127540000Y-121539000D01*
X127540000Y-120339750D01*
X127794000Y-120339750D01*
X127794000Y-121539000D01*
X129143250Y-121539000D01*
X129302000Y-121380250D01*
X129302000Y-120816000D01*
X130019560Y-120816000D01*
X130019560Y-122516000D01*
X130063838Y-122751317D01*
X130202910Y-122967441D01*
X130415110Y-123112431D01*
X130667000Y-123163440D01*
X132667000Y-123163440D01*
X132902317Y-123119162D01*
X133118441Y-122980090D01*
X133263431Y-122767890D01*
X133314440Y-122516000D01*
X133314440Y-122426000D01*
X134051198Y-122426000D01*
X137575000Y-125949802D01*
X137575000Y-126264560D01*
X137335000Y-126264560D01*
X137099683Y-126308838D01*
X136883559Y-126447910D01*
X136738569Y-126660110D01*
X136687560Y-126912000D01*
X136687560Y-128612000D01*
X136731838Y-128847317D01*
X136870910Y-129063441D01*
X137083110Y-129208431D01*
X137335000Y-129259440D01*
X139335000Y-129259440D01*
X139570317Y-129215162D01*
X139786441Y-129076090D01*
X139931431Y-128863890D01*
X139982440Y-128612000D01*
X139982440Y-126912000D01*
X139938162Y-126676683D01*
X139799090Y-126460559D01*
X139586890Y-126315569D01*
X139335000Y-126264560D01*
X139095000Y-126264560D01*
X139095000Y-125635000D01*
X139037148Y-125344161D01*
X138872401Y-125097599D01*
X134903401Y-121128599D01*
X134656839Y-120963852D01*
X134366000Y-120906000D01*
X133314440Y-120906000D01*
X133314440Y-120816000D01*
X133270162Y-120580683D01*
X133131090Y-120364559D01*
X132918890Y-120219569D01*
X132667000Y-120168560D01*
X130667000Y-120168560D01*
X130431683Y-120212838D01*
X130215559Y-120351910D01*
X130070569Y-120564110D01*
X130019560Y-120816000D01*
X129302000Y-120816000D01*
X129302000Y-120689690D01*
X129205327Y-120456301D01*
X129026698Y-120277673D01*
X128793309Y-120181000D01*
X127952750Y-120181000D01*
X127794000Y-120339750D01*
X127540000Y-120339750D01*
X127381250Y-120181000D01*
X126540691Y-120181000D01*
X126307302Y-120277673D01*
X126128673Y-120456301D01*
X126032000Y-120689690D01*
X65112716Y-120689690D01*
X64954698Y-120531673D01*
X64721309Y-120435000D01*
X63880750Y-120435000D01*
X63722000Y-120593750D01*
X63468000Y-120593750D01*
X63309250Y-120435000D01*
X62468691Y-120435000D01*
X62235302Y-120531673D01*
X62056673Y-120710301D01*
X61960000Y-120943690D01*
X61218674Y-120943690D01*
X61198162Y-120834683D01*
X61059090Y-120618559D01*
X60846890Y-120473569D01*
X60595000Y-120422560D01*
X58595000Y-120422560D01*
X58359683Y-120466838D01*
X58143559Y-120605910D01*
X57998569Y-120818110D01*
X57947560Y-121070000D01*
X57947560Y-121160000D01*
X53340000Y-121160000D01*
X53049160Y-121217852D01*
X52802599Y-121382599D01*
X47627599Y-126557599D01*
X47483967Y-126772560D01*
X47165000Y-126772560D01*
X46929683Y-126816838D01*
X46713559Y-126955910D01*
X46568569Y-127168110D01*
X46517560Y-127420000D01*
X43193606Y-127420000D01*
X55493439Y-115120167D01*
X87964838Y-115120167D01*
X88106883Y-115463943D01*
X88369673Y-115727192D01*
X88713201Y-115869838D01*
X89085167Y-115870162D01*
X89428943Y-115728117D01*
X89462118Y-115695000D01*
X90877537Y-115695000D01*
X90909673Y-115727192D01*
X91253201Y-115869838D01*
X91625167Y-115870162D01*
X91950000Y-115735944D01*
X91950000Y-116277537D01*
X91917808Y-116309673D01*
X91775162Y-116653201D01*
X91774838Y-117025167D01*
X91916883Y-117368943D01*
X92179673Y-117632192D01*
X92523201Y-117774838D01*
X92895167Y-117775162D01*
X93238943Y-117633117D01*
X93502192Y-117370327D01*
X93644838Y-117026799D01*
X93645162Y-116654833D01*
X93503117Y-116311057D01*
X93470000Y-116277882D01*
X93470000Y-109782463D01*
X93502192Y-109750327D01*
X93644838Y-109406799D01*
X93645162Y-109034833D01*
X93503117Y-108691057D01*
X93240327Y-108427808D01*
X92896799Y-108285162D01*
X92524833Y-108284838D01*
X92181057Y-108426883D01*
X91917808Y-108689673D01*
X91775162Y-109033201D01*
X91774838Y-109405167D01*
X91916883Y-109748943D01*
X91950000Y-109782118D01*
X91950000Y-114134367D01*
X91626799Y-114000162D01*
X91254833Y-113999838D01*
X90911057Y-114141883D01*
X90877882Y-114175000D01*
X89462463Y-114175000D01*
X89430327Y-114142808D01*
X89086799Y-114000162D01*
X88714833Y-113999838D01*
X88371057Y-114141883D01*
X88107808Y-114404673D01*
X87965162Y-114748201D01*
X87964838Y-115120167D01*
X55493439Y-115120167D01*
X62478439Y-108135167D01*
X94314838Y-108135167D01*
X94456883Y-108478943D01*
X94490000Y-108512118D01*
X94490000Y-109927537D01*
X94457808Y-109959673D01*
X94315162Y-110303201D01*
X94314838Y-110675167D01*
X94456883Y-111018943D01*
X94719673Y-111282192D01*
X95063201Y-111424838D01*
X95435167Y-111425162D01*
X95778943Y-111283117D01*
X96042192Y-111020327D01*
X96184838Y-110676799D01*
X96185162Y-110304833D01*
X96043117Y-109961057D01*
X96010000Y-109927882D01*
X96010000Y-108512463D01*
X96042192Y-108480327D01*
X96184838Y-108136799D01*
X96185162Y-107764833D01*
X96043117Y-107421057D01*
X95780327Y-107157808D01*
X95436799Y-107015162D01*
X95064833Y-107014838D01*
X94721057Y-107156883D01*
X94457808Y-107419673D01*
X94315162Y-107763201D01*
X94314838Y-108135167D01*
X62478439Y-108135167D01*
X72860803Y-97752803D01*
X72888666Y-97710789D01*
X72897988Y-97661246D01*
X72887300Y-97611978D01*
X72858287Y-97570751D01*
X72815520Y-97544059D01*
X72771000Y-97536000D01*
X41962606Y-97536000D01*
X45098606Y-94400000D01*
X47787560Y-94400000D01*
X47787560Y-96100000D01*
X47831838Y-96335317D01*
X47970910Y-96551441D01*
X48183110Y-96696431D01*
X48435000Y-96747440D01*
X50435000Y-96747440D01*
X50670317Y-96703162D01*
X50886441Y-96564090D01*
X51031431Y-96351890D01*
X51082440Y-96100000D01*
X51082440Y-94400000D01*
X51787560Y-94400000D01*
X51787560Y-96100000D01*
X51831838Y-96335317D01*
X51970910Y-96551441D01*
X52183110Y-96696431D01*
X52435000Y-96747440D01*
X54435000Y-96747440D01*
X54670317Y-96703162D01*
X54886441Y-96564090D01*
X55031431Y-96351890D01*
X55082440Y-96100000D01*
X55082440Y-96010000D01*
X85725000Y-96010000D01*
X86015839Y-95952148D01*
X86262401Y-95787401D01*
X89039680Y-93010122D01*
X89085167Y-93010162D01*
X89428943Y-92868117D01*
X89692192Y-92605327D01*
X89834838Y-92261799D01*
X89835162Y-91889833D01*
X89693117Y-91546057D01*
X89430327Y-91282808D01*
X89086799Y-91140162D01*
X88714833Y-91139838D01*
X88371057Y-91281883D01*
X88107808Y-91544673D01*
X87965162Y-91888201D01*
X87965121Y-91935077D01*
X85410198Y-94490000D01*
X55082440Y-94490000D01*
X55082440Y-94400000D01*
X55038162Y-94164683D01*
X54899090Y-93948559D01*
X54686890Y-93803569D01*
X54435000Y-93752560D01*
X52435000Y-93752560D01*
X52199683Y-93796838D01*
X51983559Y-93935910D01*
X51838569Y-94148110D01*
X51787560Y-94400000D01*
X51082440Y-94400000D01*
X51038162Y-94164683D01*
X50899090Y-93948559D01*
X50686890Y-93803569D01*
X50435000Y-93752560D01*
X50290000Y-93752560D01*
X50290000Y-93659802D01*
X54289802Y-89660000D01*
X59217560Y-89660000D01*
X59217560Y-89750000D01*
X59261838Y-89985317D01*
X59400910Y-90201441D01*
X59613110Y-90346431D01*
X59865000Y-90397440D01*
X61865000Y-90397440D01*
X62100317Y-90353162D01*
X62316441Y-90214090D01*
X62461431Y-90001890D01*
X62512440Y-89750000D01*
X62512440Y-89185750D01*
X63230000Y-89185750D01*
X63230000Y-89876310D01*
X63326673Y-90109699D01*
X63505302Y-90288327D01*
X63738691Y-90385000D01*
X64579250Y-90385000D01*
X64738000Y-90226250D01*
X64738000Y-89027000D01*
X64992000Y-89027000D01*
X64992000Y-90226250D01*
X65150750Y-90385000D01*
X65991309Y-90385000D01*
X66224698Y-90288327D01*
X66403327Y-90109699D01*
X66500000Y-89876310D01*
X66500000Y-89185750D01*
X66341250Y-89027000D01*
X64992000Y-89027000D01*
X64738000Y-89027000D01*
X63388750Y-89027000D01*
X63230000Y-89185750D01*
X62512440Y-89185750D01*
X62512440Y-88050000D01*
X62488674Y-87923690D01*
X63230000Y-87923690D01*
X63230000Y-88614250D01*
X63388750Y-88773000D01*
X64738000Y-88773000D01*
X64738000Y-87573750D01*
X64992000Y-87573750D01*
X64992000Y-88773000D01*
X66341250Y-88773000D01*
X66500000Y-88614250D01*
X66500000Y-87923690D01*
X66403327Y-87690301D01*
X66224698Y-87511673D01*
X65991309Y-87415000D01*
X65150750Y-87415000D01*
X64992000Y-87573750D01*
X64738000Y-87573750D01*
X64579250Y-87415000D01*
X63738691Y-87415000D01*
X63505302Y-87511673D01*
X63326673Y-87690301D01*
X63230000Y-87923690D01*
X62488674Y-87923690D01*
X62468162Y-87814683D01*
X62329090Y-87598559D01*
X62116890Y-87453569D01*
X61865000Y-87402560D01*
X59865000Y-87402560D01*
X59629683Y-87446838D01*
X59413559Y-87585910D01*
X59268569Y-87798110D01*
X59217560Y-88050000D01*
X59217560Y-88140000D01*
X53975000Y-88140000D01*
X53684160Y-88197852D01*
X53437599Y-88362599D01*
X48992599Y-92807599D01*
X48827852Y-93054161D01*
X48770000Y-93345000D01*
X48770000Y-93752560D01*
X48435000Y-93752560D01*
X48199683Y-93796838D01*
X47983559Y-93935910D01*
X47838569Y-94148110D01*
X47787560Y-94400000D01*
X45098606Y-94400000D01*
X71590803Y-67907803D01*
X71618666Y-67865789D01*
X71627988Y-67816246D01*
X71617300Y-67766978D01*
X71588287Y-67725751D01*
X71545520Y-67699059D01*
X71501000Y-67691000D01*
X48312606Y-67691000D01*
X52083606Y-63920000D01*
X53502560Y-63920000D01*
X53502560Y-65620000D01*
X53546838Y-65855317D01*
X53685910Y-66071441D01*
X53898110Y-66216431D01*
X54150000Y-66267440D01*
X56150000Y-66267440D01*
X56385317Y-66223162D01*
X56601441Y-66084090D01*
X56746431Y-65871890D01*
X56797440Y-65620000D01*
X56797440Y-63920000D01*
X56753162Y-63684683D01*
X56614090Y-63468559D01*
X56401890Y-63323569D01*
X56150000Y-63272560D01*
X55912242Y-63272560D01*
X62163802Y-57021000D01*
X64932560Y-57021000D01*
X64932560Y-57111000D01*
X64976838Y-57346317D01*
X65115910Y-57562441D01*
X65328110Y-57707431D01*
X65580000Y-57758440D01*
X67580000Y-57758440D01*
X67815317Y-57714162D01*
X68031441Y-57575090D01*
X68176431Y-57362890D01*
X68227440Y-57111000D01*
X68227440Y-56546750D01*
X68945000Y-56546750D01*
X68945000Y-57237310D01*
X69041673Y-57470699D01*
X69220302Y-57649327D01*
X69453691Y-57746000D01*
X70294250Y-57746000D01*
X70453000Y-57587250D01*
X70453000Y-56388000D01*
X70707000Y-56388000D01*
X70707000Y-57587250D01*
X70865750Y-57746000D01*
X71706309Y-57746000D01*
X71939698Y-57649327D01*
X72118327Y-57470699D01*
X72215000Y-57237310D01*
X72215000Y-56546750D01*
X72056250Y-56388000D01*
X70707000Y-56388000D01*
X70453000Y-56388000D01*
X69103750Y-56388000D01*
X68945000Y-56546750D01*
X68227440Y-56546750D01*
X68227440Y-55411000D01*
X68203674Y-55284690D01*
X68945000Y-55284690D01*
X68945000Y-55975250D01*
X69103750Y-56134000D01*
X70453000Y-56134000D01*
X70453000Y-54934750D01*
X70707000Y-54934750D01*
X70707000Y-56134000D01*
X72056250Y-56134000D01*
X72215000Y-55975250D01*
X72215000Y-55284690D01*
X72118327Y-55051301D01*
X71939698Y-54872673D01*
X71706309Y-54776000D01*
X70865750Y-54776000D01*
X70707000Y-54934750D01*
X70453000Y-54934750D01*
X70294250Y-54776000D01*
X69453691Y-54776000D01*
X69220302Y-54872673D01*
X69041673Y-55051301D01*
X68945000Y-55284690D01*
X68203674Y-55284690D01*
X68183162Y-55175683D01*
X68044090Y-54959559D01*
X67831890Y-54814569D01*
X67580000Y-54763560D01*
X65580000Y-54763560D01*
X65344683Y-54807838D01*
X65128559Y-54946910D01*
X64983569Y-55159110D01*
X64932560Y-55411000D01*
X64932560Y-55501000D01*
X61849000Y-55501000D01*
X61558161Y-55558852D01*
X61311599Y-55723599D01*
X54612599Y-62422599D01*
X54447852Y-62669161D01*
X54390000Y-62960000D01*
X54390000Y-63272560D01*
X54150000Y-63272560D01*
X53914683Y-63316838D01*
X53698559Y-63455910D01*
X53553569Y-63668110D01*
X53502560Y-63920000D01*
X52083606Y-63920000D01*
X91602560Y-24401046D01*
X91602560Y-24797638D01*
X90267599Y-26132599D01*
X90102852Y-26379161D01*
X90045000Y-26670000D01*
X90045000Y-31115000D01*
X90102852Y-31405839D01*
X90267599Y-31652401D01*
X90902599Y-32287401D01*
X91149161Y-32452148D01*
X91440000Y-32510000D01*
X91602560Y-32510000D01*
X91602560Y-32600000D01*
X91646838Y-32835317D01*
X91785910Y-33051441D01*
X91998110Y-33196431D01*
X92250000Y-33247440D01*
X94250000Y-33247440D01*
X94485317Y-33203162D01*
X94701441Y-33064090D01*
X94846431Y-32851890D01*
X94897440Y-32600000D01*
X94897440Y-32035750D01*
X95615000Y-32035750D01*
X95615000Y-32726310D01*
X95711673Y-32959699D01*
X95890302Y-33138327D01*
X96123691Y-33235000D01*
X96964250Y-33235000D01*
X97123000Y-33076250D01*
X97123000Y-31877000D01*
X97377000Y-31877000D01*
X97377000Y-33076250D01*
X97535750Y-33235000D01*
X98376309Y-33235000D01*
X98609698Y-33138327D01*
X98788327Y-32959699D01*
X98885000Y-32726310D01*
X98885000Y-32035750D01*
X98726250Y-31877000D01*
X97377000Y-31877000D01*
X97123000Y-31877000D01*
X95773750Y-31877000D01*
X95615000Y-32035750D01*
X94897440Y-32035750D01*
X94897440Y-30900000D01*
X94873674Y-30773690D01*
X95615000Y-30773690D01*
X95615000Y-31464250D01*
X95773750Y-31623000D01*
X97123000Y-31623000D01*
X97123000Y-30423750D01*
X97377000Y-30423750D01*
X97377000Y-31623000D01*
X98726250Y-31623000D01*
X98885000Y-31464250D01*
X98885000Y-30773690D01*
X98788327Y-30540301D01*
X98609698Y-30361673D01*
X98376309Y-30265000D01*
X97535750Y-30265000D01*
X97377000Y-30423750D01*
X97123000Y-30423750D01*
X96964250Y-30265000D01*
X96123691Y-30265000D01*
X95890302Y-30361673D01*
X95711673Y-30540301D01*
X95615000Y-30773690D01*
X94873674Y-30773690D01*
X94853162Y-30664683D01*
X94714090Y-30448559D01*
X94501890Y-30303569D01*
X94250000Y-30252560D01*
X92250000Y-30252560D01*
X92014683Y-30296838D01*
X91798559Y-30435910D01*
X91653569Y-30648110D01*
X91613042Y-30848240D01*
X91565000Y-30800198D01*
X91565000Y-26984802D01*
X91973908Y-26575894D01*
X91998110Y-26592431D01*
X92250000Y-26643440D01*
X94250000Y-26643440D01*
X94485317Y-26599162D01*
X94701441Y-26460090D01*
X94846431Y-26247890D01*
X94897440Y-25996000D01*
X94897440Y-24296000D01*
X94853162Y-24060683D01*
X94714090Y-23844559D01*
X94501890Y-23699569D01*
X94250000Y-23648560D01*
X92355046Y-23648560D01*
X95048606Y-20955000D01*
X95515908Y-20955000D01*
X98209468Y-23648560D01*
G36*
X142251908Y-67691000D02*
X119126000Y-67691000D01*
X119076590Y-67701006D01*
X119034965Y-67729447D01*
X119007685Y-67771841D01*
X118999048Y-67821509D01*
X119010416Y-67870623D01*
X119036197Y-67907803D01*
X120022130Y-68893736D01*
X120147954Y-69082046D01*
X144261631Y-93195723D01*
X144221890Y-93168569D01*
X143970000Y-93117560D01*
X141970000Y-93117560D01*
X141734683Y-93161838D01*
X141518559Y-93300910D01*
X141373569Y-93513110D01*
X141322560Y-93765000D01*
X141322560Y-95465000D01*
X141366838Y-95700317D01*
X141405243Y-95760000D01*
X140536975Y-95760000D01*
X140566431Y-95716890D01*
X140617440Y-95465000D01*
X140617440Y-93765000D01*
X140573162Y-93529683D01*
X140434090Y-93313559D01*
X140221890Y-93168569D01*
X139970000Y-93117560D01*
X139730000Y-93117560D01*
X139730000Y-92615000D01*
X139672148Y-92324161D01*
X139507401Y-92077599D01*
X135157401Y-87727599D01*
X134910839Y-87562852D01*
X134620000Y-87505000D01*
X133187440Y-87505000D01*
X133187440Y-87415000D01*
X133143162Y-87179683D01*
X133004090Y-86963559D01*
X132791890Y-86818569D01*
X132540000Y-86767560D01*
X130540000Y-86767560D01*
X130304683Y-86811838D01*
X130088559Y-86950910D01*
X129943569Y-87163110D01*
X129892560Y-87415000D01*
X129892560Y-89115000D01*
X129936838Y-89350317D01*
X130075910Y-89566441D01*
X130288110Y-89711431D01*
X130540000Y-89762440D01*
X132540000Y-89762440D01*
X132775317Y-89718162D01*
X132991441Y-89579090D01*
X133136431Y-89366890D01*
X133187440Y-89115000D01*
X133187440Y-89025000D01*
X134305198Y-89025000D01*
X138210000Y-92929802D01*
X138210000Y-93117560D01*
X137970000Y-93117560D01*
X137734683Y-93161838D01*
X137518559Y-93300910D01*
X137373569Y-93513110D01*
X137322560Y-93765000D01*
X137322560Y-95465000D01*
X137366838Y-95700317D01*
X137405243Y-95760000D01*
X103819802Y-95760000D01*
X97915000Y-89855198D01*
X97915000Y-88550750D01*
X125905000Y-88550750D01*
X125905000Y-89241310D01*
X126001673Y-89474699D01*
X126180302Y-89653327D01*
X126413691Y-89750000D01*
X127254250Y-89750000D01*
X127413000Y-89591250D01*
X127413000Y-88392000D01*
X127667000Y-88392000D01*
X127667000Y-89591250D01*
X127825750Y-89750000D01*
X128666309Y-89750000D01*
X128899698Y-89653327D01*
X129078327Y-89474699D01*
X129175000Y-89241310D01*
X129175000Y-88550750D01*
X129016250Y-88392000D01*
X127667000Y-88392000D01*
X127413000Y-88392000D01*
X126063750Y-88392000D01*
X125905000Y-88550750D01*
X97915000Y-88550750D01*
X97915000Y-87288690D01*
X125905000Y-87288690D01*
X125905000Y-87979250D01*
X126063750Y-88138000D01*
X127413000Y-88138000D01*
X127413000Y-86938750D01*
X127667000Y-86938750D01*
X127667000Y-88138000D01*
X129016250Y-88138000D01*
X129175000Y-87979250D01*
X129175000Y-87288690D01*
X129078327Y-87055301D01*
X128899698Y-86876673D01*
X128666309Y-86780000D01*
X127825750Y-86780000D01*
X127667000Y-86938750D01*
X127413000Y-86938750D01*
X127254250Y-86780000D01*
X126413691Y-86780000D01*
X126180302Y-86876673D01*
X126001673Y-87055301D01*
X125905000Y-87288690D01*
X97915000Y-87288690D01*
X97915000Y-86995000D01*
X97857148Y-86704161D01*
X97692401Y-86457599D01*
X97455122Y-86220320D01*
X97455162Y-86174833D01*
X97313117Y-85831057D01*
X97050327Y-85567808D01*
X96706799Y-85425162D01*
X96334833Y-85424838D01*
X95991057Y-85566883D01*
X95727808Y-85829673D01*
X95585162Y-86173201D01*
X95585121Y-86220077D01*
X94740000Y-87065198D01*
X94740000Y-70650633D01*
X95063201Y-70784838D01*
X95435167Y-70785162D01*
X95778943Y-70643117D01*
X96042192Y-70380327D01*
X96184838Y-70036799D01*
X96185162Y-69664833D01*
X96043117Y-69321057D01*
X96010000Y-69287882D01*
X96010000Y-67872463D01*
X96042192Y-67840327D01*
X96184838Y-67496799D01*
X96185162Y-67124833D01*
X96043117Y-66781057D01*
X96010000Y-66747882D01*
X96010000Y-64955167D01*
X103204838Y-64955167D01*
X103346883Y-65298943D01*
X103609673Y-65562192D01*
X103953201Y-65704838D01*
X104325167Y-65705162D01*
X104668943Y-65563117D01*
X104702118Y-65530000D01*
X129702560Y-65530000D01*
X129702560Y-65620000D01*
X129746838Y-65855317D01*
X129885910Y-66071441D01*
X130098110Y-66216431D01*
X130350000Y-66267440D01*
X132350000Y-66267440D01*
X132585317Y-66223162D01*
X132801441Y-66084090D01*
X132946431Y-65871890D01*
X132997440Y-65620000D01*
X132997440Y-63920000D01*
X132953162Y-63684683D01*
X132814090Y-63468559D01*
X132601890Y-63323569D01*
X132350000Y-63272560D01*
X130350000Y-63272560D01*
X130114683Y-63316838D01*
X129898559Y-63455910D01*
X129753569Y-63668110D01*
X129702560Y-63920000D01*
X129702560Y-64010000D01*
X104702463Y-64010000D01*
X104670327Y-63977808D01*
X104326799Y-63835162D01*
X103954833Y-63834838D01*
X103611057Y-63976883D01*
X103347808Y-64239673D01*
X103205162Y-64583201D01*
X103204838Y-64955167D01*
X96010000Y-64955167D01*
X96010000Y-56165750D01*
X117650000Y-56165750D01*
X117650000Y-56856310D01*
X117746673Y-57089699D01*
X117925302Y-57268327D01*
X118158691Y-57365000D01*
X118999250Y-57365000D01*
X119158000Y-57206250D01*
X119158000Y-56007000D01*
X119412000Y-56007000D01*
X119412000Y-57206250D01*
X119570750Y-57365000D01*
X120411309Y-57365000D01*
X120644698Y-57268327D01*
X120823327Y-57089699D01*
X120920000Y-56856310D01*
X120920000Y-56165750D01*
X120761250Y-56007000D01*
X119412000Y-56007000D01*
X119158000Y-56007000D01*
X117808750Y-56007000D01*
X117650000Y-56165750D01*
X96010000Y-56165750D01*
X96010000Y-54903690D01*
X117650000Y-54903690D01*
X117650000Y-55594250D01*
X117808750Y-55753000D01*
X119158000Y-55753000D01*
X119158000Y-54553750D01*
X119412000Y-54553750D01*
X119412000Y-55753000D01*
X120761250Y-55753000D01*
X120920000Y-55594250D01*
X120920000Y-55030000D01*
X121637560Y-55030000D01*
X121637560Y-56730000D01*
X121681838Y-56965317D01*
X121820910Y-57181441D01*
X122033110Y-57326431D01*
X122285000Y-57377440D01*
X124285000Y-57377440D01*
X124520317Y-57333162D01*
X124736441Y-57194090D01*
X124881431Y-56981890D01*
X124932440Y-56730000D01*
X124932440Y-56640000D01*
X128590198Y-56640000D01*
X134495000Y-62544802D01*
X134495000Y-63272560D01*
X134350000Y-63272560D01*
X134114683Y-63316838D01*
X133898559Y-63455910D01*
X133753569Y-63668110D01*
X133702560Y-63920000D01*
X133702560Y-65620000D01*
X133746838Y-65855317D01*
X133885910Y-66071441D01*
X134098110Y-66216431D01*
X134350000Y-66267440D01*
X136350000Y-66267440D01*
X136585317Y-66223162D01*
X136801441Y-66084090D01*
X136946431Y-65871890D01*
X136997440Y-65620000D01*
X136997440Y-63920000D01*
X136953162Y-63684683D01*
X136814090Y-63468559D01*
X136601890Y-63323569D01*
X136350000Y-63272560D01*
X136015000Y-63272560D01*
X136015000Y-62230000D01*
X135957148Y-61939161D01*
X135792401Y-61692599D01*
X129442401Y-55342599D01*
X129195839Y-55177852D01*
X128905000Y-55120000D01*
X124932440Y-55120000D01*
X124932440Y-55030000D01*
X124888162Y-54794683D01*
X124749090Y-54578559D01*
X124536890Y-54433569D01*
X124285000Y-54382560D01*
X122285000Y-54382560D01*
X122049683Y-54426838D01*
X121833559Y-54565910D01*
X121688569Y-54778110D01*
X121637560Y-55030000D01*
X120920000Y-55030000D01*
X120920000Y-54903690D01*
X120823327Y-54670301D01*
X120644698Y-54491673D01*
X120411309Y-54395000D01*
X119570750Y-54395000D01*
X119412000Y-54553750D01*
X119158000Y-54553750D01*
X118999250Y-54395000D01*
X118158691Y-54395000D01*
X117925302Y-54491673D01*
X117746673Y-54670301D01*
X117650000Y-54903690D01*
X96010000Y-54903690D01*
X96010000Y-35874802D01*
X96199802Y-35685000D01*
X99060000Y-35685000D01*
X99350839Y-35627148D01*
X99597401Y-35462401D01*
X100867401Y-34192401D01*
X101032148Y-33945840D01*
X101090000Y-33655000D01*
X101090000Y-27305000D01*
X101032148Y-27014161D01*
X100867401Y-26767599D01*
X98897440Y-24797638D01*
X98897440Y-24336532D01*
X142251908Y-67691000D01*
X142251908Y-67691000D01*
G37*
X142251908Y-67691000D02*
X119126000Y-67691000D01*
X119076590Y-67701006D01*
X119034965Y-67729447D01*
X119007685Y-67771841D01*
X118999048Y-67821509D01*
X119010416Y-67870623D01*
X119036197Y-67907803D01*
X120022130Y-68893736D01*
X120147954Y-69082046D01*
X144261631Y-93195723D01*
X144221890Y-93168569D01*
X143970000Y-93117560D01*
X141970000Y-93117560D01*
X141734683Y-93161838D01*
X141518559Y-93300910D01*
X141373569Y-93513110D01*
X141322560Y-93765000D01*
X141322560Y-95465000D01*
X141366838Y-95700317D01*
X141405243Y-95760000D01*
X140536975Y-95760000D01*
X140566431Y-95716890D01*
X140617440Y-95465000D01*
X140617440Y-93765000D01*
X140573162Y-93529683D01*
X140434090Y-93313559D01*
X140221890Y-93168569D01*
X139970000Y-93117560D01*
X139730000Y-93117560D01*
X139730000Y-92615000D01*
X139672148Y-92324161D01*
X139507401Y-92077599D01*
X135157401Y-87727599D01*
X134910839Y-87562852D01*
X134620000Y-87505000D01*
X133187440Y-87505000D01*
X133187440Y-87415000D01*
X133143162Y-87179683D01*
X133004090Y-86963559D01*
X132791890Y-86818569D01*
X132540000Y-86767560D01*
X130540000Y-86767560D01*
X130304683Y-86811838D01*
X130088559Y-86950910D01*
X129943569Y-87163110D01*
X129892560Y-87415000D01*
X129892560Y-89115000D01*
X129936838Y-89350317D01*
X130075910Y-89566441D01*
X130288110Y-89711431D01*
X130540000Y-89762440D01*
X132540000Y-89762440D01*
X132775317Y-89718162D01*
X132991441Y-89579090D01*
X133136431Y-89366890D01*
X133187440Y-89115000D01*
X133187440Y-89025000D01*
X134305198Y-89025000D01*
X138210000Y-92929802D01*
X138210000Y-93117560D01*
X137970000Y-93117560D01*
X137734683Y-93161838D01*
X137518559Y-93300910D01*
X137373569Y-93513110D01*
X137322560Y-93765000D01*
X137322560Y-95465000D01*
X137366838Y-95700317D01*
X137405243Y-95760000D01*
X103819802Y-95760000D01*
X97915000Y-89855198D01*
X97915000Y-88550750D01*
X125905000Y-88550750D01*
X125905000Y-89241310D01*
X126001673Y-89474699D01*
X126180302Y-89653327D01*
X126413691Y-89750000D01*
X127254250Y-89750000D01*
X127413000Y-89591250D01*
X127413000Y-88392000D01*
X127667000Y-88392000D01*
X127667000Y-89591250D01*
X127825750Y-89750000D01*
X128666309Y-89750000D01*
X128899698Y-89653327D01*
X129078327Y-89474699D01*
X129175000Y-89241310D01*
X129175000Y-88550750D01*
X129016250Y-88392000D01*
X127667000Y-88392000D01*
X127413000Y-88392000D01*
X126063750Y-88392000D01*
X125905000Y-88550750D01*
X97915000Y-88550750D01*
X97915000Y-87288690D01*
X125905000Y-87288690D01*
X125905000Y-87979250D01*
X126063750Y-88138000D01*
X127413000Y-88138000D01*
X127413000Y-86938750D01*
X127667000Y-86938750D01*
X127667000Y-88138000D01*
X129016250Y-88138000D01*
X129175000Y-87979250D01*
X129175000Y-87288690D01*
X129078327Y-87055301D01*
X128899698Y-86876673D01*
X128666309Y-86780000D01*
X127825750Y-86780000D01*
X127667000Y-86938750D01*
X127413000Y-86938750D01*
X127254250Y-86780000D01*
X126413691Y-86780000D01*
X126180302Y-86876673D01*
X126001673Y-87055301D01*
X125905000Y-87288690D01*
X97915000Y-87288690D01*
X97915000Y-86995000D01*
X97857148Y-86704161D01*
X97692401Y-86457599D01*
X97455122Y-86220320D01*
X97455162Y-86174833D01*
X97313117Y-85831057D01*
X97050327Y-85567808D01*
X96706799Y-85425162D01*
X96334833Y-85424838D01*
X95991057Y-85566883D01*
X95727808Y-85829673D01*
X95585162Y-86173201D01*
X95585121Y-86220077D01*
X94740000Y-87065198D01*
X94740000Y-70650633D01*
X95063201Y-70784838D01*
X95435167Y-70785162D01*
X95778943Y-70643117D01*
X96042192Y-70380327D01*
X96184838Y-70036799D01*
X96185162Y-69664833D01*
X96043117Y-69321057D01*
X96010000Y-69287882D01*
X96010000Y-67872463D01*
X96042192Y-67840327D01*
X96184838Y-67496799D01*
X96185162Y-67124833D01*
X96043117Y-66781057D01*
X96010000Y-66747882D01*
X96010000Y-64955167D01*
X103204838Y-64955167D01*
X103346883Y-65298943D01*
X103609673Y-65562192D01*
X103953201Y-65704838D01*
X104325167Y-65705162D01*
X104668943Y-65563117D01*
X104702118Y-65530000D01*
X129702560Y-65530000D01*
X129702560Y-65620000D01*
X129746838Y-65855317D01*
X129885910Y-66071441D01*
X130098110Y-66216431D01*
X130350000Y-66267440D01*
X132350000Y-66267440D01*
X132585317Y-66223162D01*
X132801441Y-66084090D01*
X132946431Y-65871890D01*
X132997440Y-65620000D01*
X132997440Y-63920000D01*
X132953162Y-63684683D01*
X132814090Y-63468559D01*
X132601890Y-63323569D01*
X132350000Y-63272560D01*
X130350000Y-63272560D01*
X130114683Y-63316838D01*
X129898559Y-63455910D01*
X129753569Y-63668110D01*
X129702560Y-63920000D01*
X129702560Y-64010000D01*
X104702463Y-64010000D01*
X104670327Y-63977808D01*
X104326799Y-63835162D01*
X103954833Y-63834838D01*
X103611057Y-63976883D01*
X103347808Y-64239673D01*
X103205162Y-64583201D01*
X103204838Y-64955167D01*
X96010000Y-64955167D01*
X96010000Y-56165750D01*
X117650000Y-56165750D01*
X117650000Y-56856310D01*
X117746673Y-57089699D01*
X117925302Y-57268327D01*
X118158691Y-57365000D01*
X118999250Y-57365000D01*
X119158000Y-57206250D01*
X119158000Y-56007000D01*
X119412000Y-56007000D01*
X119412000Y-57206250D01*
X119570750Y-57365000D01*
X120411309Y-57365000D01*
X120644698Y-57268327D01*
X120823327Y-57089699D01*
X120920000Y-56856310D01*
X120920000Y-56165750D01*
X120761250Y-56007000D01*
X119412000Y-56007000D01*
X119158000Y-56007000D01*
X117808750Y-56007000D01*
X117650000Y-56165750D01*
X96010000Y-56165750D01*
X96010000Y-54903690D01*
X117650000Y-54903690D01*
X117650000Y-55594250D01*
X117808750Y-55753000D01*
X119158000Y-55753000D01*
X119158000Y-54553750D01*
X119412000Y-54553750D01*
X119412000Y-55753000D01*
X120761250Y-55753000D01*
X120920000Y-55594250D01*
X120920000Y-55030000D01*
X121637560Y-55030000D01*
X121637560Y-56730000D01*
X121681838Y-56965317D01*
X121820910Y-57181441D01*
X122033110Y-57326431D01*
X122285000Y-57377440D01*
X124285000Y-57377440D01*
X124520317Y-57333162D01*
X124736441Y-57194090D01*
X124881431Y-56981890D01*
X124932440Y-56730000D01*
X124932440Y-56640000D01*
X128590198Y-56640000D01*
X134495000Y-62544802D01*
X134495000Y-63272560D01*
X134350000Y-63272560D01*
X134114683Y-63316838D01*
X133898559Y-63455910D01*
X133753569Y-63668110D01*
X133702560Y-63920000D01*
X133702560Y-65620000D01*
X133746838Y-65855317D01*
X133885910Y-66071441D01*
X134098110Y-66216431D01*
X134350000Y-66267440D01*
X136350000Y-66267440D01*
X136585317Y-66223162D01*
X136801441Y-66084090D01*
X136946431Y-65871890D01*
X136997440Y-65620000D01*
X136997440Y-63920000D01*
X136953162Y-63684683D01*
X136814090Y-63468559D01*
X136601890Y-63323569D01*
X136350000Y-63272560D01*
X136015000Y-63272560D01*
X136015000Y-62230000D01*
X135957148Y-61939161D01*
X135792401Y-61692599D01*
X129442401Y-55342599D01*
X129195839Y-55177852D01*
X128905000Y-55120000D01*
X124932440Y-55120000D01*
X124932440Y-55030000D01*
X124888162Y-54794683D01*
X124749090Y-54578559D01*
X124536890Y-54433569D01*
X124285000Y-54382560D01*
X122285000Y-54382560D01*
X122049683Y-54426838D01*
X121833559Y-54565910D01*
X121688569Y-54778110D01*
X121637560Y-55030000D01*
X120920000Y-55030000D01*
X120920000Y-54903690D01*
X120823327Y-54670301D01*
X120644698Y-54491673D01*
X120411309Y-54395000D01*
X119570750Y-54395000D01*
X119412000Y-54553750D01*
X119158000Y-54553750D01*
X118999250Y-54395000D01*
X118158691Y-54395000D01*
X117925302Y-54491673D01*
X117746673Y-54670301D01*
X117650000Y-54903690D01*
X96010000Y-54903690D01*
X96010000Y-35874802D01*
X96199802Y-35685000D01*
X99060000Y-35685000D01*
X99350839Y-35627148D01*
X99597401Y-35462401D01*
X100867401Y-34192401D01*
X101032148Y-33945840D01*
X101090000Y-33655000D01*
X101090000Y-27305000D01*
X101032148Y-27014161D01*
X100867401Y-26767599D01*
X98897440Y-24797638D01*
X98897440Y-24336532D01*
X142251908Y-67691000D01*
M02*
