G04 #@! TF.FileFunction,Other,User*
%FSLAX46Y46*%
G04 Gerber Fmt 4.6, Leading zero omitted, Abs format (unit mm)*
G04 Created by KiCad (PCBNEW 4.0.6) date Monday, November 13, 2017 'PMt' 07:08:10 PM*
%MOMM*%
%LPD*%
G01*
G04 APERTURE LIST*
%ADD10C,0.100000*%
%ADD11C,0.050000*%
G04 APERTURE END LIST*
D10*
D11*
X136600000Y-63660000D02*
X130100000Y-63660000D01*
X136600000Y-63660000D02*
X136600000Y-65870000D01*
X130100000Y-65870000D02*
X130100000Y-63660000D01*
X130100000Y-65870000D02*
X136600000Y-65870000D01*
X48185000Y-96360000D02*
X54685000Y-96360000D01*
X48185000Y-96360000D02*
X48185000Y-94150000D01*
X54685000Y-94150000D02*
X54685000Y-96360000D01*
X54685000Y-94150000D02*
X48185000Y-94150000D01*
X137085000Y-128872000D02*
X143585000Y-128872000D01*
X137085000Y-128872000D02*
X137085000Y-126662000D01*
X143585000Y-126662000D02*
X143585000Y-128872000D01*
X143585000Y-126662000D02*
X137085000Y-126662000D01*
X53900000Y-65880000D02*
X60400000Y-65880000D01*
X53900000Y-65880000D02*
X53900000Y-63670000D01*
X60400000Y-63670000D02*
X60400000Y-65880000D01*
X60400000Y-63670000D02*
X53900000Y-63670000D01*
X137720000Y-95725000D02*
X144220000Y-95725000D01*
X137720000Y-95725000D02*
X137720000Y-93515000D01*
X144220000Y-93515000D02*
X144220000Y-95725000D01*
X144220000Y-93515000D02*
X137720000Y-93515000D01*
X46915000Y-129380000D02*
X53415000Y-129380000D01*
X46915000Y-129380000D02*
X46915000Y-127170000D01*
X53415000Y-127170000D02*
X53415000Y-129380000D01*
X53415000Y-127170000D02*
X46915000Y-127170000D01*
X124535000Y-54770000D02*
X118035000Y-54770000D01*
X124535000Y-54770000D02*
X124535000Y-56980000D01*
X118035000Y-56980000D02*
X118035000Y-54770000D01*
X118035000Y-56980000D02*
X124535000Y-56980000D01*
X59615000Y-90010000D02*
X66115000Y-90010000D01*
X59615000Y-90010000D02*
X59615000Y-87800000D01*
X66115000Y-87800000D02*
X66115000Y-90010000D01*
X66115000Y-87800000D02*
X59615000Y-87800000D01*
X132917000Y-120556000D02*
X126417000Y-120556000D01*
X132917000Y-120556000D02*
X132917000Y-122766000D01*
X126417000Y-122766000D02*
X126417000Y-120556000D01*
X126417000Y-122766000D02*
X132917000Y-122766000D01*
X65330000Y-57371000D02*
X71830000Y-57371000D01*
X65330000Y-57371000D02*
X65330000Y-55161000D01*
X71830000Y-55161000D02*
X71830000Y-57371000D01*
X71830000Y-55161000D02*
X65330000Y-55161000D01*
X132790000Y-87155000D02*
X126290000Y-87155000D01*
X132790000Y-87155000D02*
X132790000Y-89365000D01*
X126290000Y-89365000D02*
X126290000Y-87155000D01*
X126290000Y-89365000D02*
X132790000Y-89365000D01*
X58345000Y-123030000D02*
X64845000Y-123030000D01*
X58345000Y-123030000D02*
X58345000Y-120820000D01*
X64845000Y-120820000D02*
X64845000Y-123030000D01*
X64845000Y-120820000D02*
X58345000Y-120820000D01*
X92000000Y-32860000D02*
X98500000Y-32860000D01*
X92000000Y-32860000D02*
X92000000Y-30650000D01*
X98500000Y-30650000D02*
X98500000Y-32860000D01*
X98500000Y-30650000D02*
X92000000Y-30650000D01*
X92000000Y-26256000D02*
X98500000Y-26256000D01*
X92000000Y-26256000D02*
X92000000Y-24046000D01*
X98500000Y-24046000D02*
X98500000Y-26256000D01*
X98500000Y-24046000D02*
X92000000Y-24046000D01*
M02*
