G04 #@! TF.FileFunction,Other,Fab,Top*
%FSLAX46Y46*%
G04 Gerber Fmt 4.6, Leading zero omitted, Abs format (unit mm)*
G04 Created by KiCad (PCBNEW 4.0.6) date Monday, November 13, 2017 'PMt' 07:08:10 PM*
%MOMM*%
%LPD*%
G01*
G04 APERTURE LIST*
%ADD10C,0.100000*%
%ADD11C,0.150000*%
%ADD12C,0.105000*%
%ADD13C,0.075000*%
G04 APERTURE END LIST*
D10*
X49765000Y-128270000D02*
X50365000Y-127870000D01*
X50365000Y-127870000D02*
X50365000Y-128670000D01*
X50365000Y-128670000D02*
X49765000Y-128270000D01*
X49715000Y-127870000D02*
X49715000Y-128670000D01*
X48565000Y-129070000D02*
X48565000Y-127470000D01*
X51765000Y-129070000D02*
X48565000Y-129070000D01*
X51765000Y-127470000D02*
X51765000Y-129070000D01*
X48565000Y-127470000D02*
X51765000Y-127470000D01*
X140570000Y-94615000D02*
X141170000Y-94215000D01*
X141170000Y-94215000D02*
X141170000Y-95015000D01*
X141170000Y-95015000D02*
X140570000Y-94615000D01*
X140520000Y-94215000D02*
X140520000Y-95015000D01*
X139370000Y-95415000D02*
X139370000Y-93815000D01*
X142570000Y-95415000D02*
X139370000Y-95415000D01*
X142570000Y-93815000D02*
X142570000Y-95415000D01*
X139370000Y-93815000D02*
X142570000Y-93815000D01*
X56750000Y-64770000D02*
X57350000Y-64370000D01*
X57350000Y-64370000D02*
X57350000Y-65170000D01*
X57350000Y-65170000D02*
X56750000Y-64770000D01*
X56700000Y-64370000D02*
X56700000Y-65170000D01*
X55550000Y-65570000D02*
X55550000Y-63970000D01*
X58750000Y-65570000D02*
X55550000Y-65570000D01*
X58750000Y-63970000D02*
X58750000Y-65570000D01*
X55550000Y-63970000D02*
X58750000Y-63970000D01*
X93075000Y-96520000D02*
X98425000Y-96520000D01*
X98425000Y-96520000D02*
X98425000Y-106680000D01*
X98425000Y-106680000D02*
X92075000Y-106680000D01*
X92075000Y-106680000D02*
X92075000Y-97520000D01*
X92075000Y-97520000D02*
X93075000Y-96520000D01*
X140062000Y-127762000D02*
X140662000Y-127362000D01*
X140662000Y-127362000D02*
X140662000Y-128162000D01*
X140662000Y-128162000D02*
X140062000Y-127762000D01*
X140012000Y-127362000D02*
X140012000Y-128162000D01*
X138862000Y-128562000D02*
X138862000Y-126962000D01*
X142062000Y-128562000D02*
X138862000Y-128562000D01*
X142062000Y-126962000D02*
X142062000Y-128562000D01*
X138862000Y-126962000D02*
X142062000Y-126962000D01*
X51162000Y-95250000D02*
X51762000Y-94850000D01*
X51762000Y-94850000D02*
X51762000Y-95650000D01*
X51762000Y-95650000D02*
X51162000Y-95250000D01*
X51112000Y-94850000D02*
X51112000Y-95650000D01*
X49962000Y-96050000D02*
X49962000Y-94450000D01*
X53162000Y-96050000D02*
X49962000Y-96050000D01*
X53162000Y-94450000D02*
X53162000Y-96050000D01*
X49962000Y-94450000D02*
X53162000Y-94450000D01*
X133750000Y-64770000D02*
X133150000Y-65170000D01*
X133150000Y-65170000D02*
X133150000Y-64370000D01*
X133150000Y-64370000D02*
X133750000Y-64770000D01*
X133800000Y-65170000D02*
X133800000Y-64370000D01*
X134950000Y-63970000D02*
X134950000Y-65570000D01*
X131750000Y-63970000D02*
X134950000Y-63970000D01*
X131750000Y-65570000D02*
X131750000Y-63970000D01*
X134950000Y-65570000D02*
X131750000Y-65570000D01*
X59995000Y-122720000D02*
X59995000Y-121120000D01*
X63195000Y-122720000D02*
X59995000Y-122720000D01*
X63195000Y-121120000D02*
X63195000Y-122720000D01*
X59995000Y-121120000D02*
X63195000Y-121120000D01*
X131140000Y-87465000D02*
X131140000Y-89065000D01*
X127940000Y-87465000D02*
X131140000Y-87465000D01*
X127940000Y-89065000D02*
X127940000Y-87465000D01*
X131140000Y-89065000D02*
X127940000Y-89065000D01*
X66980000Y-57061000D02*
X66980000Y-55461000D01*
X70180000Y-57061000D02*
X66980000Y-57061000D01*
X70180000Y-55461000D02*
X70180000Y-57061000D01*
X66980000Y-55461000D02*
X70180000Y-55461000D01*
X131267000Y-120866000D02*
X131267000Y-122466000D01*
X128067000Y-120866000D02*
X131267000Y-120866000D01*
X128067000Y-122466000D02*
X128067000Y-120866000D01*
X131267000Y-122466000D02*
X128067000Y-122466000D01*
X61265000Y-89700000D02*
X61265000Y-88100000D01*
X64465000Y-89700000D02*
X61265000Y-89700000D01*
X64465000Y-88100000D02*
X64465000Y-89700000D01*
X61265000Y-88100000D02*
X64465000Y-88100000D01*
X122885000Y-55080000D02*
X122885000Y-56680000D01*
X119685000Y-55080000D02*
X122885000Y-55080000D01*
X119685000Y-56680000D02*
X119685000Y-55080000D01*
X122885000Y-56680000D02*
X119685000Y-56680000D01*
X93650000Y-32550000D02*
X93650000Y-30950000D01*
X96850000Y-32550000D02*
X93650000Y-32550000D01*
X96850000Y-30950000D02*
X96850000Y-32550000D01*
X93650000Y-30950000D02*
X96850000Y-30950000D01*
X94850000Y-25400000D02*
X95450000Y-25000000D01*
X95450000Y-25000000D02*
X95450000Y-25800000D01*
X95450000Y-25800000D02*
X94850000Y-25400000D01*
X94800000Y-25000000D02*
X94800000Y-25800000D01*
X93650000Y-26200000D02*
X93650000Y-24600000D01*
X96850000Y-26200000D02*
X93650000Y-26200000D01*
X96850000Y-24600000D02*
X96850000Y-26200000D01*
X93650000Y-24600000D02*
X96850000Y-24600000D01*
X88479000Y-168601000D02*
X88479000Y-177601000D01*
X84979000Y-168601000D02*
X84979000Y-177601000D01*
X84979000Y-177601000D02*
X99479000Y-177601000D01*
X99479000Y-177601000D02*
X99479000Y-168601000D01*
X99479000Y-168601000D02*
X84979000Y-168601000D01*
X107645000Y-112230000D02*
X107645000Y-113830000D01*
X104445000Y-112230000D02*
X107645000Y-112230000D01*
X104445000Y-113830000D02*
X104445000Y-112230000D01*
X107645000Y-113830000D02*
X104445000Y-113830000D01*
X82855000Y-113830000D02*
X82855000Y-112230000D01*
X86055000Y-113830000D02*
X82855000Y-113830000D01*
X86055000Y-112230000D02*
X86055000Y-113830000D01*
X82855000Y-112230000D02*
X86055000Y-112230000D01*
X90485000Y-117410000D02*
X88035000Y-117410000D01*
X91055000Y-117960000D02*
X91055000Y-118810000D01*
X90485000Y-117410000D02*
X91055000Y-117960000D01*
X91055000Y-118810000D02*
X88015000Y-118810000D01*
X88015000Y-117410000D02*
X88015000Y-118810000D01*
X101915000Y-117410000D02*
X99465000Y-117410000D01*
X102485000Y-117960000D02*
X102485000Y-118810000D01*
X101915000Y-117410000D02*
X102485000Y-117960000D01*
X102485000Y-118810000D02*
X99445000Y-118810000D01*
X99445000Y-117410000D02*
X99445000Y-118810000D01*
D11*
X49522143Y-130622381D02*
X49045952Y-130622381D01*
X49045952Y-129622381D01*
X49855476Y-130098571D02*
X50188810Y-130098571D01*
X50331667Y-130622381D02*
X49855476Y-130622381D01*
X49855476Y-129622381D01*
X50331667Y-129622381D01*
X50760238Y-130622381D02*
X50760238Y-129622381D01*
X50998333Y-129622381D01*
X51141191Y-129670000D01*
X51236429Y-129765238D01*
X51284048Y-129860476D01*
X51331667Y-130050952D01*
X51331667Y-130193810D01*
X51284048Y-130384286D01*
X51236429Y-130479524D01*
X51141191Y-130574762D01*
X50998333Y-130622381D01*
X50760238Y-130622381D01*
X140327143Y-96967381D02*
X139850952Y-96967381D01*
X139850952Y-95967381D01*
X140660476Y-96443571D02*
X140993810Y-96443571D01*
X141136667Y-96967381D02*
X140660476Y-96967381D01*
X140660476Y-95967381D01*
X141136667Y-95967381D01*
X141565238Y-96967381D02*
X141565238Y-95967381D01*
X141803333Y-95967381D01*
X141946191Y-96015000D01*
X142041429Y-96110238D01*
X142089048Y-96205476D01*
X142136667Y-96395952D01*
X142136667Y-96538810D01*
X142089048Y-96729286D01*
X142041429Y-96824524D01*
X141946191Y-96919762D01*
X141803333Y-96967381D01*
X141565238Y-96967381D01*
X56507143Y-67122381D02*
X56030952Y-67122381D01*
X56030952Y-66122381D01*
X56840476Y-66598571D02*
X57173810Y-66598571D01*
X57316667Y-67122381D02*
X56840476Y-67122381D01*
X56840476Y-66122381D01*
X57316667Y-66122381D01*
X57745238Y-67122381D02*
X57745238Y-66122381D01*
X57983333Y-66122381D01*
X58126191Y-66170000D01*
X58221429Y-66265238D01*
X58269048Y-66360476D01*
X58316667Y-66550952D01*
X58316667Y-66693810D01*
X58269048Y-66884286D01*
X58221429Y-66979524D01*
X58126191Y-67074762D01*
X57983333Y-67122381D01*
X57745238Y-67122381D01*
X89511905Y-102052381D02*
X89035714Y-102052381D01*
X89035714Y-101052381D01*
X89845238Y-101528571D02*
X90178572Y-101528571D01*
X90321429Y-102052381D02*
X89845238Y-102052381D01*
X89845238Y-101052381D01*
X90321429Y-101052381D01*
X90750000Y-102052381D02*
X90750000Y-101052381D01*
X90988095Y-101052381D01*
X91130953Y-101100000D01*
X91226191Y-101195238D01*
X91273810Y-101290476D01*
X91321429Y-101480952D01*
X91321429Y-101623810D01*
X91273810Y-101814286D01*
X91226191Y-101909524D01*
X91130953Y-102004762D01*
X90988095Y-102052381D01*
X90750000Y-102052381D01*
X91511905Y-102147619D02*
X92273810Y-102147619D01*
X93083334Y-101957143D02*
X93035715Y-102004762D01*
X92892858Y-102052381D01*
X92797620Y-102052381D01*
X92654762Y-102004762D01*
X92559524Y-101909524D01*
X92511905Y-101814286D01*
X92464286Y-101623810D01*
X92464286Y-101480952D01*
X92511905Y-101290476D01*
X92559524Y-101195238D01*
X92654762Y-101100000D01*
X92797620Y-101052381D01*
X92892858Y-101052381D01*
X93035715Y-101100000D01*
X93083334Y-101147619D01*
X93702381Y-101052381D02*
X93892858Y-101052381D01*
X93988096Y-101100000D01*
X94083334Y-101195238D01*
X94130953Y-101385714D01*
X94130953Y-101719048D01*
X94083334Y-101909524D01*
X93988096Y-102004762D01*
X93892858Y-102052381D01*
X93702381Y-102052381D01*
X93607143Y-102004762D01*
X93511905Y-101909524D01*
X93464286Y-101719048D01*
X93464286Y-101385714D01*
X93511905Y-101195238D01*
X93607143Y-101100000D01*
X93702381Y-101052381D01*
X94559524Y-102052381D02*
X94559524Y-101052381D01*
X95130953Y-102052381D01*
X95130953Y-101052381D01*
X95464286Y-101052381D02*
X96035715Y-101052381D01*
X95750000Y-102052381D02*
X95750000Y-101052381D01*
X96940477Y-102052381D02*
X96607143Y-101576190D01*
X96369048Y-102052381D02*
X96369048Y-101052381D01*
X96750001Y-101052381D01*
X96845239Y-101100000D01*
X96892858Y-101147619D01*
X96940477Y-101242857D01*
X96940477Y-101385714D01*
X96892858Y-101480952D01*
X96845239Y-101528571D01*
X96750001Y-101576190D01*
X96369048Y-101576190D01*
X97559524Y-101052381D02*
X97750001Y-101052381D01*
X97845239Y-101100000D01*
X97940477Y-101195238D01*
X97988096Y-101385714D01*
X97988096Y-101719048D01*
X97940477Y-101909524D01*
X97845239Y-102004762D01*
X97750001Y-102052381D01*
X97559524Y-102052381D01*
X97464286Y-102004762D01*
X97369048Y-101909524D01*
X97321429Y-101719048D01*
X97321429Y-101385714D01*
X97369048Y-101195238D01*
X97464286Y-101100000D01*
X97559524Y-101052381D01*
X98892858Y-102052381D02*
X98416667Y-102052381D01*
X98416667Y-101052381D01*
X99702382Y-102052381D02*
X99226191Y-102052381D01*
X99226191Y-101052381D01*
X100035715Y-101528571D02*
X100369049Y-101528571D01*
X100511906Y-102052381D02*
X100035715Y-102052381D01*
X100035715Y-101052381D01*
X100511906Y-101052381D01*
X101511906Y-102052381D02*
X101178572Y-101576190D01*
X100940477Y-102052381D02*
X100940477Y-101052381D01*
X101321430Y-101052381D01*
X101416668Y-101100000D01*
X101464287Y-101147619D01*
X101511906Y-101242857D01*
X101511906Y-101385714D01*
X101464287Y-101480952D01*
X101416668Y-101528571D01*
X101321430Y-101576190D01*
X100940477Y-101576190D01*
X139819143Y-130114381D02*
X139342952Y-130114381D01*
X139342952Y-129114381D01*
X140152476Y-129590571D02*
X140485810Y-129590571D01*
X140628667Y-130114381D02*
X140152476Y-130114381D01*
X140152476Y-129114381D01*
X140628667Y-129114381D01*
X141057238Y-130114381D02*
X141057238Y-129114381D01*
X141295333Y-129114381D01*
X141438191Y-129162000D01*
X141533429Y-129257238D01*
X141581048Y-129352476D01*
X141628667Y-129542952D01*
X141628667Y-129685810D01*
X141581048Y-129876286D01*
X141533429Y-129971524D01*
X141438191Y-130066762D01*
X141295333Y-130114381D01*
X141057238Y-130114381D01*
X50919143Y-97602381D02*
X50442952Y-97602381D01*
X50442952Y-96602381D01*
X51252476Y-97078571D02*
X51585810Y-97078571D01*
X51728667Y-97602381D02*
X51252476Y-97602381D01*
X51252476Y-96602381D01*
X51728667Y-96602381D01*
X52157238Y-97602381D02*
X52157238Y-96602381D01*
X52395333Y-96602381D01*
X52538191Y-96650000D01*
X52633429Y-96745238D01*
X52681048Y-96840476D01*
X52728667Y-97030952D01*
X52728667Y-97173810D01*
X52681048Y-97364286D01*
X52633429Y-97459524D01*
X52538191Y-97554762D01*
X52395333Y-97602381D01*
X52157238Y-97602381D01*
X132707143Y-63322381D02*
X132230952Y-63322381D01*
X132230952Y-62322381D01*
X133040476Y-62798571D02*
X133373810Y-62798571D01*
X133516667Y-63322381D02*
X133040476Y-63322381D01*
X133040476Y-62322381D01*
X133516667Y-62322381D01*
X133945238Y-63322381D02*
X133945238Y-62322381D01*
X134183333Y-62322381D01*
X134326191Y-62370000D01*
X134421429Y-62465238D01*
X134469048Y-62560476D01*
X134516667Y-62750952D01*
X134516667Y-62893810D01*
X134469048Y-63084286D01*
X134421429Y-63179524D01*
X134326191Y-63274762D01*
X134183333Y-63322381D01*
X133945238Y-63322381D01*
X60356905Y-124272381D02*
X60547381Y-124272381D01*
X60642620Y-124224762D01*
X60690239Y-124177143D01*
X60785477Y-124034286D01*
X60833096Y-123843810D01*
X60833096Y-123462857D01*
X60785477Y-123367619D01*
X60737858Y-123320000D01*
X60642620Y-123272381D01*
X60452143Y-123272381D01*
X60356905Y-123320000D01*
X60309286Y-123367619D01*
X60261667Y-123462857D01*
X60261667Y-123700952D01*
X60309286Y-123796190D01*
X60356905Y-123843810D01*
X60452143Y-123891429D01*
X60642620Y-123891429D01*
X60737858Y-123843810D01*
X60785477Y-123796190D01*
X60833096Y-123700952D01*
X61737858Y-123272381D02*
X61261667Y-123272381D01*
X61214048Y-123748571D01*
X61261667Y-123700952D01*
X61356905Y-123653333D01*
X61595001Y-123653333D01*
X61690239Y-123700952D01*
X61737858Y-123748571D01*
X61785477Y-123843810D01*
X61785477Y-124081905D01*
X61737858Y-124177143D01*
X61690239Y-124224762D01*
X61595001Y-124272381D01*
X61356905Y-124272381D01*
X61261667Y-124224762D01*
X61214048Y-124177143D01*
X62166429Y-124272381D02*
X62404524Y-124272381D01*
X62404524Y-124081905D01*
X62309286Y-124034286D01*
X62214048Y-123939048D01*
X62166429Y-123796190D01*
X62166429Y-123558095D01*
X62214048Y-123415238D01*
X62309286Y-123320000D01*
X62452143Y-123272381D01*
X62642620Y-123272381D01*
X62785477Y-123320000D01*
X62880715Y-123415238D01*
X62928334Y-123558095D01*
X62928334Y-123796190D01*
X62880715Y-123939048D01*
X62785477Y-124034286D01*
X62690239Y-124081905D01*
X62690239Y-124272381D01*
X62928334Y-124272381D01*
D12*
X59511668Y-122236667D02*
X59278334Y-121903333D01*
X59111668Y-122236667D02*
X59111668Y-121536667D01*
X59378334Y-121536667D01*
X59445001Y-121570000D01*
X59478334Y-121603333D01*
X59511668Y-121670000D01*
X59511668Y-121770000D01*
X59478334Y-121836667D01*
X59445001Y-121870000D01*
X59378334Y-121903333D01*
X59111668Y-121903333D01*
X59645001Y-122303333D02*
X60178334Y-122303333D01*
X60711667Y-121570000D02*
X60645001Y-121536667D01*
X60545001Y-121536667D01*
X60445001Y-121570000D01*
X60378334Y-121636667D01*
X60345001Y-121703333D01*
X60311667Y-121836667D01*
X60311667Y-121936667D01*
X60345001Y-122070000D01*
X60378334Y-122136667D01*
X60445001Y-122203333D01*
X60545001Y-122236667D01*
X60611667Y-122236667D01*
X60711667Y-122203333D01*
X60745001Y-122170000D01*
X60745001Y-121936667D01*
X60611667Y-121936667D01*
X61445001Y-122236667D02*
X61211667Y-121903333D01*
X61045001Y-122236667D02*
X61045001Y-121536667D01*
X61311667Y-121536667D01*
X61378334Y-121570000D01*
X61411667Y-121603333D01*
X61445001Y-121670000D01*
X61445001Y-121770000D01*
X61411667Y-121836667D01*
X61378334Y-121870000D01*
X61311667Y-121903333D01*
X61045001Y-121903333D01*
X61745001Y-121870000D02*
X61978334Y-121870000D01*
X62078334Y-122236667D02*
X61745001Y-122236667D01*
X61745001Y-121536667D01*
X62078334Y-121536667D01*
X62378334Y-121870000D02*
X62611667Y-121870000D01*
X62711667Y-122236667D02*
X62378334Y-122236667D01*
X62378334Y-121536667D01*
X62711667Y-121536667D01*
X63011667Y-122236667D02*
X63011667Y-121536667D01*
X63411667Y-122236667D01*
X63411667Y-121536667D01*
X64111666Y-122236667D02*
X63711666Y-122236667D01*
X63911666Y-122236667D02*
X63911666Y-121536667D01*
X63845000Y-121636667D01*
X63778333Y-121703333D01*
X63711666Y-121736667D01*
D11*
X128301905Y-86817381D02*
X128492381Y-86817381D01*
X128587620Y-86769762D01*
X128635239Y-86722143D01*
X128730477Y-86579286D01*
X128778096Y-86388810D01*
X128778096Y-86007857D01*
X128730477Y-85912619D01*
X128682858Y-85865000D01*
X128587620Y-85817381D01*
X128397143Y-85817381D01*
X128301905Y-85865000D01*
X128254286Y-85912619D01*
X128206667Y-86007857D01*
X128206667Y-86245952D01*
X128254286Y-86341190D01*
X128301905Y-86388810D01*
X128397143Y-86436429D01*
X128587620Y-86436429D01*
X128682858Y-86388810D01*
X128730477Y-86341190D01*
X128778096Y-86245952D01*
X129682858Y-85817381D02*
X129206667Y-85817381D01*
X129159048Y-86293571D01*
X129206667Y-86245952D01*
X129301905Y-86198333D01*
X129540001Y-86198333D01*
X129635239Y-86245952D01*
X129682858Y-86293571D01*
X129730477Y-86388810D01*
X129730477Y-86626905D01*
X129682858Y-86722143D01*
X129635239Y-86769762D01*
X129540001Y-86817381D01*
X129301905Y-86817381D01*
X129206667Y-86769762D01*
X129159048Y-86722143D01*
X130111429Y-86817381D02*
X130349524Y-86817381D01*
X130349524Y-86626905D01*
X130254286Y-86579286D01*
X130159048Y-86484048D01*
X130111429Y-86341190D01*
X130111429Y-86103095D01*
X130159048Y-85960238D01*
X130254286Y-85865000D01*
X130397143Y-85817381D01*
X130587620Y-85817381D01*
X130730477Y-85865000D01*
X130825715Y-85960238D01*
X130873334Y-86103095D01*
X130873334Y-86341190D01*
X130825715Y-86484048D01*
X130730477Y-86579286D01*
X130635239Y-86626905D01*
X130635239Y-86817381D01*
X130873334Y-86817381D01*
D12*
X127456668Y-88581667D02*
X127223334Y-88248333D01*
X127056668Y-88581667D02*
X127056668Y-87881667D01*
X127323334Y-87881667D01*
X127390001Y-87915000D01*
X127423334Y-87948333D01*
X127456668Y-88015000D01*
X127456668Y-88115000D01*
X127423334Y-88181667D01*
X127390001Y-88215000D01*
X127323334Y-88248333D01*
X127056668Y-88248333D01*
X127590001Y-88648333D02*
X128123334Y-88648333D01*
X128656667Y-87915000D02*
X128590001Y-87881667D01*
X128490001Y-87881667D01*
X128390001Y-87915000D01*
X128323334Y-87981667D01*
X128290001Y-88048333D01*
X128256667Y-88181667D01*
X128256667Y-88281667D01*
X128290001Y-88415000D01*
X128323334Y-88481667D01*
X128390001Y-88548333D01*
X128490001Y-88581667D01*
X128556667Y-88581667D01*
X128656667Y-88548333D01*
X128690001Y-88515000D01*
X128690001Y-88281667D01*
X128556667Y-88281667D01*
X129390001Y-88581667D02*
X129156667Y-88248333D01*
X128990001Y-88581667D02*
X128990001Y-87881667D01*
X129256667Y-87881667D01*
X129323334Y-87915000D01*
X129356667Y-87948333D01*
X129390001Y-88015000D01*
X129390001Y-88115000D01*
X129356667Y-88181667D01*
X129323334Y-88215000D01*
X129256667Y-88248333D01*
X128990001Y-88248333D01*
X129690001Y-88215000D02*
X129923334Y-88215000D01*
X130023334Y-88581667D02*
X129690001Y-88581667D01*
X129690001Y-87881667D01*
X130023334Y-87881667D01*
X130323334Y-88215000D02*
X130556667Y-88215000D01*
X130656667Y-88581667D02*
X130323334Y-88581667D01*
X130323334Y-87881667D01*
X130656667Y-87881667D01*
X130956667Y-88581667D02*
X130956667Y-87881667D01*
X131356667Y-88581667D01*
X131356667Y-87881667D01*
X131656666Y-87948333D02*
X131690000Y-87915000D01*
X131756666Y-87881667D01*
X131923333Y-87881667D01*
X131990000Y-87915000D01*
X132023333Y-87948333D01*
X132056666Y-88015000D01*
X132056666Y-88081667D01*
X132023333Y-88181667D01*
X131623333Y-88581667D01*
X132056666Y-88581667D01*
D11*
X67341905Y-58613381D02*
X67532381Y-58613381D01*
X67627620Y-58565762D01*
X67675239Y-58518143D01*
X67770477Y-58375286D01*
X67818096Y-58184810D01*
X67818096Y-57803857D01*
X67770477Y-57708619D01*
X67722858Y-57661000D01*
X67627620Y-57613381D01*
X67437143Y-57613381D01*
X67341905Y-57661000D01*
X67294286Y-57708619D01*
X67246667Y-57803857D01*
X67246667Y-58041952D01*
X67294286Y-58137190D01*
X67341905Y-58184810D01*
X67437143Y-58232429D01*
X67627620Y-58232429D01*
X67722858Y-58184810D01*
X67770477Y-58137190D01*
X67818096Y-58041952D01*
X68722858Y-57613381D02*
X68246667Y-57613381D01*
X68199048Y-58089571D01*
X68246667Y-58041952D01*
X68341905Y-57994333D01*
X68580001Y-57994333D01*
X68675239Y-58041952D01*
X68722858Y-58089571D01*
X68770477Y-58184810D01*
X68770477Y-58422905D01*
X68722858Y-58518143D01*
X68675239Y-58565762D01*
X68580001Y-58613381D01*
X68341905Y-58613381D01*
X68246667Y-58565762D01*
X68199048Y-58518143D01*
X69151429Y-58613381D02*
X69389524Y-58613381D01*
X69389524Y-58422905D01*
X69294286Y-58375286D01*
X69199048Y-58280048D01*
X69151429Y-58137190D01*
X69151429Y-57899095D01*
X69199048Y-57756238D01*
X69294286Y-57661000D01*
X69437143Y-57613381D01*
X69627620Y-57613381D01*
X69770477Y-57661000D01*
X69865715Y-57756238D01*
X69913334Y-57899095D01*
X69913334Y-58137190D01*
X69865715Y-58280048D01*
X69770477Y-58375286D01*
X69675239Y-58422905D01*
X69675239Y-58613381D01*
X69913334Y-58613381D01*
D12*
X66496668Y-56577667D02*
X66263334Y-56244333D01*
X66096668Y-56577667D02*
X66096668Y-55877667D01*
X66363334Y-55877667D01*
X66430001Y-55911000D01*
X66463334Y-55944333D01*
X66496668Y-56011000D01*
X66496668Y-56111000D01*
X66463334Y-56177667D01*
X66430001Y-56211000D01*
X66363334Y-56244333D01*
X66096668Y-56244333D01*
X66630001Y-56644333D02*
X67163334Y-56644333D01*
X67696667Y-55911000D02*
X67630001Y-55877667D01*
X67530001Y-55877667D01*
X67430001Y-55911000D01*
X67363334Y-55977667D01*
X67330001Y-56044333D01*
X67296667Y-56177667D01*
X67296667Y-56277667D01*
X67330001Y-56411000D01*
X67363334Y-56477667D01*
X67430001Y-56544333D01*
X67530001Y-56577667D01*
X67596667Y-56577667D01*
X67696667Y-56544333D01*
X67730001Y-56511000D01*
X67730001Y-56277667D01*
X67596667Y-56277667D01*
X68430001Y-56577667D02*
X68196667Y-56244333D01*
X68030001Y-56577667D02*
X68030001Y-55877667D01*
X68296667Y-55877667D01*
X68363334Y-55911000D01*
X68396667Y-55944333D01*
X68430001Y-56011000D01*
X68430001Y-56111000D01*
X68396667Y-56177667D01*
X68363334Y-56211000D01*
X68296667Y-56244333D01*
X68030001Y-56244333D01*
X68730001Y-56211000D02*
X68963334Y-56211000D01*
X69063334Y-56577667D02*
X68730001Y-56577667D01*
X68730001Y-55877667D01*
X69063334Y-55877667D01*
X69363334Y-56211000D02*
X69596667Y-56211000D01*
X69696667Y-56577667D02*
X69363334Y-56577667D01*
X69363334Y-55877667D01*
X69696667Y-55877667D01*
X69996667Y-56577667D02*
X69996667Y-55877667D01*
X70396667Y-56577667D01*
X70396667Y-55877667D01*
X70663333Y-55877667D02*
X71096666Y-55877667D01*
X70863333Y-56144333D01*
X70963333Y-56144333D01*
X71030000Y-56177667D01*
X71063333Y-56211000D01*
X71096666Y-56277667D01*
X71096666Y-56444333D01*
X71063333Y-56511000D01*
X71030000Y-56544333D01*
X70963333Y-56577667D01*
X70763333Y-56577667D01*
X70696666Y-56544333D01*
X70663333Y-56511000D01*
D11*
X128428905Y-120218381D02*
X127857476Y-120218381D01*
X128143190Y-120218381D02*
X128143190Y-119218381D01*
X128047952Y-119361238D01*
X127952714Y-119456476D01*
X127857476Y-119504095D01*
X129333667Y-119218381D02*
X128857476Y-119218381D01*
X128809857Y-119694571D01*
X128857476Y-119646952D01*
X128952714Y-119599333D01*
X129190810Y-119599333D01*
X129286048Y-119646952D01*
X129333667Y-119694571D01*
X129381286Y-119789810D01*
X129381286Y-120027905D01*
X129333667Y-120123143D01*
X129286048Y-120170762D01*
X129190810Y-120218381D01*
X128952714Y-120218381D01*
X128857476Y-120170762D01*
X128809857Y-120123143D01*
X130000333Y-119218381D02*
X130095572Y-119218381D01*
X130190810Y-119266000D01*
X130238429Y-119313619D01*
X130286048Y-119408857D01*
X130333667Y-119599333D01*
X130333667Y-119837429D01*
X130286048Y-120027905D01*
X130238429Y-120123143D01*
X130190810Y-120170762D01*
X130095572Y-120218381D01*
X130000333Y-120218381D01*
X129905095Y-120170762D01*
X129857476Y-120123143D01*
X129809857Y-120027905D01*
X129762238Y-119837429D01*
X129762238Y-119599333D01*
X129809857Y-119408857D01*
X129857476Y-119313619D01*
X129905095Y-119266000D01*
X130000333Y-119218381D01*
X130714619Y-120218381D02*
X130952714Y-120218381D01*
X130952714Y-120027905D01*
X130857476Y-119980286D01*
X130762238Y-119885048D01*
X130714619Y-119742190D01*
X130714619Y-119504095D01*
X130762238Y-119361238D01*
X130857476Y-119266000D01*
X131000333Y-119218381D01*
X131190810Y-119218381D01*
X131333667Y-119266000D01*
X131428905Y-119361238D01*
X131476524Y-119504095D01*
X131476524Y-119742190D01*
X131428905Y-119885048D01*
X131333667Y-119980286D01*
X131238429Y-120027905D01*
X131238429Y-120218381D01*
X131476524Y-120218381D01*
D12*
X128267001Y-121982667D02*
X128033667Y-121649333D01*
X127867001Y-121982667D02*
X127867001Y-121282667D01*
X128133667Y-121282667D01*
X128200334Y-121316000D01*
X128233667Y-121349333D01*
X128267001Y-121416000D01*
X128267001Y-121516000D01*
X128233667Y-121582667D01*
X128200334Y-121616000D01*
X128133667Y-121649333D01*
X127867001Y-121649333D01*
X128400334Y-122049333D02*
X128933667Y-122049333D01*
X129500334Y-121982667D02*
X129267000Y-121649333D01*
X129100334Y-121982667D02*
X129100334Y-121282667D01*
X129367000Y-121282667D01*
X129433667Y-121316000D01*
X129467000Y-121349333D01*
X129500334Y-121416000D01*
X129500334Y-121516000D01*
X129467000Y-121582667D01*
X129433667Y-121616000D01*
X129367000Y-121649333D01*
X129100334Y-121649333D01*
X129800334Y-121616000D02*
X130033667Y-121616000D01*
X130133667Y-121982667D02*
X129800334Y-121982667D01*
X129800334Y-121282667D01*
X130133667Y-121282667D01*
X130433667Y-121982667D02*
X130433667Y-121282667D01*
X130600333Y-121282667D01*
X130700333Y-121316000D01*
X130767000Y-121382667D01*
X130800333Y-121449333D01*
X130833667Y-121582667D01*
X130833667Y-121682667D01*
X130800333Y-121816000D01*
X130767000Y-121882667D01*
X130700333Y-121949333D01*
X130600333Y-121982667D01*
X130433667Y-121982667D01*
X131500333Y-121982667D02*
X131100333Y-121982667D01*
X131300333Y-121982667D02*
X131300333Y-121282667D01*
X131233667Y-121382667D01*
X131167000Y-121449333D01*
X131100333Y-121482667D01*
D11*
X61626905Y-91252381D02*
X61055476Y-91252381D01*
X61341190Y-91252381D02*
X61341190Y-90252381D01*
X61245952Y-90395238D01*
X61150714Y-90490476D01*
X61055476Y-90538095D01*
X62531667Y-90252381D02*
X62055476Y-90252381D01*
X62007857Y-90728571D01*
X62055476Y-90680952D01*
X62150714Y-90633333D01*
X62388810Y-90633333D01*
X62484048Y-90680952D01*
X62531667Y-90728571D01*
X62579286Y-90823810D01*
X62579286Y-91061905D01*
X62531667Y-91157143D01*
X62484048Y-91204762D01*
X62388810Y-91252381D01*
X62150714Y-91252381D01*
X62055476Y-91204762D01*
X62007857Y-91157143D01*
X63198333Y-90252381D02*
X63293572Y-90252381D01*
X63388810Y-90300000D01*
X63436429Y-90347619D01*
X63484048Y-90442857D01*
X63531667Y-90633333D01*
X63531667Y-90871429D01*
X63484048Y-91061905D01*
X63436429Y-91157143D01*
X63388810Y-91204762D01*
X63293572Y-91252381D01*
X63198333Y-91252381D01*
X63103095Y-91204762D01*
X63055476Y-91157143D01*
X63007857Y-91061905D01*
X62960238Y-90871429D01*
X62960238Y-90633333D01*
X63007857Y-90442857D01*
X63055476Y-90347619D01*
X63103095Y-90300000D01*
X63198333Y-90252381D01*
X63912619Y-91252381D02*
X64150714Y-91252381D01*
X64150714Y-91061905D01*
X64055476Y-91014286D01*
X63960238Y-90919048D01*
X63912619Y-90776190D01*
X63912619Y-90538095D01*
X63960238Y-90395238D01*
X64055476Y-90300000D01*
X64198333Y-90252381D01*
X64388810Y-90252381D01*
X64531667Y-90300000D01*
X64626905Y-90395238D01*
X64674524Y-90538095D01*
X64674524Y-90776190D01*
X64626905Y-90919048D01*
X64531667Y-91014286D01*
X64436429Y-91061905D01*
X64436429Y-91252381D01*
X64674524Y-91252381D01*
D12*
X61465001Y-89216667D02*
X61231667Y-88883333D01*
X61065001Y-89216667D02*
X61065001Y-88516667D01*
X61331667Y-88516667D01*
X61398334Y-88550000D01*
X61431667Y-88583333D01*
X61465001Y-88650000D01*
X61465001Y-88750000D01*
X61431667Y-88816667D01*
X61398334Y-88850000D01*
X61331667Y-88883333D01*
X61065001Y-88883333D01*
X61598334Y-89283333D02*
X62131667Y-89283333D01*
X62698334Y-89216667D02*
X62465000Y-88883333D01*
X62298334Y-89216667D02*
X62298334Y-88516667D01*
X62565000Y-88516667D01*
X62631667Y-88550000D01*
X62665000Y-88583333D01*
X62698334Y-88650000D01*
X62698334Y-88750000D01*
X62665000Y-88816667D01*
X62631667Y-88850000D01*
X62565000Y-88883333D01*
X62298334Y-88883333D01*
X62998334Y-88850000D02*
X63231667Y-88850000D01*
X63331667Y-89216667D02*
X62998334Y-89216667D01*
X62998334Y-88516667D01*
X63331667Y-88516667D01*
X63631667Y-89216667D02*
X63631667Y-88516667D01*
X63798333Y-88516667D01*
X63898333Y-88550000D01*
X63965000Y-88616667D01*
X63998333Y-88683333D01*
X64031667Y-88816667D01*
X64031667Y-88916667D01*
X63998333Y-89050000D01*
X63965000Y-89116667D01*
X63898333Y-89183333D01*
X63798333Y-89216667D01*
X63631667Y-89216667D01*
X64298333Y-88583333D02*
X64331667Y-88550000D01*
X64398333Y-88516667D01*
X64565000Y-88516667D01*
X64631667Y-88550000D01*
X64665000Y-88583333D01*
X64698333Y-88650000D01*
X64698333Y-88716667D01*
X64665000Y-88816667D01*
X64265000Y-89216667D01*
X64698333Y-89216667D01*
D11*
X120046905Y-54432381D02*
X119475476Y-54432381D01*
X119761190Y-54432381D02*
X119761190Y-53432381D01*
X119665952Y-53575238D01*
X119570714Y-53670476D01*
X119475476Y-53718095D01*
X120951667Y-53432381D02*
X120475476Y-53432381D01*
X120427857Y-53908571D01*
X120475476Y-53860952D01*
X120570714Y-53813333D01*
X120808810Y-53813333D01*
X120904048Y-53860952D01*
X120951667Y-53908571D01*
X120999286Y-54003810D01*
X120999286Y-54241905D01*
X120951667Y-54337143D01*
X120904048Y-54384762D01*
X120808810Y-54432381D01*
X120570714Y-54432381D01*
X120475476Y-54384762D01*
X120427857Y-54337143D01*
X121618333Y-53432381D02*
X121713572Y-53432381D01*
X121808810Y-53480000D01*
X121856429Y-53527619D01*
X121904048Y-53622857D01*
X121951667Y-53813333D01*
X121951667Y-54051429D01*
X121904048Y-54241905D01*
X121856429Y-54337143D01*
X121808810Y-54384762D01*
X121713572Y-54432381D01*
X121618333Y-54432381D01*
X121523095Y-54384762D01*
X121475476Y-54337143D01*
X121427857Y-54241905D01*
X121380238Y-54051429D01*
X121380238Y-53813333D01*
X121427857Y-53622857D01*
X121475476Y-53527619D01*
X121523095Y-53480000D01*
X121618333Y-53432381D01*
X122332619Y-54432381D02*
X122570714Y-54432381D01*
X122570714Y-54241905D01*
X122475476Y-54194286D01*
X122380238Y-54099048D01*
X122332619Y-53956190D01*
X122332619Y-53718095D01*
X122380238Y-53575238D01*
X122475476Y-53480000D01*
X122618333Y-53432381D01*
X122808810Y-53432381D01*
X122951667Y-53480000D01*
X123046905Y-53575238D01*
X123094524Y-53718095D01*
X123094524Y-53956190D01*
X123046905Y-54099048D01*
X122951667Y-54194286D01*
X122856429Y-54241905D01*
X122856429Y-54432381D01*
X123094524Y-54432381D01*
D12*
X119885001Y-56196667D02*
X119651667Y-55863333D01*
X119485001Y-56196667D02*
X119485001Y-55496667D01*
X119751667Y-55496667D01*
X119818334Y-55530000D01*
X119851667Y-55563333D01*
X119885001Y-55630000D01*
X119885001Y-55730000D01*
X119851667Y-55796667D01*
X119818334Y-55830000D01*
X119751667Y-55863333D01*
X119485001Y-55863333D01*
X120018334Y-56263333D02*
X120551667Y-56263333D01*
X121118334Y-56196667D02*
X120885000Y-55863333D01*
X120718334Y-56196667D02*
X120718334Y-55496667D01*
X120985000Y-55496667D01*
X121051667Y-55530000D01*
X121085000Y-55563333D01*
X121118334Y-55630000D01*
X121118334Y-55730000D01*
X121085000Y-55796667D01*
X121051667Y-55830000D01*
X120985000Y-55863333D01*
X120718334Y-55863333D01*
X121418334Y-55830000D02*
X121651667Y-55830000D01*
X121751667Y-56196667D02*
X121418334Y-56196667D01*
X121418334Y-55496667D01*
X121751667Y-55496667D01*
X122051667Y-56196667D02*
X122051667Y-55496667D01*
X122218333Y-55496667D01*
X122318333Y-55530000D01*
X122385000Y-55596667D01*
X122418333Y-55663333D01*
X122451667Y-55796667D01*
X122451667Y-55896667D01*
X122418333Y-56030000D01*
X122385000Y-56096667D01*
X122318333Y-56163333D01*
X122218333Y-56196667D01*
X122051667Y-56196667D01*
X122685000Y-55496667D02*
X123118333Y-55496667D01*
X122885000Y-55763333D01*
X122985000Y-55763333D01*
X123051667Y-55796667D01*
X123085000Y-55830000D01*
X123118333Y-55896667D01*
X123118333Y-56063333D01*
X123085000Y-56130000D01*
X123051667Y-56163333D01*
X122985000Y-56196667D01*
X122785000Y-56196667D01*
X122718333Y-56163333D01*
X122685000Y-56130000D01*
D11*
X94011905Y-34102381D02*
X93440476Y-34102381D01*
X93726190Y-34102381D02*
X93726190Y-33102381D01*
X93630952Y-33245238D01*
X93535714Y-33340476D01*
X93440476Y-33388095D01*
X94916667Y-33102381D02*
X94440476Y-33102381D01*
X94392857Y-33578571D01*
X94440476Y-33530952D01*
X94535714Y-33483333D01*
X94773810Y-33483333D01*
X94869048Y-33530952D01*
X94916667Y-33578571D01*
X94964286Y-33673810D01*
X94964286Y-33911905D01*
X94916667Y-34007143D01*
X94869048Y-34054762D01*
X94773810Y-34102381D01*
X94535714Y-34102381D01*
X94440476Y-34054762D01*
X94392857Y-34007143D01*
X95583333Y-33102381D02*
X95678572Y-33102381D01*
X95773810Y-33150000D01*
X95821429Y-33197619D01*
X95869048Y-33292857D01*
X95916667Y-33483333D01*
X95916667Y-33721429D01*
X95869048Y-33911905D01*
X95821429Y-34007143D01*
X95773810Y-34054762D01*
X95678572Y-34102381D01*
X95583333Y-34102381D01*
X95488095Y-34054762D01*
X95440476Y-34007143D01*
X95392857Y-33911905D01*
X95345238Y-33721429D01*
X95345238Y-33483333D01*
X95392857Y-33292857D01*
X95440476Y-33197619D01*
X95488095Y-33150000D01*
X95583333Y-33102381D01*
X96297619Y-34102381D02*
X96535714Y-34102381D01*
X96535714Y-33911905D01*
X96440476Y-33864286D01*
X96345238Y-33769048D01*
X96297619Y-33626190D01*
X96297619Y-33388095D01*
X96345238Y-33245238D01*
X96440476Y-33150000D01*
X96583333Y-33102381D01*
X96773810Y-33102381D01*
X96916667Y-33150000D01*
X97011905Y-33245238D01*
X97059524Y-33388095D01*
X97059524Y-33626190D01*
X97011905Y-33769048D01*
X96916667Y-33864286D01*
X96821429Y-33911905D01*
X96821429Y-34102381D01*
X97059524Y-34102381D01*
D12*
X93489667Y-32193667D02*
X93256333Y-31860333D01*
X93089667Y-32193667D02*
X93089667Y-31493667D01*
X93356333Y-31493667D01*
X93423000Y-31527000D01*
X93456333Y-31560333D01*
X93489667Y-31627000D01*
X93489667Y-31727000D01*
X93456333Y-31793667D01*
X93423000Y-31827000D01*
X93356333Y-31860333D01*
X93089667Y-31860333D01*
X93623000Y-32260333D02*
X94156333Y-32260333D01*
X94289666Y-32160333D02*
X94389666Y-32193667D01*
X94556333Y-32193667D01*
X94623000Y-32160333D01*
X94656333Y-32127000D01*
X94689666Y-32060333D01*
X94689666Y-31993667D01*
X94656333Y-31927000D01*
X94623000Y-31893667D01*
X94556333Y-31860333D01*
X94423000Y-31827000D01*
X94356333Y-31793667D01*
X94323000Y-31760333D01*
X94289666Y-31693667D01*
X94289666Y-31627000D01*
X94323000Y-31560333D01*
X94356333Y-31527000D01*
X94423000Y-31493667D01*
X94589666Y-31493667D01*
X94689666Y-31527000D01*
X94889667Y-31493667D02*
X95289667Y-31493667D01*
X95089667Y-32193667D02*
X95089667Y-31493667D01*
X95489666Y-31993667D02*
X95823000Y-31993667D01*
X95423000Y-32193667D02*
X95656333Y-31493667D01*
X95889666Y-32193667D01*
X96523000Y-32193667D02*
X96289666Y-31860333D01*
X96123000Y-32193667D02*
X96123000Y-31493667D01*
X96389666Y-31493667D01*
X96456333Y-31527000D01*
X96489666Y-31560333D01*
X96523000Y-31627000D01*
X96523000Y-31727000D01*
X96489666Y-31793667D01*
X96456333Y-31827000D01*
X96389666Y-31860333D01*
X96123000Y-31860333D01*
X97189666Y-32193667D02*
X96789666Y-32193667D01*
X96989666Y-32193667D02*
X96989666Y-31493667D01*
X96923000Y-31593667D01*
X96856333Y-31660333D01*
X96789666Y-31693667D01*
D11*
X67159333Y-174696381D02*
X67159333Y-173696381D01*
X67540286Y-173696381D01*
X67635524Y-173744000D01*
X67683143Y-173791619D01*
X67730762Y-173886857D01*
X67730762Y-174029714D01*
X67683143Y-174124952D01*
X67635524Y-174172571D01*
X67540286Y-174220190D01*
X67159333Y-174220190D01*
X68349809Y-173696381D02*
X68540286Y-173696381D01*
X68635524Y-173744000D01*
X68730762Y-173839238D01*
X68778381Y-174029714D01*
X68778381Y-174363048D01*
X68730762Y-174553524D01*
X68635524Y-174648762D01*
X68540286Y-174696381D01*
X68349809Y-174696381D01*
X68254571Y-174648762D01*
X68159333Y-174553524D01*
X68111714Y-174363048D01*
X68111714Y-174029714D01*
X68159333Y-173839238D01*
X68254571Y-173744000D01*
X68349809Y-173696381D01*
X69064095Y-173696381D02*
X69635524Y-173696381D01*
X69349809Y-174696381D02*
X69349809Y-173696381D01*
X94607143Y-27752381D02*
X94130952Y-27752381D01*
X94130952Y-26752381D01*
X94940476Y-27228571D02*
X95273810Y-27228571D01*
X95416667Y-27752381D02*
X94940476Y-27752381D01*
X94940476Y-26752381D01*
X95416667Y-26752381D01*
X95845238Y-27752381D02*
X95845238Y-26752381D01*
X96083333Y-26752381D01*
X96226191Y-26800000D01*
X96321429Y-26895238D01*
X96369048Y-26990476D01*
X96416667Y-27180952D01*
X96416667Y-27323810D01*
X96369048Y-27514286D01*
X96321429Y-27609524D01*
X96226191Y-27704762D01*
X96083333Y-27752381D01*
X95845238Y-27752381D01*
X88074238Y-167529571D02*
X88217095Y-167577190D01*
X88264714Y-167624810D01*
X88312333Y-167720048D01*
X88312333Y-167862905D01*
X88264714Y-167958143D01*
X88217095Y-168005762D01*
X88121857Y-168053381D01*
X87740904Y-168053381D01*
X87740904Y-167053381D01*
X88074238Y-167053381D01*
X88169476Y-167101000D01*
X88217095Y-167148619D01*
X88264714Y-167243857D01*
X88264714Y-167339095D01*
X88217095Y-167434333D01*
X88169476Y-167481952D01*
X88074238Y-167529571D01*
X87740904Y-167529571D01*
X88693285Y-167767667D02*
X89169476Y-167767667D01*
X88598047Y-168053381D02*
X88931380Y-167053381D01*
X89264714Y-168053381D01*
X90169476Y-168053381D02*
X89836142Y-167577190D01*
X89598047Y-168053381D02*
X89598047Y-167053381D01*
X89979000Y-167053381D01*
X90074238Y-167101000D01*
X90121857Y-167148619D01*
X90169476Y-167243857D01*
X90169476Y-167386714D01*
X90121857Y-167481952D01*
X90074238Y-167529571D01*
X89979000Y-167577190D01*
X89598047Y-167577190D01*
X91169476Y-168053381D02*
X90836142Y-167577190D01*
X90598047Y-168053381D02*
X90598047Y-167053381D01*
X90979000Y-167053381D01*
X91074238Y-167101000D01*
X91121857Y-167148619D01*
X91169476Y-167243857D01*
X91169476Y-167386714D01*
X91121857Y-167481952D01*
X91074238Y-167529571D01*
X90979000Y-167577190D01*
X90598047Y-167577190D01*
X91598047Y-167529571D02*
X91931381Y-167529571D01*
X92074238Y-168053381D02*
X91598047Y-168053381D01*
X91598047Y-167053381D01*
X92074238Y-167053381D01*
X92979000Y-168053381D02*
X92502809Y-168053381D01*
X92502809Y-167053381D01*
X93074238Y-168148619D02*
X93836143Y-168148619D01*
X94359953Y-167053381D02*
X94359953Y-167767667D01*
X94312333Y-167910524D01*
X94217095Y-168005762D01*
X94074238Y-168053381D01*
X93979000Y-168053381D01*
X94788524Y-167767667D02*
X95264715Y-167767667D01*
X94693286Y-168053381D02*
X95026619Y-167053381D01*
X95359953Y-168053381D01*
X96264715Y-167958143D02*
X96217096Y-168005762D01*
X96074239Y-168053381D01*
X95979001Y-168053381D01*
X95836143Y-168005762D01*
X95740905Y-167910524D01*
X95693286Y-167815286D01*
X95645667Y-167624810D01*
X95645667Y-167481952D01*
X95693286Y-167291476D01*
X95740905Y-167196238D01*
X95836143Y-167101000D01*
X95979001Y-167053381D01*
X96074239Y-167053381D01*
X96217096Y-167101000D01*
X96264715Y-167148619D01*
X96693286Y-168053381D02*
X96693286Y-167053381D01*
X97264715Y-168053381D02*
X96836143Y-167481952D01*
X97264715Y-167053381D02*
X96693286Y-167624810D01*
X105259286Y-111582381D02*
X104687857Y-111582381D01*
X104973571Y-111582381D02*
X104973571Y-110582381D01*
X104878333Y-110725238D01*
X104783095Y-110820476D01*
X104687857Y-110868095D01*
X105687857Y-111582381D02*
X105687857Y-110582381D01*
X106259286Y-111582381D02*
X105830714Y-111010952D01*
X106259286Y-110582381D02*
X105687857Y-111153810D01*
X106640238Y-111582381D02*
X106878333Y-111582381D01*
X106878333Y-111391905D01*
X106783095Y-111344286D01*
X106687857Y-111249048D01*
X106640238Y-111106190D01*
X106640238Y-110868095D01*
X106687857Y-110725238D01*
X106783095Y-110630000D01*
X106925952Y-110582381D01*
X107116429Y-110582381D01*
X107259286Y-110630000D01*
X107354524Y-110725238D01*
X107402143Y-110868095D01*
X107402143Y-111106190D01*
X107354524Y-111249048D01*
X107259286Y-111344286D01*
X107164048Y-111391905D01*
X107164048Y-111582381D01*
X107402143Y-111582381D01*
D12*
X105928334Y-113346667D02*
X105695000Y-113013333D01*
X105528334Y-113346667D02*
X105528334Y-112646667D01*
X105795000Y-112646667D01*
X105861667Y-112680000D01*
X105895000Y-112713333D01*
X105928334Y-112780000D01*
X105928334Y-112880000D01*
X105895000Y-112946667D01*
X105861667Y-112980000D01*
X105795000Y-113013333D01*
X105528334Y-113013333D01*
X106595000Y-113346667D02*
X106195000Y-113346667D01*
X106395000Y-113346667D02*
X106395000Y-112646667D01*
X106328334Y-112746667D01*
X106261667Y-112813333D01*
X106195000Y-112846667D01*
D11*
X83669286Y-115382381D02*
X83097857Y-115382381D01*
X83383571Y-115382381D02*
X83383571Y-114382381D01*
X83288333Y-114525238D01*
X83193095Y-114620476D01*
X83097857Y-114668095D01*
X84097857Y-115382381D02*
X84097857Y-114382381D01*
X84669286Y-115382381D02*
X84240714Y-114810952D01*
X84669286Y-114382381D02*
X84097857Y-114953810D01*
X85050238Y-115382381D02*
X85288333Y-115382381D01*
X85288333Y-115191905D01*
X85193095Y-115144286D01*
X85097857Y-115049048D01*
X85050238Y-114906190D01*
X85050238Y-114668095D01*
X85097857Y-114525238D01*
X85193095Y-114430000D01*
X85335952Y-114382381D01*
X85526429Y-114382381D01*
X85669286Y-114430000D01*
X85764524Y-114525238D01*
X85812143Y-114668095D01*
X85812143Y-114906190D01*
X85764524Y-115049048D01*
X85669286Y-115144286D01*
X85574048Y-115191905D01*
X85574048Y-115382381D01*
X85812143Y-115382381D01*
D12*
X84338334Y-113346667D02*
X84105000Y-113013333D01*
X83938334Y-113346667D02*
X83938334Y-112646667D01*
X84205000Y-112646667D01*
X84271667Y-112680000D01*
X84305000Y-112713333D01*
X84338334Y-112780000D01*
X84338334Y-112880000D01*
X84305000Y-112946667D01*
X84271667Y-112980000D01*
X84205000Y-113013333D01*
X83938334Y-113013333D01*
X84605000Y-112713333D02*
X84638334Y-112680000D01*
X84705000Y-112646667D01*
X84871667Y-112646667D01*
X84938334Y-112680000D01*
X84971667Y-112713333D01*
X85005000Y-112780000D01*
X85005000Y-112846667D01*
X84971667Y-112946667D01*
X84571667Y-113346667D01*
X85005000Y-113346667D01*
D11*
X86487381Y-128276667D02*
X86487381Y-127705238D01*
X87487381Y-127990953D02*
X86487381Y-127990953D01*
X87487381Y-126800476D02*
X87011190Y-127133810D01*
X87487381Y-127371905D02*
X86487381Y-127371905D01*
X86487381Y-126990952D01*
X86535000Y-126895714D01*
X86582619Y-126848095D01*
X86677857Y-126800476D01*
X86820714Y-126800476D01*
X86915952Y-126848095D01*
X86963571Y-126895714D01*
X87011190Y-126990952D01*
X87011190Y-127371905D01*
X87201667Y-126419524D02*
X87201667Y-125943333D01*
X87487381Y-126514762D02*
X86487381Y-126181429D01*
X87487381Y-125848095D01*
X87487381Y-125514762D02*
X86487381Y-125514762D01*
X87487381Y-124943333D01*
X86487381Y-124943333D01*
X87439762Y-124514762D02*
X87487381Y-124371905D01*
X87487381Y-124133809D01*
X87439762Y-124038571D01*
X87392143Y-123990952D01*
X87296905Y-123943333D01*
X87201667Y-123943333D01*
X87106429Y-123990952D01*
X87058810Y-124038571D01*
X87011190Y-124133809D01*
X86963571Y-124324286D01*
X86915952Y-124419524D01*
X86868333Y-124467143D01*
X86773095Y-124514762D01*
X86677857Y-124514762D01*
X86582619Y-124467143D01*
X86535000Y-124419524D01*
X86487381Y-124324286D01*
X86487381Y-124086190D01*
X86535000Y-123943333D01*
X87487381Y-123514762D02*
X86487381Y-123514762D01*
X87439762Y-123086191D02*
X87487381Y-122943334D01*
X87487381Y-122705238D01*
X87439762Y-122610000D01*
X87392143Y-122562381D01*
X87296905Y-122514762D01*
X87201667Y-122514762D01*
X87106429Y-122562381D01*
X87058810Y-122610000D01*
X87011190Y-122705238D01*
X86963571Y-122895715D01*
X86915952Y-122990953D01*
X86868333Y-123038572D01*
X86773095Y-123086191D01*
X86677857Y-123086191D01*
X86582619Y-123038572D01*
X86535000Y-122990953D01*
X86487381Y-122895715D01*
X86487381Y-122657619D01*
X86535000Y-122514762D01*
X86487381Y-122229048D02*
X86487381Y-121657619D01*
X87487381Y-121943334D02*
X86487381Y-121943334D01*
X86487381Y-121133810D02*
X86487381Y-120943333D01*
X86535000Y-120848095D01*
X86630238Y-120752857D01*
X86820714Y-120705238D01*
X87154048Y-120705238D01*
X87344524Y-120752857D01*
X87439762Y-120848095D01*
X87487381Y-120943333D01*
X87487381Y-121133810D01*
X87439762Y-121229048D01*
X87344524Y-121324286D01*
X87154048Y-121371905D01*
X86820714Y-121371905D01*
X86630238Y-121324286D01*
X86535000Y-121229048D01*
X86487381Y-121133810D01*
X87487381Y-119705238D02*
X87011190Y-120038572D01*
X87487381Y-120276667D02*
X86487381Y-120276667D01*
X86487381Y-119895714D01*
X86535000Y-119800476D01*
X86582619Y-119752857D01*
X86677857Y-119705238D01*
X86820714Y-119705238D01*
X86915952Y-119752857D01*
X86963571Y-119800476D01*
X87011190Y-119895714D01*
X87011190Y-120276667D01*
X87582619Y-119514762D02*
X87582619Y-118752857D01*
X87487381Y-118514762D02*
X86487381Y-118514762D01*
X86487381Y-118133809D01*
X86535000Y-118038571D01*
X86582619Y-117990952D01*
X86677857Y-117943333D01*
X86820714Y-117943333D01*
X86915952Y-117990952D01*
X86963571Y-118038571D01*
X87011190Y-118133809D01*
X87011190Y-118514762D01*
X87487381Y-117514762D02*
X86487381Y-117514762D01*
X87487381Y-116943333D01*
X86487381Y-116943333D01*
X87487381Y-116467143D02*
X86487381Y-116467143D01*
X86487381Y-116086190D01*
X86535000Y-115990952D01*
X86582619Y-115943333D01*
X86677857Y-115895714D01*
X86820714Y-115895714D01*
X86915952Y-115943333D01*
X86963571Y-115990952D01*
X87011190Y-116086190D01*
X87011190Y-116467143D01*
X87487381Y-115467143D02*
X86487381Y-115467143D01*
X87201667Y-115133809D01*
X86487381Y-114800476D01*
X87487381Y-114800476D01*
X87487381Y-114324286D02*
X86487381Y-114324286D01*
X87201667Y-113990952D01*
X86487381Y-113657619D01*
X87487381Y-113657619D01*
X86963571Y-112848095D02*
X87011190Y-112705238D01*
X87058810Y-112657619D01*
X87154048Y-112610000D01*
X87296905Y-112610000D01*
X87392143Y-112657619D01*
X87439762Y-112705238D01*
X87487381Y-112800476D01*
X87487381Y-113181429D01*
X86487381Y-113181429D01*
X86487381Y-112848095D01*
X86535000Y-112752857D01*
X86582619Y-112705238D01*
X86677857Y-112657619D01*
X86773095Y-112657619D01*
X86868333Y-112705238D01*
X86915952Y-112752857D01*
X86963571Y-112848095D01*
X86963571Y-113181429D01*
X86487381Y-112324286D02*
X86487381Y-111752857D01*
X87487381Y-112038572D02*
X86487381Y-112038572D01*
X86820714Y-110990952D02*
X87487381Y-110990952D01*
X86439762Y-111229048D02*
X87154048Y-111467143D01*
X87154048Y-110848095D01*
X86820714Y-110038571D02*
X87487381Y-110038571D01*
X86439762Y-110276667D02*
X87154048Y-110514762D01*
X87154048Y-109895714D01*
X86487381Y-109324286D02*
X86487381Y-109229047D01*
X86535000Y-109133809D01*
X86582619Y-109086190D01*
X86677857Y-109038571D01*
X86868333Y-108990952D01*
X87106429Y-108990952D01*
X87296905Y-109038571D01*
X87392143Y-109086190D01*
X87439762Y-109133809D01*
X87487381Y-109229047D01*
X87487381Y-109324286D01*
X87439762Y-109419524D01*
X87392143Y-109467143D01*
X87296905Y-109514762D01*
X87106429Y-109562381D01*
X86868333Y-109562381D01*
X86677857Y-109514762D01*
X86582619Y-109467143D01*
X86535000Y-109419524D01*
X86487381Y-109324286D01*
X86487381Y-108657619D02*
X86487381Y-108038571D01*
X86868333Y-108371905D01*
X86868333Y-108229047D01*
X86915952Y-108133809D01*
X86963571Y-108086190D01*
X87058810Y-108038571D01*
X87296905Y-108038571D01*
X87392143Y-108086190D01*
X87439762Y-108133809D01*
X87487381Y-108229047D01*
X87487381Y-108514762D01*
X87439762Y-108610000D01*
X87392143Y-108657619D01*
D13*
X87749286Y-117836190D02*
X88035000Y-117836190D01*
X87892143Y-118336190D02*
X87892143Y-117836190D01*
X88082619Y-118383810D02*
X88463571Y-118383810D01*
X88844523Y-117860000D02*
X88796904Y-117836190D01*
X88725476Y-117836190D01*
X88654047Y-117860000D01*
X88606428Y-117907619D01*
X88582619Y-117955238D01*
X88558809Y-118050476D01*
X88558809Y-118121905D01*
X88582619Y-118217143D01*
X88606428Y-118264762D01*
X88654047Y-118312381D01*
X88725476Y-118336190D01*
X88773095Y-118336190D01*
X88844523Y-118312381D01*
X88868333Y-118288571D01*
X88868333Y-118121905D01*
X88773095Y-118121905D01*
X89368333Y-118336190D02*
X89201666Y-118098095D01*
X89082619Y-118336190D02*
X89082619Y-117836190D01*
X89273095Y-117836190D01*
X89320714Y-117860000D01*
X89344523Y-117883810D01*
X89368333Y-117931429D01*
X89368333Y-118002857D01*
X89344523Y-118050476D01*
X89320714Y-118074286D01*
X89273095Y-118098095D01*
X89082619Y-118098095D01*
X89582619Y-118074286D02*
X89749285Y-118074286D01*
X89820714Y-118336190D02*
X89582619Y-118336190D01*
X89582619Y-117836190D01*
X89820714Y-117836190D01*
X90035000Y-118074286D02*
X90201666Y-118074286D01*
X90273095Y-118336190D02*
X90035000Y-118336190D01*
X90035000Y-117836190D01*
X90273095Y-117836190D01*
X90487381Y-118336190D02*
X90487381Y-117836190D01*
X90773095Y-118336190D01*
X90773095Y-117836190D01*
X91273095Y-118336190D02*
X90987381Y-118336190D01*
X91130238Y-118336190D02*
X91130238Y-117836190D01*
X91082619Y-117907619D01*
X91035000Y-117955238D01*
X90987381Y-117979048D01*
D11*
X97917381Y-128276667D02*
X97917381Y-127705238D01*
X98917381Y-127990953D02*
X97917381Y-127990953D01*
X98917381Y-126800476D02*
X98441190Y-127133810D01*
X98917381Y-127371905D02*
X97917381Y-127371905D01*
X97917381Y-126990952D01*
X97965000Y-126895714D01*
X98012619Y-126848095D01*
X98107857Y-126800476D01*
X98250714Y-126800476D01*
X98345952Y-126848095D01*
X98393571Y-126895714D01*
X98441190Y-126990952D01*
X98441190Y-127371905D01*
X98631667Y-126419524D02*
X98631667Y-125943333D01*
X98917381Y-126514762D02*
X97917381Y-126181429D01*
X98917381Y-125848095D01*
X98917381Y-125514762D02*
X97917381Y-125514762D01*
X98917381Y-124943333D01*
X97917381Y-124943333D01*
X98869762Y-124514762D02*
X98917381Y-124371905D01*
X98917381Y-124133809D01*
X98869762Y-124038571D01*
X98822143Y-123990952D01*
X98726905Y-123943333D01*
X98631667Y-123943333D01*
X98536429Y-123990952D01*
X98488810Y-124038571D01*
X98441190Y-124133809D01*
X98393571Y-124324286D01*
X98345952Y-124419524D01*
X98298333Y-124467143D01*
X98203095Y-124514762D01*
X98107857Y-124514762D01*
X98012619Y-124467143D01*
X97965000Y-124419524D01*
X97917381Y-124324286D01*
X97917381Y-124086190D01*
X97965000Y-123943333D01*
X98917381Y-123514762D02*
X97917381Y-123514762D01*
X98869762Y-123086191D02*
X98917381Y-122943334D01*
X98917381Y-122705238D01*
X98869762Y-122610000D01*
X98822143Y-122562381D01*
X98726905Y-122514762D01*
X98631667Y-122514762D01*
X98536429Y-122562381D01*
X98488810Y-122610000D01*
X98441190Y-122705238D01*
X98393571Y-122895715D01*
X98345952Y-122990953D01*
X98298333Y-123038572D01*
X98203095Y-123086191D01*
X98107857Y-123086191D01*
X98012619Y-123038572D01*
X97965000Y-122990953D01*
X97917381Y-122895715D01*
X97917381Y-122657619D01*
X97965000Y-122514762D01*
X97917381Y-122229048D02*
X97917381Y-121657619D01*
X98917381Y-121943334D02*
X97917381Y-121943334D01*
X97917381Y-121133810D02*
X97917381Y-120943333D01*
X97965000Y-120848095D01*
X98060238Y-120752857D01*
X98250714Y-120705238D01*
X98584048Y-120705238D01*
X98774524Y-120752857D01*
X98869762Y-120848095D01*
X98917381Y-120943333D01*
X98917381Y-121133810D01*
X98869762Y-121229048D01*
X98774524Y-121324286D01*
X98584048Y-121371905D01*
X98250714Y-121371905D01*
X98060238Y-121324286D01*
X97965000Y-121229048D01*
X97917381Y-121133810D01*
X98917381Y-119705238D02*
X98441190Y-120038572D01*
X98917381Y-120276667D02*
X97917381Y-120276667D01*
X97917381Y-119895714D01*
X97965000Y-119800476D01*
X98012619Y-119752857D01*
X98107857Y-119705238D01*
X98250714Y-119705238D01*
X98345952Y-119752857D01*
X98393571Y-119800476D01*
X98441190Y-119895714D01*
X98441190Y-120276667D01*
X99012619Y-119514762D02*
X99012619Y-118752857D01*
X98917381Y-118514762D02*
X97917381Y-118514762D01*
X97917381Y-118133809D01*
X97965000Y-118038571D01*
X98012619Y-117990952D01*
X98107857Y-117943333D01*
X98250714Y-117943333D01*
X98345952Y-117990952D01*
X98393571Y-118038571D01*
X98441190Y-118133809D01*
X98441190Y-118514762D01*
X98917381Y-117514762D02*
X97917381Y-117514762D01*
X98917381Y-116943333D01*
X97917381Y-116943333D01*
X98917381Y-116467143D02*
X97917381Y-116467143D01*
X97917381Y-116086190D01*
X97965000Y-115990952D01*
X98012619Y-115943333D01*
X98107857Y-115895714D01*
X98250714Y-115895714D01*
X98345952Y-115943333D01*
X98393571Y-115990952D01*
X98441190Y-116086190D01*
X98441190Y-116467143D01*
X98917381Y-115467143D02*
X97917381Y-115467143D01*
X98631667Y-115133809D01*
X97917381Y-114800476D01*
X98917381Y-114800476D01*
X98917381Y-114324286D02*
X97917381Y-114324286D01*
X98631667Y-113990952D01*
X97917381Y-113657619D01*
X98917381Y-113657619D01*
X98393571Y-112848095D02*
X98441190Y-112705238D01*
X98488810Y-112657619D01*
X98584048Y-112610000D01*
X98726905Y-112610000D01*
X98822143Y-112657619D01*
X98869762Y-112705238D01*
X98917381Y-112800476D01*
X98917381Y-113181429D01*
X97917381Y-113181429D01*
X97917381Y-112848095D01*
X97965000Y-112752857D01*
X98012619Y-112705238D01*
X98107857Y-112657619D01*
X98203095Y-112657619D01*
X98298333Y-112705238D01*
X98345952Y-112752857D01*
X98393571Y-112848095D01*
X98393571Y-113181429D01*
X97917381Y-112324286D02*
X97917381Y-111752857D01*
X98917381Y-112038572D02*
X97917381Y-112038572D01*
X98250714Y-110990952D02*
X98917381Y-110990952D01*
X97869762Y-111229048D02*
X98584048Y-111467143D01*
X98584048Y-110848095D01*
X98250714Y-110038571D02*
X98917381Y-110038571D01*
X97869762Y-110276667D02*
X98584048Y-110514762D01*
X98584048Y-109895714D01*
X97917381Y-109324286D02*
X97917381Y-109229047D01*
X97965000Y-109133809D01*
X98012619Y-109086190D01*
X98107857Y-109038571D01*
X98298333Y-108990952D01*
X98536429Y-108990952D01*
X98726905Y-109038571D01*
X98822143Y-109086190D01*
X98869762Y-109133809D01*
X98917381Y-109229047D01*
X98917381Y-109324286D01*
X98869762Y-109419524D01*
X98822143Y-109467143D01*
X98726905Y-109514762D01*
X98536429Y-109562381D01*
X98298333Y-109562381D01*
X98107857Y-109514762D01*
X98012619Y-109467143D01*
X97965000Y-109419524D01*
X97917381Y-109324286D01*
X97917381Y-108657619D02*
X97917381Y-108038571D01*
X98298333Y-108371905D01*
X98298333Y-108229047D01*
X98345952Y-108133809D01*
X98393571Y-108086190D01*
X98488810Y-108038571D01*
X98726905Y-108038571D01*
X98822143Y-108086190D01*
X98869762Y-108133809D01*
X98917381Y-108229047D01*
X98917381Y-108514762D01*
X98869762Y-108610000D01*
X98822143Y-108657619D01*
D13*
X99667382Y-117836190D02*
X99953096Y-117836190D01*
X99810239Y-118336190D02*
X99810239Y-117836190D01*
X100000715Y-118383810D02*
X100381667Y-118383810D01*
X100786429Y-118336190D02*
X100619762Y-118098095D01*
X100500715Y-118336190D02*
X100500715Y-117836190D01*
X100691191Y-117836190D01*
X100738810Y-117860000D01*
X100762619Y-117883810D01*
X100786429Y-117931429D01*
X100786429Y-118002857D01*
X100762619Y-118050476D01*
X100738810Y-118074286D01*
X100691191Y-118098095D01*
X100500715Y-118098095D01*
X101000715Y-118074286D02*
X101167381Y-118074286D01*
X101238810Y-118336190D02*
X101000715Y-118336190D01*
X101000715Y-117836190D01*
X101238810Y-117836190D01*
X101453096Y-118336190D02*
X101453096Y-117836190D01*
X101572143Y-117836190D01*
X101643572Y-117860000D01*
X101691191Y-117907619D01*
X101715000Y-117955238D01*
X101738810Y-118050476D01*
X101738810Y-118121905D01*
X101715000Y-118217143D01*
X101691191Y-118264762D01*
X101643572Y-118312381D01*
X101572143Y-118336190D01*
X101453096Y-118336190D01*
X102215000Y-118336190D02*
X101929286Y-118336190D01*
X102072143Y-118336190D02*
X102072143Y-117836190D01*
X102024524Y-117907619D01*
X101976905Y-117955238D01*
X101929286Y-117979048D01*
M02*
