M48
;DRILL file {KiCad 4.0.6} date Tuesday, November 14, 2017 'PMt' 08:02:17 PM
;FORMAT={-:-/ absolute / inch / decimal}
FMAT,2
INCH,TZ
T1C0.016
T2C0.039
%
G90
G05
M72
T1
X3.5Y-4.5
X3.575Y-3.675
X3.575Y-4.475
X3.7Y-4.7
X3.7Y-5.125
X3.725Y-2.55
X3.725Y-3.9
X3.725Y-4.025
X3.725Y-4.375
X3.725Y-6.525
X3.75Y-2.475
X3.775Y-4.25
X3.775Y-4.375
X3.775Y-4.6
X3.775Y-6.5
X3.8Y-3.675
X3.8Y-4.475
X3.8Y-4.575
X3.8Y-5.05
X3.825Y-3.875
X3.825Y-4.3
X3.85Y-3.625
X3.85Y-3.725
T2
X2.675Y-6.75
X2.775Y-6.75
X2.875Y-6.75
T2
X3.6488Y-6.7756G85X3.6488Y-6.8544
G05
X3.7275Y-7.G85X3.8063Y-7.
G05
X3.885Y-6.7756G85X3.885Y-6.8544
G05
T0
M30
