G04 #@! TF.FileFunction,Copper,L2,Bot,Signal*
%FSLAX46Y46*%
G04 Gerber Fmt 4.6, Leading zero omitted, Abs format (unit mm)*
G04 Created by KiCad (PCBNEW 4.0.6) date Tuesday, November 14, 2017 'PMt' 08:02:21 PM*
%MOMM*%
%LPD*%
G01*
G04 APERTURE LIST*
%ADD10C,0.100000*%
%ADD11O,1.510000X3.010000*%
%ADD12R,3.500000X3.500000*%
%ADD13R,2.000000X1.700000*%
%ADD14C,0.600000*%
%ADD15C,0.250000*%
%ADD16C,0.254000*%
G04 APERTURE END LIST*
D10*
D11*
X73025000Y-171450000D03*
X70485000Y-171450000D03*
X67945000Y-171450000D03*
D12*
X98679000Y-173101000D03*
X92679000Y-173101000D03*
X95679000Y-177801000D03*
D13*
X135350000Y-64770000D03*
X131350000Y-64770000D03*
X49435000Y-95250000D03*
X53435000Y-95250000D03*
X142335000Y-128270000D03*
X138335000Y-128270000D03*
X55150000Y-64770000D03*
X59150000Y-64770000D03*
X142970000Y-94615000D03*
X138970000Y-94615000D03*
X48165000Y-128270000D03*
X52165000Y-128270000D03*
X123285000Y-55880000D03*
X119285000Y-55880000D03*
X60865000Y-88900000D03*
X64865000Y-88900000D03*
X131667000Y-121666000D03*
X127667000Y-121666000D03*
X66580000Y-56261000D03*
X70580000Y-56261000D03*
X131540000Y-88265000D03*
X127540000Y-88265000D03*
X59595000Y-121920000D03*
X63595000Y-121920000D03*
X93250000Y-31750000D03*
X97250000Y-31750000D03*
X93250000Y-25146000D03*
X97250000Y-25146000D03*
D14*
X94615000Y-64770000D03*
X97790000Y-92075000D03*
X97790000Y-94615000D03*
X93980000Y-130175000D03*
X93980000Y-119380000D03*
X94615000Y-102235000D03*
X95885000Y-116840000D03*
X95885000Y-165100000D03*
X94615000Y-165735000D03*
X95885000Y-111125000D03*
X94615000Y-111125000D03*
X95250000Y-62865000D03*
X94615000Y-99060000D03*
X97155000Y-98425000D03*
X90805000Y-113665000D03*
X88900000Y-114300000D03*
X90805000Y-93345000D03*
X96520000Y-116205000D03*
X96520000Y-113665000D03*
X97155000Y-109220000D03*
X95885000Y-107950000D03*
X96520000Y-93345000D03*
X96520000Y-128270000D03*
D15*
X94615000Y-64770000D02*
X97790000Y-64770000D01*
X131350000Y-64770000D02*
X99695000Y-64770000D01*
X96520000Y-90805000D02*
X97790000Y-92075000D01*
X96520000Y-66040000D02*
X96520000Y-90805000D01*
X97790000Y-64770000D02*
X96520000Y-66040000D01*
X99695000Y-64770000D02*
X97790000Y-64770000D01*
X96520000Y-95885000D02*
X93980000Y-95885000D01*
X97790000Y-94615000D02*
X96520000Y-95885000D01*
X138335000Y-128270000D02*
X98425000Y-128270000D01*
X96520000Y-130175000D02*
X93980000Y-130175000D01*
X98425000Y-128270000D02*
X96520000Y-130175000D01*
X93345000Y-95250000D02*
X53435000Y-95250000D01*
X93980000Y-95885000D02*
X93345000Y-95250000D01*
X93980000Y-119380000D02*
X93980000Y-95885000D01*
X123285000Y-55880000D02*
X128270000Y-55880000D01*
X135350000Y-62960000D02*
X135350000Y-64770000D01*
X128270000Y-55880000D02*
X135350000Y-62960000D01*
X60865000Y-88900000D02*
X53340000Y-88900000D01*
X49435000Y-92805000D02*
X49435000Y-95250000D01*
X53340000Y-88900000D02*
X49435000Y-92805000D01*
X131667000Y-121666000D02*
X138811000Y-121666000D01*
X142335000Y-125190000D02*
X142335000Y-128270000D01*
X138811000Y-121666000D02*
X142335000Y-125190000D01*
X95250000Y-102870000D02*
X94615000Y-102235000D01*
X95250000Y-108585000D02*
X95250000Y-102870000D01*
X97155000Y-110490000D02*
X95250000Y-108585000D01*
X97155000Y-111125000D02*
X97155000Y-110490000D01*
X95885000Y-112395000D02*
X97155000Y-111125000D01*
X95885000Y-116840000D02*
X95885000Y-112395000D01*
X95250000Y-165100000D02*
X95885000Y-165100000D01*
X94615000Y-165735000D02*
X95250000Y-165100000D01*
X94615000Y-111125000D02*
X95885000Y-111125000D01*
X66580000Y-56261000D02*
X61849000Y-56261000D01*
X55150000Y-62960000D02*
X55150000Y-64770000D01*
X61849000Y-56261000D02*
X55150000Y-62960000D01*
X142970000Y-94615000D02*
X142970000Y-93440000D01*
X137795000Y-88265000D02*
X131540000Y-88265000D01*
X142970000Y-93440000D02*
X137795000Y-88265000D01*
X59595000Y-121920000D02*
X53340000Y-121920000D01*
X48165000Y-127095000D02*
X48165000Y-128270000D01*
X53340000Y-121920000D02*
X48165000Y-127095000D01*
X93250000Y-25146000D02*
X92329000Y-25146000D01*
X92329000Y-25146000D02*
X90170000Y-27305000D01*
X90170000Y-27305000D02*
X90170000Y-30480000D01*
X90170000Y-30480000D02*
X91440000Y-31750000D01*
X91440000Y-31750000D02*
X93250000Y-31750000D01*
X97250000Y-25146000D02*
X98171000Y-25146000D01*
X98171000Y-25146000D02*
X100330000Y-27305000D01*
X100330000Y-27305000D02*
X100330000Y-33020000D01*
X100330000Y-33020000D02*
X95250000Y-38100000D01*
X95250000Y-38100000D02*
X95250000Y-62865000D01*
X96520000Y-99060000D02*
X94615000Y-99060000D01*
X97155000Y-98425000D02*
X96520000Y-99060000D01*
X89535000Y-113665000D02*
X90805000Y-113665000D01*
X88900000Y-114300000D02*
X89535000Y-113665000D01*
X91440000Y-92710000D02*
X93980000Y-92710000D01*
X90805000Y-93345000D02*
X91440000Y-92710000D01*
X59150000Y-64770000D02*
X93345000Y-64770000D01*
X94615000Y-93345000D02*
X96520000Y-93345000D01*
X93980000Y-92710000D02*
X94615000Y-93345000D01*
X93980000Y-65405000D02*
X93980000Y-92710000D01*
X93345000Y-64770000D02*
X93980000Y-65405000D01*
X138970000Y-94615000D02*
X100330000Y-94615000D01*
X96520000Y-113665000D02*
X96520000Y-116205000D01*
X95885000Y-107950000D02*
X97155000Y-109220000D01*
X99060000Y-93345000D02*
X96520000Y-93345000D01*
X100330000Y-94615000D02*
X99060000Y-93345000D01*
X96520000Y-128270000D02*
X52165000Y-128270000D01*
D16*
G36*
X98209468Y-23648560D02*
X96250000Y-23648560D01*
X96014683Y-23692838D01*
X95798559Y-23831910D01*
X95653569Y-24044110D01*
X95602560Y-24296000D01*
X95602560Y-25996000D01*
X95646838Y-26231317D01*
X95785910Y-26447441D01*
X95998110Y-26592431D01*
X96250000Y-26643440D01*
X98250000Y-26643440D01*
X98485317Y-26599162D01*
X98524285Y-26574087D01*
X99570000Y-27619802D01*
X99570000Y-32705198D01*
X94712599Y-37562599D01*
X94547852Y-37809161D01*
X94490000Y-38100000D01*
X94490000Y-62302537D01*
X94457808Y-62334673D01*
X94315162Y-62678201D01*
X94314838Y-63050167D01*
X94456883Y-63393943D01*
X94719673Y-63657192D01*
X95063201Y-63799838D01*
X95435167Y-63800162D01*
X95778943Y-63658117D01*
X96042192Y-63395327D01*
X96184838Y-63051799D01*
X96185162Y-62679833D01*
X96043117Y-62336057D01*
X96010000Y-62302882D01*
X96010000Y-56165750D01*
X117650000Y-56165750D01*
X117650000Y-56856310D01*
X117746673Y-57089699D01*
X117925302Y-57268327D01*
X118158691Y-57365000D01*
X118999250Y-57365000D01*
X119158000Y-57206250D01*
X119158000Y-56007000D01*
X119412000Y-56007000D01*
X119412000Y-57206250D01*
X119570750Y-57365000D01*
X120411309Y-57365000D01*
X120644698Y-57268327D01*
X120823327Y-57089699D01*
X120920000Y-56856310D01*
X120920000Y-56165750D01*
X120761250Y-56007000D01*
X119412000Y-56007000D01*
X119158000Y-56007000D01*
X117808750Y-56007000D01*
X117650000Y-56165750D01*
X96010000Y-56165750D01*
X96010000Y-54903690D01*
X117650000Y-54903690D01*
X117650000Y-55594250D01*
X117808750Y-55753000D01*
X119158000Y-55753000D01*
X119158000Y-54553750D01*
X119412000Y-54553750D01*
X119412000Y-55753000D01*
X120761250Y-55753000D01*
X120920000Y-55594250D01*
X120920000Y-55030000D01*
X121637560Y-55030000D01*
X121637560Y-56730000D01*
X121681838Y-56965317D01*
X121820910Y-57181441D01*
X122033110Y-57326431D01*
X122285000Y-57377440D01*
X124285000Y-57377440D01*
X124520317Y-57333162D01*
X124736441Y-57194090D01*
X124881431Y-56981890D01*
X124932440Y-56730000D01*
X124932440Y-56640000D01*
X127955198Y-56640000D01*
X134587758Y-63272560D01*
X134350000Y-63272560D01*
X134114683Y-63316838D01*
X133898559Y-63455910D01*
X133753569Y-63668110D01*
X133702560Y-63920000D01*
X133702560Y-65620000D01*
X133746838Y-65855317D01*
X133885910Y-66071441D01*
X134098110Y-66216431D01*
X134350000Y-66267440D01*
X136350000Y-66267440D01*
X136585317Y-66223162D01*
X136801441Y-66084090D01*
X136946431Y-65871890D01*
X136997440Y-65620000D01*
X136997440Y-63920000D01*
X136953162Y-63684683D01*
X136814090Y-63468559D01*
X136601890Y-63323569D01*
X136350000Y-63272560D01*
X136110000Y-63272560D01*
X136110000Y-62960000D01*
X136052148Y-62669161D01*
X135887401Y-62422599D01*
X128807401Y-55342599D01*
X128560839Y-55177852D01*
X128270000Y-55120000D01*
X124932440Y-55120000D01*
X124932440Y-55030000D01*
X124888162Y-54794683D01*
X124749090Y-54578559D01*
X124536890Y-54433569D01*
X124285000Y-54382560D01*
X122285000Y-54382560D01*
X122049683Y-54426838D01*
X121833559Y-54565910D01*
X121688569Y-54778110D01*
X121637560Y-55030000D01*
X120920000Y-55030000D01*
X120920000Y-54903690D01*
X120823327Y-54670301D01*
X120644698Y-54491673D01*
X120411309Y-54395000D01*
X119570750Y-54395000D01*
X119412000Y-54553750D01*
X119158000Y-54553750D01*
X118999250Y-54395000D01*
X118158691Y-54395000D01*
X117925302Y-54491673D01*
X117746673Y-54670301D01*
X117650000Y-54903690D01*
X96010000Y-54903690D01*
X96010000Y-38414802D01*
X100867401Y-33557401D01*
X101032148Y-33310839D01*
X101090000Y-33020000D01*
X101090000Y-27305000D01*
X101032148Y-27014161D01*
X100867401Y-26767599D01*
X98897440Y-24797638D01*
X98897440Y-24336532D01*
X142251908Y-67691000D01*
X119126000Y-67691000D01*
X119076590Y-67701006D01*
X119034965Y-67729447D01*
X119007685Y-67771841D01*
X118999048Y-67821509D01*
X119010416Y-67870623D01*
X119036197Y-67907803D01*
X120022130Y-68893736D01*
X120147954Y-69082046D01*
X144261631Y-93195723D01*
X144221890Y-93168569D01*
X143970000Y-93117560D01*
X143651034Y-93117560D01*
X143507401Y-92902599D01*
X138332401Y-87727599D01*
X138085839Y-87562852D01*
X137795000Y-87505000D01*
X133187440Y-87505000D01*
X133187440Y-87415000D01*
X133143162Y-87179683D01*
X133004090Y-86963559D01*
X132791890Y-86818569D01*
X132540000Y-86767560D01*
X130540000Y-86767560D01*
X130304683Y-86811838D01*
X130088559Y-86950910D01*
X129943569Y-87163110D01*
X129892560Y-87415000D01*
X129892560Y-89115000D01*
X129936838Y-89350317D01*
X130075910Y-89566441D01*
X130288110Y-89711431D01*
X130540000Y-89762440D01*
X132540000Y-89762440D01*
X132775317Y-89718162D01*
X132991441Y-89579090D01*
X133136431Y-89366890D01*
X133187440Y-89115000D01*
X133187440Y-89025000D01*
X137480198Y-89025000D01*
X141663099Y-93207901D01*
X141518559Y-93300910D01*
X141373569Y-93513110D01*
X141322560Y-93765000D01*
X141322560Y-95465000D01*
X141366838Y-95700317D01*
X141505910Y-95916441D01*
X141718110Y-96061431D01*
X141970000Y-96112440D01*
X143970000Y-96112440D01*
X144205317Y-96068162D01*
X144421441Y-95929090D01*
X144566431Y-95716890D01*
X144617440Y-95465000D01*
X144617440Y-93765000D01*
X144573162Y-93529683D01*
X144532680Y-93466772D01*
X148601908Y-97536000D01*
X117856000Y-97536000D01*
X117806590Y-97546006D01*
X117764965Y-97574447D01*
X117737685Y-97616841D01*
X117729048Y-97666509D01*
X117740416Y-97715623D01*
X117766197Y-97752803D01*
X118752130Y-98738736D01*
X118877954Y-98927046D01*
X150506908Y-130556000D01*
X110236000Y-130556000D01*
X110186590Y-130566006D01*
X110144965Y-130594447D01*
X110117685Y-130636841D01*
X110109000Y-130683000D01*
X110109000Y-160528000D01*
X110119006Y-160577410D01*
X110147447Y-160619035D01*
X110189841Y-160646315D01*
X110236000Y-160655000D01*
X132334000Y-160655000D01*
X132334000Y-181991000D01*
X58293000Y-181991000D01*
X58293000Y-171577000D01*
X66555000Y-171577000D01*
X66555000Y-172327000D01*
X66709408Y-172849263D01*
X67051924Y-173272681D01*
X67530403Y-173532793D01*
X67603029Y-173547277D01*
X67818000Y-173424683D01*
X67818000Y-171577000D01*
X66555000Y-171577000D01*
X58293000Y-171577000D01*
X58293000Y-170573000D01*
X66555000Y-170573000D01*
X66555000Y-171323000D01*
X67818000Y-171323000D01*
X67818000Y-169475317D01*
X68072000Y-169475317D01*
X68072000Y-171323000D01*
X68092000Y-171323000D01*
X68092000Y-171577000D01*
X68072000Y-171577000D01*
X68072000Y-173424683D01*
X68286971Y-173547277D01*
X68359597Y-173532793D01*
X68838076Y-173272681D01*
X69180592Y-172849263D01*
X69202249Y-172776013D01*
X69502122Y-173224803D01*
X69953070Y-173526118D01*
X70485000Y-173631925D01*
X71016930Y-173526118D01*
X71467878Y-173224803D01*
X71755000Y-172795096D01*
X72042122Y-173224803D01*
X72493070Y-173526118D01*
X73025000Y-173631925D01*
X73556930Y-173526118D01*
X73765508Y-173386750D01*
X90294000Y-173386750D01*
X90294000Y-174977310D01*
X90390673Y-175210699D01*
X90569302Y-175389327D01*
X90802691Y-175486000D01*
X92393250Y-175486000D01*
X92552000Y-175327250D01*
X92552000Y-173228000D01*
X92806000Y-173228000D01*
X92806000Y-175327250D01*
X92964750Y-175486000D01*
X93634378Y-175486000D01*
X93477559Y-175586910D01*
X93332569Y-175799110D01*
X93281560Y-176051000D01*
X93281560Y-179551000D01*
X93325838Y-179786317D01*
X93464910Y-180002441D01*
X93677110Y-180147431D01*
X93929000Y-180198440D01*
X97429000Y-180198440D01*
X97664317Y-180154162D01*
X97880441Y-180015090D01*
X98025431Y-179802890D01*
X98076440Y-179551000D01*
X98076440Y-176051000D01*
X98032162Y-175815683D01*
X97893090Y-175599559D01*
X97745097Y-175498440D01*
X100429000Y-175498440D01*
X100664317Y-175454162D01*
X100880441Y-175315090D01*
X101025431Y-175102890D01*
X101076440Y-174851000D01*
X101076440Y-171351000D01*
X101032162Y-171115683D01*
X100893090Y-170899559D01*
X100680890Y-170754569D01*
X100429000Y-170703560D01*
X96929000Y-170703560D01*
X96693683Y-170747838D01*
X96477559Y-170886910D01*
X96332569Y-171099110D01*
X96281560Y-171351000D01*
X96281560Y-174851000D01*
X96325838Y-175086317D01*
X96464910Y-175302441D01*
X96612903Y-175403560D01*
X94754337Y-175403560D01*
X94788698Y-175389327D01*
X94967327Y-175210699D01*
X95064000Y-174977310D01*
X95064000Y-173386750D01*
X94905250Y-173228000D01*
X92806000Y-173228000D01*
X92552000Y-173228000D01*
X90452750Y-173228000D01*
X90294000Y-173386750D01*
X73765508Y-173386750D01*
X74007878Y-173224803D01*
X74309193Y-172773855D01*
X74415000Y-172241925D01*
X74415000Y-171224690D01*
X90294000Y-171224690D01*
X90294000Y-172815250D01*
X90452750Y-172974000D01*
X92552000Y-172974000D01*
X92552000Y-170874750D01*
X92806000Y-170874750D01*
X92806000Y-172974000D01*
X94905250Y-172974000D01*
X95064000Y-172815250D01*
X95064000Y-171224690D01*
X94967327Y-170991301D01*
X94788698Y-170812673D01*
X94555309Y-170716000D01*
X92964750Y-170716000D01*
X92806000Y-170874750D01*
X92552000Y-170874750D01*
X92393250Y-170716000D01*
X90802691Y-170716000D01*
X90569302Y-170812673D01*
X90390673Y-170991301D01*
X90294000Y-171224690D01*
X74415000Y-171224690D01*
X74415000Y-170658075D01*
X74309193Y-170126145D01*
X74007878Y-169675197D01*
X73556930Y-169373882D01*
X73025000Y-169268075D01*
X72493070Y-169373882D01*
X72042122Y-169675197D01*
X71755000Y-170104904D01*
X71467878Y-169675197D01*
X71016930Y-169373882D01*
X70485000Y-169268075D01*
X69953070Y-169373882D01*
X69502122Y-169675197D01*
X69202249Y-170123987D01*
X69180592Y-170050737D01*
X68838076Y-169627319D01*
X68359597Y-169367207D01*
X68286971Y-169352723D01*
X68072000Y-169475317D01*
X67818000Y-169475317D01*
X67603029Y-169352723D01*
X67530403Y-169367207D01*
X67051924Y-169627319D01*
X66709408Y-170050737D01*
X66555000Y-170573000D01*
X58293000Y-170573000D01*
X58293000Y-165920167D01*
X93679838Y-165920167D01*
X93821883Y-166263943D01*
X94084673Y-166527192D01*
X94428201Y-166669838D01*
X94800167Y-166670162D01*
X95143943Y-166528117D01*
X95407192Y-166265327D01*
X95531622Y-165965668D01*
X95698201Y-166034838D01*
X96070167Y-166035162D01*
X96413943Y-165893117D01*
X96677192Y-165630327D01*
X96819838Y-165286799D01*
X96820162Y-164914833D01*
X96678117Y-164571057D01*
X96415327Y-164307808D01*
X96071799Y-164165162D01*
X95699833Y-164164838D01*
X95356057Y-164306883D01*
X95322882Y-164340000D01*
X95250000Y-164340000D01*
X94959161Y-164397852D01*
X94712599Y-164562599D01*
X94475320Y-164799878D01*
X94429833Y-164799838D01*
X94086057Y-164941883D01*
X93822808Y-165204673D01*
X93680162Y-165548201D01*
X93679838Y-165920167D01*
X58293000Y-165920167D01*
X58293000Y-160655000D01*
X80391000Y-160655000D01*
X80440410Y-160644994D01*
X80482035Y-160616553D01*
X80509315Y-160574159D01*
X80518000Y-160528000D01*
X80518000Y-130683000D01*
X80507994Y-130633590D01*
X80479553Y-130591965D01*
X80437159Y-130564685D01*
X80391000Y-130556000D01*
X40057606Y-130556000D01*
X43193606Y-127420000D01*
X46517560Y-127420000D01*
X46517560Y-129120000D01*
X46561838Y-129355317D01*
X46700910Y-129571441D01*
X46913110Y-129716431D01*
X47165000Y-129767440D01*
X49165000Y-129767440D01*
X49400317Y-129723162D01*
X49616441Y-129584090D01*
X49761431Y-129371890D01*
X49812440Y-129120000D01*
X49812440Y-127420000D01*
X50517560Y-127420000D01*
X50517560Y-129120000D01*
X50561838Y-129355317D01*
X50700910Y-129571441D01*
X50913110Y-129716431D01*
X51165000Y-129767440D01*
X53165000Y-129767440D01*
X53400317Y-129723162D01*
X53616441Y-129584090D01*
X53761431Y-129371890D01*
X53812440Y-129120000D01*
X53812440Y-129030000D01*
X95957537Y-129030000D01*
X95989673Y-129062192D01*
X96333201Y-129204838D01*
X96415288Y-129204910D01*
X96205198Y-129415000D01*
X94542463Y-129415000D01*
X94510327Y-129382808D01*
X94166799Y-129240162D01*
X93794833Y-129239838D01*
X93451057Y-129381883D01*
X93187808Y-129644673D01*
X93045162Y-129988201D01*
X93044838Y-130360167D01*
X93186883Y-130703943D01*
X93449673Y-130967192D01*
X93793201Y-131109838D01*
X94165167Y-131110162D01*
X94508943Y-130968117D01*
X94542118Y-130935000D01*
X96520000Y-130935000D01*
X96810839Y-130877148D01*
X97057401Y-130712401D01*
X98739802Y-129030000D01*
X136687560Y-129030000D01*
X136687560Y-129120000D01*
X136731838Y-129355317D01*
X136870910Y-129571441D01*
X137083110Y-129716431D01*
X137335000Y-129767440D01*
X139335000Y-129767440D01*
X139570317Y-129723162D01*
X139786441Y-129584090D01*
X139931431Y-129371890D01*
X139982440Y-129120000D01*
X139982440Y-127420000D01*
X139938162Y-127184683D01*
X139799090Y-126968559D01*
X139586890Y-126823569D01*
X139335000Y-126772560D01*
X137335000Y-126772560D01*
X137099683Y-126816838D01*
X136883559Y-126955910D01*
X136738569Y-127168110D01*
X136687560Y-127420000D01*
X136687560Y-127510000D01*
X98425000Y-127510000D01*
X98134161Y-127567852D01*
X97887599Y-127732599D01*
X97455092Y-128165106D01*
X97455162Y-128084833D01*
X97313117Y-127741057D01*
X97050327Y-127477808D01*
X96706799Y-127335162D01*
X96334833Y-127334838D01*
X95991057Y-127476883D01*
X95957882Y-127510000D01*
X53812440Y-127510000D01*
X53812440Y-127420000D01*
X53768162Y-127184683D01*
X53629090Y-126968559D01*
X53416890Y-126823569D01*
X53165000Y-126772560D01*
X51165000Y-126772560D01*
X50929683Y-126816838D01*
X50713559Y-126955910D01*
X50568569Y-127168110D01*
X50517560Y-127420000D01*
X49812440Y-127420000D01*
X49768162Y-127184683D01*
X49629090Y-126968559D01*
X49472937Y-126861865D01*
X53654802Y-122680000D01*
X57947560Y-122680000D01*
X57947560Y-122770000D01*
X57991838Y-123005317D01*
X58130910Y-123221441D01*
X58343110Y-123366431D01*
X58595000Y-123417440D01*
X60595000Y-123417440D01*
X60830317Y-123373162D01*
X61046441Y-123234090D01*
X61191431Y-123021890D01*
X61242440Y-122770000D01*
X61242440Y-122205750D01*
X61960000Y-122205750D01*
X61960000Y-122896310D01*
X62056673Y-123129699D01*
X62235302Y-123308327D01*
X62468691Y-123405000D01*
X63309250Y-123405000D01*
X63468000Y-123246250D01*
X63468000Y-122047000D01*
X63722000Y-122047000D01*
X63722000Y-123246250D01*
X63880750Y-123405000D01*
X64721309Y-123405000D01*
X64954698Y-123308327D01*
X65133327Y-123129699D01*
X65230000Y-122896310D01*
X65230000Y-122205750D01*
X65071250Y-122047000D01*
X63722000Y-122047000D01*
X63468000Y-122047000D01*
X62118750Y-122047000D01*
X61960000Y-122205750D01*
X61242440Y-122205750D01*
X61242440Y-121951750D01*
X126032000Y-121951750D01*
X126032000Y-122642310D01*
X126128673Y-122875699D01*
X126307302Y-123054327D01*
X126540691Y-123151000D01*
X127381250Y-123151000D01*
X127540000Y-122992250D01*
X127540000Y-121793000D01*
X127794000Y-121793000D01*
X127794000Y-122992250D01*
X127952750Y-123151000D01*
X128793309Y-123151000D01*
X129026698Y-123054327D01*
X129205327Y-122875699D01*
X129302000Y-122642310D01*
X129302000Y-121951750D01*
X129143250Y-121793000D01*
X127794000Y-121793000D01*
X127540000Y-121793000D01*
X126190750Y-121793000D01*
X126032000Y-121951750D01*
X61242440Y-121951750D01*
X61242440Y-121070000D01*
X61218674Y-120943690D01*
X61960000Y-120943690D01*
X61960000Y-121634250D01*
X62118750Y-121793000D01*
X63468000Y-121793000D01*
X63468000Y-120593750D01*
X63722000Y-120593750D01*
X63722000Y-121793000D01*
X65071250Y-121793000D01*
X65230000Y-121634250D01*
X65230000Y-120943690D01*
X65133327Y-120710301D01*
X65112716Y-120689690D01*
X126032000Y-120689690D01*
X126032000Y-121380250D01*
X126190750Y-121539000D01*
X127540000Y-121539000D01*
X127540000Y-120339750D01*
X127794000Y-120339750D01*
X127794000Y-121539000D01*
X129143250Y-121539000D01*
X129302000Y-121380250D01*
X129302000Y-120816000D01*
X130019560Y-120816000D01*
X130019560Y-122516000D01*
X130063838Y-122751317D01*
X130202910Y-122967441D01*
X130415110Y-123112431D01*
X130667000Y-123163440D01*
X132667000Y-123163440D01*
X132902317Y-123119162D01*
X133118441Y-122980090D01*
X133263431Y-122767890D01*
X133314440Y-122516000D01*
X133314440Y-122426000D01*
X138496198Y-122426000D01*
X141575000Y-125504802D01*
X141575000Y-126772560D01*
X141335000Y-126772560D01*
X141099683Y-126816838D01*
X140883559Y-126955910D01*
X140738569Y-127168110D01*
X140687560Y-127420000D01*
X140687560Y-129120000D01*
X140731838Y-129355317D01*
X140870910Y-129571441D01*
X141083110Y-129716431D01*
X141335000Y-129767440D01*
X143335000Y-129767440D01*
X143570317Y-129723162D01*
X143786441Y-129584090D01*
X143931431Y-129371890D01*
X143982440Y-129120000D01*
X143982440Y-127420000D01*
X143938162Y-127184683D01*
X143799090Y-126968559D01*
X143586890Y-126823569D01*
X143335000Y-126772560D01*
X143095000Y-126772560D01*
X143095000Y-125190000D01*
X143037148Y-124899161D01*
X142872401Y-124652599D01*
X139348401Y-121128599D01*
X139101839Y-120963852D01*
X138811000Y-120906000D01*
X133314440Y-120906000D01*
X133314440Y-120816000D01*
X133270162Y-120580683D01*
X133131090Y-120364559D01*
X132918890Y-120219569D01*
X132667000Y-120168560D01*
X130667000Y-120168560D01*
X130431683Y-120212838D01*
X130215559Y-120351910D01*
X130070569Y-120564110D01*
X130019560Y-120816000D01*
X129302000Y-120816000D01*
X129302000Y-120689690D01*
X129205327Y-120456301D01*
X129026698Y-120277673D01*
X128793309Y-120181000D01*
X127952750Y-120181000D01*
X127794000Y-120339750D01*
X127540000Y-120339750D01*
X127381250Y-120181000D01*
X126540691Y-120181000D01*
X126307302Y-120277673D01*
X126128673Y-120456301D01*
X126032000Y-120689690D01*
X65112716Y-120689690D01*
X64954698Y-120531673D01*
X64721309Y-120435000D01*
X63880750Y-120435000D01*
X63722000Y-120593750D01*
X63468000Y-120593750D01*
X63309250Y-120435000D01*
X62468691Y-120435000D01*
X62235302Y-120531673D01*
X62056673Y-120710301D01*
X61960000Y-120943690D01*
X61218674Y-120943690D01*
X61198162Y-120834683D01*
X61059090Y-120618559D01*
X60846890Y-120473569D01*
X60595000Y-120422560D01*
X58595000Y-120422560D01*
X58359683Y-120466838D01*
X58143559Y-120605910D01*
X57998569Y-120818110D01*
X57947560Y-121070000D01*
X57947560Y-121160000D01*
X53340000Y-121160000D01*
X53049160Y-121217852D01*
X52802599Y-121382599D01*
X47627599Y-126557599D01*
X47483967Y-126772560D01*
X47165000Y-126772560D01*
X46929683Y-126816838D01*
X46713559Y-126955910D01*
X46568569Y-127168110D01*
X46517560Y-127420000D01*
X43193606Y-127420000D01*
X56128439Y-114485167D01*
X87964838Y-114485167D01*
X88106883Y-114828943D01*
X88369673Y-115092192D01*
X88713201Y-115234838D01*
X89085167Y-115235162D01*
X89428943Y-115093117D01*
X89692192Y-114830327D01*
X89834838Y-114486799D01*
X89834879Y-114439923D01*
X89849802Y-114425000D01*
X90242537Y-114425000D01*
X90274673Y-114457192D01*
X90618201Y-114599838D01*
X90990167Y-114600162D01*
X91333943Y-114458117D01*
X91597192Y-114195327D01*
X91739838Y-113851799D01*
X91740162Y-113479833D01*
X91598117Y-113136057D01*
X91335327Y-112872808D01*
X90991799Y-112730162D01*
X90619833Y-112729838D01*
X90276057Y-112871883D01*
X90242882Y-112905000D01*
X89535000Y-112905000D01*
X89244161Y-112962852D01*
X88997599Y-113127599D01*
X88760320Y-113364878D01*
X88714833Y-113364838D01*
X88371057Y-113506883D01*
X88107808Y-113769673D01*
X87965162Y-114113201D01*
X87964838Y-114485167D01*
X56128439Y-114485167D01*
X72860803Y-97752803D01*
X72888666Y-97710789D01*
X72897988Y-97661246D01*
X72887300Y-97611978D01*
X72858287Y-97570751D01*
X72815520Y-97544059D01*
X72771000Y-97536000D01*
X41962606Y-97536000D01*
X45098606Y-94400000D01*
X47787560Y-94400000D01*
X47787560Y-96100000D01*
X47831838Y-96335317D01*
X47970910Y-96551441D01*
X48183110Y-96696431D01*
X48435000Y-96747440D01*
X50435000Y-96747440D01*
X50670317Y-96703162D01*
X50886441Y-96564090D01*
X51031431Y-96351890D01*
X51082440Y-96100000D01*
X51082440Y-94400000D01*
X51787560Y-94400000D01*
X51787560Y-96100000D01*
X51831838Y-96335317D01*
X51970910Y-96551441D01*
X52183110Y-96696431D01*
X52435000Y-96747440D01*
X54435000Y-96747440D01*
X54670317Y-96703162D01*
X54886441Y-96564090D01*
X55031431Y-96351890D01*
X55082440Y-96100000D01*
X55082440Y-96010000D01*
X93030198Y-96010000D01*
X93220000Y-96199802D01*
X93220000Y-118817537D01*
X93187808Y-118849673D01*
X93045162Y-119193201D01*
X93044838Y-119565167D01*
X93186883Y-119908943D01*
X93449673Y-120172192D01*
X93793201Y-120314838D01*
X94165167Y-120315162D01*
X94508943Y-120173117D01*
X94772192Y-119910327D01*
X94914838Y-119566799D01*
X94915162Y-119194833D01*
X94773117Y-118851057D01*
X94740000Y-118817882D01*
X94740000Y-112060110D01*
X94800167Y-112060162D01*
X95143943Y-111918117D01*
X95177118Y-111885000D01*
X95322537Y-111885000D01*
X95326583Y-111889052D01*
X95182852Y-112104161D01*
X95125000Y-112395000D01*
X95125000Y-116277537D01*
X95092808Y-116309673D01*
X94950162Y-116653201D01*
X94949838Y-117025167D01*
X95091883Y-117368943D01*
X95354673Y-117632192D01*
X95698201Y-117774838D01*
X96070167Y-117775162D01*
X96413943Y-117633117D01*
X96677192Y-117370327D01*
X96786765Y-117106446D01*
X97048943Y-116998117D01*
X97312192Y-116735327D01*
X97454838Y-116391799D01*
X97455162Y-116019833D01*
X97313117Y-115676057D01*
X97280000Y-115642882D01*
X97280000Y-114227463D01*
X97312192Y-114195327D01*
X97454838Y-113851799D01*
X97455162Y-113479833D01*
X97313117Y-113136057D01*
X97050327Y-112872808D01*
X96706799Y-112730162D01*
X96645000Y-112730108D01*
X96645000Y-112709802D01*
X97692401Y-111662401D01*
X97857148Y-111415840D01*
X97915000Y-111125000D01*
X97915000Y-110490000D01*
X97857148Y-110199161D01*
X97713274Y-109983837D01*
X97947192Y-109750327D01*
X98089838Y-109406799D01*
X98090162Y-109034833D01*
X97948117Y-108691057D01*
X97685327Y-108427808D01*
X97341799Y-108285162D01*
X97294923Y-108285121D01*
X96820122Y-107810320D01*
X96820162Y-107764833D01*
X96678117Y-107421057D01*
X96415327Y-107157808D01*
X96071799Y-107015162D01*
X96010000Y-107015108D01*
X96010000Y-102870000D01*
X95952148Y-102579161D01*
X95787401Y-102332599D01*
X95550122Y-102095320D01*
X95550162Y-102049833D01*
X95408117Y-101706057D01*
X95145327Y-101442808D01*
X94801799Y-101300162D01*
X94740000Y-101300108D01*
X94740000Y-99995110D01*
X94800167Y-99995162D01*
X95143943Y-99853117D01*
X95177118Y-99820000D01*
X96520000Y-99820000D01*
X96810839Y-99762148D01*
X97057401Y-99597401D01*
X97294680Y-99360122D01*
X97340167Y-99360162D01*
X97683943Y-99218117D01*
X97947192Y-98955327D01*
X98089838Y-98611799D01*
X98090162Y-98239833D01*
X97948117Y-97896057D01*
X97685327Y-97632808D01*
X97341799Y-97490162D01*
X96969833Y-97489838D01*
X96626057Y-97631883D01*
X96362808Y-97894673D01*
X96220162Y-98238201D01*
X96220121Y-98285077D01*
X96205198Y-98300000D01*
X95177463Y-98300000D01*
X95145327Y-98267808D01*
X94801799Y-98125162D01*
X94740000Y-98125108D01*
X94740000Y-96645000D01*
X96520000Y-96645000D01*
X96810839Y-96587148D01*
X97057401Y-96422401D01*
X97929680Y-95550122D01*
X97975167Y-95550162D01*
X98318943Y-95408117D01*
X98582192Y-95145327D01*
X98724838Y-94801799D01*
X98725162Y-94429833D01*
X98590944Y-94105000D01*
X98745198Y-94105000D01*
X99792599Y-95152401D01*
X100039160Y-95317148D01*
X100330000Y-95375000D01*
X137322560Y-95375000D01*
X137322560Y-95465000D01*
X137366838Y-95700317D01*
X137505910Y-95916441D01*
X137718110Y-96061431D01*
X137970000Y-96112440D01*
X139970000Y-96112440D01*
X140205317Y-96068162D01*
X140421441Y-95929090D01*
X140566431Y-95716890D01*
X140617440Y-95465000D01*
X140617440Y-93765000D01*
X140573162Y-93529683D01*
X140434090Y-93313559D01*
X140221890Y-93168569D01*
X139970000Y-93117560D01*
X137970000Y-93117560D01*
X137734683Y-93161838D01*
X137518559Y-93300910D01*
X137373569Y-93513110D01*
X137322560Y-93765000D01*
X137322560Y-93855000D01*
X100644802Y-93855000D01*
X99597401Y-92807599D01*
X99350839Y-92642852D01*
X99060000Y-92585000D01*
X98590633Y-92585000D01*
X98724838Y-92261799D01*
X98725162Y-91889833D01*
X98583117Y-91546057D01*
X98320327Y-91282808D01*
X97976799Y-91140162D01*
X97929923Y-91140121D01*
X97280000Y-90490198D01*
X97280000Y-88550750D01*
X125905000Y-88550750D01*
X125905000Y-89241310D01*
X126001673Y-89474699D01*
X126180302Y-89653327D01*
X126413691Y-89750000D01*
X127254250Y-89750000D01*
X127413000Y-89591250D01*
X127413000Y-88392000D01*
X127667000Y-88392000D01*
X127667000Y-89591250D01*
X127825750Y-89750000D01*
X128666309Y-89750000D01*
X128899698Y-89653327D01*
X129078327Y-89474699D01*
X129175000Y-89241310D01*
X129175000Y-88550750D01*
X129016250Y-88392000D01*
X127667000Y-88392000D01*
X127413000Y-88392000D01*
X126063750Y-88392000D01*
X125905000Y-88550750D01*
X97280000Y-88550750D01*
X97280000Y-87288690D01*
X125905000Y-87288690D01*
X125905000Y-87979250D01*
X126063750Y-88138000D01*
X127413000Y-88138000D01*
X127413000Y-86938750D01*
X127667000Y-86938750D01*
X127667000Y-88138000D01*
X129016250Y-88138000D01*
X129175000Y-87979250D01*
X129175000Y-87288690D01*
X129078327Y-87055301D01*
X128899698Y-86876673D01*
X128666309Y-86780000D01*
X127825750Y-86780000D01*
X127667000Y-86938750D01*
X127413000Y-86938750D01*
X127254250Y-86780000D01*
X126413691Y-86780000D01*
X126180302Y-86876673D01*
X126001673Y-87055301D01*
X125905000Y-87288690D01*
X97280000Y-87288690D01*
X97280000Y-66354802D01*
X98104802Y-65530000D01*
X129702560Y-65530000D01*
X129702560Y-65620000D01*
X129746838Y-65855317D01*
X129885910Y-66071441D01*
X130098110Y-66216431D01*
X130350000Y-66267440D01*
X132350000Y-66267440D01*
X132585317Y-66223162D01*
X132801441Y-66084090D01*
X132946431Y-65871890D01*
X132997440Y-65620000D01*
X132997440Y-63920000D01*
X132953162Y-63684683D01*
X132814090Y-63468559D01*
X132601890Y-63323569D01*
X132350000Y-63272560D01*
X130350000Y-63272560D01*
X130114683Y-63316838D01*
X129898559Y-63455910D01*
X129753569Y-63668110D01*
X129702560Y-63920000D01*
X129702560Y-64010000D01*
X95177463Y-64010000D01*
X95145327Y-63977808D01*
X94801799Y-63835162D01*
X94429833Y-63834838D01*
X94086057Y-63976883D01*
X93850948Y-64211583D01*
X93635839Y-64067852D01*
X93345000Y-64010000D01*
X60797440Y-64010000D01*
X60797440Y-63920000D01*
X60753162Y-63684683D01*
X60614090Y-63468559D01*
X60401890Y-63323569D01*
X60150000Y-63272560D01*
X58150000Y-63272560D01*
X57914683Y-63316838D01*
X57698559Y-63455910D01*
X57553569Y-63668110D01*
X57502560Y-63920000D01*
X57502560Y-65620000D01*
X57546838Y-65855317D01*
X57685910Y-66071441D01*
X57898110Y-66216431D01*
X58150000Y-66267440D01*
X60150000Y-66267440D01*
X60385317Y-66223162D01*
X60601441Y-66084090D01*
X60746431Y-65871890D01*
X60797440Y-65620000D01*
X60797440Y-65530000D01*
X93030198Y-65530000D01*
X93220000Y-65719802D01*
X93220000Y-91950000D01*
X91440000Y-91950000D01*
X91149161Y-92007852D01*
X90902599Y-92172599D01*
X90665320Y-92409878D01*
X90619833Y-92409838D01*
X90276057Y-92551883D01*
X90012808Y-92814673D01*
X89870162Y-93158201D01*
X89869838Y-93530167D01*
X90011883Y-93873943D01*
X90274673Y-94137192D01*
X90618201Y-94279838D01*
X90990167Y-94280162D01*
X91333943Y-94138117D01*
X91597192Y-93875327D01*
X91739838Y-93531799D01*
X91739879Y-93484923D01*
X91754802Y-93470000D01*
X93665198Y-93470000D01*
X94077599Y-93882401D01*
X94324161Y-94047148D01*
X94615000Y-94105000D01*
X95957537Y-94105000D01*
X95989673Y-94137192D01*
X96333201Y-94279838D01*
X96705167Y-94280162D01*
X96960430Y-94174690D01*
X96855162Y-94428201D01*
X96855121Y-94475077D01*
X96205198Y-95125000D01*
X94294802Y-95125000D01*
X93882401Y-94712599D01*
X93635839Y-94547852D01*
X93345000Y-94490000D01*
X55082440Y-94490000D01*
X55082440Y-94400000D01*
X55038162Y-94164683D01*
X54899090Y-93948559D01*
X54686890Y-93803569D01*
X54435000Y-93752560D01*
X52435000Y-93752560D01*
X52199683Y-93796838D01*
X51983559Y-93935910D01*
X51838569Y-94148110D01*
X51787560Y-94400000D01*
X51082440Y-94400000D01*
X51038162Y-94164683D01*
X50899090Y-93948559D01*
X50686890Y-93803569D01*
X50435000Y-93752560D01*
X50195000Y-93752560D01*
X50195000Y-93119802D01*
X53654802Y-89660000D01*
X59217560Y-89660000D01*
X59217560Y-89750000D01*
X59261838Y-89985317D01*
X59400910Y-90201441D01*
X59613110Y-90346431D01*
X59865000Y-90397440D01*
X61865000Y-90397440D01*
X62100317Y-90353162D01*
X62316441Y-90214090D01*
X62461431Y-90001890D01*
X62512440Y-89750000D01*
X62512440Y-89185750D01*
X63230000Y-89185750D01*
X63230000Y-89876310D01*
X63326673Y-90109699D01*
X63505302Y-90288327D01*
X63738691Y-90385000D01*
X64579250Y-90385000D01*
X64738000Y-90226250D01*
X64738000Y-89027000D01*
X64992000Y-89027000D01*
X64992000Y-90226250D01*
X65150750Y-90385000D01*
X65991309Y-90385000D01*
X66224698Y-90288327D01*
X66403327Y-90109699D01*
X66500000Y-89876310D01*
X66500000Y-89185750D01*
X66341250Y-89027000D01*
X64992000Y-89027000D01*
X64738000Y-89027000D01*
X63388750Y-89027000D01*
X63230000Y-89185750D01*
X62512440Y-89185750D01*
X62512440Y-88050000D01*
X62488674Y-87923690D01*
X63230000Y-87923690D01*
X63230000Y-88614250D01*
X63388750Y-88773000D01*
X64738000Y-88773000D01*
X64738000Y-87573750D01*
X64992000Y-87573750D01*
X64992000Y-88773000D01*
X66341250Y-88773000D01*
X66500000Y-88614250D01*
X66500000Y-87923690D01*
X66403327Y-87690301D01*
X66224698Y-87511673D01*
X65991309Y-87415000D01*
X65150750Y-87415000D01*
X64992000Y-87573750D01*
X64738000Y-87573750D01*
X64579250Y-87415000D01*
X63738691Y-87415000D01*
X63505302Y-87511673D01*
X63326673Y-87690301D01*
X63230000Y-87923690D01*
X62488674Y-87923690D01*
X62468162Y-87814683D01*
X62329090Y-87598559D01*
X62116890Y-87453569D01*
X61865000Y-87402560D01*
X59865000Y-87402560D01*
X59629683Y-87446838D01*
X59413559Y-87585910D01*
X59268569Y-87798110D01*
X59217560Y-88050000D01*
X59217560Y-88140000D01*
X53340000Y-88140000D01*
X53049161Y-88197852D01*
X52802599Y-88362599D01*
X48897599Y-92267599D01*
X48732852Y-92514161D01*
X48675000Y-92805000D01*
X48675000Y-93752560D01*
X48435000Y-93752560D01*
X48199683Y-93796838D01*
X47983559Y-93935910D01*
X47838569Y-94148110D01*
X47787560Y-94400000D01*
X45098606Y-94400000D01*
X71590803Y-67907803D01*
X71618666Y-67865789D01*
X71627988Y-67816246D01*
X71617300Y-67766978D01*
X71588287Y-67725751D01*
X71545520Y-67699059D01*
X71501000Y-67691000D01*
X48312606Y-67691000D01*
X52083606Y-63920000D01*
X53502560Y-63920000D01*
X53502560Y-65620000D01*
X53546838Y-65855317D01*
X53685910Y-66071441D01*
X53898110Y-66216431D01*
X54150000Y-66267440D01*
X56150000Y-66267440D01*
X56385317Y-66223162D01*
X56601441Y-66084090D01*
X56746431Y-65871890D01*
X56797440Y-65620000D01*
X56797440Y-63920000D01*
X56753162Y-63684683D01*
X56614090Y-63468559D01*
X56401890Y-63323569D01*
X56150000Y-63272560D01*
X55912242Y-63272560D01*
X62163802Y-57021000D01*
X64932560Y-57021000D01*
X64932560Y-57111000D01*
X64976838Y-57346317D01*
X65115910Y-57562441D01*
X65328110Y-57707431D01*
X65580000Y-57758440D01*
X67580000Y-57758440D01*
X67815317Y-57714162D01*
X68031441Y-57575090D01*
X68176431Y-57362890D01*
X68227440Y-57111000D01*
X68227440Y-56546750D01*
X68945000Y-56546750D01*
X68945000Y-57237310D01*
X69041673Y-57470699D01*
X69220302Y-57649327D01*
X69453691Y-57746000D01*
X70294250Y-57746000D01*
X70453000Y-57587250D01*
X70453000Y-56388000D01*
X70707000Y-56388000D01*
X70707000Y-57587250D01*
X70865750Y-57746000D01*
X71706309Y-57746000D01*
X71939698Y-57649327D01*
X72118327Y-57470699D01*
X72215000Y-57237310D01*
X72215000Y-56546750D01*
X72056250Y-56388000D01*
X70707000Y-56388000D01*
X70453000Y-56388000D01*
X69103750Y-56388000D01*
X68945000Y-56546750D01*
X68227440Y-56546750D01*
X68227440Y-55411000D01*
X68203674Y-55284690D01*
X68945000Y-55284690D01*
X68945000Y-55975250D01*
X69103750Y-56134000D01*
X70453000Y-56134000D01*
X70453000Y-54934750D01*
X70707000Y-54934750D01*
X70707000Y-56134000D01*
X72056250Y-56134000D01*
X72215000Y-55975250D01*
X72215000Y-55284690D01*
X72118327Y-55051301D01*
X71939698Y-54872673D01*
X71706309Y-54776000D01*
X70865750Y-54776000D01*
X70707000Y-54934750D01*
X70453000Y-54934750D01*
X70294250Y-54776000D01*
X69453691Y-54776000D01*
X69220302Y-54872673D01*
X69041673Y-55051301D01*
X68945000Y-55284690D01*
X68203674Y-55284690D01*
X68183162Y-55175683D01*
X68044090Y-54959559D01*
X67831890Y-54814569D01*
X67580000Y-54763560D01*
X65580000Y-54763560D01*
X65344683Y-54807838D01*
X65128559Y-54946910D01*
X64983569Y-55159110D01*
X64932560Y-55411000D01*
X64932560Y-55501000D01*
X61849000Y-55501000D01*
X61558161Y-55558852D01*
X61311599Y-55723599D01*
X54612599Y-62422599D01*
X54447852Y-62669161D01*
X54390000Y-62960000D01*
X54390000Y-63272560D01*
X54150000Y-63272560D01*
X53914683Y-63316838D01*
X53698559Y-63455910D01*
X53553569Y-63668110D01*
X53502560Y-63920000D01*
X52083606Y-63920000D01*
X91602560Y-24401046D01*
X91602560Y-24797638D01*
X89632599Y-26767599D01*
X89467852Y-27014161D01*
X89410000Y-27305000D01*
X89410000Y-30480000D01*
X89467852Y-30770839D01*
X89632599Y-31017401D01*
X90902599Y-32287401D01*
X91149160Y-32452148D01*
X91440000Y-32510000D01*
X91602560Y-32510000D01*
X91602560Y-32600000D01*
X91646838Y-32835317D01*
X91785910Y-33051441D01*
X91998110Y-33196431D01*
X92250000Y-33247440D01*
X94250000Y-33247440D01*
X94485317Y-33203162D01*
X94701441Y-33064090D01*
X94846431Y-32851890D01*
X94897440Y-32600000D01*
X94897440Y-32035750D01*
X95615000Y-32035750D01*
X95615000Y-32726310D01*
X95711673Y-32959699D01*
X95890302Y-33138327D01*
X96123691Y-33235000D01*
X96964250Y-33235000D01*
X97123000Y-33076250D01*
X97123000Y-31877000D01*
X97377000Y-31877000D01*
X97377000Y-33076250D01*
X97535750Y-33235000D01*
X98376309Y-33235000D01*
X98609698Y-33138327D01*
X98788327Y-32959699D01*
X98885000Y-32726310D01*
X98885000Y-32035750D01*
X98726250Y-31877000D01*
X97377000Y-31877000D01*
X97123000Y-31877000D01*
X95773750Y-31877000D01*
X95615000Y-32035750D01*
X94897440Y-32035750D01*
X94897440Y-30900000D01*
X94873674Y-30773690D01*
X95615000Y-30773690D01*
X95615000Y-31464250D01*
X95773750Y-31623000D01*
X97123000Y-31623000D01*
X97123000Y-30423750D01*
X97377000Y-30423750D01*
X97377000Y-31623000D01*
X98726250Y-31623000D01*
X98885000Y-31464250D01*
X98885000Y-30773690D01*
X98788327Y-30540301D01*
X98609698Y-30361673D01*
X98376309Y-30265000D01*
X97535750Y-30265000D01*
X97377000Y-30423750D01*
X97123000Y-30423750D01*
X96964250Y-30265000D01*
X96123691Y-30265000D01*
X95890302Y-30361673D01*
X95711673Y-30540301D01*
X95615000Y-30773690D01*
X94873674Y-30773690D01*
X94853162Y-30664683D01*
X94714090Y-30448559D01*
X94501890Y-30303569D01*
X94250000Y-30252560D01*
X92250000Y-30252560D01*
X92014683Y-30296838D01*
X91798559Y-30435910D01*
X91653569Y-30648110D01*
X91613042Y-30848240D01*
X90930000Y-30165198D01*
X90930000Y-27619802D01*
X91973908Y-26575894D01*
X91998110Y-26592431D01*
X92250000Y-26643440D01*
X94250000Y-26643440D01*
X94485317Y-26599162D01*
X94701441Y-26460090D01*
X94846431Y-26247890D01*
X94897440Y-25996000D01*
X94897440Y-24296000D01*
X94853162Y-24060683D01*
X94714090Y-23844559D01*
X94501890Y-23699569D01*
X94250000Y-23648560D01*
X92355046Y-23648560D01*
X95048606Y-20955000D01*
X95515908Y-20955000D01*
X98209468Y-23648560D01*
X98209468Y-23648560D01*
G37*
X98209468Y-23648560D02*
X96250000Y-23648560D01*
X96014683Y-23692838D01*
X95798559Y-23831910D01*
X95653569Y-24044110D01*
X95602560Y-24296000D01*
X95602560Y-25996000D01*
X95646838Y-26231317D01*
X95785910Y-26447441D01*
X95998110Y-26592431D01*
X96250000Y-26643440D01*
X98250000Y-26643440D01*
X98485317Y-26599162D01*
X98524285Y-26574087D01*
X99570000Y-27619802D01*
X99570000Y-32705198D01*
X94712599Y-37562599D01*
X94547852Y-37809161D01*
X94490000Y-38100000D01*
X94490000Y-62302537D01*
X94457808Y-62334673D01*
X94315162Y-62678201D01*
X94314838Y-63050167D01*
X94456883Y-63393943D01*
X94719673Y-63657192D01*
X95063201Y-63799838D01*
X95435167Y-63800162D01*
X95778943Y-63658117D01*
X96042192Y-63395327D01*
X96184838Y-63051799D01*
X96185162Y-62679833D01*
X96043117Y-62336057D01*
X96010000Y-62302882D01*
X96010000Y-56165750D01*
X117650000Y-56165750D01*
X117650000Y-56856310D01*
X117746673Y-57089699D01*
X117925302Y-57268327D01*
X118158691Y-57365000D01*
X118999250Y-57365000D01*
X119158000Y-57206250D01*
X119158000Y-56007000D01*
X119412000Y-56007000D01*
X119412000Y-57206250D01*
X119570750Y-57365000D01*
X120411309Y-57365000D01*
X120644698Y-57268327D01*
X120823327Y-57089699D01*
X120920000Y-56856310D01*
X120920000Y-56165750D01*
X120761250Y-56007000D01*
X119412000Y-56007000D01*
X119158000Y-56007000D01*
X117808750Y-56007000D01*
X117650000Y-56165750D01*
X96010000Y-56165750D01*
X96010000Y-54903690D01*
X117650000Y-54903690D01*
X117650000Y-55594250D01*
X117808750Y-55753000D01*
X119158000Y-55753000D01*
X119158000Y-54553750D01*
X119412000Y-54553750D01*
X119412000Y-55753000D01*
X120761250Y-55753000D01*
X120920000Y-55594250D01*
X120920000Y-55030000D01*
X121637560Y-55030000D01*
X121637560Y-56730000D01*
X121681838Y-56965317D01*
X121820910Y-57181441D01*
X122033110Y-57326431D01*
X122285000Y-57377440D01*
X124285000Y-57377440D01*
X124520317Y-57333162D01*
X124736441Y-57194090D01*
X124881431Y-56981890D01*
X124932440Y-56730000D01*
X124932440Y-56640000D01*
X127955198Y-56640000D01*
X134587758Y-63272560D01*
X134350000Y-63272560D01*
X134114683Y-63316838D01*
X133898559Y-63455910D01*
X133753569Y-63668110D01*
X133702560Y-63920000D01*
X133702560Y-65620000D01*
X133746838Y-65855317D01*
X133885910Y-66071441D01*
X134098110Y-66216431D01*
X134350000Y-66267440D01*
X136350000Y-66267440D01*
X136585317Y-66223162D01*
X136801441Y-66084090D01*
X136946431Y-65871890D01*
X136997440Y-65620000D01*
X136997440Y-63920000D01*
X136953162Y-63684683D01*
X136814090Y-63468559D01*
X136601890Y-63323569D01*
X136350000Y-63272560D01*
X136110000Y-63272560D01*
X136110000Y-62960000D01*
X136052148Y-62669161D01*
X135887401Y-62422599D01*
X128807401Y-55342599D01*
X128560839Y-55177852D01*
X128270000Y-55120000D01*
X124932440Y-55120000D01*
X124932440Y-55030000D01*
X124888162Y-54794683D01*
X124749090Y-54578559D01*
X124536890Y-54433569D01*
X124285000Y-54382560D01*
X122285000Y-54382560D01*
X122049683Y-54426838D01*
X121833559Y-54565910D01*
X121688569Y-54778110D01*
X121637560Y-55030000D01*
X120920000Y-55030000D01*
X120920000Y-54903690D01*
X120823327Y-54670301D01*
X120644698Y-54491673D01*
X120411309Y-54395000D01*
X119570750Y-54395000D01*
X119412000Y-54553750D01*
X119158000Y-54553750D01*
X118999250Y-54395000D01*
X118158691Y-54395000D01*
X117925302Y-54491673D01*
X117746673Y-54670301D01*
X117650000Y-54903690D01*
X96010000Y-54903690D01*
X96010000Y-38414802D01*
X100867401Y-33557401D01*
X101032148Y-33310839D01*
X101090000Y-33020000D01*
X101090000Y-27305000D01*
X101032148Y-27014161D01*
X100867401Y-26767599D01*
X98897440Y-24797638D01*
X98897440Y-24336532D01*
X142251908Y-67691000D01*
X119126000Y-67691000D01*
X119076590Y-67701006D01*
X119034965Y-67729447D01*
X119007685Y-67771841D01*
X118999048Y-67821509D01*
X119010416Y-67870623D01*
X119036197Y-67907803D01*
X120022130Y-68893736D01*
X120147954Y-69082046D01*
X144261631Y-93195723D01*
X144221890Y-93168569D01*
X143970000Y-93117560D01*
X143651034Y-93117560D01*
X143507401Y-92902599D01*
X138332401Y-87727599D01*
X138085839Y-87562852D01*
X137795000Y-87505000D01*
X133187440Y-87505000D01*
X133187440Y-87415000D01*
X133143162Y-87179683D01*
X133004090Y-86963559D01*
X132791890Y-86818569D01*
X132540000Y-86767560D01*
X130540000Y-86767560D01*
X130304683Y-86811838D01*
X130088559Y-86950910D01*
X129943569Y-87163110D01*
X129892560Y-87415000D01*
X129892560Y-89115000D01*
X129936838Y-89350317D01*
X130075910Y-89566441D01*
X130288110Y-89711431D01*
X130540000Y-89762440D01*
X132540000Y-89762440D01*
X132775317Y-89718162D01*
X132991441Y-89579090D01*
X133136431Y-89366890D01*
X133187440Y-89115000D01*
X133187440Y-89025000D01*
X137480198Y-89025000D01*
X141663099Y-93207901D01*
X141518559Y-93300910D01*
X141373569Y-93513110D01*
X141322560Y-93765000D01*
X141322560Y-95465000D01*
X141366838Y-95700317D01*
X141505910Y-95916441D01*
X141718110Y-96061431D01*
X141970000Y-96112440D01*
X143970000Y-96112440D01*
X144205317Y-96068162D01*
X144421441Y-95929090D01*
X144566431Y-95716890D01*
X144617440Y-95465000D01*
X144617440Y-93765000D01*
X144573162Y-93529683D01*
X144532680Y-93466772D01*
X148601908Y-97536000D01*
X117856000Y-97536000D01*
X117806590Y-97546006D01*
X117764965Y-97574447D01*
X117737685Y-97616841D01*
X117729048Y-97666509D01*
X117740416Y-97715623D01*
X117766197Y-97752803D01*
X118752130Y-98738736D01*
X118877954Y-98927046D01*
X150506908Y-130556000D01*
X110236000Y-130556000D01*
X110186590Y-130566006D01*
X110144965Y-130594447D01*
X110117685Y-130636841D01*
X110109000Y-130683000D01*
X110109000Y-160528000D01*
X110119006Y-160577410D01*
X110147447Y-160619035D01*
X110189841Y-160646315D01*
X110236000Y-160655000D01*
X132334000Y-160655000D01*
X132334000Y-181991000D01*
X58293000Y-181991000D01*
X58293000Y-171577000D01*
X66555000Y-171577000D01*
X66555000Y-172327000D01*
X66709408Y-172849263D01*
X67051924Y-173272681D01*
X67530403Y-173532793D01*
X67603029Y-173547277D01*
X67818000Y-173424683D01*
X67818000Y-171577000D01*
X66555000Y-171577000D01*
X58293000Y-171577000D01*
X58293000Y-170573000D01*
X66555000Y-170573000D01*
X66555000Y-171323000D01*
X67818000Y-171323000D01*
X67818000Y-169475317D01*
X68072000Y-169475317D01*
X68072000Y-171323000D01*
X68092000Y-171323000D01*
X68092000Y-171577000D01*
X68072000Y-171577000D01*
X68072000Y-173424683D01*
X68286971Y-173547277D01*
X68359597Y-173532793D01*
X68838076Y-173272681D01*
X69180592Y-172849263D01*
X69202249Y-172776013D01*
X69502122Y-173224803D01*
X69953070Y-173526118D01*
X70485000Y-173631925D01*
X71016930Y-173526118D01*
X71467878Y-173224803D01*
X71755000Y-172795096D01*
X72042122Y-173224803D01*
X72493070Y-173526118D01*
X73025000Y-173631925D01*
X73556930Y-173526118D01*
X73765508Y-173386750D01*
X90294000Y-173386750D01*
X90294000Y-174977310D01*
X90390673Y-175210699D01*
X90569302Y-175389327D01*
X90802691Y-175486000D01*
X92393250Y-175486000D01*
X92552000Y-175327250D01*
X92552000Y-173228000D01*
X92806000Y-173228000D01*
X92806000Y-175327250D01*
X92964750Y-175486000D01*
X93634378Y-175486000D01*
X93477559Y-175586910D01*
X93332569Y-175799110D01*
X93281560Y-176051000D01*
X93281560Y-179551000D01*
X93325838Y-179786317D01*
X93464910Y-180002441D01*
X93677110Y-180147431D01*
X93929000Y-180198440D01*
X97429000Y-180198440D01*
X97664317Y-180154162D01*
X97880441Y-180015090D01*
X98025431Y-179802890D01*
X98076440Y-179551000D01*
X98076440Y-176051000D01*
X98032162Y-175815683D01*
X97893090Y-175599559D01*
X97745097Y-175498440D01*
X100429000Y-175498440D01*
X100664317Y-175454162D01*
X100880441Y-175315090D01*
X101025431Y-175102890D01*
X101076440Y-174851000D01*
X101076440Y-171351000D01*
X101032162Y-171115683D01*
X100893090Y-170899559D01*
X100680890Y-170754569D01*
X100429000Y-170703560D01*
X96929000Y-170703560D01*
X96693683Y-170747838D01*
X96477559Y-170886910D01*
X96332569Y-171099110D01*
X96281560Y-171351000D01*
X96281560Y-174851000D01*
X96325838Y-175086317D01*
X96464910Y-175302441D01*
X96612903Y-175403560D01*
X94754337Y-175403560D01*
X94788698Y-175389327D01*
X94967327Y-175210699D01*
X95064000Y-174977310D01*
X95064000Y-173386750D01*
X94905250Y-173228000D01*
X92806000Y-173228000D01*
X92552000Y-173228000D01*
X90452750Y-173228000D01*
X90294000Y-173386750D01*
X73765508Y-173386750D01*
X74007878Y-173224803D01*
X74309193Y-172773855D01*
X74415000Y-172241925D01*
X74415000Y-171224690D01*
X90294000Y-171224690D01*
X90294000Y-172815250D01*
X90452750Y-172974000D01*
X92552000Y-172974000D01*
X92552000Y-170874750D01*
X92806000Y-170874750D01*
X92806000Y-172974000D01*
X94905250Y-172974000D01*
X95064000Y-172815250D01*
X95064000Y-171224690D01*
X94967327Y-170991301D01*
X94788698Y-170812673D01*
X94555309Y-170716000D01*
X92964750Y-170716000D01*
X92806000Y-170874750D01*
X92552000Y-170874750D01*
X92393250Y-170716000D01*
X90802691Y-170716000D01*
X90569302Y-170812673D01*
X90390673Y-170991301D01*
X90294000Y-171224690D01*
X74415000Y-171224690D01*
X74415000Y-170658075D01*
X74309193Y-170126145D01*
X74007878Y-169675197D01*
X73556930Y-169373882D01*
X73025000Y-169268075D01*
X72493070Y-169373882D01*
X72042122Y-169675197D01*
X71755000Y-170104904D01*
X71467878Y-169675197D01*
X71016930Y-169373882D01*
X70485000Y-169268075D01*
X69953070Y-169373882D01*
X69502122Y-169675197D01*
X69202249Y-170123987D01*
X69180592Y-170050737D01*
X68838076Y-169627319D01*
X68359597Y-169367207D01*
X68286971Y-169352723D01*
X68072000Y-169475317D01*
X67818000Y-169475317D01*
X67603029Y-169352723D01*
X67530403Y-169367207D01*
X67051924Y-169627319D01*
X66709408Y-170050737D01*
X66555000Y-170573000D01*
X58293000Y-170573000D01*
X58293000Y-165920167D01*
X93679838Y-165920167D01*
X93821883Y-166263943D01*
X94084673Y-166527192D01*
X94428201Y-166669838D01*
X94800167Y-166670162D01*
X95143943Y-166528117D01*
X95407192Y-166265327D01*
X95531622Y-165965668D01*
X95698201Y-166034838D01*
X96070167Y-166035162D01*
X96413943Y-165893117D01*
X96677192Y-165630327D01*
X96819838Y-165286799D01*
X96820162Y-164914833D01*
X96678117Y-164571057D01*
X96415327Y-164307808D01*
X96071799Y-164165162D01*
X95699833Y-164164838D01*
X95356057Y-164306883D01*
X95322882Y-164340000D01*
X95250000Y-164340000D01*
X94959161Y-164397852D01*
X94712599Y-164562599D01*
X94475320Y-164799878D01*
X94429833Y-164799838D01*
X94086057Y-164941883D01*
X93822808Y-165204673D01*
X93680162Y-165548201D01*
X93679838Y-165920167D01*
X58293000Y-165920167D01*
X58293000Y-160655000D01*
X80391000Y-160655000D01*
X80440410Y-160644994D01*
X80482035Y-160616553D01*
X80509315Y-160574159D01*
X80518000Y-160528000D01*
X80518000Y-130683000D01*
X80507994Y-130633590D01*
X80479553Y-130591965D01*
X80437159Y-130564685D01*
X80391000Y-130556000D01*
X40057606Y-130556000D01*
X43193606Y-127420000D01*
X46517560Y-127420000D01*
X46517560Y-129120000D01*
X46561838Y-129355317D01*
X46700910Y-129571441D01*
X46913110Y-129716431D01*
X47165000Y-129767440D01*
X49165000Y-129767440D01*
X49400317Y-129723162D01*
X49616441Y-129584090D01*
X49761431Y-129371890D01*
X49812440Y-129120000D01*
X49812440Y-127420000D01*
X50517560Y-127420000D01*
X50517560Y-129120000D01*
X50561838Y-129355317D01*
X50700910Y-129571441D01*
X50913110Y-129716431D01*
X51165000Y-129767440D01*
X53165000Y-129767440D01*
X53400317Y-129723162D01*
X53616441Y-129584090D01*
X53761431Y-129371890D01*
X53812440Y-129120000D01*
X53812440Y-129030000D01*
X95957537Y-129030000D01*
X95989673Y-129062192D01*
X96333201Y-129204838D01*
X96415288Y-129204910D01*
X96205198Y-129415000D01*
X94542463Y-129415000D01*
X94510327Y-129382808D01*
X94166799Y-129240162D01*
X93794833Y-129239838D01*
X93451057Y-129381883D01*
X93187808Y-129644673D01*
X93045162Y-129988201D01*
X93044838Y-130360167D01*
X93186883Y-130703943D01*
X93449673Y-130967192D01*
X93793201Y-131109838D01*
X94165167Y-131110162D01*
X94508943Y-130968117D01*
X94542118Y-130935000D01*
X96520000Y-130935000D01*
X96810839Y-130877148D01*
X97057401Y-130712401D01*
X98739802Y-129030000D01*
X136687560Y-129030000D01*
X136687560Y-129120000D01*
X136731838Y-129355317D01*
X136870910Y-129571441D01*
X137083110Y-129716431D01*
X137335000Y-129767440D01*
X139335000Y-129767440D01*
X139570317Y-129723162D01*
X139786441Y-129584090D01*
X139931431Y-129371890D01*
X139982440Y-129120000D01*
X139982440Y-127420000D01*
X139938162Y-127184683D01*
X139799090Y-126968559D01*
X139586890Y-126823569D01*
X139335000Y-126772560D01*
X137335000Y-126772560D01*
X137099683Y-126816838D01*
X136883559Y-126955910D01*
X136738569Y-127168110D01*
X136687560Y-127420000D01*
X136687560Y-127510000D01*
X98425000Y-127510000D01*
X98134161Y-127567852D01*
X97887599Y-127732599D01*
X97455092Y-128165106D01*
X97455162Y-128084833D01*
X97313117Y-127741057D01*
X97050327Y-127477808D01*
X96706799Y-127335162D01*
X96334833Y-127334838D01*
X95991057Y-127476883D01*
X95957882Y-127510000D01*
X53812440Y-127510000D01*
X53812440Y-127420000D01*
X53768162Y-127184683D01*
X53629090Y-126968559D01*
X53416890Y-126823569D01*
X53165000Y-126772560D01*
X51165000Y-126772560D01*
X50929683Y-126816838D01*
X50713559Y-126955910D01*
X50568569Y-127168110D01*
X50517560Y-127420000D01*
X49812440Y-127420000D01*
X49768162Y-127184683D01*
X49629090Y-126968559D01*
X49472937Y-126861865D01*
X53654802Y-122680000D01*
X57947560Y-122680000D01*
X57947560Y-122770000D01*
X57991838Y-123005317D01*
X58130910Y-123221441D01*
X58343110Y-123366431D01*
X58595000Y-123417440D01*
X60595000Y-123417440D01*
X60830317Y-123373162D01*
X61046441Y-123234090D01*
X61191431Y-123021890D01*
X61242440Y-122770000D01*
X61242440Y-122205750D01*
X61960000Y-122205750D01*
X61960000Y-122896310D01*
X62056673Y-123129699D01*
X62235302Y-123308327D01*
X62468691Y-123405000D01*
X63309250Y-123405000D01*
X63468000Y-123246250D01*
X63468000Y-122047000D01*
X63722000Y-122047000D01*
X63722000Y-123246250D01*
X63880750Y-123405000D01*
X64721309Y-123405000D01*
X64954698Y-123308327D01*
X65133327Y-123129699D01*
X65230000Y-122896310D01*
X65230000Y-122205750D01*
X65071250Y-122047000D01*
X63722000Y-122047000D01*
X63468000Y-122047000D01*
X62118750Y-122047000D01*
X61960000Y-122205750D01*
X61242440Y-122205750D01*
X61242440Y-121951750D01*
X126032000Y-121951750D01*
X126032000Y-122642310D01*
X126128673Y-122875699D01*
X126307302Y-123054327D01*
X126540691Y-123151000D01*
X127381250Y-123151000D01*
X127540000Y-122992250D01*
X127540000Y-121793000D01*
X127794000Y-121793000D01*
X127794000Y-122992250D01*
X127952750Y-123151000D01*
X128793309Y-123151000D01*
X129026698Y-123054327D01*
X129205327Y-122875699D01*
X129302000Y-122642310D01*
X129302000Y-121951750D01*
X129143250Y-121793000D01*
X127794000Y-121793000D01*
X127540000Y-121793000D01*
X126190750Y-121793000D01*
X126032000Y-121951750D01*
X61242440Y-121951750D01*
X61242440Y-121070000D01*
X61218674Y-120943690D01*
X61960000Y-120943690D01*
X61960000Y-121634250D01*
X62118750Y-121793000D01*
X63468000Y-121793000D01*
X63468000Y-120593750D01*
X63722000Y-120593750D01*
X63722000Y-121793000D01*
X65071250Y-121793000D01*
X65230000Y-121634250D01*
X65230000Y-120943690D01*
X65133327Y-120710301D01*
X65112716Y-120689690D01*
X126032000Y-120689690D01*
X126032000Y-121380250D01*
X126190750Y-121539000D01*
X127540000Y-121539000D01*
X127540000Y-120339750D01*
X127794000Y-120339750D01*
X127794000Y-121539000D01*
X129143250Y-121539000D01*
X129302000Y-121380250D01*
X129302000Y-120816000D01*
X130019560Y-120816000D01*
X130019560Y-122516000D01*
X130063838Y-122751317D01*
X130202910Y-122967441D01*
X130415110Y-123112431D01*
X130667000Y-123163440D01*
X132667000Y-123163440D01*
X132902317Y-123119162D01*
X133118441Y-122980090D01*
X133263431Y-122767890D01*
X133314440Y-122516000D01*
X133314440Y-122426000D01*
X138496198Y-122426000D01*
X141575000Y-125504802D01*
X141575000Y-126772560D01*
X141335000Y-126772560D01*
X141099683Y-126816838D01*
X140883559Y-126955910D01*
X140738569Y-127168110D01*
X140687560Y-127420000D01*
X140687560Y-129120000D01*
X140731838Y-129355317D01*
X140870910Y-129571441D01*
X141083110Y-129716431D01*
X141335000Y-129767440D01*
X143335000Y-129767440D01*
X143570317Y-129723162D01*
X143786441Y-129584090D01*
X143931431Y-129371890D01*
X143982440Y-129120000D01*
X143982440Y-127420000D01*
X143938162Y-127184683D01*
X143799090Y-126968559D01*
X143586890Y-126823569D01*
X143335000Y-126772560D01*
X143095000Y-126772560D01*
X143095000Y-125190000D01*
X143037148Y-124899161D01*
X142872401Y-124652599D01*
X139348401Y-121128599D01*
X139101839Y-120963852D01*
X138811000Y-120906000D01*
X133314440Y-120906000D01*
X133314440Y-120816000D01*
X133270162Y-120580683D01*
X133131090Y-120364559D01*
X132918890Y-120219569D01*
X132667000Y-120168560D01*
X130667000Y-120168560D01*
X130431683Y-120212838D01*
X130215559Y-120351910D01*
X130070569Y-120564110D01*
X130019560Y-120816000D01*
X129302000Y-120816000D01*
X129302000Y-120689690D01*
X129205327Y-120456301D01*
X129026698Y-120277673D01*
X128793309Y-120181000D01*
X127952750Y-120181000D01*
X127794000Y-120339750D01*
X127540000Y-120339750D01*
X127381250Y-120181000D01*
X126540691Y-120181000D01*
X126307302Y-120277673D01*
X126128673Y-120456301D01*
X126032000Y-120689690D01*
X65112716Y-120689690D01*
X64954698Y-120531673D01*
X64721309Y-120435000D01*
X63880750Y-120435000D01*
X63722000Y-120593750D01*
X63468000Y-120593750D01*
X63309250Y-120435000D01*
X62468691Y-120435000D01*
X62235302Y-120531673D01*
X62056673Y-120710301D01*
X61960000Y-120943690D01*
X61218674Y-120943690D01*
X61198162Y-120834683D01*
X61059090Y-120618559D01*
X60846890Y-120473569D01*
X60595000Y-120422560D01*
X58595000Y-120422560D01*
X58359683Y-120466838D01*
X58143559Y-120605910D01*
X57998569Y-120818110D01*
X57947560Y-121070000D01*
X57947560Y-121160000D01*
X53340000Y-121160000D01*
X53049160Y-121217852D01*
X52802599Y-121382599D01*
X47627599Y-126557599D01*
X47483967Y-126772560D01*
X47165000Y-126772560D01*
X46929683Y-126816838D01*
X46713559Y-126955910D01*
X46568569Y-127168110D01*
X46517560Y-127420000D01*
X43193606Y-127420000D01*
X56128439Y-114485167D01*
X87964838Y-114485167D01*
X88106883Y-114828943D01*
X88369673Y-115092192D01*
X88713201Y-115234838D01*
X89085167Y-115235162D01*
X89428943Y-115093117D01*
X89692192Y-114830327D01*
X89834838Y-114486799D01*
X89834879Y-114439923D01*
X89849802Y-114425000D01*
X90242537Y-114425000D01*
X90274673Y-114457192D01*
X90618201Y-114599838D01*
X90990167Y-114600162D01*
X91333943Y-114458117D01*
X91597192Y-114195327D01*
X91739838Y-113851799D01*
X91740162Y-113479833D01*
X91598117Y-113136057D01*
X91335327Y-112872808D01*
X90991799Y-112730162D01*
X90619833Y-112729838D01*
X90276057Y-112871883D01*
X90242882Y-112905000D01*
X89535000Y-112905000D01*
X89244161Y-112962852D01*
X88997599Y-113127599D01*
X88760320Y-113364878D01*
X88714833Y-113364838D01*
X88371057Y-113506883D01*
X88107808Y-113769673D01*
X87965162Y-114113201D01*
X87964838Y-114485167D01*
X56128439Y-114485167D01*
X72860803Y-97752803D01*
X72888666Y-97710789D01*
X72897988Y-97661246D01*
X72887300Y-97611978D01*
X72858287Y-97570751D01*
X72815520Y-97544059D01*
X72771000Y-97536000D01*
X41962606Y-97536000D01*
X45098606Y-94400000D01*
X47787560Y-94400000D01*
X47787560Y-96100000D01*
X47831838Y-96335317D01*
X47970910Y-96551441D01*
X48183110Y-96696431D01*
X48435000Y-96747440D01*
X50435000Y-96747440D01*
X50670317Y-96703162D01*
X50886441Y-96564090D01*
X51031431Y-96351890D01*
X51082440Y-96100000D01*
X51082440Y-94400000D01*
X51787560Y-94400000D01*
X51787560Y-96100000D01*
X51831838Y-96335317D01*
X51970910Y-96551441D01*
X52183110Y-96696431D01*
X52435000Y-96747440D01*
X54435000Y-96747440D01*
X54670317Y-96703162D01*
X54886441Y-96564090D01*
X55031431Y-96351890D01*
X55082440Y-96100000D01*
X55082440Y-96010000D01*
X93030198Y-96010000D01*
X93220000Y-96199802D01*
X93220000Y-118817537D01*
X93187808Y-118849673D01*
X93045162Y-119193201D01*
X93044838Y-119565167D01*
X93186883Y-119908943D01*
X93449673Y-120172192D01*
X93793201Y-120314838D01*
X94165167Y-120315162D01*
X94508943Y-120173117D01*
X94772192Y-119910327D01*
X94914838Y-119566799D01*
X94915162Y-119194833D01*
X94773117Y-118851057D01*
X94740000Y-118817882D01*
X94740000Y-112060110D01*
X94800167Y-112060162D01*
X95143943Y-111918117D01*
X95177118Y-111885000D01*
X95322537Y-111885000D01*
X95326583Y-111889052D01*
X95182852Y-112104161D01*
X95125000Y-112395000D01*
X95125000Y-116277537D01*
X95092808Y-116309673D01*
X94950162Y-116653201D01*
X94949838Y-117025167D01*
X95091883Y-117368943D01*
X95354673Y-117632192D01*
X95698201Y-117774838D01*
X96070167Y-117775162D01*
X96413943Y-117633117D01*
X96677192Y-117370327D01*
X96786765Y-117106446D01*
X97048943Y-116998117D01*
X97312192Y-116735327D01*
X97454838Y-116391799D01*
X97455162Y-116019833D01*
X97313117Y-115676057D01*
X97280000Y-115642882D01*
X97280000Y-114227463D01*
X97312192Y-114195327D01*
X97454838Y-113851799D01*
X97455162Y-113479833D01*
X97313117Y-113136057D01*
X97050327Y-112872808D01*
X96706799Y-112730162D01*
X96645000Y-112730108D01*
X96645000Y-112709802D01*
X97692401Y-111662401D01*
X97857148Y-111415840D01*
X97915000Y-111125000D01*
X97915000Y-110490000D01*
X97857148Y-110199161D01*
X97713274Y-109983837D01*
X97947192Y-109750327D01*
X98089838Y-109406799D01*
X98090162Y-109034833D01*
X97948117Y-108691057D01*
X97685327Y-108427808D01*
X97341799Y-108285162D01*
X97294923Y-108285121D01*
X96820122Y-107810320D01*
X96820162Y-107764833D01*
X96678117Y-107421057D01*
X96415327Y-107157808D01*
X96071799Y-107015162D01*
X96010000Y-107015108D01*
X96010000Y-102870000D01*
X95952148Y-102579161D01*
X95787401Y-102332599D01*
X95550122Y-102095320D01*
X95550162Y-102049833D01*
X95408117Y-101706057D01*
X95145327Y-101442808D01*
X94801799Y-101300162D01*
X94740000Y-101300108D01*
X94740000Y-99995110D01*
X94800167Y-99995162D01*
X95143943Y-99853117D01*
X95177118Y-99820000D01*
X96520000Y-99820000D01*
X96810839Y-99762148D01*
X97057401Y-99597401D01*
X97294680Y-99360122D01*
X97340167Y-99360162D01*
X97683943Y-99218117D01*
X97947192Y-98955327D01*
X98089838Y-98611799D01*
X98090162Y-98239833D01*
X97948117Y-97896057D01*
X97685327Y-97632808D01*
X97341799Y-97490162D01*
X96969833Y-97489838D01*
X96626057Y-97631883D01*
X96362808Y-97894673D01*
X96220162Y-98238201D01*
X96220121Y-98285077D01*
X96205198Y-98300000D01*
X95177463Y-98300000D01*
X95145327Y-98267808D01*
X94801799Y-98125162D01*
X94740000Y-98125108D01*
X94740000Y-96645000D01*
X96520000Y-96645000D01*
X96810839Y-96587148D01*
X97057401Y-96422401D01*
X97929680Y-95550122D01*
X97975167Y-95550162D01*
X98318943Y-95408117D01*
X98582192Y-95145327D01*
X98724838Y-94801799D01*
X98725162Y-94429833D01*
X98590944Y-94105000D01*
X98745198Y-94105000D01*
X99792599Y-95152401D01*
X100039160Y-95317148D01*
X100330000Y-95375000D01*
X137322560Y-95375000D01*
X137322560Y-95465000D01*
X137366838Y-95700317D01*
X137505910Y-95916441D01*
X137718110Y-96061431D01*
X137970000Y-96112440D01*
X139970000Y-96112440D01*
X140205317Y-96068162D01*
X140421441Y-95929090D01*
X140566431Y-95716890D01*
X140617440Y-95465000D01*
X140617440Y-93765000D01*
X140573162Y-93529683D01*
X140434090Y-93313559D01*
X140221890Y-93168569D01*
X139970000Y-93117560D01*
X137970000Y-93117560D01*
X137734683Y-93161838D01*
X137518559Y-93300910D01*
X137373569Y-93513110D01*
X137322560Y-93765000D01*
X137322560Y-93855000D01*
X100644802Y-93855000D01*
X99597401Y-92807599D01*
X99350839Y-92642852D01*
X99060000Y-92585000D01*
X98590633Y-92585000D01*
X98724838Y-92261799D01*
X98725162Y-91889833D01*
X98583117Y-91546057D01*
X98320327Y-91282808D01*
X97976799Y-91140162D01*
X97929923Y-91140121D01*
X97280000Y-90490198D01*
X97280000Y-88550750D01*
X125905000Y-88550750D01*
X125905000Y-89241310D01*
X126001673Y-89474699D01*
X126180302Y-89653327D01*
X126413691Y-89750000D01*
X127254250Y-89750000D01*
X127413000Y-89591250D01*
X127413000Y-88392000D01*
X127667000Y-88392000D01*
X127667000Y-89591250D01*
X127825750Y-89750000D01*
X128666309Y-89750000D01*
X128899698Y-89653327D01*
X129078327Y-89474699D01*
X129175000Y-89241310D01*
X129175000Y-88550750D01*
X129016250Y-88392000D01*
X127667000Y-88392000D01*
X127413000Y-88392000D01*
X126063750Y-88392000D01*
X125905000Y-88550750D01*
X97280000Y-88550750D01*
X97280000Y-87288690D01*
X125905000Y-87288690D01*
X125905000Y-87979250D01*
X126063750Y-88138000D01*
X127413000Y-88138000D01*
X127413000Y-86938750D01*
X127667000Y-86938750D01*
X127667000Y-88138000D01*
X129016250Y-88138000D01*
X129175000Y-87979250D01*
X129175000Y-87288690D01*
X129078327Y-87055301D01*
X128899698Y-86876673D01*
X128666309Y-86780000D01*
X127825750Y-86780000D01*
X127667000Y-86938750D01*
X127413000Y-86938750D01*
X127254250Y-86780000D01*
X126413691Y-86780000D01*
X126180302Y-86876673D01*
X126001673Y-87055301D01*
X125905000Y-87288690D01*
X97280000Y-87288690D01*
X97280000Y-66354802D01*
X98104802Y-65530000D01*
X129702560Y-65530000D01*
X129702560Y-65620000D01*
X129746838Y-65855317D01*
X129885910Y-66071441D01*
X130098110Y-66216431D01*
X130350000Y-66267440D01*
X132350000Y-66267440D01*
X132585317Y-66223162D01*
X132801441Y-66084090D01*
X132946431Y-65871890D01*
X132997440Y-65620000D01*
X132997440Y-63920000D01*
X132953162Y-63684683D01*
X132814090Y-63468559D01*
X132601890Y-63323569D01*
X132350000Y-63272560D01*
X130350000Y-63272560D01*
X130114683Y-63316838D01*
X129898559Y-63455910D01*
X129753569Y-63668110D01*
X129702560Y-63920000D01*
X129702560Y-64010000D01*
X95177463Y-64010000D01*
X95145327Y-63977808D01*
X94801799Y-63835162D01*
X94429833Y-63834838D01*
X94086057Y-63976883D01*
X93850948Y-64211583D01*
X93635839Y-64067852D01*
X93345000Y-64010000D01*
X60797440Y-64010000D01*
X60797440Y-63920000D01*
X60753162Y-63684683D01*
X60614090Y-63468559D01*
X60401890Y-63323569D01*
X60150000Y-63272560D01*
X58150000Y-63272560D01*
X57914683Y-63316838D01*
X57698559Y-63455910D01*
X57553569Y-63668110D01*
X57502560Y-63920000D01*
X57502560Y-65620000D01*
X57546838Y-65855317D01*
X57685910Y-66071441D01*
X57898110Y-66216431D01*
X58150000Y-66267440D01*
X60150000Y-66267440D01*
X60385317Y-66223162D01*
X60601441Y-66084090D01*
X60746431Y-65871890D01*
X60797440Y-65620000D01*
X60797440Y-65530000D01*
X93030198Y-65530000D01*
X93220000Y-65719802D01*
X93220000Y-91950000D01*
X91440000Y-91950000D01*
X91149161Y-92007852D01*
X90902599Y-92172599D01*
X90665320Y-92409878D01*
X90619833Y-92409838D01*
X90276057Y-92551883D01*
X90012808Y-92814673D01*
X89870162Y-93158201D01*
X89869838Y-93530167D01*
X90011883Y-93873943D01*
X90274673Y-94137192D01*
X90618201Y-94279838D01*
X90990167Y-94280162D01*
X91333943Y-94138117D01*
X91597192Y-93875327D01*
X91739838Y-93531799D01*
X91739879Y-93484923D01*
X91754802Y-93470000D01*
X93665198Y-93470000D01*
X94077599Y-93882401D01*
X94324161Y-94047148D01*
X94615000Y-94105000D01*
X95957537Y-94105000D01*
X95989673Y-94137192D01*
X96333201Y-94279838D01*
X96705167Y-94280162D01*
X96960430Y-94174690D01*
X96855162Y-94428201D01*
X96855121Y-94475077D01*
X96205198Y-95125000D01*
X94294802Y-95125000D01*
X93882401Y-94712599D01*
X93635839Y-94547852D01*
X93345000Y-94490000D01*
X55082440Y-94490000D01*
X55082440Y-94400000D01*
X55038162Y-94164683D01*
X54899090Y-93948559D01*
X54686890Y-93803569D01*
X54435000Y-93752560D01*
X52435000Y-93752560D01*
X52199683Y-93796838D01*
X51983559Y-93935910D01*
X51838569Y-94148110D01*
X51787560Y-94400000D01*
X51082440Y-94400000D01*
X51038162Y-94164683D01*
X50899090Y-93948559D01*
X50686890Y-93803569D01*
X50435000Y-93752560D01*
X50195000Y-93752560D01*
X50195000Y-93119802D01*
X53654802Y-89660000D01*
X59217560Y-89660000D01*
X59217560Y-89750000D01*
X59261838Y-89985317D01*
X59400910Y-90201441D01*
X59613110Y-90346431D01*
X59865000Y-90397440D01*
X61865000Y-90397440D01*
X62100317Y-90353162D01*
X62316441Y-90214090D01*
X62461431Y-90001890D01*
X62512440Y-89750000D01*
X62512440Y-89185750D01*
X63230000Y-89185750D01*
X63230000Y-89876310D01*
X63326673Y-90109699D01*
X63505302Y-90288327D01*
X63738691Y-90385000D01*
X64579250Y-90385000D01*
X64738000Y-90226250D01*
X64738000Y-89027000D01*
X64992000Y-89027000D01*
X64992000Y-90226250D01*
X65150750Y-90385000D01*
X65991309Y-90385000D01*
X66224698Y-90288327D01*
X66403327Y-90109699D01*
X66500000Y-89876310D01*
X66500000Y-89185750D01*
X66341250Y-89027000D01*
X64992000Y-89027000D01*
X64738000Y-89027000D01*
X63388750Y-89027000D01*
X63230000Y-89185750D01*
X62512440Y-89185750D01*
X62512440Y-88050000D01*
X62488674Y-87923690D01*
X63230000Y-87923690D01*
X63230000Y-88614250D01*
X63388750Y-88773000D01*
X64738000Y-88773000D01*
X64738000Y-87573750D01*
X64992000Y-87573750D01*
X64992000Y-88773000D01*
X66341250Y-88773000D01*
X66500000Y-88614250D01*
X66500000Y-87923690D01*
X66403327Y-87690301D01*
X66224698Y-87511673D01*
X65991309Y-87415000D01*
X65150750Y-87415000D01*
X64992000Y-87573750D01*
X64738000Y-87573750D01*
X64579250Y-87415000D01*
X63738691Y-87415000D01*
X63505302Y-87511673D01*
X63326673Y-87690301D01*
X63230000Y-87923690D01*
X62488674Y-87923690D01*
X62468162Y-87814683D01*
X62329090Y-87598559D01*
X62116890Y-87453569D01*
X61865000Y-87402560D01*
X59865000Y-87402560D01*
X59629683Y-87446838D01*
X59413559Y-87585910D01*
X59268569Y-87798110D01*
X59217560Y-88050000D01*
X59217560Y-88140000D01*
X53340000Y-88140000D01*
X53049161Y-88197852D01*
X52802599Y-88362599D01*
X48897599Y-92267599D01*
X48732852Y-92514161D01*
X48675000Y-92805000D01*
X48675000Y-93752560D01*
X48435000Y-93752560D01*
X48199683Y-93796838D01*
X47983559Y-93935910D01*
X47838569Y-94148110D01*
X47787560Y-94400000D01*
X45098606Y-94400000D01*
X71590803Y-67907803D01*
X71618666Y-67865789D01*
X71627988Y-67816246D01*
X71617300Y-67766978D01*
X71588287Y-67725751D01*
X71545520Y-67699059D01*
X71501000Y-67691000D01*
X48312606Y-67691000D01*
X52083606Y-63920000D01*
X53502560Y-63920000D01*
X53502560Y-65620000D01*
X53546838Y-65855317D01*
X53685910Y-66071441D01*
X53898110Y-66216431D01*
X54150000Y-66267440D01*
X56150000Y-66267440D01*
X56385317Y-66223162D01*
X56601441Y-66084090D01*
X56746431Y-65871890D01*
X56797440Y-65620000D01*
X56797440Y-63920000D01*
X56753162Y-63684683D01*
X56614090Y-63468559D01*
X56401890Y-63323569D01*
X56150000Y-63272560D01*
X55912242Y-63272560D01*
X62163802Y-57021000D01*
X64932560Y-57021000D01*
X64932560Y-57111000D01*
X64976838Y-57346317D01*
X65115910Y-57562441D01*
X65328110Y-57707431D01*
X65580000Y-57758440D01*
X67580000Y-57758440D01*
X67815317Y-57714162D01*
X68031441Y-57575090D01*
X68176431Y-57362890D01*
X68227440Y-57111000D01*
X68227440Y-56546750D01*
X68945000Y-56546750D01*
X68945000Y-57237310D01*
X69041673Y-57470699D01*
X69220302Y-57649327D01*
X69453691Y-57746000D01*
X70294250Y-57746000D01*
X70453000Y-57587250D01*
X70453000Y-56388000D01*
X70707000Y-56388000D01*
X70707000Y-57587250D01*
X70865750Y-57746000D01*
X71706309Y-57746000D01*
X71939698Y-57649327D01*
X72118327Y-57470699D01*
X72215000Y-57237310D01*
X72215000Y-56546750D01*
X72056250Y-56388000D01*
X70707000Y-56388000D01*
X70453000Y-56388000D01*
X69103750Y-56388000D01*
X68945000Y-56546750D01*
X68227440Y-56546750D01*
X68227440Y-55411000D01*
X68203674Y-55284690D01*
X68945000Y-55284690D01*
X68945000Y-55975250D01*
X69103750Y-56134000D01*
X70453000Y-56134000D01*
X70453000Y-54934750D01*
X70707000Y-54934750D01*
X70707000Y-56134000D01*
X72056250Y-56134000D01*
X72215000Y-55975250D01*
X72215000Y-55284690D01*
X72118327Y-55051301D01*
X71939698Y-54872673D01*
X71706309Y-54776000D01*
X70865750Y-54776000D01*
X70707000Y-54934750D01*
X70453000Y-54934750D01*
X70294250Y-54776000D01*
X69453691Y-54776000D01*
X69220302Y-54872673D01*
X69041673Y-55051301D01*
X68945000Y-55284690D01*
X68203674Y-55284690D01*
X68183162Y-55175683D01*
X68044090Y-54959559D01*
X67831890Y-54814569D01*
X67580000Y-54763560D01*
X65580000Y-54763560D01*
X65344683Y-54807838D01*
X65128559Y-54946910D01*
X64983569Y-55159110D01*
X64932560Y-55411000D01*
X64932560Y-55501000D01*
X61849000Y-55501000D01*
X61558161Y-55558852D01*
X61311599Y-55723599D01*
X54612599Y-62422599D01*
X54447852Y-62669161D01*
X54390000Y-62960000D01*
X54390000Y-63272560D01*
X54150000Y-63272560D01*
X53914683Y-63316838D01*
X53698559Y-63455910D01*
X53553569Y-63668110D01*
X53502560Y-63920000D01*
X52083606Y-63920000D01*
X91602560Y-24401046D01*
X91602560Y-24797638D01*
X89632599Y-26767599D01*
X89467852Y-27014161D01*
X89410000Y-27305000D01*
X89410000Y-30480000D01*
X89467852Y-30770839D01*
X89632599Y-31017401D01*
X90902599Y-32287401D01*
X91149160Y-32452148D01*
X91440000Y-32510000D01*
X91602560Y-32510000D01*
X91602560Y-32600000D01*
X91646838Y-32835317D01*
X91785910Y-33051441D01*
X91998110Y-33196431D01*
X92250000Y-33247440D01*
X94250000Y-33247440D01*
X94485317Y-33203162D01*
X94701441Y-33064090D01*
X94846431Y-32851890D01*
X94897440Y-32600000D01*
X94897440Y-32035750D01*
X95615000Y-32035750D01*
X95615000Y-32726310D01*
X95711673Y-32959699D01*
X95890302Y-33138327D01*
X96123691Y-33235000D01*
X96964250Y-33235000D01*
X97123000Y-33076250D01*
X97123000Y-31877000D01*
X97377000Y-31877000D01*
X97377000Y-33076250D01*
X97535750Y-33235000D01*
X98376309Y-33235000D01*
X98609698Y-33138327D01*
X98788327Y-32959699D01*
X98885000Y-32726310D01*
X98885000Y-32035750D01*
X98726250Y-31877000D01*
X97377000Y-31877000D01*
X97123000Y-31877000D01*
X95773750Y-31877000D01*
X95615000Y-32035750D01*
X94897440Y-32035750D01*
X94897440Y-30900000D01*
X94873674Y-30773690D01*
X95615000Y-30773690D01*
X95615000Y-31464250D01*
X95773750Y-31623000D01*
X97123000Y-31623000D01*
X97123000Y-30423750D01*
X97377000Y-30423750D01*
X97377000Y-31623000D01*
X98726250Y-31623000D01*
X98885000Y-31464250D01*
X98885000Y-30773690D01*
X98788327Y-30540301D01*
X98609698Y-30361673D01*
X98376309Y-30265000D01*
X97535750Y-30265000D01*
X97377000Y-30423750D01*
X97123000Y-30423750D01*
X96964250Y-30265000D01*
X96123691Y-30265000D01*
X95890302Y-30361673D01*
X95711673Y-30540301D01*
X95615000Y-30773690D01*
X94873674Y-30773690D01*
X94853162Y-30664683D01*
X94714090Y-30448559D01*
X94501890Y-30303569D01*
X94250000Y-30252560D01*
X92250000Y-30252560D01*
X92014683Y-30296838D01*
X91798559Y-30435910D01*
X91653569Y-30648110D01*
X91613042Y-30848240D01*
X90930000Y-30165198D01*
X90930000Y-27619802D01*
X91973908Y-26575894D01*
X91998110Y-26592431D01*
X92250000Y-26643440D01*
X94250000Y-26643440D01*
X94485317Y-26599162D01*
X94701441Y-26460090D01*
X94846431Y-26247890D01*
X94897440Y-25996000D01*
X94897440Y-24296000D01*
X94853162Y-24060683D01*
X94714090Y-23844559D01*
X94501890Y-23699569D01*
X94250000Y-23648560D01*
X92355046Y-23648560D01*
X95048606Y-20955000D01*
X95515908Y-20955000D01*
X98209468Y-23648560D01*
M02*
